<?xml version="1.0" standalone="no"?>
<!DOCTYPE svg PUBLIC "-//W3C//DTD SVG 1.1//EN" "http://www.w3.org/Graphics/SVG/1.1/DTD/svg11.dtd" >
<svg xmlns="http://www.w3.org/2000/svg">
<metadata>
Created by FontPrep 20130207 at Mon Jul 28 12:08:03 2014
 By Cem Sever
Copyright (c) 2007 by Optimo, Switzerland. All rights reserved.
</metadata>
<defs>
<font id="c5224bc022ad18a670104db47521f6b2" horiz-adv-x='1024' >
  <font-face 
    font-family="Executive-35Thin"
    font-weight="100"
    font-stretch="normal"
    units-per-em="2048"
    panose-1="2 11 4 3 2 2 2 2 2 4"
    ascent="1454"
    descent="-594"
    x-height="1004"
    cap-height="1454"
    bbox="-330 -483 2228 1968"
    underline-thickness="98"
    underline-position="-209"
    unicode-range="U+000D-FB04"
  />
<missing-glyph horiz-adv-x="1226" 
d="M877 786h-527v-542h527v542zM1024 111h-821v809h821v-809z" />
    <glyph glyph-name="IJ" unicode="IJ" horiz-adv-x="1609" 
d="M1288 438v1016h109v-1003q0 -188 -60 -299q-96 -178 -327 -179q-168 -1 -264 99t-95 268q0 35 4 63l109 11q-4 -31 -4 -54q0 -147 61 -220t197 -72q270 0 270 370zM236 0v1454h108v-1454h-108z" />
    <glyph glyph-name="ij" unicode="ij" horiz-adv-x="950" 
d="M768 1229h-106v205h106v-205zM764 1004v-1104q0 -113 -5 -155t-30 -79q-59 -92 -181 -92t-194 43l35 76q59 -31 134 -31t103 29t34 72t6 141v1100h98zM287 1229h-107v205h107v-205zM283 0h-99v1004h99v-1004z" />
    <glyph glyph-name="uniFB00" unicode="ff" horiz-adv-x="1351" 
d="M977 0h-98v922h-494v-922h-98v922h-219v82h219v149q0 188 61 254q72 74 176 74t185 -43l-31 -72q-66 29 -131 29q-98 0 -135 -66q-27 -49 -27 -180v-145h494v149q0 188 61 254q72 74 184 74t201 -47l-31 -74q-76 33 -141 33q-113 0 -149 -64q-27 -49 -27 -180v-145h293
v-82h-293v-922z" />
    <glyph glyph-name="fi" unicode="fi" horiz-adv-x="1161" 
d="M977 0h-98v922h-494v-922h-98v922h-219v82h219v149q0 188 61 254q72 74 176 74t185 -43l-31 -72q-66 29 -131 29q-98 0 -135 -66q-27 -49 -27 -180v-145h592v-1004zM981 1229h-107v205h107v-205z" />
    <glyph glyph-name="fl" unicode="fl" horiz-adv-x="1189" 
d="M879 0v1362q-43 4 -139 18t-162 15q-123 0 -164 -72q-29 -53 -29 -174v-145h317v-82h-317v-922h-98v922h-219v82h219v149q-1 180 69 254t209 74q84 -1 199 -19t213 -26v-1436h-98z" />
    <glyph glyph-name="uniFB03" unicode="ffi" horiz-adv-x="1753" 
d="M1573 1229h-107v205h107v-205zM561 1393q-113 0 -149 -64q-27 -49 -27 -180v-145h494v149q0 188 61 254q72 74 193 74q84 0 167 -43l-30 -72q-66 29 -131 29q-98 0 -135 -66q-27 -49 -27 -180v-145h592v-1004h-99v922h-493v-922h-98v922h-494v-922h-98v922h-219v82h219
v149q0 188 61 254q72 74 184 74t201 -47l-31 -74q-76 33 -141 33z" />
    <glyph glyph-name="uniFB04" unicode="ffl" horiz-adv-x="1781" 
d="M1470 0v1362q-43 4 -139 18t-162 15q-123 0 -163 -72q-29 -53 -29 -174v-145h293v-82h-293v-922h-98v922h-494v-922h-98v922h-219v82h219v149q0 188 61 254q72 74 176 74t185 -43l-31 -72q-66 29 -131 29q-98 0 -135 -66q-27 -49 -27 -180v-145h494v149q-1 180 69 254
t209 74q84 -1 199 -19t213 -26v-1436h-99z" />
    <glyph glyph-name=".notdef" horiz-adv-x="1226" 
d="M877 786h-527v-542h527v542zM1024 111h-821v809h821v-809z" />
    <glyph glyph-name=".null" horiz-adv-x="0" 
 />
    <glyph glyph-name=".null" horiz-adv-x="0" 
 />
    <glyph glyph-name="nonmarkingreturn" horiz-adv-x="681" 
 />
    <glyph glyph-name="CR" unicode="&#xd;" horiz-adv-x="1024" 
 />
    <glyph glyph-name="space" unicode=" " horiz-adv-x="614" 
 />
    <glyph glyph-name="exclam" unicode="!" horiz-adv-x="720" 
d="M440 0h-159v184h159v-184zM422 1454l-19 -1141h-86q-12 389 -18 1141h123z" />
    <glyph glyph-name="quotedbl" unicode="&#x22;" horiz-adv-x="1034" 
d="M582 1454h135v-188l-37 -355h-62l-36 355v188zM315 1454h136v-188l-37 -355h-62l-37 355v188z" />
    <glyph glyph-name="numbersign" unicode="#" horiz-adv-x="1196" 
d="M758 915h-254l-72 -376h256zM1147 1004v-89h-293l-70 -376h279v-88h-295l-84 -451h-96l84 451h-254l-86 -451h-96l83 451h-270v88h287l72 376h-273v89h287l84 450h96l-84 -450h254l86 450h96l-86 -450h279z" />
    <glyph glyph-name="dollar" unicode="$" horiz-adv-x="1157" 
d="M524 868l49 -22v538q-109 -8 -175 -74t-64 -173q0 -183 190 -269zM926 339q0 113 -40 184t-157 128l-74 37v-618q127 8 199 82t72 187zM655 -215h-82v188q-397 16 -411 453l108 20q10 -188 75 -277t228 -99v657l-67 33q-158 76 -219 166t-61 223t98 226t249 104v184h82
v-184q191 -12 271 -123t84 -262l-101 -17q-8 285 -254 307v-579l115 -53q142 -66 204 -162t62 -245t-98 -254t-283 -118v-188z" />
    <glyph glyph-name="percent" unicode="%" horiz-adv-x="1896" 
d="M1421 1454l-895 -1517l-65 36l895 1518zM694 1079q0 309 -176 310q-84 0 -133 -77t-49 -233q0 -155 49 -231t132 -76t130 76t47 231zM782 1073q0 -178 -70 -277q-70 -100 -194 -100q-122 0 -196 100t-74 284t74 284t194 100t194 -106q72 -107 72 -285zM1561 373
q0 309 -177 309q-84 0 -133 -77t-49 -233t49 -231t132 -75t131 76t47 231zM1649 367q0 -177 -71 -277t-194 -100q-122 0 -196 100t-74 284t74 283q74 101 194 101t194 -106q73 -106 73 -285z" />
    <glyph glyph-name="ampersand" unicode="&#x26;" horiz-adv-x="1236" 
d="M436 1197q0 -83 78 -196l55 -86q117 82 164 147q47 64 47 146t-42 131t-121 49t-130 -54t-51 -137zM541 70q219 0 319 200l-323 508q-125 -96 -187 -193t-61 -230q0 -133 70 -210q71 -75 182 -75zM535 -23q-154 -1 -254 101t-101 276q0 274 305 504l-63 96
q-92 139 -92 249t77 193t205 83t201 -71q72 -70 72 -182q1 -112 -55 -196t-209 -194l282 -441q18 66 19 144q0 78 -13 151h103q12 -74 12 -137q0 -135 -49 -266l184 -287h-125l-112 174q-133 -197 -387 -197z" />
    <glyph glyph-name="quotesingle" unicode="'" horiz-adv-x="739" 
d="M301 1454h135v-188l-37 -355h-61l-37 355v188z" />
    <glyph glyph-name="parenleft" unicode="(" horiz-adv-x="675" 
d="M197 530q0 506 352 971l65 -47q-168 -244 -242 -458t-73 -466q-1 -252 73 -466t242 -459l-65 -47q-352 466 -352 972z" />
    <glyph glyph-name="parenright" unicode=")" horiz-adv-x="675" 
d="M377 530q0 252 -74 466t-242 458l66 47q352 -465 352 -971t-352 -972l-66 47q168 245 242 459t74 466z" />
    <glyph glyph-name="asterisk" unicode="*" horiz-adv-x="909" 
d="M498 1200v-176h-86v174l6 131q-66 -43 -113 -69l-149 -89l-43 74l151 88l115 60q-66 33 -115 61l-151 88l43 74l153 -88l109 -70q-6 80 -6 127v178h86v-178l-4 -127q53 39 104 68l156 90l43 -74l-154 -88l-113 -61q68 -31 113 -58l154 -90l-43 -74l-152 89l-108 67
q4 -80 4 -127z" />
    <glyph glyph-name="plus" unicode="+" 
d="M1167 483h-444v-438h-82v438h-444v82h444v439h82v-439h444v-82z" />
    <glyph glyph-name="comma" unicode="," horiz-adv-x="735" 
d="M449 195v-134q0 -147 -28 -220t-89 -134l-41 39q86 86 86 240v14h-92v195h164z" />
    <glyph glyph-name="hyphen" unicode="-" horiz-adv-x="911" 
d="M731 541h-551v90h551v-90z" />
    <glyph glyph-name="period" unicode="." horiz-adv-x="735" 
d="M449 0h-164v195h164v-195z" />
    <glyph glyph-name="slash" unicode="/" horiz-adv-x="860" 
d="M805 1481l-643 -1508h-94l643 1508h94z" />
    <glyph glyph-name="zero" unicode="0" horiz-adv-x="1157" 
d="M119 711q0 342 115 532q116 191 342 191t344 -196q116 -196 116 -532t-116 -533q-116 -196 -342 -196q-225 0 -342 196t-117 538zM227 707q0 -303 90 -470q91 -167 261 -167t260 167t90 470t-90 469t-260 166t-261 -166q-90 -166 -90 -469z" />
    <glyph glyph-name="one" unicode="1" horiz-adv-x="1157" 
d="M168 0v92h412v1172q-47 -51 -170 -160t-220 -182l-59 75q244 188 459 414h94v-1319h356v-92h-872z" />
    <glyph glyph-name="two" unicode="2" horiz-adv-x="1157" 
d="M981 0h-774v96q246 211 471 482q106 129 152 231t46 236q0 133 -66 215q-67 82 -205 82t-215 -85q-77 -84 -77 -233l-108 12q4 176 106 287t291 111q225 0 326 -162q57 -92 57 -238t-62 -271q-63 -125 -193 -279t-394 -394q135 2 274 2h371v-92z" />
    <glyph glyph-name="three" unicode="3" horiz-adv-x="1157" 
d="M1008 420q0 -211 -118 -327t-318 -116t-310 119t-110 281l110 16q2 -139 80 -231t234 -92t239 87q84 87 84 249q0 338 -381 337h-80v88h80q156 0 248 68t92 194t-75 187t-203 61q-128 -1 -202 -69q-75 -68 -79 -180l-109 14q6 141 112 234q106 94 282 94t278 -89
t102 -235t-79 -222q-80 -75 -183 -93v-4q97 -12 191 -84q51 -39 83 -114t32 -173z" />
    <glyph glyph-name="four" unicode="4" horiz-adv-x="1157" 
d="M729 438v779l-457 -779h457zM1049 346h-215v-346h-105v346h-561v105l567 960h99v-973h215v-92z" />
    <glyph glyph-name="five" unicode="5" horiz-adv-x="1157" 
d="M1026 466q0 -222 -122 -355t-314 -133t-301 102t-139 268l108 17q47 -295 332 -295q145 0 236 104q92 104 92 290t-90 280q-90 95 -242 96q-102 0 -186 -50t-130 -139h-75l38 760h707v-92h-616l-31 -512q115 125 306 125t309 -122t118 -344z" />
    <glyph glyph-name="six" unicode="6" horiz-adv-x="1157" 
d="M928 435q0 175 -82 273t-228 97q-146 0 -243 -99q-96 -99 -96 -259t87 -269q87 -108 232 -108t238 95q92 95 92 270zM1036 438q0 -209 -121 -335t-317 -126q-250 0 -365 222q-84 162 -83 438q0 379 138 588t345 209q174 0 262 -98t100 -249l-108 -12q-23 266 -260 266
q-160 0 -260 -178q-106 -184 -109 -491q111 225 363 225q195 0 305 -125t110 -334z" />
    <glyph glyph-name="seven" unicode="7" horiz-adv-x="1157" 
d="M1014 1411v-84q-444 -608 -473 -1327h-107q24 392 140 706t333 613h-710v92h817z" />
    <glyph glyph-name="eight" unicode="8" horiz-adv-x="1157" 
d="M580 811q130 -1 204 75t74 192t-77 190t-201 74t-202 -74q-77 -74 -77 -190t74 -192t205 -75zM250 392q0 -138 91 -230t239 -92t238 92q91 92 91 230t-90 232q-89 94 -239 95q-150 0 -240 -94t-90 -233zM1018 395q0 -182 -123 -300t-315 -118t-316 118q-123 118 -123 300
q0 143 87 247t198 126v4q-104 31 -168 113q-63 82 -63 216t109 233q110 100 276 100t276 -100t109 -233q1 -134 -61 -216t-167 -113v-4q111 -20 196 -125t85 -248z" />
    <glyph glyph-name="nine" unicode="9" horiz-adv-x="1157" 
d="M229 994q0 -154 87 -256q86 -102 236 -101q150 0 236 97t86 257t-81 255q-82 95 -233 95t-241 -97q-90 -96 -90 -250zM1001 780q0 -801 -452 -803q-181 1 -279 101t-98 254l109 20q1 -137 69 -210t203 -72q340 0 340 678q-43 -90 -131 -146t-217 -57q-188 1 -306 125
t-118 320t120 320q119 124 329 124t327 -156q104 -143 104 -498z" />
    <glyph glyph-name="colon" unicode=":" horiz-adv-x="735" 
d="M449 0h-164v195h164v-195zM449 809h-164v195h164v-195z" />
    <glyph glyph-name="semicolon" unicode=";" horiz-adv-x="735" 
d="M449 195v-134q0 -147 -28 -220t-89 -134l-41 39q86 86 86 240v14h-92v195h164zM449 809h-164v195h164v-195z" />
    <glyph glyph-name="less" unicode="&#x3c;" 
d="M1169 66l-39 -74l-935 475v74l935 475l39 -74l-704 -350q-147 -72 -191 -86v-4q55 -18 191 -86z" />
    <glyph glyph-name="equal" unicode="=" 
d="M1167 322h-970v81h970v-81zM1167 649h-970v82h970v-82z" />
    <glyph glyph-name="greater" unicode="&#x3e;" 
d="M233 -8l-38 74l704 350q135 68 191 86v4q-43 14 -191 86l-704 350l38 74l936 -475v-74z" />
    <glyph glyph-name="question" unicode="?" horiz-adv-x="1081" 
d="M604 0h-164v195h164v-195zM551 1481q166 1 265 -101t99 -269t-101 -261t-239 -115v-422h-106v492q170 12 254 91t84 208t-67 207q-66 78 -186 78t-193 -67t-80 -185l-109 12q10 147 112 239t267 93z" />
    <glyph glyph-name="at" unicode="@" horiz-adv-x="1634" 
d="M977 739q0 188 -121 189q-66 0 -117 -46q-84 -76 -121 -251q-14 -68 -14 -123q0 -254 135 -254q63 0 112 55q82 94 114 295q12 76 12 135zM852 -215q-290 0 -486 196t-196 527q0 412 209 658t539 247q274 0 422 -191q148 -190 148 -456t-112 -436q-113 -170 -278 -170
q-66 0 -107 40t-51 105h-4q-29 -57 -83 -101t-130 -44q-113 0 -171 98t-58 228t38 250q38 118 123 204q84 86 195 86q55 0 99 -33t63 -90h4l37 101h104q-43 -106 -74 -293l-41 -252q-10 -57 -10 -117q0 -94 78 -94q115 0 202 147t87 374t-124 393t-357 167q-298 0 -478 -229
t-180 -592q0 -283 172 -463t430 -180q139 0 267 50t200 132l51 -61q-84 -96 -222 -148t-306 -53z" />
    <glyph glyph-name="A" unicode="A" horiz-adv-x="1087" 
d="M774 451l-151 544q-49 166 -78 308h-4q-29 -141 -78 -308l-156 -544h467zM1020 0h-117l-102 358h-518l-103 -358h-112l432 1454h94z" />
    <glyph glyph-name="B" unicode="B" horiz-adv-x="1222" 
d="M340 815h264q147 0 227 72t80 204q-1 133 -77 201t-213 68h-281v-545zM942 416q0 160 -89 232t-230 73h-283v-627h260q160 0 251 81t91 241zM1055 425q0 -157 -72 -258q-119 -167 -377 -167h-375v1454h396q228 0 332 -141q62 -84 63 -205q0 -255 -244 -332v-4
q106 -23 192 -106q85 -84 85 -241z" />
    <glyph glyph-name="C" unicode="C" horiz-adv-x="1177" 
d="M629 -27q-225 0 -355 205q-129 205 -129 549q-1 344 133 549t355 205q185 0 287 -113t120 -291l-106 -20q-37 330 -303 329q-162 0 -267 -174q-106 -174 -106 -488t102 -485t271 -171q282 -1 315 368l109 -14q-19 -203 -125 -326t-301 -123z" />
    <glyph glyph-name="D" unicode="D" horiz-adv-x="1265" 
d="M598 1360h-258v-1266h256q216 0 314 174t98 451t-89 451q-46 90 -128 140t-193 50zM1120 729q0 -248 -80 -433q-128 -296 -456 -296h-353v1454h363q111 0 197 -35q173 -70 251 -256t78 -434z" />
    <glyph glyph-name="E" unicode="E" horiz-adv-x="1097" 
d="M991 0h-760v1454h760v-94h-651v-563h520v-95h-520v-608h651v-94z" />
    <glyph glyph-name="F" unicode="F" horiz-adv-x="1052" 
d="M991 1360h-651v-563h520v-95h-520v-702h-109v1454h760v-94z" />
    <glyph glyph-name="G" unicode="G" horiz-adv-x="1267" 
d="M1055 0h-76q-16 137 -16 203h-5q-34 -100 -120 -165t-213 -65q-221 0 -351 207q-129 207 -129 543q-1 336 135 547t365 211q193 0 291 -110t113 -269l-105 -21q-31 305 -301 305q-165 0 -275 -176t-110 -486t106 -483t275 -173q145 0 229 120t84 347v141h-325v96h428
v-772z" />
    <glyph glyph-name="H" unicode="H" horiz-adv-x="1269" 
d="M1038 0h-108v702h-590v-702h-109v1454h109v-657h590v657h108v-1454z" />
    <glyph glyph-name="I" unicode="I" horiz-adv-x="579" 
d="M236 0v1454h108v-1454h-108z" />
    <glyph glyph-name="J" unicode="J" horiz-adv-x="1058" 
d="M737 438v1016h109v-1003q0 -188 -60 -299q-96 -178 -327 -179q-168 -1 -263 99t-96 268q0 35 4 63l109 11q-4 -31 -4 -54q0 -147 61 -220t197 -72q270 0 270 370z" />
    <glyph glyph-name="K" unicode="K" horiz-adv-x="1155" 
d="M340 0h-109v1454h109v-782l598 782h133l-473 -612l502 -842h-131l-434 760l-195 -248v-512z" />
    <glyph glyph-name="L" unicode="L" horiz-adv-x="1026" 
d="M971 0h-740v1454h109v-1360h631v-94z" />
    <glyph glyph-name="M" unicode="M" horiz-adv-x="1521" 
d="M1290 0h-100v1053q0 131 6 295h-4q-39 -166 -72 -277l-313 -1071h-92l-312 1069q-47 162 -73 279h-4q4 -109 4 -295v-1053h-99v1454h166l310 -1081q18 -63 53 -236h4q25 135 55 242l309 1075h162v-1454z" />
    <glyph glyph-name="N" unicode="N" horiz-adv-x="1308" 
d="M231 1454h150l498 -1092q70 -158 92 -212h4q-6 135 -6 241v1063h108v-1454h-147l-500 1096q-68 152 -90 209h-4q4 -92 4 -238v-1067h-109v1454z" />
    <glyph glyph-name="O" unicode="O" horiz-adv-x="1253" 
d="M995 727q0 322 -98 491q-98 168 -270 168t-271 -168q-98 -169 -98 -491q0 -323 98 -491t270 -168t271 168q98 168 98 491zM1108 727q0 -346 -125 -550t-356 -204t-357 204q-125 204 -125 550t125 550q124 204 356 204t357 -204t125 -550z" />
    <glyph glyph-name="P" unicode="P" horiz-adv-x="1222" 
d="M997 1053q0 143 -83 225t-242 82h-332v-608h313q344 0 344 301zM686 1454q184 0 304 -104t120 -294q0 -192 -113 -295t-327 -104h-330v-657h-109v1454h455z" />
    <glyph glyph-name="Q" unicode="Q" horiz-adv-x="1253" 
d="M993 727q0 322 -97 491q-97 168 -269 168t-270 -168q-97 -169 -97 -491q0 -323 97 -491t269 -168t270 168q97 168 97 491zM1106 732q0 -342 -114 -538t-314 -217v-65q0 -57 19 -82t69 -25t119 31l24 -69q-90 -43 -169 -43q-78 0 -116 42t-42 130l-7 81q-199 19 -313 217
t-115 538q0 340 124 545q123 204 355 204t356 -204t124 -545z" />
    <glyph glyph-name="R" unicode="R" horiz-adv-x="1241" 
d="M987 1067q0 137 -82 215t-235 78h-330v-596h319q328 0 328 303zM1100 1077q0 -318 -283 -389l289 -688h-121l-272 670h-373v-670h-109v1454h449q160 0 260 -68q160 -108 160 -309z" />
    <glyph glyph-name="S" unicode="S" horiz-adv-x="1198" 
d="M1055 365q0 -183 -115 -287t-337 -104t-339 117q-117 118 -121 333l111 22q4 -188 88 -283t258 -95t258 76t84 214q0 186 -223 293l-250 119q-152 72 -215 158t-64 205q0 164 121 256t313 92t294 -109q104 -109 104 -274l-107 -23q-2 143 -76 228q-75 83 -221 83
t-230 -68q-85 -68 -85 -181q0 -164 197 -258l266 -127q154 -74 222 -165t67 -222z" />
    <glyph glyph-name="T" unicode="T" horiz-adv-x="1009" 
d="M936 1360h-377v-1360h-108v1360h-377v94h862v-94z" />
    <glyph glyph-name="U" unicode="U" horiz-adv-x="1257" 
d="M629 -27q-201 0 -314 119q-90 92 -90 314v1048h109v-1018q0 -215 65 -282q80 -86 230 -86t229 86q66 68 66 282v1018h108v-1048q0 -221 -90 -314q-112 -119 -313 -119z" />
    <glyph glyph-name="V" unicode="V" horiz-adv-x="1048" 
d="M989 1454l-397 -1454h-133l-400 1454h115l270 -997q39 -150 80 -344h4q35 168 84 346l269 995h108z" />
    <glyph glyph-name="W" unicode="W" horiz-adv-x="1591" 
d="M1479 1454l-303 -1454h-99l-219 938q-47 205 -61 348h-4q-14 -123 -60 -348l-215 -938h-104l-301 1454h106l193 -965q49 -256 59 -342h4q12 137 60 342l215 965h88l223 -965q47 -203 61 -342h4q8 121 56 342l194 965h103z" />
    <glyph glyph-name="X" unicode="X" horiz-adv-x="1085" 
d="M193 0h-115l405 752l-377 702h123l314 -588l313 588h115l-371 -690l408 -764h-123l-344 649z" />
    <glyph glyph-name="Y" unicode="Y" horiz-adv-x="1048" 
d="M582 0h-109v657l-434 797h127l364 -678l357 678h123l-428 -797v-657z" />
    <glyph glyph-name="Z" unicode="Z" horiz-adv-x="1107" 
d="M989 0h-860v102q674 1200 723 1260q-82 -2 -277 -2h-415v94h809v-102l-729 -1260q82 2 233 2h516v-94z" />
    <glyph glyph-name="bracketleft" unicode="[" horiz-adv-x="688" 
d="M643 -410h-356v1891h356v-82h-262v-1727h262v-82z" />
    <glyph glyph-name="backslash" unicode="\" horiz-adv-x="860" 
d="M698 -27l-643 1508h95l643 -1508h-95z" />
    <glyph glyph-name="bracketright" unicode="]" horiz-adv-x="688" 
d="M401 -410h-356v82h262v1727h-262v82h356v-1891z" />
    <glyph glyph-name="asciicircum" unicode="^" horiz-adv-x="1366" 
d="M717 1454l446 -831l-71 -39l-410 764h-4l-408 -764l-71 39l442 831h76z" />
    <glyph glyph-name="underscore" unicode="_" horiz-adv-x="1024" 
d="M1024 -215h-1024v94h1024v-94z" />
    <glyph glyph-name="grave" unicode="`" horiz-adv-x="454" 
d="M68 1454l325 -237l-35 -54l-348 193z" />
    <glyph glyph-name="a" unicode="a" horiz-adv-x="1062" 
d="M764 317v281q-25 -23 -72 -41t-153 -49t-144 -45q-156 -61 -155 -207q0 -90 47 -140t139 -50q209 -1 338 251zM420 -23q-131 0 -208 75t-77 206q0 213 254 299q31 10 141 40t152 44q43 13 62 31t20 45v31q0 190 -239 190t-249 -178l-100 10q6 125 104 191q98 65 254 65
q158 0 243 -71t85 -207v-508q0 -96 20 -130t87 -47l-11 -77q-100 6 -146 52t-48 146q-131 -207 -344 -207z" />
    <glyph glyph-name="b" unicode="b" horiz-adv-x="1136" 
d="M317 503q0 -185 76 -311t208 -126t215 114t83 314t-79 322t-213 122t-212 -125t-78 -310zM618 1026q166 0 275 -142t109 -376t-105 -382q-104 -148 -285 -149q-102 -1 -180 55t-113 144h-4q0 -57 -8 -176h-94q8 205 8 307v1147h98v-479q0 -90 -2 -139h5q90 190 296 190z
" />
    <glyph glyph-name="c" unicode="c" horiz-adv-x="1030" 
d="M135 497q0 221 115 375t303 154q158 0 244 -88t108 -203l-100 -16q-43 219 -258 219q-135 0 -222 -124t-87 -316t87 -312q87 -121 218 -120q219 -1 272 241l103 -16q-74 -313 -375 -314q-186 0 -297 150t-111 370z" />
    <glyph glyph-name="d" unicode="d" horiz-adv-x="1140" 
d="M526 1026q213 0 295 -190h4q-4 102 -4 143v475h99v-1147q0 -102 8 -307h-94q-6 98 -9 176h-4q-31 -86 -111 -142t-186 -57q-176 1 -282 149t-106 381t112 376q113 143 278 143zM538 938q-134 0 -216 -123q-84 -123 -84 -321t83 -314q83 -114 217 -114t210 126t76 310
q0 186 -76 311t-210 125z" />
    <glyph glyph-name="e" unicode="e" horiz-adv-x="1062" 
d="M836 565q0 157 -81 265t-214 108q-70 0 -132 -37t-102 -102q-63 -105 -65 -234h594zM526 -23q-168 -1 -279 143q-112 144 -112 382t113 380q113 144 295 144t288 -135t107 -313q0 -66 -2 -101h-696q4 -180 75 -284q88 -127 232 -127q100 0 168 63q67 64 94 166l102 -21
q-35 -127 -126 -212t-259 -85z" />
    <glyph glyph-name="f" unicode="f" horiz-adv-x="759" 
d="M561 1393q-113 0 -149 -64q-27 -49 -27 -180v-145h293v-82h-293v-922h-98v922h-219v82h219v149q0 188 61 254q72 74 184 74t201 -47l-31 -74q-76 33 -141 33z" />
    <glyph glyph-name="g" unicode="g" horiz-adv-x="1130" 
d="M920 49q0 -213 -52 -317q-84 -174 -329 -174q-172 0 -257 78t-92 202l99 10q16 -207 252 -206q168 0 233 110q47 78 47 297q0 68 4 125h-4q-37 -82 -115 -135t-186 -53q-178 0 -281 150t-103 382q0 230 111 369q112 139 279 139q111 0 186 -54t109 -136h4q4 113 9 168h94
q-8 -205 -8 -308v-647zM538 938q-132 0 -216 -116t-84 -314q0 -199 80 -317q80 -117 215 -117q134 0 212 122t78 310t-77 310t-208 122z" />
    <glyph glyph-name="h" unicode="h" horiz-adv-x="1120" 
d="M936 0h-98v631q0 135 -39 203q-59 104 -203 104t-223 -125q-61 -96 -62 -238v-575h-98v1454h98v-459q0 -47 -4 -149h4q33 82 115 131t182 49q197 0 277 -141q51 -88 51 -236v-649z" />
    <glyph glyph-name="i" unicode="i" horiz-adv-x="466" 
d="M287 1229h-107v205h107v-205zM283 0h-99v1004h99v-1004z" />
    <glyph glyph-name="j" unicode="j" horiz-adv-x="483" 
d="M299 1229h-106v205h106v-205zM295 1004v-1104q0 -113 -5 -155t-30 -79q-59 -92 -181 -92t-194 43l35 76q59 -31 134 -31t103 29t34 72t6 141v1100h98z" />
    <glyph glyph-name="k" unicode="k" horiz-adv-x="1017" 
d="M311 0h-98v1454h98v-1012l508 562h137l-378 -408l395 -596h-123l-340 522l-199 -211v-311z" />
    <glyph glyph-name="l" unicode="l" horiz-adv-x="524" 
d="M213 0v1454h98v-1454h-98z" />
    <glyph glyph-name="m" unicode="m" horiz-adv-x="1402" 
d="M1212 0h-98v682q0 119 -16 166q-32 88 -144 88t-166 -131q-27 -68 -26 -178v-627h-98v674q0 135 -23 188q-33 74 -129 74q-59 0 -106 -41t-72 -109t-25 -198v-588h-98v696q0 102 -8 308h94q6 -55 8 -132h4q19 62 77 108t148 46t144 -49q55 -49 63 -107h4q66 156 230 156
t215 -135q23 -61 22 -213v-678z" />
    <glyph glyph-name="n" unicode="n" horiz-adv-x="1124" 
d="M607 1026q212 0 290 -154q37 -72 37 -225v-647h-98v629q0 135 -25 192q-53 117 -209 117q-82 0 -148 -43q-144 -93 -145 -326v-569h-98v696q0 168 -8 308h92q6 -74 8 -162h4q88 184 300 184z" />
    <glyph glyph-name="o" unicode="o" horiz-adv-x="1081" 
d="M844 502q0 196 -84 316t-219 120t-219 -120t-84 -316t84 -317q84 -119 219 -119t219 120t84 316zM946 502q0 -225 -108 -375t-297 -150q-188 0 -297 150t-109 375t109 375q109 149 297 149t297 -149q108 -150 108 -375z" />
    <glyph glyph-name="p" unicode="p" horiz-adv-x="1128" 
d="M309 16v-426h-98v1106q0 102 -8 308h94q6 -74 8 -168h4q90 190 305 190q168 0 274 -145t105 -371q0 -226 -102 -380q-102 -152 -292 -152t-290 190h-4q4 -98 4 -152zM307 501q0 -183 76 -309t213 -126t216 123t79 315t-79 312q-79 122 -213 122t-213 -127t-79 -310z" />
    <glyph glyph-name="q" unicode="q" horiz-adv-x="1130" 
d="M538 938q-136 0 -218 -120t-82 -317q0 -196 82 -316q82 -119 218 -119t211 127t75 315t-76 310q-74 120 -210 120zM522 1026q225 0 299 -190h4q4 102 9 168h94q-8 -205 -8 -308v-1106h-99v426q0 54 4 152h-4q-35 -84 -113 -137t-190 -54q-174 0 -278 150t-104 373
q0 222 104 374q106 152 282 152z" />
    <glyph glyph-name="r" unicode="r" horiz-adv-x="768" 
d="M606 913q-64 -1 -124 -31t-93 -79q-80 -115 -80 -305v-498h-98v696q0 170 -8 308h94q8 -90 8 -209h4q41 109 122 167t194 58q38 0 75 -10v-107q-30 10 -94 10z" />
    <glyph glyph-name="s" unicode="s" horiz-adv-x="1030" 
d="M887 255q0 -128 -96 -203q-97 -75 -275 -75t-277 79t-104 229l101 18q4 -125 74 -181t206 -56q135 0 202 52q66 52 66 137t-49 132t-166 78l-145 39q-135 37 -200 94q-64 57 -64 171q0 113 93 185t258 72t256 -72t99 -188l-100 -18q-10 94 -66 142t-181 48t-191 -44
t-66 -121t44 -113t151 -66l147 -41q143 -41 213 -105t70 -193z" />
    <glyph glyph-name="t" unicode="t" horiz-adv-x="745" 
d="M517 -23q-101 0 -171 71t-70 257v617h-208v82h208v288l99 41v-329h287v-82h-287v-613q0 -66 6 -114q18 -129 160 -129q63 -1 137 28l29 -76q-88 -41 -190 -41z" />
    <glyph glyph-name="u" unicode="u" horiz-adv-x="1130" 
d="M197 1004h98v-629q0 -135 24 -193q53 -117 209 -116q82 0 149 43q144 92 144 325v570h99v-697q0 -168 8 -307h-92q-6 74 -9 162h-4q-88 -184 -300 -184t-290 153q-37 72 -36 225v648z" />
    <glyph glyph-name="v" unicode="v" horiz-adv-x="903" 
d="M848 1004l-348 -1004h-97l-348 1004h103l233 -682q29 -84 60 -197h6q37 129 59 197l232 682h100z" />
    <glyph glyph-name="w" unicode="w" horiz-adv-x="1263" 
d="M1174 1004l-250 -1004h-88l-160 647q-29 123 -41 227h-4q-12 -88 -45 -227l-156 -647h-90l-250 1004h98l152 -644q29 -123 47 -227h4q18 104 47 227l152 644h88l151 -644q29 -123 48 -227h4q23 117 49 227l149 644h95z" />
    <glyph glyph-name="x" unicode="x" horiz-adv-x="917" 
d="M866 0h-123l-288 440l-285 -440h-119l357 518l-330 486h115l268 -408l264 408h115l-332 -484z" />
    <glyph glyph-name="y" unicode="y" horiz-adv-x="886" 
d="M164 -426q-100 0 -176 51l37 74q73 -37 133 -37t96 37t63 117l64 184l-358 1004h110l234 -682l59 -187h4q27 92 59 187l234 682h108l-419 -1197q-39 -105 -94 -169q-54 -64 -154 -64z" />
    <glyph glyph-name="z" unicode="z" horiz-adv-x="976" 
d="M879 0h-773v86l627 834q-94 -2 -180 -2h-406v86h711v-84l-629 -834q96 2 177 2h473v-88z" />
    <glyph glyph-name="braceleft" unicode="{" horiz-adv-x="641" 
d="M205 817v338q0 100 16 166q15 66 71 113t148 47h66v-84h-39q-125 0 -150 -88q-14 -51 -14 -150v-338q0 -113 -14 -157q-27 -90 -117 -125v-4q90 -35 117 -125q14 -45 14 -158v-340q0 -98 14 -150q25 -88 150 -88h39v-84h-66q-92 0 -147 48t-71 112q-16 65 -17 166v340
q0 104 -12 150q-23 82 -138 88v86q115 6 138 88q12 45 12 149z" />
    <glyph glyph-name="bar" unicode="|" horiz-adv-x="462" 
d="M279 -483h-95v2203h95v-2203z" />
    <glyph glyph-name="braceright" unicode="}" horiz-adv-x="641" 
d="M436 -84q0 -100 -16 -166t-72 -112t-147 -48h-66v84h39q125 0 150 88q14 51 14 150v340q0 113 14 158q27 90 117 125v4q-90 35 -117 125q-14 45 -14 157v338q0 98 -14 150q-25 88 -150 88h-39v84h66q92 0 147 -47q56 -46 72 -112t16 -167v-338q0 -104 13 -149
q22 -82 137 -88v-86q-115 -6 -137 -88q-12 -45 -13 -150v-340z" />
    <glyph glyph-name="asciitilde" unicode="~" horiz-adv-x="1359" 
d="M900 463q68 0 115 34q46 34 109 128l66 -43q-139 -201 -279 -201q-100 0 -189 57t-146 89q-56 32 -120 32t-111 -33q-46 -33 -109 -129l-66 43q135 201 279 201q64 0 94 -11q30 -10 59 -26t42 -23t57 -35t69 -42q62 -41 130 -41z" />
    <glyph glyph-name="nbspace" unicode="&#xa0;" horiz-adv-x="614" 
 />
    <glyph glyph-name="exclamdown" unicode="&#xa1;" horiz-adv-x="679" 
d="M254 1454h160v-184h-160v184zM272 0l19 1141h86q12 -389 18 -1141h-123z" />
    <glyph glyph-name="cent" unicode="&#xa2;" horiz-adv-x="1157" 
d="M319 497q0 -173 76 -288t185 -133v852q-113 -20 -187 -139t-74 -292zM666 -156h-86v140q-162 16 -263 162q-100 146 -100 348t97 354t266 172v141h86v-139q268 -25 325 -291l-100 -18q-49 197 -225 217v-856q102 6 158 74t77 163l100 -18q-20 -117 -107 -210t-228 -99
v-140z" />
    <glyph glyph-name="sterling" unicode="&#xa3;" horiz-adv-x="1157" 
d="M426 1036q0 -88 8 -170h348v-86h-340q44 -379 -4 -552q-25 -89 -102 -138l215 4h489v-94h-870v90q117 26 151 100t33 289q0 94 -22 301h-185v86h177q-6 78 -7 154q0 176 58 283q96 178 336 178q161 0 247 -91t86 -235q0 -53 -12 -104l-102 -15q10 59 10 101
q0 250 -240 249q-274 0 -274 -350z" />
    <glyph glyph-name="currency" unicode="&#xa4;" horiz-adv-x="1212" 
d="M608 1022q-141 0 -242 -100q-102 -100 -102 -242t102 -242t242 -100q141 0 241 100q99 100 99 242t-99 242q-100 100 -241 100zM608 1118q156 0 275 -100l123 121l59 -62l-119 -121q98 -124 98 -278t-100 -270l121 -125l-59 -60l-123 123q-119 -100 -276 -100t-273 100
q-88 -88 -125 -123l-62 60l125 125q-100 118 -100 274t98 274l-123 121l62 62l123 -119q120 98 276 98z" />
    <glyph glyph-name="yen" unicode="&#xa5;" horiz-adv-x="1157" 
d="M944 512v-90h-307v-422h-109v422h-311v90h311v127h-311v90h309l-432 725h127l365 -612l356 612h123l-428 -725h307v-90h-307v-127h307z" />
    <glyph glyph-name="brokenbar" unicode="&#xa6;" horiz-adv-x="462" 
d="M279 -483h-95v864h95v-864zM279 856h-95v864h95v-864z" />
    <glyph glyph-name="section" unicode="&#xa7;" horiz-adv-x="1150" 
d="M90 737q0 129 83 208t212 79q47 0 90 -14q-49 51 -74 81q-63 76 -63 165t69 157t171 68q102 1 174 -63t71 -150q0 -31 -6 -51l-94 -15q6 25 6 41q0 61 -40 105t-104 43q-63 0 -107 -39t-44 -105t64 -129l321 -321q236 -236 236 -432q0 -129 -83 -208t-212 -79
q-47 0 -90 14q50 -51 74 -81q62 -76 62 -165q1 -89 -68 -157t-171 -68q-102 -1 -174 63t-71 150q0 31 6 51l94 15q-6 -25 -6 -41q0 -61 40 -105t104 -43q64 0 108 39q42 39 42 105t-63 129l-321 321q-236 236 -236 432zM766 168q82 0 133 53t51 133q0 166 -202 371
q-119 119 -203 164t-166 45t-133 -53t-51 -133q-1 -166 204 -371q117 -119 201 -164t166 -45z" />
    <glyph glyph-name="dieresis" unicode="&#xa8;" horiz-adv-x="378" 
d="M383 1221h-113v184h113v-184zM109 1221h-113v184h113v-184z" />
    <glyph glyph-name="copyright" unicode="&#xa9;" horiz-adv-x="1777" 
d="M879 258q-168 0 -274 136q-105 136 -105 336t109 339q110 139 282 139q141 0 220 -83t97 -189l-94 -12q-35 203 -229 202q-121 0 -205 -112t-84 -285t84 -281t203 -108q204 0 237 227l94 -12q-53 -297 -335 -297zM1559 727q0 283 -194 479q-195 196 -477 197
q-282 0 -476 -197q-194 -198 -193 -480q0 -282 194 -478q195 -196 477 -197q282 1 476 197t193 479zM1642 727q0 -317 -219 -535t-534 -219q-315 0 -535 218q-219 217 -219 535t218 536q219 218 535 219q316 -1 535 -219t219 -535z" />
    <glyph glyph-name="ordfeminine" unicode="&#xaa;" horiz-adv-x="733" 
d="M156 918q0 -61 34 -96q35 -34 104 -34q70 0 136 48t109 129v182q-23 -20 -93 -43l-143 -37q-147 -43 -147 -149zM264 711q-84 0 -142 54t-59 155q0 166 218 219l188 47q70 18 70 53v23q0 135 -179 135q-92 0 -132 -32t-46 -110l-92 9q14 209 270 209q129 1 199 -57
t70 -154v-357q1 -67 15 -89t61 -30l-17 -65q-141 10 -153 129q-45 -59 -116 -99t-155 -40z" />
    <glyph glyph-name="guillemotleft" unicode="&#xab;" horiz-adv-x="921" 
d="M713 102l-299 414l299 414l63 -43l-254 -371l254 -371zM412 102l-299 414l299 414l63 -43l-254 -371l254 -371z" />
    <glyph glyph-name="logicalnot" unicode="&#xac;" 
d="M1167 324h-92v335h-878v95h970v-430z" />
    <glyph glyph-name="uni00AD" unicode="&#xad;" horiz-adv-x="911" 
d="M731 541h-551v90h551v-90z" />
    <glyph glyph-name="registered" unicode="&#xae;" horiz-adv-x="1777" 
d="M1559 727q0 283 -194 479q-195 196 -477 197q-282 0 -476 -197q-194 -198 -193 -480q0 -282 194 -478q195 -196 477 -197q282 1 476 197t193 479zM1642 727q0 -317 -219 -535t-534 -219q-315 0 -535 218q-219 217 -219 535t218 536q219 218 535 219q316 -1 535 -219
t219 -535zM930 766q192 0 192 174t-186 174h-193v-348h187zM1219 948q0 -184 -150 -241l137 -437h-106l-117 416h-240v-416h-94v926h293q104 0 172 -45q105 -76 105 -203z" />
    <glyph glyph-name="macron" unicode="&#xaf;" horiz-adv-x="366" 
d="M434 1260h-502v86h502v-86z" />
    <glyph glyph-name="degree" unicode="&#xb0;" horiz-adv-x="782" 
d="M160 1143q0 -94 68 -163t163 -69q96 0 164 69t68 163t-68 163q-68 68 -164 68t-164 -68q-67 -69 -67 -163zM702 1143q0 -129 -91 -220t-220 -91t-220 90q-91 92 -91 221t91 220t220 91t220 -91t91 -220z" />
    <glyph glyph-name="plusminus" unicode="&#xb1;" 
d="M1167 0h-970v82h970v-82zM1167 559h-444v-352h-82v352h-444v82h444v352h82v-352h444v-82z" />
    <glyph glyph-name="twosuperior" unicode="&#xb2;" horiz-adv-x="790" 
d="M402 1436q116 0 176 -60t59 -141q0 -80 -25 -134q-47 -102 -352 -351q63 2 117 2h256v-78h-481v82q152 123 303 270q59 57 79 98q19 41 19 95q0 141 -152 141q-162 0 -161 -168l-84 8q0 104 64 170q66 66 182 66z" />
    <glyph glyph-name="threesuperior" unicode="&#xb3;" horiz-adv-x="831" 
d="M664 891q0 -105 -73 -167t-187 -62t-182 57q-67 57 -70 155l86 15q2 -72 46 -112t124 -40t124 42t43 112q0 156 -188 156h-76v67h76q82 0 124 35t42 89t-35 88q-36 34 -108 34t-114 -34t-42 -95l-88 12q4 88 67 140q63 53 175 53t172 -56q61 -56 61 -122t-32 -110
t-81 -63v-4q60 -14 98 -67t38 -123z" />
    <glyph glyph-name="acute" unicode="&#xb4;" horiz-adv-x="378" 
d="M-14 1217l325 237l58 -98l-349 -193z" />
    <glyph glyph-name="mu" unicode="&#xb5;" horiz-adv-x="1130" 
d="M825 164h-4q-84 -190 -286 -191q-80 0 -144 40q-63 40 -96 106h-4q4 0 4 -291v-270h-98v1446h98v-564q0 -373 242 -372q129 0 207 108t77 283v545h99v-697q0 -102 8 -307h-97q-6 104 -6 164z" />
    <glyph glyph-name="paragraph" unicode="&#xb6;" horiz-adv-x="1165" 
d="M545 -293v977q-160 0 -272 113q-111 113 -111 273t112 272t273 112h428v-1747h-94v1657h-242v-1657h-94z" />
    <glyph glyph-name="periodcentered" unicode="&#xb7;" horiz-adv-x="618" 
d="M379 442h-164v195h164v-195z" />
    <glyph glyph-name="cedilla" unicode="&#xb8;" horiz-adv-x="382" 
d="M352 -230q0 -62 -46 -103q-46 -40 -112 -40q-120 0 -167 56l34 47q39 -35 114 -35t75 67q0 72 -76 72q-39 0 -61 -29l-41 29l92 166h63l-71 -121q26 19 72 19t85 -33t39 -95z" />
    <glyph glyph-name="onesuperior" unicode="&#xb9;" horiz-adv-x="681" 
d="M457 1423v-749h-82v639q-127 -127 -201 -185l-51 58q125 100 252 237h82z" />
    <glyph glyph-name="ordmasculine" unicode="&#xba;" horiz-adv-x="778" 
d="M616 1095q0 146 -60 224t-166 78t-166 -78t-60 -225q0 -146 59 -224t165 -78t168 78q60 79 60 225zM707 1094q0 -180 -86 -282q-85 -102 -231 -101q-146 0 -231 101q-85 102 -85 282t85 280t230 100t231 -100t87 -280z" />
    <glyph glyph-name="guillemotright" unicode="&#xbb;" horiz-adv-x="921" 
d="M508 516l-299 -414l-64 43l254 371l-254 371l64 43zM809 516l-299 -414l-64 43l254 371l-254 371l64 43z" />
    <glyph glyph-name="onequarter" unicode="&#xbc;" horiz-adv-x="1630" 
d="M463 1423v-749h-82v639q-127 -127 -201 -185l-51 58q125 100 252 237h82zM1243 1454l-895 -1517l-65 36l895 1518zM1217 254v238l2 124h-5q-27 -49 -63 -104l-170 -258h236zM1411 180h-113v-180h-81v180h-328v64l330 506h79v-496h113v-74z" />
    <glyph glyph-name="onehalf" unicode="&#xbd;" horiz-adv-x="1630" 
d="M1237 1454l-895 -1517l-66 36l895 1518zM457 1423v-749h-82v639q-127 -127 -201 -185l-51 58q125 100 252 237h82zM1206 762q116 0 176 -60t60 -141q0 -80 -25 -134q-47 -102 -352 -351q63 2 117 2h256v-78h-482v82q152 123 304 270q59 56 78 98t20 95q0 141 -152 141
q-162 0 -162 -168l-83 8q0 104 64 170q65 66 181 66z" />
    <glyph glyph-name="threequarters" unicode="&#xbe;" horiz-adv-x="1634" 
d="M1329 1454l-895 -1517l-65 36l895 1518zM1303 254v238l2 124h-5q-27 -49 -63 -104l-170 -258h236zM1497 180h-113v-180h-81v180h-328v64l330 506h79v-496h113v-74zM684 891q0 -105 -73 -167t-187 -62t-182 57q-66 57 -70 155l86 15q2 -72 46 -112t124 -40t124 42t44 112
q0 156 -188 156h-76v67h76q82 0 124 35t41 89q0 54 -34 88q-35 34 -108 34t-115 -34t-42 -95l-88 12q4 88 68 140q64 53 174 53q111 0 172 -56q62 -56 62 -122t-32 -110t-81 -63v-4q59 -14 97 -67t38 -123z" />
    <glyph glyph-name="questiondown" unicode="&#xbf;" horiz-adv-x="1081" 
d="M483 1454h164v-194h-164v194zM172 343q0 167 101 261t239 115v422h106v-492q-170 -12 -254 -91t-83 -208t67 -207q66 -77 186 -77t192 66t81 185l108 -12q-10 -147 -111 -239t-267 -92q-165 0 -265 100q-100 102 -100 269z" />
    <glyph glyph-name="Agrave" unicode="&#xc0;" horiz-adv-x="1087" 
d="M379 1855l326 -237l-35 -53l-348 192zM774 451l-151 544q-49 166 -78 308h-4q-29 -141 -78 -308l-156 -544h467zM1020 0h-117l-102 358h-518l-103 -358h-112l432 1454h94z" />
    <glyph glyph-name="Aacute" unicode="&#xc1;" horiz-adv-x="1087" 
d="M356 1632l326 238l57 -98l-348 -193zM774 451l-151 544q-49 166 -78 308h-4q-29 -141 -78 -308l-156 -544h467zM1020 0h-117l-102 358h-518l-103 -358h-112l432 1454h94z" />
    <glyph glyph-name="Acircumflex" unicode="&#xc2;" horiz-adv-x="1087" 
d="M776 1579l-233 172l-234 -172l-49 55l283 236l282 -236zM774 451l-151 544q-49 166 -78 308h-4q-29 -141 -78 -308l-156 -544h467zM1020 0h-117l-102 358h-518l-103 -358h-112l432 1454h94z" />
    <glyph glyph-name="Atilde" unicode="&#xc3;" horiz-adv-x="1087" 
d="M322 1640h-80q0 80 50 130t116 50t121 -50q56 -50 91 -50t58 25t22 67h82q0 -78 -52 -129t-114 -51t-119 50q-94 83 -151 26q-24 -25 -24 -68zM774 451l-151 544q-49 166 -78 308h-4q-29 -141 -78 -308l-156 -544h467zM1020 0h-117l-102 358h-518l-103 -358h-112
l432 1454h94z" />
    <glyph glyph-name="Adieresis" unicode="&#xc4;" horiz-adv-x="1087" 
d="M737 1622h-112v184h112v-184zM463 1622h-113v184h113v-184zM774 451l-151 544q-49 166 -78 308h-4q-29 -141 -78 -308l-156 -544h467zM1020 0h-117l-102 358h-518l-103 -358h-112l432 1454h94z" />
    <glyph glyph-name="Aring" unicode="&#xc5;" horiz-adv-x="1087" 
d="M676 1707q0 54 -39 93t-92 39t-92 -39t-39 -92t39 -92t93 -39t92 38t38 92zM743 1708q0 -82 -58 -140t-139 -58t-139 58t-59 140q0 82 58 139t139 57q82 0 140 -56q58 -58 58 -140zM774 451l-151 544q-49 166 -78 308h-4q-29 -141 -78 -308l-156 -544h467zM1020 0h-117
l-102 358h-518l-103 -358h-112l432 1454h94z" />
    <glyph glyph-name="AE" unicode="&#xc6;" horiz-adv-x="1589" 
d="M758 455v796l-371 -796h371zM1483 0h-725v352h-420l-162 -352h-119l682 1454h744v-94h-619v-563h490v-95h-490v-608h619v-94z" />
    <glyph glyph-name="Ccedilla" unicode="&#xc7;" horiz-adv-x="1177" 
d="M145 740q-1 330 133 536q134 205 355 205q185 0 287 -113t120 -291l-106 -20q-37 330 -303 329q-162 0 -267 -174q-106 -174 -106 -488t102 -485t271 -171q283 0 315 368l109 -14q-19 -203 -125 -326t-301 -123h-6l-56 -94q27 19 73 19t85 -33t39 -95t-46 -103
q-46 -40 -112 -40q-118 0 -168 56l35 47q39 -35 114 -35t75 67q0 72 -76 72q-39 0 -62 -29l-41 29l80 146q-199 30 -309 230t-109 530z" />
    <glyph glyph-name="Egrave" unicode="&#xc8;" horiz-adv-x="1097" 
d="M471 1870l326 -238l-35 -53l-348 193zM991 0h-760v1454h760v-94h-651v-563h520v-95h-520v-608h651v-94z" />
    <glyph glyph-name="Eacute" unicode="&#xc9;" horiz-adv-x="1097" 
d="M393 1632l326 238l57 -98l-348 -193zM991 0h-760v1454h760v-94h-651v-563h520v-95h-520v-608h651v-94z" />
    <glyph glyph-name="Ecircumflex" unicode="&#xca;" horiz-adv-x="1097" 
d="M827 1579l-233 172l-234 -172l-49 55l283 236l283 -236zM991 0h-760v1454h760v-94h-651v-563h520v-95h-520v-608h651v-94z" />
    <glyph glyph-name="Edieresis" unicode="&#xcb;" horiz-adv-x="1097" 
d="M788 1622h-112v184h112v-184zM514 1622h-113v184h113v-184zM991 0h-760v1454h760v-94h-651v-563h520v-95h-520v-608h651v-94z" />
    <glyph glyph-name="Igrave" unicode="&#xcc;" horiz-adv-x="579" 
d="M156 1870l325 -238l-35 -53l-348 193zM236 0v1454h108v-1454h-108z" />
    <glyph glyph-name="Iacute" unicode="&#xcd;" horiz-adv-x="579" 
d="M98 1632l326 238l57 -98l-348 -193zM236 0v1454h108v-1454h-108z" />
    <glyph glyph-name="Icircumflex" unicode="&#xce;" horiz-adv-x="579" 
d="M520 1579l-233 172l-234 -172l-49 55l283 236l282 -236zM236 0v1454h108v-1454h-108z" />
    <glyph glyph-name="Idieresis" unicode="&#xcf;" horiz-adv-x="579" 
d="M483 1622h-112v184h112v-184zM209 1622h-113v184h113v-184zM236 0v1454h108v-1454h-108z" />
    <glyph glyph-name="Eth" unicode="&#xd0;" horiz-adv-x="1259" 
d="M1001 727q0 180 -37 317q-38 136 -134 226t-242 90h-258v-588h270v-86h-270v-592h256q215 0 315 174t100 459zM999 1228q115 -205 115 -501t-121 -504q-61 -103 -167 -163t-251 -60h-356v686h-166v86h166v682h369q140 0 246 -60t165 -166z" />
    <glyph glyph-name="Ntilde" unicode="&#xd1;" horiz-adv-x="1308" 
d="M479 1640h-80q1 80 51 130t115 50t121 -50t92 -50q35 0 58 25t22 67h82q0 -78 -52 -129t-114 -51t-120 50q-95 84 -150 26q-25 -25 -25 -68zM231 1454h150l498 -1092q70 -158 92 -212h4q-6 135 -6 241v1063h108v-1454h-147l-500 1096q-68 152 -90 209h-4q4 -92 4 -238
v-1067h-109v1454z" />
    <glyph glyph-name="Ograve" unicode="&#xd2;" horiz-adv-x="1253" 
d="M483 1870l326 -238l-35 -53l-348 193zM995 727q0 322 -98 491q-98 168 -270 168t-271 -168q-98 -169 -98 -491q0 -323 98 -491t270 -168t271 168q98 168 98 491zM1108 727q0 -346 -125 -550t-356 -204t-357 204q-125 204 -125 550t125 550q124 204 356 204t357 -204
t125 -550z" />
    <glyph glyph-name="Oacute" unicode="&#xd3;" horiz-adv-x="1253" 
d="M426 1632l326 238l57 -98l-348 -193zM995 727q0 322 -98 491q-98 168 -270 168t-271 -168q-98 -169 -98 -491q0 -323 98 -491t270 -168t271 168q98 168 98 491zM1108 727q0 -346 -125 -550t-356 -204t-357 204q-125 204 -125 550t125 550q124 204 356 204t357 -204
t125 -550z" />
    <glyph glyph-name="Ocircumflex" unicode="&#xd4;" horiz-adv-x="1253" 
d="M860 1579l-233 172l-234 -172l-49 55l283 236l282 -236zM995 727q0 322 -98 491q-98 168 -270 168t-271 -168q-98 -169 -98 -491q0 -323 98 -491t270 -168t271 168q98 168 98 491zM1108 727q0 -346 -125 -550t-356 -204t-357 204q-125 204 -125 550t125 550
q124 204 356 204t357 -204t125 -550z" />
    <glyph glyph-name="Otilde" unicode="&#xd5;" horiz-adv-x="1253" 
d="M416 1640h-80q0 80 50 130t116 50t122 -50t91 -50t57 25t23 67h82q-1 -78 -53 -129t-114 -51t-118 50q-94 83 -152 26q-24 -25 -24 -68zM995 727q0 322 -98 491q-98 168 -270 168t-271 -168q-98 -169 -98 -491q0 -323 98 -491t270 -168t271 168q98 168 98 491zM1108 727
q0 -346 -125 -550t-356 -204t-357 204q-125 204 -125 550t125 550q124 204 356 204t357 -204t125 -550z" />
    <glyph glyph-name="Odieresis" unicode="&#xd6;" horiz-adv-x="1253" 
d="M821 1622h-112v184h112v-184zM547 1622h-113v184h113v-184zM995 727q0 322 -98 491q-98 168 -270 168t-271 -168q-98 -169 -98 -491q0 -323 98 -491t270 -168t271 168q98 168 98 491zM1108 727q0 -346 -125 -550t-356 -204t-357 204q-125 204 -125 550t125 550
q124 204 356 204t357 -204t125 -550z" />
    <glyph glyph-name="multiply" unicode="&#xd7;" horiz-adv-x="1384" 
d="M1092 182l-58 -57l-342 342l-342 -342l-57 57l342 342l-342 342l57 58l342 -342l342 342l58 -58l-342 -342z" />
    <glyph glyph-name="Oslash" unicode="&#xd8;" horiz-adv-x="1253" 
d="M258 727q0 -217 47 -369l608 826q-94 203 -286 202q-172 0 -271 -168q-98 -169 -98 -491zM995 727q0 215 -49 373l-610 -826q98 -207 291 -206q172 0 270 168t98 491zM1108 727q0 -346 -125 -550t-356 -204t-361 209l-59 -82l-62 43l82 113q-82 184 -82 500t125 521
q124 204 354 204t359 -203l64 86l61 -45l-86 -117q86 -195 86 -475z" />
    <glyph glyph-name="Ugrave" unicode="&#xd9;" horiz-adv-x="1257" 
d="M494 1905l325 -238l-35 -53l-348 192zM629 -27q-201 0 -314 119q-90 92 -90 314v1048h109v-1018q0 -215 65 -282q80 -86 230 -86t229 86q66 68 66 282v1018h108v-1048q0 -221 -90 -314q-112 -119 -313 -119z" />
    <glyph glyph-name="Uacute" unicode="&#xda;" horiz-adv-x="1257" 
d="M428 1632l326 238l57 -98l-348 -193zM629 -27q-201 0 -314 119q-90 92 -90 314v1048h109v-1018q0 -215 65 -282q80 -86 230 -86t229 86q66 68 66 282v1018h108v-1048q0 -221 -90 -314q-112 -119 -313 -119z" />
    <glyph glyph-name="Ucircumflex" unicode="&#xdb;" horiz-adv-x="1257" 
d="M856 1579l-233 172l-234 -172l-49 55l283 236l282 -236zM629 -27q-201 0 -314 119q-90 92 -90 314v1048h109v-1018q0 -215 65 -282q80 -86 230 -86t229 86q66 68 66 282v1018h108v-1048q0 -221 -90 -314q-112 -119 -313 -119z" />
    <glyph glyph-name="Udieresis" unicode="&#xdc;" horiz-adv-x="1257" 
d="M823 1622h-112v184h112v-184zM549 1622h-113v184h113v-184zM629 -27q-201 0 -314 119q-90 92 -90 314v1048h109v-1018q0 -215 65 -282q80 -86 230 -86t229 86q66 68 66 282v1018h108v-1048q0 -221 -90 -314q-112 -119 -313 -119z" />
    <glyph glyph-name="Yacute" unicode="&#xdd;" horiz-adv-x="1048" 
d="M303 1632l326 238l57 -98l-348 -193zM582 0h-109v657l-434 797h127l364 -678l357 678h123l-428 -797v-657z" />
    <glyph glyph-name="Thorn" unicode="&#xde;" horiz-adv-x="1222" 
d="M997 834q0 143 -83 225t-242 82h-332v-609h313q344 1 344 302zM686 1235q184 1 304 -103t120 -296t-113 -294q-113 -103 -327 -104h-330v-438h-109v1454h109v-219h346z" />
    <glyph glyph-name="germandbls" unicode="&#xdf;" horiz-adv-x="1171" 
d="M213 0v1112q0 164 104 266q105 102 285 102t286 -98q106 -100 107 -235q0 -135 -80 -222t-174 -98v-4q109 -12 202 -115t93 -278q0 -221 -110 -339t-297 -118q-102 0 -189 45l37 84q74 -35 148 -34q303 0 303 354q0 170 -98 265t-277 95h-72v84h72q170 0 252 72t82 188
t-78 189q-78 71 -210 71t-206 -76t-74 -202v-1108h-106z" />
    <glyph glyph-name="agrave" unicode="&#xe0;" horiz-adv-x="1062" 
d="M403 1454l326 -237l-35 -54l-348 193zM764 317v281q-25 -23 -72 -41t-153 -49t-144 -45q-156 -61 -155 -207q0 -90 47 -140t139 -50q209 -1 338 251zM420 -23q-131 0 -208 75t-77 206q0 213 254 299q31 10 141 40t152 44q43 13 62 31t20 45v31q0 190 -239 190t-249 -178
l-100 10q6 125 104 191q98 65 254 65q158 0 243 -71t85 -207v-508q0 -96 20 -130t87 -47l-11 -77q-100 6 -146 52t-48 146q-131 -207 -344 -207z" />
    <glyph glyph-name="aacute" unicode="&#xe1;" horiz-adv-x="1062" 
d="M330 1217l325 237l58 -98l-348 -193zM764 317v281q-25 -23 -72 -41t-153 -49t-144 -45q-156 -61 -155 -207q0 -90 47 -140t139 -50q209 -1 338 251zM420 -23q-131 0 -208 75t-77 206q0 213 254 299q31 10 141 40t152 44q43 13 62 31t20 45v31q0 190 -239 190t-249 -178
l-100 10q6 125 104 191q98 65 254 65q158 0 243 -71t85 -207v-508q0 -96 20 -130t87 -47l-11 -77q-100 6 -146 52t-48 146q-131 -207 -344 -207z" />
    <glyph glyph-name="acircumflex" unicode="&#xe2;" horiz-adv-x="1062" 
d="M762 1163l-234 172l-233 -172l-49 56l282 235l283 -235zM764 317v281q-25 -23 -72 -41t-153 -49t-144 -45q-156 -61 -155 -207q0 -90 47 -140t139 -50q209 -1 338 251zM420 -23q-131 0 -208 75t-77 206q0 213 254 299q31 10 141 40t152 44q43 13 62 31t20 45v31
q0 190 -239 190t-249 -178l-100 10q6 125 104 191q98 65 254 65q158 0 243 -71t85 -207v-508q0 -96 20 -130t87 -47l-11 -77q-100 6 -146 52t-48 146q-131 -207 -344 -207z" />
    <glyph glyph-name="atilde" unicode="&#xe3;" horiz-adv-x="1062" 
d="M326 1217h-80q0 80 50 130t116 50t122 -50q96 -85 148 -26q23 25 23 68h81q0 -78 -52 -129q-52 -52 -114 -52t-119 50q-94 83 -151 26q-24 -24 -24 -67zM764 317v281q-25 -23 -72 -41t-153 -49t-144 -45q-156 -61 -155 -207q0 -90 47 -140t139 -50q209 -1 338 251z
M420 -23q-131 0 -208 75t-77 206q0 213 254 299q31 10 141 40t152 44q43 13 62 31t20 45v31q0 190 -239 190t-249 -178l-100 10q6 125 104 191q98 65 254 65q158 0 243 -71t85 -207v-508q0 -96 20 -130t87 -47l-11 -77q-100 6 -146 52t-48 146q-131 -207 -344 -207z" />
    <glyph glyph-name="adieresis" unicode="&#xe4;" horiz-adv-x="1062" 
d="M713 1221h-113v184h113v-184zM438 1221h-112v184h112v-184zM764 317v281q-25 -23 -72 -41t-153 -49t-144 -45q-156 -61 -155 -207q0 -90 47 -140t139 -50q209 -1 338 251zM420 -23q-131 0 -208 75t-77 206q0 213 254 299q31 10 141 40t152 44q43 13 62 31t20 45v31
q0 190 -239 190t-249 -178l-100 10q6 125 104 191q98 65 254 65q158 0 243 -71t85 -207v-508q0 -96 20 -130t87 -47l-11 -77q-100 6 -146 52t-48 146q-131 -207 -344 -207z" />
    <glyph glyph-name="aring" unicode="&#xe5;" horiz-adv-x="1062" 
d="M649 1320q0 54 -39 93t-92 39t-92 -39t-39 -92t39 -92t93 -39t92 38t38 92zM717 1321q-1 -82 -59 -140q-58 -59 -139 -59t-139 58t-58 141q0 82 57 139q57 58 139 58t140 -58t59 -139zM764 317v281q-25 -23 -72 -41t-153 -49t-144 -45q-156 -61 -155 -207q0 -90 47 -140
t139 -50q209 -1 338 251zM420 -23q-131 0 -208 75t-77 206q0 213 254 299q31 10 141 40t152 44q43 13 62 31t20 45v31q0 190 -239 190t-249 -178l-100 10q6 125 104 191q98 65 254 65q158 0 243 -71t85 -207v-508q0 -96 20 -130t87 -47l-11 -77q-100 6 -146 52t-48 146
q-131 -207 -344 -207z" />
    <glyph glyph-name="ae" unicode="&#xe6;" horiz-adv-x="1693" 
d="M872 481q0 -191 90 -303t204 -112t182 63t94 166l102 -21q-35 -127 -126 -212t-226 -85t-231 73t-140 181q-72 -117 -162 -185t-224 -69q-134 0 -217 79q-83 80 -83 224t108 222t275 78h252v163q0 83 -56 139t-184 56q-225 0 -235 -178l-105 10q6 127 96 192
q90 64 241 64q149 0 229 -55t100 -133q114 188 310 188t299 -123t104 -315q0 -57 -2 -96h-695v-11zM1171 938q-109 0 -199 -101t-98 -257h592q-4 168 -76 263q-74 95 -219 95zM770 492h-229q-133 0 -217 -52t-84 -158q0 -104 54 -160t158 -56t179 65q76 65 139 174v187z" />
    <glyph glyph-name="ccedilla" unicode="&#xe7;" horiz-adv-x="1030" 
d="M135 504q0 212 115 368q115 154 303 154q158 0 244 -88t108 -203l-100 -16q-43 219 -258 219q-135 0 -222 -124t-87 -316t87 -312q87 -121 218 -120q219 0 272 241l103 -16q-74 -307 -367 -314l-57 -98q26 19 72 19t85 -33t39 -95t-46 -103q-46 -40 -112 -40
q-120 0 -167 56l34 47q39 -35 114 -35t75 67q0 72 -76 72q-39 0 -61 -29l-41 29l82 148q-166 20 -262 165q-95 145 -95 357z" />
    <glyph glyph-name="egrave" unicode="&#xe8;" horiz-adv-x="1062" 
d="M418 1454l325 -237l-34 -54l-349 193zM836 565q0 157 -81 265t-214 108q-70 0 -132 -37t-102 -102q-63 -105 -65 -234h594zM526 -23q-168 -1 -279 143q-112 144 -112 382t113 380q113 144 295 144t288 -135t107 -313q0 -66 -2 -101h-696q4 -180 75 -284q88 -127 232 -127
q100 0 168 63q67 64 94 166l102 -21q-35 -127 -126 -212t-259 -85z" />
    <glyph glyph-name="eacute" unicode="&#xe9;" horiz-adv-x="1062" 
d="M356 1217l326 237l57 -98l-348 -193zM836 565q0 157 -81 265t-214 108q-70 0 -132 -37t-102 -102q-63 -105 -65 -234h594zM526 -23q-168 -1 -279 143q-112 144 -112 382t113 380q113 144 295 144t288 -135t107 -313q0 -66 -2 -101h-696q4 -180 75 -284q88 -127 232 -127
q100 0 168 63q67 64 94 166l102 -21q-35 -127 -126 -212t-259 -85z" />
    <glyph glyph-name="ecircumflex" unicode="&#xea;" horiz-adv-x="1062" 
d="M772 1163l-233 172l-234 -172l-49 56l283 235l282 -235zM836 565q0 157 -81 265t-214 108q-70 0 -132 -37t-102 -102q-63 -105 -65 -234h594zM526 -23q-168 -1 -279 143q-112 144 -112 382t113 380q113 144 295 144t288 -135t107 -313q0 -66 -2 -101h-696q4 -180 75 -284
q88 -127 232 -127q100 0 168 63q67 64 94 166l102 -21q-35 -127 -126 -212t-259 -85z" />
    <glyph glyph-name="edieresis" unicode="&#xeb;" horiz-adv-x="1062" 
d="M737 1221h-112v184h112v-184zM463 1221h-113v184h113v-184zM836 565q0 157 -81 265t-214 108q-70 0 -132 -37t-102 -102q-63 -105 -65 -234h594zM526 -23q-168 -1 -279 143q-112 144 -112 382t113 380q113 144 295 144t288 -135t107 -313q0 -66 -2 -101h-696
q4 -180 75 -284q88 -127 232 -127q100 0 168 63q67 64 94 166l102 -21q-35 -127 -126 -212t-259 -85z" />
    <glyph glyph-name="igrave" unicode="&#xec;" horiz-adv-x="438" 
d="M86 1454l326 -237l-35 -54l-348 193zM268 0h-98v1004h98v-1004z" />
    <glyph glyph-name="iacute" unicode="&#xed;" horiz-adv-x="438" 
d="M29 1217l325 237l58 -98l-349 -193zM268 0h-98v1004h98v-1004z" />
    <glyph glyph-name="icircumflex" unicode="&#xee;" horiz-adv-x="421" 
d="M444 1163l-233 172l-234 -172l-49 56l283 235l283 -235zM260 0h-98v1004h98v-1004z" />
    <glyph glyph-name="idieresis" unicode="&#xef;" horiz-adv-x="438" 
d="M414 1221h-113v184h113v-184zM139 1221h-112v184h112v-184zM268 0h-98v1004h98v-1004z" />
    <glyph glyph-name="eth" unicode="&#xf0;" horiz-adv-x="1153" 
d="M563 68q131 0 204 112t73 276q0 163 -80 257t-210 94t-209 -86q-79 -87 -79 -273t85 -283t216 -97zM963 584q-1 -285 -105 -448t-305 -163q-135 0 -228 76q-175 143 -173 422q0 186 106 308t291 122q115 0 193 -61t112 -142h4q-31 344 -231 527l-326 -168l-35 69l297 154
q-86 68 -213 119l27 69q164 -63 268 -145l207 104l35 -69l-178 -92q254 -248 254 -682z" />
    <glyph glyph-name="ntilde" unicode="&#xf1;" horiz-adv-x="1124" 
d="M356 1217h-80q0 80 50 130t116 50t122 -50q56 -51 91 -51t58 25t22 68h82q0 -78 -52 -129q-53 -52 -115 -52t-118 50q-95 84 -151 26q-25 -24 -25 -67zM607 1026q212 0 290 -154q37 -72 37 -225v-647h-98v629q0 135 -25 192q-53 117 -209 117q-82 0 -148 -43
q-144 -93 -145 -326v-569h-98v696q0 168 -8 308h92q6 -74 8 -162h4q88 184 300 184z" />
    <glyph glyph-name="ograve" unicode="&#xf2;" horiz-adv-x="1081" 
d="M412 1454l325 -237l-35 -54l-348 193zM844 502q0 196 -84 316t-219 120t-219 -120t-84 -316t84 -317q84 -119 219 -119t219 120t84 316zM946 502q0 -225 -108 -375t-297 -150q-188 0 -297 150t-109 375t109 375q109 149 297 149t297 -149q108 -150 108 -375z" />
    <glyph glyph-name="oacute" unicode="&#xf3;" horiz-adv-x="1081" 
d="M334 1217l325 237l58 -98l-348 -193zM844 502q0 196 -84 316t-219 120t-219 -120t-84 -316t84 -317q84 -119 219 -119t219 120t84 316zM946 502q0 -225 -108 -375t-297 -150q-188 0 -297 150t-109 375t109 375q109 149 297 149t297 -149q108 -150 108 -375z" />
    <glyph glyph-name="ocircumflex" unicode="&#xf4;" horiz-adv-x="1081" 
d="M768 1163l-233 172l-234 -172l-49 56l283 235l282 -235zM844 502q0 196 -84 316t-219 120t-219 -120t-84 -316t84 -317q84 -119 219 -119t219 120t84 316zM946 502q0 -225 -108 -375t-297 -150q-188 0 -297 150t-109 375t109 375q109 149 297 149t297 -149
q108 -150 108 -375z" />
    <glyph glyph-name="otilde" unicode="&#xf5;" horiz-adv-x="1081" 
d="M344 1217h-80q0 80 50 130t116 50t122 -50q96 -85 148 -26q23 25 23 68h82q0 -78 -52 -129q-53 -52 -115 -52t-118 50q-95 84 -151 26q-25 -24 -25 -67zM844 502q0 196 -84 316t-219 120t-219 -120t-84 -316t84 -317q84 -119 219 -119t219 120t84 316zM946 502
q0 -225 -108 -375t-297 -150q-188 0 -297 150t-109 375t109 375q109 149 297 149t297 -149q108 -150 108 -375z" />
    <glyph glyph-name="odieresis" unicode="&#xf6;" horiz-adv-x="1081" 
d="M729 1221h-113v184h113v-184zM455 1221h-113v184h113v-184zM844 502q0 196 -84 316t-219 120t-219 -120t-84 -316t84 -317q84 -119 219 -119t219 120t84 316zM946 502q0 -225 -108 -375t-297 -150q-188 0 -297 150t-109 375t109 375q109 149 297 149t297 -149
q108 -150 108 -375z" />
    <glyph glyph-name="divide" unicode="&#xf7;" 
d="M764 788h-164v195h164v-195zM764 68h-164v194h164v-194zM1167 483h-970v82h970v-82z" />
    <glyph glyph-name="oslash" unicode="&#xf8;" horiz-adv-x="1081" 
d="M546 66q130 0 214 120t84 296q0 178 -60 292l-448 -606q80 -102 210 -102zM534 938q-128 0 -212 -120t-84 -300t57 -291l450 609q-83 102 -211 102zM946 496q0 -219 -108 -369t-283 -150q-174 0 -279 111l-86 -117l-55 39l98 133q-98 143 -98 363t109 371
q109 150 297 149q158 0 264 -111l86 117l55 -41l-98 -131q98 -145 98 -364z" />
    <glyph glyph-name="ugrave" unicode="&#xf9;" horiz-adv-x="1130" 
d="M426 1454l326 -237l-35 -54l-348 193zM197 1004h98v-629q0 -135 24 -193q53 -117 209 -116q82 0 149 43q144 92 144 325v570h99v-697q0 -168 8 -307h-92q-6 74 -9 162h-4q-88 -184 -300 -184t-290 153q-37 72 -36 225v648z" />
    <glyph glyph-name="uacute" unicode="&#xfa;" horiz-adv-x="1130" 
d="M350 1217l326 237l57 -98l-348 -193zM197 1004h98v-629q0 -135 24 -193q53 -117 209 -116q82 0 149 43q144 92 144 325v570h99v-697q0 -168 8 -307h-92q-6 74 -9 162h-4q-88 -184 -300 -184t-290 153q-37 72 -36 225v648z" />
    <glyph glyph-name="ucircumflex" unicode="&#xfb;" horiz-adv-x="1130" 
d="M782 1163l-233 172l-234 -172l-49 56l283 235l282 -235zM197 1004h98v-629q0 -135 24 -193q53 -117 209 -116q82 0 149 43q144 92 144 325v570h99v-697q0 -168 8 -307h-92q-6 74 -9 162h-4q-88 -184 -300 -184t-290 153q-37 72 -36 225v648z" />
    <glyph glyph-name="udieresis" unicode="&#xfc;" horiz-adv-x="1130" 
d="M743 1221h-112v184h112v-184zM469 1221h-113v184h113v-184zM197 1004h98v-629q0 -135 24 -193q53 -117 209 -116q82 0 149 43q144 92 144 325v570h99v-697q0 -168 8 -307h-92q-6 74 -9 162h-4q-88 -184 -300 -184t-290 153q-37 72 -36 225v648z" />
    <glyph glyph-name="yacute" unicode="&#xfd;" horiz-adv-x="886" 
d="M240 1217l325 237l58 -98l-349 -193zM164 -426q-100 0 -176 51l37 74q73 -37 133 -37t96 37t63 117l64 184l-358 1004h110l234 -682l59 -187h4q27 92 59 187l234 682h108l-419 -1197q-39 -105 -94 -169q-54 -64 -154 -64z" />
    <glyph glyph-name="thorn" unicode="&#xfe;" horiz-adv-x="1130" 
d="M616 1026q170 0 274 -145t105 -371q0 -226 -102 -380q-102 -153 -281 -153q-106 1 -185 55t-116 144h-4q4 -68 4 -129v-457h-98v1864h98v-500l-2 -129h4q39 93 119 147t184 54zM309 501q0 -183 76 -309t213 -126t216 123t79 315t-79 312q-79 122 -213 122t-213 -127
t-79 -310z" />
    <glyph glyph-name="ydieresis" unicode="&#xff;" horiz-adv-x="886" 
d="M635 1221h-113v184h113v-184zM360 1221h-112v184h112v-184zM164 -426q-100 0 -176 51l37 74q73 -37 133 -37t96 37t63 117l64 184l-358 1004h110l234 -682l59 -187h4q27 92 59 187l234 682h108l-419 -1197q-39 -105 -94 -169q-54 -64 -154 -64z" />
    <glyph glyph-name="Amacron" unicode="&#x100;" horiz-adv-x="1087" 
d="M795 1710h-502v86h502v-86zM774 451l-151 544q-49 166 -78 308h-4q-29 -141 -78 -308l-156 -544h467zM1020 0h-117l-102 358h-518l-103 -358h-112l432 1454h94z" />
    <glyph glyph-name="amacron" unicode="&#x101;" horiz-adv-x="1062" 
d="M784 1260h-501v86h501v-86zM764 317v281q-25 -23 -72 -41t-153 -49t-144 -45q-156 -61 -155 -207q0 -90 47 -140t139 -50q209 -1 338 251zM420 -23q-131 0 -208 75t-77 206q0 213 254 299q31 10 141 40t152 44q43 13 62 31t20 45v31q0 190 -239 190t-249 -178l-100 10
q6 125 104 191q98 65 254 65q158 0 243 -71t85 -207v-508q0 -96 20 -130t87 -47l-11 -77q-100 6 -146 52t-48 146q-131 -207 -344 -207z" />
    <glyph glyph-name="Abreve" unicode="&#x102;" horiz-adv-x="1087" 
d="M543 1628q-109 0 -179 48t-71 153h45q27 -113 205 -113t205 113h45q-1 -105 -71 -153t-179 -48zM774 451l-151 544q-49 166 -78 308h-4q-29 -141 -78 -308l-156 -544h467zM1020 0h-117l-102 358h-518l-103 -358h-112l432 1454h94z" />
    <glyph glyph-name="abreve" unicode="&#x103;" horiz-adv-x="1062" 
d="M532 1178q-110 0 -180 48t-69 152h45q26 -112 204 -112t205 112h45q0 -104 -70 -152t-180 -48zM764 317v281q-25 -23 -72 -41t-153 -49t-144 -45q-156 -61 -155 -207q0 -90 47 -140t139 -50q209 -1 338 251zM420 -23q-131 0 -208 75t-77 206q0 213 254 299q31 10 141 40
t152 44q43 13 62 31t20 45v31q0 190 -239 190t-249 -178l-100 10q6 125 104 191q98 65 254 65q158 0 243 -71t85 -207v-508q0 -96 20 -130t87 -47l-11 -77q-100 6 -146 52t-48 146q-131 -207 -344 -207z" />
    <glyph glyph-name="Aogonek" unicode="&#x104;" horiz-adv-x="1087" 
d="M774 451l-151 544q-49 166 -78 308h-4q-29 -141 -78 -308l-156 -544h467zM864 -181q0 -100 104 -100q50 0 91 41l49 -41q-18 -31 -68 -53t-114 -22q-66 0 -115 38t-49 111q0 94 141 207l-102 358h-518l-103 -358h-112l432 1454h94l426 -1454h-29q-41 -29 -84 -80
t-43 -101z" />
    <glyph glyph-name="aogonek" unicode="&#x105;" horiz-adv-x="1054" 
d="M764 317v281q-25 -23 -72 -41t-153 -49t-144 -45q-156 -61 -155 -207q0 -90 47 -140t139 -50q209 -1 338 251zM829 -184q0 -97 104 -97q50 0 91 41l49 -41q-18 -31 -67 -53t-115 -22t-115 38t-49 111q0 94 141 207q-102 39 -104 184q-131 -207 -344 -207q-131 0 -208 75
t-77 206q0 213 254 299q31 10 141 40t152 44q43 13 62 31t20 45v31q0 190 -239 190t-249 -178l-100 10q6 125 104 191q98 65 254 65q158 0 243 -71t85 -207v-508q0 -96 20 -130t87 -47l-11 -77l-20 2q-109 -86 -109 -172z" />
    <glyph glyph-name="Cacute" unicode="&#x106;" horiz-adv-x="1177" 
d="M438 1667l326 238l57 -99l-348 -192zM629 -27q-225 0 -355 205q-129 205 -129 549q-1 344 133 549t355 205q185 0 287 -113t120 -291l-106 -20q-37 330 -303 329q-162 0 -267 -174q-106 -174 -106 -488t102 -485t271 -171q282 -1 315 368l109 -14q-19 -203 -125 -326
t-301 -123z" />
    <glyph glyph-name="cacute" unicode="&#x107;" horiz-adv-x="1030" 
d="M365 1217l325 237l58 -98l-349 -193zM135 497q0 221 115 375t303 154q158 0 244 -88t108 -203l-100 -16q-43 219 -258 219q-135 0 -222 -124t-87 -316t87 -312q87 -121 218 -120q219 -1 272 241l103 -16q-74 -313 -375 -314q-186 0 -297 150t-111 370z" />
    <glyph glyph-name="Ccircumflex" unicode="&#x108;" horiz-adv-x="1177" 
d="M864 1614l-233 172l-234 -172l-49 55l283 236l282 -236zM629 -27q-225 0 -355 205q-129 205 -129 549q-1 344 133 549t355 205q185 0 287 -113t120 -291l-106 -20q-37 330 -303 329q-162 0 -267 -174q-106 -174 -106 -488t102 -485t271 -171q282 -1 315 368l109 -14
q-19 -203 -125 -326t-301 -123z" />
    <glyph glyph-name="ccircumflex" unicode="&#x109;" horiz-adv-x="1030" 
d="M791 1163l-234 172l-233 -172l-50 56l283 235l283 -235zM135 497q0 221 115 375t303 154q158 0 244 -88t108 -203l-100 -16q-43 219 -258 219q-135 0 -222 -124t-87 -316t87 -312q87 -121 218 -120q219 -1 272 241l103 -16q-74 -313 -375 -314q-186 0 -297 150t-111 370z
" />
    <glyph glyph-name="Cdotaccent" unicode="&#x10a;" horiz-adv-x="1177" 
d="M684 1679h-106v205h106v-205zM629 -27q-225 0 -355 205q-129 205 -129 549q-1 344 133 549t355 205q185 0 287 -113t120 -291l-106 -20q-37 330 -303 329q-162 0 -267 -174q-106 -174 -106 -488t102 -485t271 -171q282 -1 315 368l109 -14q-19 -203 -125 -326t-301 -123z
" />
    <glyph glyph-name="cdotaccent" unicode="&#x10b;" horiz-adv-x="1030" 
d="M610 1229h-106v205h106v-205zM135 497q0 221 115 375t303 154q158 0 244 -88t108 -203l-100 -16q-43 219 -258 219q-135 0 -222 -124t-87 -316t87 -312q87 -121 218 -120q219 -1 272 241l103 -16q-74 -313 -375 -314q-186 0 -297 150t-111 370z" />
    <glyph glyph-name="Ccaron" unicode="&#x10c;" horiz-adv-x="1177" 
d="M631 1733l233 172l49 -56l-282 -235l-283 235l49 56zM629 -27q-225 0 -355 205q-129 205 -129 549q-1 344 133 549t355 205q185 0 287 -113t120 -291l-106 -20q-37 330 -303 329q-162 0 -267 -174q-106 -174 -106 -488t102 -485t271 -171q282 -1 315 368l109 -14
q-19 -203 -125 -326t-301 -123z" />
    <glyph glyph-name="ccaron" unicode="&#x10d;" horiz-adv-x="1030" 
d="M557 1282l234 172l49 -55l-283 -236l-283 236l50 55zM135 497q0 221 115 375t303 154q158 0 244 -88t108 -203l-100 -16q-43 219 -258 219q-135 0 -222 -124t-87 -316t87 -312q87 -121 218 -120q219 -1 272 241l103 -16q-74 -313 -375 -314q-186 0 -297 150t-111 370z
" />
    <glyph glyph-name="Dcaron" unicode="&#x10e;" horiz-adv-x="1265" 
d="M637 1733l233 172l50 -56l-283 -235l-283 235l49 56zM598 1360h-258v-1266h256q216 0 314 174t98 451t-89 451q-46 90 -128 140t-193 50zM1120 729q0 -248 -80 -433q-128 -296 -456 -296h-353v1454h363q111 0 197 -35q173 -70 251 -256t78 -434z" />
    <glyph glyph-name="dcaron" unicode="&#x10f;" horiz-adv-x="1245" 
d="M1044 1116l97 338l106 -41l-141 -317zM526 1026q213 0 295 -190h4q-4 102 -4 143v475h99v-1147q0 -102 8 -307h-94q-6 98 -9 176h-4q-31 -86 -111 -142t-186 -57q-176 1 -282 149t-106 381t112 376q113 143 278 143zM538 938q-134 0 -216 -123q-84 -123 -84 -321t83 -314
q83 -114 217 -114t210 126t76 310q0 186 -76 311t-210 125z" />
    <glyph glyph-name="Dcroat" unicode="&#x110;" horiz-adv-x="1259" 
d="M1001 727q0 180 -37 317q-38 136 -134 226t-242 90h-258v-588h270v-86h-270v-592h256q215 0 315 174t100 459zM999 1228q115 -205 115 -501t-121 -504q-61 -103 -167 -163t-251 -60h-356v686h-166v86h166v682h369q140 0 246 -60t165 -166z" />
    <glyph glyph-name="dcroat" unicode="&#x111;" horiz-adv-x="1122" 
d="M538 938q-134 0 -216 -123q-84 -123 -84 -321t83 -314q83 -114 217 -114t210 126t76 310q0 186 -76 311t-210 125zM1116 1165h-196v-858q0 -102 8 -307h-94q-6 98 -9 176h-4q-31 -86 -111 -142t-186 -57q-176 1 -282 149t-106 381t112 376q113 143 278 143
q213 0 295 -190h4q-4 102 -4 143v186h-256v90h256v199h99v-199h196v-90z" />
    <glyph glyph-name="Emacron" unicode="&#x112;" horiz-adv-x="1097" 
d="M866 1710h-501v86h501v-86zM991 0h-760v1454h760v-94h-651v-563h520v-95h-520v-608h651v-94z" />
    <glyph glyph-name="emacron" unicode="&#x113;" horiz-adv-x="1062" 
d="M803 1260h-502v86h502v-86zM836 565q0 157 -81 265t-214 108q-70 0 -132 -37t-102 -102q-63 -105 -65 -234h594zM526 -23q-168 -1 -279 143q-112 144 -112 382t113 380q113 144 295 144t288 -135t107 -313q0 -66 -2 -101h-696q4 -180 75 -284q88 -127 232 -127
q100 0 168 63q67 64 94 166l102 -21q-35 -127 -126 -212t-259 -85z" />
    <glyph glyph-name="Ebreve" unicode="&#x114;" horiz-adv-x="1097" 
d="M596 1628q-110 0 -180 48t-70 153h45q27 -113 205 -113t205 113h45q0 -105 -70 -153t-180 -48zM991 0h-760v1454h760v-94h-651v-563h520v-95h-520v-608h651v-94z" />
    <glyph glyph-name="ebreve" unicode="&#x115;" horiz-adv-x="1062" 
d="M532 1178q-110 0 -180 48t-69 152h45q26 -112 204 -112t205 112h45q0 -104 -70 -152t-180 -48zM836 565q0 157 -81 265t-214 108q-70 0 -132 -37t-102 -102q-63 -105 -65 -234h594zM526 -23q-168 -1 -279 143q-112 144 -112 382t113 380q113 144 295 144t288 -135
t107 -313q0 -66 -2 -101h-696q4 -180 75 -284q88 -127 232 -127q100 0 168 63q67 64 94 166l102 -21q-35 -127 -126 -212t-259 -85z" />
    <glyph glyph-name="Edotaccent" unicode="&#x116;" horiz-adv-x="1097" 
d="M670 1679h-107v205h107v-205zM991 0h-760v1454h760v-94h-651v-563h520v-95h-520v-608h651v-94z" />
    <glyph glyph-name="edotaccent" unicode="&#x117;" horiz-adv-x="1062" 
d="M586 1229h-107v205h107v-205zM836 565q0 157 -81 265t-214 108q-70 0 -132 -37t-102 -102q-63 -105 -65 -234h594zM526 -23q-168 -1 -279 143q-112 144 -112 382t113 380q113 144 295 144t288 -135t107 -313q0 -66 -2 -101h-696q4 -180 75 -284q88 -127 232 -127
q100 0 168 63q67 64 94 166l102 -21q-35 -127 -126 -212t-259 -85z" />
    <glyph glyph-name="Eogonek" unicode="&#x118;" horiz-adv-x="1089" 
d="M864 -181q0 -100 104 -100q50 0 91 41l49 -41q-18 -31 -68 -53t-114 -22q-66 0 -115 38t-49 111q0 94 141 207h-672v1454h760v-94h-651v-563h520v-95h-520v-608h651v-94q-41 -29 -84 -80t-43 -101z" />
    <glyph glyph-name="eogonek" unicode="&#x119;" horiz-adv-x="1062" 
d="M836 565q0 157 -81 265t-214 108q-70 0 -132 -37t-102 -102q-63 -105 -65 -234h594zM664 -4q-119 -88 -119 -182t103 -95q50 0 91 41l49 -41q-18 -31 -67 -53t-115 -22t-114 38t-50 118q0 80 113 177h-14q-182 -1 -294 143t-112 382t113 380q113 144 295 144t288 -135
t107 -313q0 -66 -2 -101h-696q4 -180 75 -284q88 -127 232 -127q100 0 168 63q67 64 94 166l102 -21q-61 -221 -247 -278z" />
    <glyph glyph-name="Ecaron" unicode="&#x11a;" horiz-adv-x="1097" 
d="M596 1733l233 172l50 -56l-283 -235l-283 235l49 56zM991 0h-760v1454h760v-94h-651v-563h520v-95h-520v-608h651v-94z" />
    <glyph glyph-name="ecaron" unicode="&#x11b;" horiz-adv-x="1062" 
d="M532 1282l234 172l49 -55l-283 -236l-282 236l49 55zM836 565q0 157 -81 265t-214 108q-70 0 -132 -37t-102 -102q-63 -105 -65 -234h594zM526 -23q-168 -1 -279 143q-112 144 -112 382t113 380q113 144 295 144t288 -135t107 -313q0 -66 -2 -101h-696q4 -180 75 -284
q88 -127 232 -127q100 0 168 63q67 64 94 166l102 -21q-35 -127 -126 -212t-259 -85z" />
    <glyph glyph-name="Gcircumflex" unicode="&#x11c;" horiz-adv-x="1267" 
d="M864 1614l-233 172l-234 -172l-49 55l283 236l282 -236zM1055 0h-76q-16 137 -16 203h-5q-34 -100 -120 -165t-213 -65q-221 0 -351 207q-129 207 -129 543q-1 336 135 547t365 211q193 0 291 -110t113 -269l-105 -21q-31 305 -301 305q-165 0 -275 -176t-110 -486
t106 -483t275 -173q145 0 229 120t84 347v141h-325v96h428v-772z" />
    <glyph glyph-name="gcircumflex" unicode="&#x11d;" horiz-adv-x="1130" 
d="M795 1163l-234 172l-233 -172l-49 56l282 235l283 -235zM920 49q0 -213 -52 -317q-84 -174 -329 -174q-172 0 -257 78t-92 202l99 10q16 -207 252 -206q168 0 233 110q47 78 47 297q0 68 4 125h-4q-37 -82 -115 -135t-186 -53q-178 0 -281 150t-103 382q0 230 111 369
q112 139 279 139q111 0 186 -54t109 -136h4q4 113 9 168h94q-8 -205 -8 -308v-647zM538 938q-132 0 -216 -116t-84 -314q0 -199 80 -317q80 -117 215 -117q134 0 212 122t78 310t-77 310t-208 122z" />
    <glyph glyph-name="Gbreve" unicode="&#x11e;" horiz-adv-x="1267" 
d="M631 1628q-109 0 -179 48t-71 153h45q27 -113 205 -113t205 113h45q-1 -105 -71 -153t-179 -48zM1055 0h-76q-16 137 -16 203h-5q-34 -100 -120 -165t-213 -65q-221 0 -351 207q-129 207 -129 543q-1 336 135 547t365 211q193 0 291 -110t113 -269l-105 -21
q-31 305 -301 305q-165 0 -275 -176t-110 -486t106 -483t275 -173q145 0 229 120t84 347v141h-325v96h428v-772z" />
    <glyph glyph-name="gbreve" unicode="&#x11f;" horiz-adv-x="1130" 
d="M561 1178q-109 0 -179 48t-71 152h45q27 -112 205 -112t205 112h45q-1 -104 -71 -152t-179 -48zM920 49q0 -213 -52 -317q-84 -174 -329 -174q-172 0 -257 78t-92 202l99 10q16 -207 252 -206q168 0 233 110q47 78 47 297q0 68 4 125h-4q-37 -82 -115 -135t-186 -53
q-178 0 -281 150t-103 382q0 230 111 369q112 139 279 139q111 0 186 -54t109 -136h4q4 113 9 168h94q-8 -205 -8 -308v-647zM538 938q-132 0 -216 -116t-84 -314q0 -199 80 -317q80 -117 215 -117q134 0 212 122t78 310t-77 310t-208 122z" />
    <glyph glyph-name="Gdotaccent" unicode="&#x120;" horiz-adv-x="1267" 
d="M684 1679h-106v205h106v-205zM1055 0h-76q-16 137 -16 203h-5q-34 -100 -120 -165t-213 -65q-221 0 -351 207q-129 207 -129 543q-1 336 135 547t365 211q193 0 291 -110t113 -269l-105 -21q-31 305 -301 305q-165 0 -275 -176t-110 -486t106 -483t275 -173
q145 0 229 120t84 347v141h-325v96h428v-772z" />
    <glyph glyph-name="gdotaccent" unicode="&#x121;" horiz-adv-x="1130" 
d="M614 1229h-106v205h106v-205zM920 49q0 -213 -52 -317q-84 -174 -329 -174q-172 0 -257 78t-92 202l99 10q16 -207 252 -206q168 0 233 110q47 78 47 297q0 68 4 125h-4q-37 -82 -115 -135t-186 -53q-178 0 -281 150t-103 382q0 230 111 369q112 139 279 139
q111 0 186 -54t109 -136h4q4 113 9 168h94q-8 -205 -8 -308v-647zM538 938q-132 0 -216 -116t-84 -314q0 -199 80 -317q80 -117 215 -117q134 0 212 122t78 310t-77 310t-208 122z" />
    <glyph glyph-name="Gcommaaccent" unicode="&#x122;" horiz-adv-x="1267" 
d="M713 -152v-112q0 -94 -31 -132t-109 -61l-14 56q45 12 63 34q17 23 17 64h-90v151h164zM1055 0h-76q-16 137 -16 203h-5q-34 -100 -120 -165t-213 -65q-221 0 -351 207q-129 207 -129 543q-1 336 135 547t365 211q193 0 291 -110t113 -269l-105 -21q-31 305 -301 305
q-165 0 -275 -176t-110 -486t106 -483t275 -173q145 0 229 120t84 347v141h-325v96h428v-772z" />
    <glyph glyph-name="gcommaaccent" unicode="&#x123;" horiz-adv-x="1130" 
d="M479 1303v112q0 94 31 132t108 61l15 -56q-45 -12 -63 -34q-17 -23 -17 -64h90v-151h-164zM920 49q0 -213 -52 -317q-84 -174 -329 -174q-172 0 -257 78t-92 202l99 10q16 -207 252 -206q168 0 233 110q47 78 47 297q0 68 4 125h-4q-37 -82 -115 -135t-186 -53
q-178 0 -281 150t-103 382q0 230 111 369q112 139 279 139q111 0 186 -54t109 -136h4q4 113 9 168h94q-8 -205 -8 -308v-647zM538 938q-132 0 -216 -116t-84 -314q0 -199 80 -317q80 -117 215 -117q134 0 212 122t78 310t-77 310t-208 122z" />
    <glyph glyph-name="Hcircumflex" unicode="&#x124;" horiz-adv-x="1269" 
d="M868 1614l-233 172l-234 -172l-49 55l283 236l283 -236zM1038 0h-108v702h-590v-702h-109v1454h109v-657h590v657h108v-1454z" />
    <glyph glyph-name="hcircumflex" unicode="&#x125;" horiz-adv-x="1120" 
d="M498 1556l-234 173l-233 -173l-49 56l282 235l283 -235zM936 0h-98v631q0 135 -39 203q-59 104 -203 104t-223 -125q-61 -96 -62 -238v-575h-98v1454h98v-459q0 -47 -4 -149h4q33 82 115 131t182 49q197 0 277 -141q51 -88 51 -236v-649z" />
    <glyph glyph-name="Hbar" unicode="&#x126;" horiz-adv-x="1269" 
d="M340 797h590v194h-590v-194zM1038 0h-108v702h-590v-702h-109v1454h109v-377h590v377h108v-1454z" />
    <glyph glyph-name="hbar" unicode="&#x127;" horiz-adv-x="1120" 
d="M594 1026q325 0 328 -377v-649h-99v631q0 135 -39 203q-59 104 -202 104t-224 -125q-61 -96 -61 -238v-575h-98v1176h-150v86h150v192h98v-192h305v-86h-305v-181q0 -47 -4 -149h4q33 82 115 131t182 49z" />
    <glyph glyph-name="Itilde" unicode="&#x128;" horiz-adv-x="579" 
d="M98 1667h-80q0 80 50 130t116 50t122 -50t91 -50t58 25t22 67h82q0 -78 -52 -129q-53 -51 -115 -51t-118 50t-92 50q-36 -1 -60 -25t-24 -67zM236 0v1454h108v-1454h-108z" />
    <glyph glyph-name="itilde" unicode="&#x129;" horiz-adv-x="425" 
d="M23 1217h-80q0 80 50 130q49 50 115 50t122 -50q56 -51 91 -51t58 25t22 68h82q0 -78 -52 -129q-53 -52 -115 -52t-118 50q-94 83 -151 26q-24 -24 -24 -67zM262 0h-98v1004h98v-1004z" />
    <glyph glyph-name="Imacron" unicode="&#x12a;" horiz-adv-x="579" 
d="M541 1710h-502v86h502v-86zM236 0v1454h108v-1454h-108z" />
    <glyph glyph-name="imacron" unicode="&#x12b;" horiz-adv-x="430" 
d="M465 1260h-502v86h502v-86zM264 0h-98v1004h98v-1004z" />
    <glyph glyph-name="Ibreve" unicode="&#x12c;" horiz-adv-x="579" 
d="M289 1628q-109 0 -179 48t-71 153h45q27 -113 205 -113t205 113h45q-1 -105 -71 -153t-179 -48zM236 0v1454h108v-1454h-108z" />
    <glyph glyph-name="ibreve" unicode="&#x12d;" horiz-adv-x="430" 
d="M215 1178q-109 0 -179 48t-71 152h45q27 -112 205 -112t205 112h45q-1 -104 -71 -152t-179 -48zM264 0h-98v1004h98v-1004z" />
    <glyph glyph-name="Iogonek" unicode="&#x12e;" horiz-adv-x="579" 
d="M217 -181q-1 -100 103 -100q50 0 92 41l49 -41q-17 -31 -67 -53t-116 -22t-114 38q-49 38 -49 111q0 94 141 207h-20v1454h108v-1454q-41 -29 -84 -80t-43 -101z" />
    <glyph glyph-name="iogonek" unicode="&#x12f;" horiz-adv-x="495" 
d="M301 1229h-106v205h106v-205zM170 -181q0 -100 104 -100q50 0 91 41l49 -41q-18 -31 -68 -53t-114 -22q-66 0 -115 38t-49 111q0 94 141 207h-10v1004h98v-1004q-41 -29 -84 -80t-43 -101z" />
    <glyph glyph-name="Idotaccent" unicode="&#x130;" horiz-adv-x="579" 
d="M342 1679h-106v205h106v-205zM236 0v1454h108v-1454h-108z" />
    <glyph glyph-name="dotlessi" unicode="&#x131;" horiz-adv-x="466" 
d="M283 0h-99v1004h99v-1004z" />
    <glyph glyph-name="Jcircumflex" unicode="&#x134;" horiz-adv-x="1038" 
d="M1024 1614l-233 172l-234 -172l-49 55l283 236l282 -236zM737 438v1016h109v-1003q0 -188 -60 -299q-96 -178 -327 -179q-168 -1 -263 99t-96 268q0 35 4 63l109 11q-4 -31 -4 -54q0 -147 61 -220t197 -72q270 0 270 370z" />
    <glyph glyph-name="jcircumflex" unicode="&#x135;" horiz-adv-x="483" 
d="M479 1163l-233 172l-234 -172l-49 56l283 235l282 -235zM295 -100q0 -113 -5 -155t-30 -79q-59 -92 -181 -92t-194 43l35 76q59 -31 134 -31t103 29t34 72t6 141v1100h98v-1104z" />
    <glyph glyph-name="Kcommaaccent" unicode="&#x136;" horiz-adv-x="1155" 
d="M668 -152v-112q0 -94 -31 -132t-109 -61l-14 56q45 12 63 34q17 23 17 64h-90v151h164zM340 0h-109v1454h109v-782l598 782h133l-473 -612l502 -842h-131l-434 760l-195 -248v-512z" />
    <glyph glyph-name="kcommaaccent" unicode="&#x137;" horiz-adv-x="1017" 
d="M598 -152v-112q0 -94 -31 -132t-108 -61l-15 56q45 12 63 34q17 23 17 64h-90v151h164zM311 0h-98v1454h98v-1012l508 562h137l-378 -408l395 -596h-123l-340 522l-199 -211v-311z" />
    <glyph glyph-name="kgreenlandic" unicode="&#x138;" horiz-adv-x="1017" 
d="M311 0h-98v1004h98v-562l418 461q55 61 99 81t128 20v-99q-57 0 -87 -13t-68 -56l-223 -240l395 -596h-123l-340 522l-199 -211v-311z" />
    <glyph glyph-name="Lacute" unicode="&#x139;" horiz-adv-x="1013" 
d="M98 1667l326 238l57 -99l-348 -192zM958 0h-739v1454h109v-1360h630v-94z" />
    <glyph glyph-name="lacute" unicode="&#x13a;" horiz-adv-x="495" 
d="M55 1645l326 237l57 -98l-348 -193zM199 0v1454h98v-1454h-98z" />
    <glyph glyph-name="Lcommaaccent" unicode="&#x13b;" horiz-adv-x="1026" 
d="M684 -152v-112q0 -94 -31 -132t-108 -61l-15 56q45 12 63 34q17 23 17 64h-90v151h164zM971 0h-740v1454h109v-1360h631v-94z" />
    <glyph glyph-name="lcommaaccent" unicode="&#x13c;" horiz-adv-x="516" 
d="M340 -152v-112q0 -94 -31 -132t-108 -61l-15 56q45 12 63 34q17 23 17 64h-90v151h164zM209 0v1454h98v-1454h-98z" />
    <glyph glyph-name="Lcaron" unicode="&#x13d;" horiz-adv-x="1026" 
d="M541 1116l96 338l106 -41l-141 -317zM971 0h-740v1454h109v-1360h631v-94z" />
    <glyph glyph-name="lcaron" unicode="&#x13e;" horiz-adv-x="681" 
d="M479 1116l96 338l107 -41l-141 -317zM213 0v1454h98v-1454h-98z" />
    <glyph glyph-name="Ldot" unicode="&#x13f;" horiz-adv-x="1026" 
d="M971 0h-740v1454h109v-1360h631v-94zM778 791h-151v202h151v-202z" />
    <glyph glyph-name="ldot" unicode="&#x140;" horiz-adv-x="710" 
d="M213 0v1454h98v-1454h-98zM600 791h-151v202h151v-202z" />
    <glyph glyph-name="Lslash" unicode="&#x141;" horiz-adv-x="1024" 
d="M969 0h-736v616l-172 -110v102l172 111v735h109v-674l377 242v-102l-377 -238v-588h627v-94z" />
    <glyph glyph-name="lslash" unicode="&#x142;" horiz-adv-x="532" 
d="M315 0h-98v592l-139 -88v98l139 88v764h98v-700l134 84v-99l-134 -84v-655z" />
    <glyph glyph-name="Nacute" unicode="&#x143;" horiz-adv-x="1308" 
d="M463 1667l325 238l58 -99l-348 -192zM231 1454h150l498 -1092q70 -158 92 -212h4q-6 135 -6 241v1063h108v-1454h-147l-500 1096q-68 152 -90 209h-4q4 -92 4 -238v-1067h-109v1454z" />
    <glyph glyph-name="nacute" unicode="&#x144;" horiz-adv-x="1124" 
d="M371 1217l325 237l58 -98l-348 -193zM607 1026q212 0 290 -154q37 -72 37 -225v-647h-98v629q0 135 -25 192q-53 117 -209 117q-82 0 -148 -43q-144 -93 -145 -326v-569h-98v696q0 168 -8 308h92q6 -74 8 -162h4q88 184 300 184z" />
    <glyph glyph-name="Ncommaaccent" unicode="&#x145;" horiz-adv-x="1308" 
d="M735 -152v-112q-1 -94 -31 -132t-108 -61l-14 56q45 13 62 35t18 63h-91v151h164zM231 1454h150l498 -1092q70 -158 92 -212h4q-6 135 -6 241v1063h108v-1454h-147l-500 1096q-68 152 -90 209h-4q4 -92 4 -238v-1067h-109v1454z" />
    <glyph glyph-name="ncommaaccent" unicode="&#x146;" horiz-adv-x="1124" 
d="M645 -152v-112q0 -94 -31 -132t-108 -61l-14 56q45 13 62 35t17 63h-90v151h164zM607 1026q212 0 290 -154q37 -72 37 -225v-647h-98v629q0 135 -25 192q-53 117 -209 117q-82 0 -148 -43q-144 -93 -145 -326v-569h-98v696q0 168 -8 308h92q6 -74 8 -162h4
q88 184 300 184z" />
    <glyph glyph-name="Ncaron" unicode="&#x147;" horiz-adv-x="1308" 
d="M653 1733l234 172l49 -56l-283 -235l-282 235l49 56zM231 1454h150l498 -1092q70 -158 92 -212h4q-6 135 -6 241v1063h108v-1454h-147l-500 1096q-68 152 -90 209h-4q4 -92 4 -238v-1067h-109v1454z" />
    <glyph glyph-name="ncaron" unicode="&#x148;" horiz-adv-x="1124" 
d="M563 1282l234 172l49 -55l-283 -236l-282 236l49 55zM607 1026q212 0 290 -154q37 -72 37 -225v-647h-98v629q0 135 -25 192q-53 117 -209 117q-82 0 -148 -43q-144 -93 -145 -326v-569h-98v696q0 168 -8 308h92q6 -74 8 -162h4q88 184 300 184z" />
    <glyph glyph-name="napostrophe" unicode="&#x149;" horiz-adv-x="1124" 
d="M367 1454v-113q0 -94 -31 -132t-109 -60l-14 55q45 12 62 35t18 64h-90v151h164zM607 1026q212 0 290 -154q37 -72 37 -225v-647h-98v629q0 135 -25 192q-53 117 -209 117q-82 0 -148 -43q-144 -93 -145 -326v-569h-98v696q0 168 -8 308h92q6 -74 8 -162h4
q88 184 300 184z" />
    <glyph glyph-name="Eng" unicode="&#x14a;" horiz-adv-x="1308" 
d="M969 -68v68l-539 1049q-53 106 -90 202h-4q4 -92 4 -237v-1014h-109v1454h111l537 -1044q47 -94 92 -207h4q-6 135 -6 235v1016h108v-1509q0 -183 -76 -277t-260 -94q-81 0 -151 37t-113 94l74 70q83 -107 199 -107t168 62t51 202z" />
    <glyph glyph-name="eng" unicode="&#x14b;" horiz-adv-x="1124" 
d="M934 647v-747q0 -113 -5 -155t-30 -79q-59 -92 -181 -92t-194 43l35 76q59 -31 134 -31t103 29t34 72t6 141v725q0 135 -25 192q-53 117 -209 117q-82 0 -148 -43q-144 -93 -145 -326v-569h-98v696q0 168 -8 308h92q6 -74 8 -162h4q88 184 300 184t290 -154
q37 -71 37 -225z" />
    <glyph glyph-name="Omacron" unicode="&#x14c;" horiz-adv-x="1253" 
d="M877 1710h-502v86h502v-86zM995 727q0 322 -98 491q-98 168 -270 168t-271 -168q-98 -169 -98 -491q0 -323 98 -491t270 -168t271 168q98 168 98 491zM1108 727q0 -346 -125 -550t-356 -204t-357 204q-125 204 -125 550t125 550q124 204 356 204t357 -204t125 -550z" />
    <glyph glyph-name="omacron" unicode="&#x14d;" horiz-adv-x="1081" 
d="M791 1260h-502v86h502v-86zM844 502q0 196 -84 316t-219 120t-219 -120t-84 -316t84 -317q84 -119 219 -119t219 120t84 316zM946 502q0 -225 -108 -375t-297 -150q-188 0 -297 150t-109 375t109 375q109 149 297 149t297 -149q108 -150 108 -375z" />
    <glyph glyph-name="Obreve" unicode="&#x14e;" horiz-adv-x="1253" 
d="M627 1628q-109 0 -180 48t-70 153h45q27 -113 205 -113t204 113h46q-1 -105 -71 -153t-179 -48zM995 727q0 322 -98 491q-98 168 -270 168t-271 -168q-98 -169 -98 -491q0 -323 98 -491t270 -168t271 168q98 168 98 491zM1108 727q0 -346 -125 -550t-356 -204t-357 204
q-125 204 -125 550t125 550q124 204 356 204t357 -204t125 -550z" />
    <glyph glyph-name="obreve" unicode="&#x14f;" horiz-adv-x="1081" 
d="M541 1178q-109 0 -180 48t-70 152h45q27 -112 205 -112t204 112h46q-1 -104 -71 -152t-179 -48zM844 502q0 196 -84 316t-219 120t-219 -120t-84 -316t84 -317q84 -119 219 -119t219 120t84 316zM946 502q0 -225 -108 -375t-297 -150q-188 0 -297 150t-109 375t109 375
q109 149 297 149t297 -149q108 -150 108 -375z" />
    <glyph glyph-name="Ohungarumlaut" unicode="&#x150;" horiz-adv-x="1253" 
d="M285 1659l284 239l68 -98l-311 -192zM614 1659l285 239l68 -98l-312 -192zM995 727q0 322 -98 491q-98 168 -270 168t-271 -168q-98 -169 -98 -491q0 -323 98 -491t270 -168t271 168q98 168 98 491zM1108 727q0 -346 -125 -550t-356 -204t-357 204q-125 204 -125 550
t125 550q124 204 356 204t357 -204t125 -550z" />
    <glyph glyph-name="ohungarumlaut" unicode="&#x151;" horiz-adv-x="1081" 
d="M199 1208l284 240l68 -98l-311 -193zM528 1208l285 240l68 -98l-312 -193zM844 502q0 196 -84 316t-219 120t-219 -120t-84 -316t84 -317q84 -119 219 -119t219 120t84 316zM946 502q0 -225 -108 -375t-297 -150q-188 0 -297 150t-109 375t109 375q109 149 297 149
t297 -149q108 -150 108 -375z" />
    <glyph glyph-name="OE" unicode="&#x152;" horiz-adv-x="1630" 
d="M256 727q0 -317 106 -488t269 -171q98 -1 176 28v1262q-76 29 -176 28q-163 0 -269 -171t-106 -488zM1524 0h-717q-86 -27 -176 -27q-229 0 -358 208q-128 208 -128 546t128 546t358 208q90 0 176 -27h717v-102h-611v-553h379v-103h-379v-594h611v-102z" />
    <glyph glyph-name="oe" unicode="&#x153;" horiz-adv-x="1755" 
d="M1528 563q0 169 -74 271t-206 102t-222 -106t-90 -267h592zM831 500q0 192 -83 314q-84 122 -213 122t-213 -121t-84 -313t86 -315q86 -121 213 -121t211 121q83 121 83 313zM1245 66q102 0 170 63t94 166l103 -21q-35 -127 -126 -212q-92 -85 -234 -85t-233 71t-136 183
q-111 -254 -346 -254q-184 0 -293 151t-109 374t108 374t292 150q123 0 211 -68t137 -186q47 118 141 186t215 68q191 0 291 -133t100 -313q0 -57 -4 -103h-690q0 -183 88 -297t221 -114z" />
    <glyph glyph-name="Racute" unicode="&#x154;" horiz-adv-x="1241" 
d="M432 1667l326 238l57 -99l-348 -192zM987 1067q0 137 -82 215t-235 78h-330v-596h319q328 0 328 303zM1100 1077q0 -318 -283 -389l289 -688h-121l-272 670h-373v-670h-109v1454h449q160 0 260 -68q160 -108 160 -309z" />
    <glyph glyph-name="racute" unicode="&#x155;" horiz-adv-x="765" 
d="M197 1217l325 237l58 -98l-349 -193zM604 913q-64 -1 -124 -31t-93 -79q-80 -115 -80 -305v-498h-98v696q0 170 -8 308h94q8 -90 8 -209h4q41 109 122 167t194 58q38 0 75 -10v-107q-30 10 -94 10z" />
    <glyph glyph-name="Rcommaaccent" unicode="&#x156;" horiz-adv-x="1241" 
d="M707 -152v-112q0 -94 -31 -132t-109 -61l-14 56q45 13 62 35t18 63h-90v151h164zM987 1067q0 137 -82 215t-235 78h-330v-596h319q328 0 328 303zM1100 1077q0 -318 -283 -389l289 -688h-121l-272 670h-373v-670h-109v1454h449q160 0 260 -68q160 -108 160 -309z" />
    <glyph glyph-name="rcommaaccent" unicode="&#x157;" horiz-adv-x="765" 
d="M344 -152v-112q0 -94 -31 -132t-108 -61l-15 56q45 12 63 34q17 23 17 64h-90v151h164zM604 913q-64 -1 -124 -31t-93 -79q-80 -115 -80 -305v-498h-98v696q0 170 -8 308h94q8 -90 8 -209h4q41 109 122 167t194 58q38 0 75 -10v-107q-30 10 -94 10z" />
    <glyph glyph-name="Rcaron" unicode="&#x158;" horiz-adv-x="1241" 
d="M604 1733l234 172l49 -56l-283 -235l-282 235l49 56zM987 1067q0 137 -82 215t-235 78h-330v-596h319q328 0 328 303zM1100 1077q0 -318 -283 -389l289 -688h-121l-272 670h-373v-670h-109v1454h449q160 0 260 -68q160 -108 160 -309z" />
    <glyph glyph-name="rcaron" unicode="&#x159;" horiz-adv-x="757" 
d="M379 1282l233 172l50 -55l-283 -236l-283 236l49 55zM596 913q-64 -1 -124 -31t-93 -79q-80 -115 -80 -305v-498h-98v696q0 170 -8 308h94q8 -90 8 -209h4q41 109 122 167t193 58q39 0 76 -10v-107q-30 10 -94 10z" />
    <glyph glyph-name="Sacute" unicode="&#x15a;" horiz-adv-x="1198" 
d="M408 1667l325 238l58 -99l-349 -192zM1055 365q0 -183 -115 -287t-337 -104t-339 117q-117 118 -121 333l111 22q4 -188 88 -283t258 -95t258 76t84 214q0 186 -223 293l-250 119q-152 72 -215 158t-64 205q0 164 121 256t313 92t294 -109q104 -109 104 -274l-107 -23
q-2 143 -76 228q-75 83 -221 83t-230 -68q-85 -68 -85 -181q0 -164 197 -258l266 -127q154 -74 222 -165t67 -222z" />
    <glyph glyph-name="sacute" unicode="&#x15b;" horiz-adv-x="1030" 
d="M324 1217l325 237l58 -98l-349 -193zM887 255q0 -128 -96 -203q-97 -75 -275 -75t-277 79t-104 229l101 18q4 -125 74 -181t206 -56q135 0 202 52q66 52 66 137t-49 132t-166 78l-145 39q-135 37 -200 94q-64 57 -64 171q0 113 93 185t258 72t256 -72t99 -188l-100 -18
q-10 94 -66 142t-181 48t-191 -44t-66 -121t44 -113t151 -66l147 -41q143 -41 213 -105t70 -193z" />
    <glyph glyph-name="Scircumflex" unicode="&#x15c;" horiz-adv-x="1198" 
d="M831 1614l-233 172l-233 -172l-50 55l283 236l283 -236zM1055 365q0 -183 -115 -287t-337 -104t-339 117q-117 118 -121 333l111 22q4 -188 88 -283t258 -95t258 76t84 214q0 186 -223 293l-250 119q-152 72 -215 158t-64 205q0 164 121 256t313 92t294 -109
q104 -109 104 -274l-107 -23q-2 143 -76 228q-75 83 -221 83t-230 -68q-85 -68 -85 -181q0 -164 197 -258l266 -127q154 -74 222 -165t67 -222z" />
    <glyph glyph-name="scircumflex" unicode="&#x15d;" horiz-adv-x="1030" 
d="M748 1163l-234 172l-233 -172l-50 56l283 235l283 -235zM887 255q0 -128 -96 -203q-97 -75 -275 -75t-277 79t-104 229l101 18q4 -125 74 -181t206 -56q135 0 202 52q66 52 66 137t-49 132t-166 78l-145 39q-135 37 -200 94q-64 57 -64 171q0 113 93 185t258 72t256 -72
t99 -188l-100 -18q-10 94 -66 142t-181 48t-191 -44t-66 -121t44 -113t151 -66l147 -41q143 -41 213 -105t70 -193z" />
    <glyph glyph-name="Scedilla" unicode="&#x15e;" horiz-adv-x="1198" 
d="M600 68q174 0 258 76t84 214q0 186 -223 293l-250 119q-152 72 -215 158t-64 205q0 164 121 256t313 92t294 -109q104 -109 104 -274l-107 -23q-2 143 -76 228q-75 83 -221 83t-230 -68q-85 -68 -85 -181q0 -164 197 -258l266 -127q154 -74 222 -165t67 -222
q0 -181 -112 -285t-322 -107l-56 -94q27 19 73 19t85 -33t39 -95t-46 -103q-46 -40 -112 -40q-118 0 -168 56l35 47q39 -35 114 -35t74 67q0 72 -75 72q-39 0 -62 -29l-41 29l78 141q-205 14 -308 130t-108 319l111 22q4 -188 88 -283t258 -95z" />
    <glyph glyph-name="scedilla" unicode="&#x15f;" horiz-adv-x="1030" 
d="M887 258q0 -125 -90 -200t-258 -81l-58 -98q27 19 73 19t85 -33t39 -95t-46 -103q-46 -40 -112 -40q-118 0 -168 56l35 47q39 -35 114 -35t74 67q0 72 -75 72q-39 0 -62 -29l-41 29l80 146q-332 16 -342 305l101 18q4 -125 74 -181t206 -56q135 0 202 52q66 52 66 137
t-49 132t-166 78l-145 39q-135 37 -200 94q-64 57 -64 171q0 113 93 185t258 72t256 -72t99 -188l-100 -18q-10 94 -66 142t-181 48t-191 -44t-66 -121t44 -113t151 -66l147 -41q143 -41 213 -105t70 -190z" />
    <glyph glyph-name="Scaron" unicode="&#x160;" horiz-adv-x="1198" 
d="M594 1700l233 172l50 -55l-283 -236l-283 236l49 55zM1055 365q0 -183 -115 -287t-337 -104t-339 117q-117 118 -121 333l111 22q4 -188 88 -283t258 -95t258 76t84 214q0 186 -223 293l-250 119q-152 72 -215 158t-64 205q0 164 121 256t313 92t294 -109
q104 -109 104 -274l-107 -23q-2 143 -76 228q-75 83 -221 83t-230 -68q-85 -68 -85 -181q0 -164 197 -258l266 -127q154 -74 222 -165t67 -222z" />
    <glyph glyph-name="scaron" unicode="&#x161;" horiz-adv-x="1030" 
d="M498 1282l233 172l49 -55l-282 -236l-283 236l49 55zM887 255q0 -128 -96 -203q-97 -75 -275 -75t-277 79t-104 229l101 18q4 -125 74 -181t206 -56q135 0 202 52q66 52 66 137t-49 132t-166 78l-145 39q-135 37 -200 94q-64 57 -64 171q0 113 93 185t258 72t256 -72
t99 -188l-100 -18q-10 94 -66 142t-181 48t-191 -44t-66 -121t44 -113t151 -66l147 -41q143 -41 213 -105t70 -193z" />
    <glyph glyph-name="Tcommaaccent" unicode="&#x162;" horiz-adv-x="1009" 
d="M586 -152v-112q0 -94 -31 -132t-109 -61l-14 56q45 12 63 34q17 23 17 64h-90v151h164zM936 1360h-377v-1360h-108v1360h-377v94h862v-94z" />
    <glyph glyph-name="tcommaaccent" unicode="&#x163;" horiz-adv-x="745" 
d="M559 -152v-112q0 -94 -31 -132t-108 -61l-14 56q45 13 62 35t17 63h-90v151h164zM517 -23q-101 0 -171 71t-70 257v617h-208v82h208v288l99 41v-329h287v-82h-287v-613q0 -66 6 -114q18 -129 160 -129q63 -1 137 28l29 -76q-88 -41 -190 -41z" />
    <glyph glyph-name="Tcaron" unicode="&#x164;" horiz-adv-x="1009" 
d="M504 1733l233 172l49 -56l-282 -235l-283 235l49 56zM936 1360h-377v-1360h-108v1360h-377v94h862v-94z" />
    <glyph glyph-name="tcaron" unicode="&#x165;" horiz-adv-x="745" 
d="M506 1116l96 338l107 -41l-142 -317zM517 -23q-101 0 -171 71t-70 257v617h-208v82h208v288l99 41v-329h287v-82h-287v-613q0 -66 6 -114q18 -129 160 -129q63 -1 137 28l29 -76q-88 -41 -190 -41z" />
    <glyph glyph-name="Tbar" unicode="&#x166;" horiz-adv-x="1009" 
d="M858 854h-299v-854h-108v854h-299v86h299v420h-377v94h862v-94h-377v-420h299v-86z" />
    <glyph glyph-name="tbar" unicode="&#x167;" horiz-adv-x="745" 
d="M680 555h-305v-246q0 -66 6 -114q18 -129 160 -129q63 0 137 28l29 -76q-88 -41 -190 -41q-101 0 -171 71t-70 257v250h-235v80h235v287h-208v82h208v288l99 41v-329h287v-82h-287v-287h305v-80z" />
    <glyph glyph-name="Utilde" unicode="&#x168;" horiz-adv-x="1257" 
d="M438 1667h-80q0 80 50 130t116 50t122 -50t91 -50t58 25t22 67h82q0 -78 -52 -129q-53 -51 -115 -51t-118 50t-92 50q-36 -1 -60 -25t-24 -67zM629 -27q-201 0 -314 119q-90 92 -90 314v1048h109v-1018q0 -215 65 -282q80 -86 230 -86t229 86q66 68 66 282v1018h108
v-1048q0 -221 -90 -314q-112 -119 -313 -119z" />
    <glyph glyph-name="utilde" unicode="&#x169;" horiz-adv-x="1130" 
d="M373 1217h-80q0 80 50 130q49 50 115 50t122 -50q96 -85 149 -26q23 25 23 68h82q0 -78 -52 -129q-52 -52 -115 -52t-119 50q-94 83 -151 26q-24 -24 -24 -67zM197 1004h98v-629q0 -135 24 -193q53 -117 209 -116q82 0 149 43q144 92 144 325v570h99v-697q0 -168 8 -307
h-92q-6 74 -9 162h-4q-88 -184 -300 -184t-290 153q-37 72 -36 225v648z" />
    <glyph glyph-name="Umacron" unicode="&#x16a;" horiz-adv-x="1257" 
d="M879 1710h-502v86h502v-86zM629 -27q-201 0 -314 119q-90 92 -90 314v1048h109v-1018q0 -215 65 -282q80 -86 230 -86t229 86q66 68 66 282v1018h108v-1048q0 -221 -90 -314q-112 -119 -313 -119z" />
    <glyph glyph-name="umacron" unicode="&#x16b;" horiz-adv-x="1130" 
d="M815 1260h-502v86h502v-86zM197 1004h98v-629q0 -135 24 -193q53 -117 209 -116q82 0 149 43q144 92 144 325v570h99v-697q0 -168 8 -307h-92q-6 74 -9 162h-4q-88 -184 -300 -184t-290 153q-37 72 -36 225v648z" />
    <glyph glyph-name="Ubreve" unicode="&#x16c;" horiz-adv-x="1257" 
d="M629 1628q-109 0 -179 48t-71 153h45q27 -113 205 -113t205 113h45q-1 -105 -71 -153t-179 -48zM629 -27q-201 0 -314 119q-90 92 -90 314v1048h109v-1018q0 -215 65 -282q80 -86 230 -86t229 86q66 68 66 282v1018h108v-1048q0 -221 -90 -314q-112 -119 -313 -119z" />
    <glyph glyph-name="ubreve" unicode="&#x16d;" horiz-adv-x="1130" 
d="M563 1178q-109 0 -179 48t-71 152h45q27 -112 205 -112t205 112h45q-1 -104 -71 -152t-179 -48zM197 1004h98v-629q0 -135 24 -193q53 -117 209 -116q82 0 149 43q144 92 144 325v570h99v-697q0 -168 8 -307h-92q-6 74 -9 162h-4q-88 -184 -300 -184t-290 153
q-37 72 -36 225v648z" />
    <glyph glyph-name="Uring" unicode="&#x16e;" horiz-adv-x="1257" 
d="M496 1772q0 -52 39 -92t93 -40t92 38t38 93q0 54 -39 93t-92 39t-92 -39t-39 -92zM825 1772q0 -82 -58 -140t-139 -59q-81 0 -140 58q-58 59 -58 141t57 139t139 57t141 -57q58 -57 58 -139zM629 -27q-201 0 -314 119q-90 92 -90 314v1048h109v-1018q0 -215 65 -282
q80 -86 230 -86t229 86q66 68 66 282v1018h108v-1048q0 -221 -90 -314q-112 -119 -313 -119z" />
    <glyph glyph-name="uring" unicode="&#x16f;" horiz-adv-x="1130" 
d="M694 1320q0 54 -39 93t-92 39t-92 -39t-39 -92t39 -92t93 -39t92 38t38 92zM762 1321q0 -82 -58 -140q-58 -59 -140 -59q-81 0 -139 58t-58 141q0 82 57 139q57 58 139 58q83 0 141 -58t58 -139zM197 1004h98v-629q0 -135 24 -193q53 -117 209 -116q82 0 149 43
q144 92 144 325v570h99v-697q0 -168 8 -307h-92q-6 74 -9 162h-4q-88 -184 -300 -184t-290 153q-37 72 -36 225v648z" />
    <glyph glyph-name="Uhungarumlaut" unicode="&#x170;" horiz-adv-x="1257" 
d="M328 1659l284 239l68 -98l-311 -192zM657 1659l285 239l68 -98l-312 -192zM629 -27q-201 0 -314 119q-90 92 -90 314v1048h109v-1018q0 -215 65 -282q80 -86 230 -86t229 86q66 68 66 282v1018h108v-1048q0 -221 -90 -314q-112 -119 -313 -119z" />
    <glyph glyph-name="uhungarumlaut" unicode="&#x171;" horiz-adv-x="1128" 
d="M264 1208l285 240l67 -98l-311 -193zM594 1208l285 240l67 -98l-311 -193zM197 1004h98v-629q0 -135 24 -193q53 -117 209 -116q82 0 149 43q144 92 144 325v570h99v-697q0 -168 8 -307h-92q-6 74 -9 162h-4q-88 -184 -300 -184t-290 153q-37 72 -36 225v648z" />
    <glyph glyph-name="Uogonek" unicode="&#x172;" horiz-adv-x="1257" 
d="M604 -184q0 -97 104 -97q50 0 91 41l49 -41q-18 -31 -68 -53t-114 -22q-66 0 -115 38t-49 118t108 173q-193 6 -295 119q-90 92 -90 314v1048h109v-1018q0 -215 65 -282q80 -86 230 -86t229 86q66 68 66 282v1018h108v-1048q0 -222 -92 -316t-240 -113q-96 -82 -96 -161z
" />
    <glyph glyph-name="uogonek" unicode="&#x173;" horiz-adv-x="1118" 
d="M801 -181q0 -100 103 -100q50 0 91 41l49 -41q-18 -31 -67 -53t-115 -22t-114 38t-49 120q0 82 137 198q-6 74 -9 162h-4q-88 -184 -300 -184t-290 153q-37 72 -36 225v648h98v-629q0 -135 24 -193q53 -117 209 -116q82 0 149 43q144 92 144 325v570h99v-697
q0 -168 8 -307q-41 -29 -84 -80t-43 -101z" />
    <glyph glyph-name="Wcircumflex" unicode="&#x174;" horiz-adv-x="1591" 
d="M1028 1614l-233 172l-234 -172l-49 55l283 236l282 -236zM1479 1454l-303 -1454h-99l-219 938q-47 205 -61 348h-4q-14 -123 -60 -348l-215 -938h-104l-301 1454h106l193 -965q49 -256 59 -342h4q12 137 60 342l215 965h88l223 -965q47 -203 61 -342h4q8 121 56 342
l194 965h103z" />
    <glyph glyph-name="wcircumflex" unicode="&#x175;" horiz-adv-x="1263" 
d="M864 1163l-233 172l-234 -172l-49 56l283 235l282 -235zM1174 1004l-250 -1004h-88l-160 647q-29 123 -41 227h-4q-12 -88 -45 -227l-156 -647h-90l-250 1004h98l152 -644q29 -123 47 -227h4q18 104 47 227l152 644h88l151 -644q29 -123 48 -227h4q23 117 49 227l149 644
h95z" />
    <glyph glyph-name="Ycircumflex" unicode="&#x176;" horiz-adv-x="1048" 
d="M758 1614l-234 172l-233 -172l-49 55l282 236l283 -236zM582 0h-109v657l-434 797h127l364 -678l357 678h123l-428 -797v-657z" />
    <glyph glyph-name="ycircumflex" unicode="&#x177;" horiz-adv-x="886" 
d="M674 1163l-234 172l-233 -172l-49 56l282 235l283 -235zM164 -426q-100 0 -176 51l37 74q73 -37 133 -37t96 37t63 117l64 184l-358 1004h110l234 -682l59 -187h4q27 92 59 187l234 682h108l-419 -1197q-39 -105 -94 -169q-54 -64 -154 -64z" />
    <glyph glyph-name="Ydieresis" unicode="&#x178;" horiz-adv-x="1048" 
d="M698 1671h-112v184h112v-184zM424 1671h-113v184h113v-184zM582 0h-109v657l-434 797h127l364 -678l357 678h123l-428 -797v-657z" />
    <glyph glyph-name="Zacute" unicode="&#x179;" horiz-adv-x="1107" 
d="M362 1667l326 238l57 -99l-348 -192zM989 0h-860v102q674 1200 723 1260q-82 -2 -277 -2h-415v94h809v-102l-729 -1260q82 2 233 2h516v-94z" />
    <glyph glyph-name="zacute" unicode="&#x17a;" horiz-adv-x="976" 
d="M297 1217l326 237l57 -98l-348 -193zM879 0h-773v86l627 834q-94 -2 -180 -2h-406v86h711v-84l-629 -834q96 2 177 2h473v-88z" />
    <glyph glyph-name="Zdotaccent" unicode="&#x17b;" horiz-adv-x="1107" 
d="M606 1679h-106v205h106v-205zM989 0h-860v102q674 1200 723 1260q-82 -2 -277 -2h-415v94h809v-102l-729 -1260q82 2 233 2h516v-94z" />
    <glyph glyph-name="zdotaccent" unicode="&#x17c;" horiz-adv-x="976" 
d="M541 1229h-107v205h107v-205zM879 0h-773v86l627 834q-94 -2 -180 -2h-406v86h711v-84l-629 -834q96 2 177 2h473v-88z" />
    <glyph glyph-name="Zcaron" unicode="&#x17d;" horiz-adv-x="1107" 
d="M520 1698l234 172l49 -55l-283 -236l-282 236l49 55zM989 0h-860v102q674 1200 723 1260q-82 -2 -277 -2h-415v94h809v-102l-729 -1260q82 2 233 2h516v-94z" />
    <glyph glyph-name="zcaron" unicode="&#x17e;" horiz-adv-x="976" 
d="M455 1282l233 172l49 -55l-282 -236l-283 236l49 55zM879 0h-773v86l627 834q-94 -2 -180 -2h-406v86h711v-84l-629 -834q96 2 177 2h473v-88z" />
    <glyph glyph-name="longs" unicode="&#x17f;" horiz-adv-x="759" 
d="M561 1393q-113 0 -149 -64q-27 -49 -27 -180v-1149h-98v922h-219v82h219v149q0 188 61 254q72 74 184 74t201 -47l-31 -74q-76 33 -141 33z" />
    <glyph glyph-name="florin" unicode="&#x192;" horiz-adv-x="1157" 
d="M904 1481q118 0 192 -66l-41 -67q-68 43 -143 43q-76 -1 -108 -49t-50 -142l-56 -282h240l-16 -87h-240l-180 -931q-27 -135 -85 -204t-176 -69t-194 68l43 67q72 -45 144 -45q72 1 106 49q33 48 51 142l180 923h-219l17 87h219l55 290q27 135 85 204t176 69z" />
    <glyph glyph-name="Aringacute" unicode="&#x1fa;" horiz-adv-x="1087" 
d="M344 1716l330 199l47 -98l-350 -154zM674 1532q0 36 -35 58t-96 22t-97 -22t-34 -58q0 -36 34 -56q34 -22 97 -22h18q113 6 113 78zM774 451l-151 544q-49 166 -78 308h-4q-29 -141 -78 -308l-156 -544h467zM481 1395q-135 25 -135 145q0 58 51 96t147 37q96 1 146 -37
q51 -38 51 -104q0 -111 -131 -135l410 -1397h-117l-102 358h-518l-103 -358h-112z" />
    <glyph glyph-name="aringacute" unicode="&#x1fb;" horiz-adv-x="1062" 
d="M342 1604l326 237l57 -98l-348 -193zM664 1320q0 54 -39 93t-93 39t-92 -39q-39 -39 -39 -92t39 -92t93 -39t93 38q38 38 38 92zM731 1321q0 -82 -58 -140q-57 -59 -139 -59t-140 58t-58 141q0 82 57 139q57 58 139 58t140 -58t59 -139zM764 317v281q-25 -23 -72 -41
t-153 -49t-144 -45q-156 -61 -155 -207q0 -90 47 -140t139 -50q209 -1 338 251zM420 -23q-131 0 -208 75t-77 206q0 213 254 299q31 10 141 40t152 44q43 13 62 31t20 45v31q0 190 -239 190t-249 -178l-100 10q6 125 104 191q98 65 254 65q158 0 243 -71t85 -207v-508
q0 -96 20 -130t87 -47l-11 -77q-100 6 -146 52t-48 146q-131 -207 -344 -207z" />
    <glyph glyph-name="AEacute" unicode="&#x1fc;" horiz-adv-x="1509" 
d="M721 1667l326 238l57 -99l-348 -192zM678 455v796l-371 -796h371zM1403 0h-725v352h-420l-162 -352h-119l682 1454h744v-94h-619v-563h490v-95h-490v-608h619v-94z" />
    <glyph glyph-name="aeacute" unicode="&#x1fd;" horiz-adv-x="1693" 
d="M676 1217l325 237l58 -98l-348 -193zM872 481q0 -191 90 -303t204 -112t182 63t94 166l102 -21q-35 -127 -126 -212t-226 -85t-231 73t-140 181q-72 -117 -162 -185t-224 -69q-134 0 -217 79q-83 80 -83 224t108 222t275 78h252v163q0 83 -56 139t-184 56
q-225 0 -235 -178l-105 10q6 127 96 192q90 64 241 64q149 0 229 -55t100 -133q114 188 310 188t299 -123t104 -315q0 -57 -2 -96h-695v-11zM1171 938q-109 0 -199 -101t-98 -257h592q-4 168 -76 263q-74 95 -219 95zM770 492h-229q-133 0 -217 -52t-84 -158q0 -104 54 -160
t158 -56t179 65q76 65 139 174v187z" />
    <glyph glyph-name="Oslashacute" unicode="&#x1fe;" horiz-adv-x="1253" 
d="M258 727q0 -217 47 -369l608 826q-94 203 -286 202q-172 0 -271 -168q-98 -169 -98 -491zM995 727q0 215 -49 373l-610 -826q98 -207 291 -206q172 0 270 168t98 491zM1108 727q0 -346 -125 -550t-356 -204t-361 209l-59 -82l-62 43l82 113q-82 184 -82 500t125 521
q124 204 354 204t359 -203l64 86l61 -45l-86 -117q86 -195 86 -475zM434 1667l326 238l57 -99l-348 -192z" />
    <glyph glyph-name="oslashacute" unicode="&#x1ff;" horiz-adv-x="1081" 
d="M546 66q130 0 214 120t84 296q0 178 -60 292l-448 -606q80 -102 210 -102zM534 938q-128 0 -212 -120t-84 -300t57 -291l450 609q-83 102 -211 102zM946 496q0 -219 -108 -369t-283 -150q-174 0 -279 111l-86 -117l-55 39l98 133q-98 143 -98 363t109 371
q109 150 297 149q158 0 264 -111l86 117l55 -41l-98 -131q98 -145 98 -364zM348 1217l326 237l57 -98l-348 -193z" />
    <glyph glyph-name="Scommaaccent" unicode="&#x218;" horiz-adv-x="1198" 
d="M680 -152v-112q0 -94 -31 -132t-108 -61l-15 56q45 12 63 34q17 23 17 64h-90v151h164zM1055 365q0 -183 -115 -287t-337 -104t-339 117q-117 118 -121 333l111 22q4 -188 88 -283t258 -95t258 76t84 214q0 186 -223 293l-250 119q-152 72 -215 158t-64 205
q0 164 121 256t313 92t294 -109q104 -109 104 -274l-107 -23q-2 143 -76 228q-75 83 -221 83t-230 -68q-85 -68 -85 -181q0 -164 197 -258l266 -127q154 -74 222 -165t67 -222z" />
    <glyph glyph-name="scommaaccent" unicode="&#x219;" horiz-adv-x="1030" 
d="M596 -152v-112q0 -94 -31 -132t-108 -61l-15 56q45 12 63 34q17 23 17 64h-90v151h164zM887 255q0 -128 -96 -203q-97 -75 -275 -75t-277 79t-104 229l101 18q4 -125 74 -181t206 -56q135 0 202 52q66 52 66 137t-49 132t-166 78l-145 39q-135 37 -200 94q-64 57 -64 171
q0 113 93 185t258 72t256 -72t99 -188l-100 -18q-10 94 -66 142t-181 48t-191 -44t-66 -121t44 -113t151 -66l147 -41q143 -41 213 -105t70 -193z" />
    <glyph glyph-name="uni021A" unicode="&#x21a;" horiz-adv-x="1009" 
d="M586 -152v-112q0 -94 -31 -132t-109 -61l-14 56q45 12 63 34q17 23 17 64h-90v151h164zM936 1360h-377v-1360h-108v1360h-377v94h862v-94z" />
    <glyph glyph-name="uni021B" unicode="&#x21b;" horiz-adv-x="745" 
d="M555 -152v-112q0 -94 -31 -132t-108 -61l-15 56q45 12 63 34q17 23 17 64h-90v151h164zM517 -23q-101 0 -171 71t-70 257v617h-208v82h208v288l99 41v-329h287v-82h-287v-613q0 -66 6 -114q18 -129 160 -129q63 -1 137 28l29 -76q-88 -41 -190 -41z" />
    <glyph glyph-name="circumflex" unicode="&#x2c6;" horiz-adv-x="362" 
d="M416 1163l-234 172l-233 -172l-49 56l282 235l283 -235z" />
    <glyph glyph-name="caron" unicode="&#x2c7;" horiz-adv-x="362" 
d="M182 1282l234 172l49 -55l-283 -236l-282 236l49 55z" />
    <glyph glyph-name="breve" unicode="&#x2d8;" horiz-adv-x="368" 
d="M182 1178q-110 0 -180 48t-70 152h45q27 -112 205 -112t205 112h45q0 -104 -70 -152t-180 -48z" />
    <glyph glyph-name="dotaccent" unicode="&#x2d9;" horiz-adv-x="403" 
d="M254 1229h-107v205h107v-205z" />
    <glyph glyph-name="ring" unicode="&#x2da;" horiz-adv-x="378" 
d="M319 1320q0 54 -38 93q-39 39 -93 39t-92 -39q-39 -39 -39 -92t39 -92t93 -39t93 38q37 38 37 92zM387 1321q0 -82 -58 -140q-57 -59 -139 -59t-140 58t-58 141q0 82 57 139q57 58 139 58t140 -58t59 -139z" />
    <glyph glyph-name="ogonek" unicode="&#x2db;" horiz-adv-x="380" 
d="M127 -181q0 -100 104 -100q50 0 91 41l49 -41q-17 -31 -67 -53t-116 -22t-114 38q-49 38 -49 111q0 94 141 207h88q-41 -29 -84 -80t-43 -101z" />
    <glyph glyph-name="tilde" unicode="&#x2dc;" horiz-adv-x="364" 
d="M-10 1217h-80q0 80 50 130t116 50t122 -50q96 -85 148 -26q23 25 23 68h82q-1 -78 -53 -129q-52 -52 -114 -52t-118 50q-94 83 -152 26q-24 -24 -24 -67z" />
    <glyph glyph-name="hungarumlaut" unicode="&#x2dd;" horiz-adv-x="350" 
d="M-49 1208l285 240l67 -98l-311 -193zM281 1208l284 240l68 -98l-311 -193z" />
    <glyph glyph-name="uni03A9" unicode="&#x3a9;" horiz-adv-x="1204" 
d="M526 0h-387v98h281v234q-281 154 -281 553q0 279 122 437t343 159q221 0 343 -159t122 -437q0 -399 -281 -553v-234h279v-98h-385v377q276 100 276 504q0 253 -96 377t-258 124t-258 -125t-96 -376q0 -404 276 -504v-377z" />
    <glyph glyph-name="pi" unicode="&#x3c0;" horiz-adv-x="1222" 
d="M412 0h-103v911h-194v93h981v-93h-205v-698q1 -76 23 -107q22 -30 77 -30t105 26l37 -75q-70 -39 -150 -39q-190 0 -190 213v710h-381v-911z" />
    <glyph glyph-name="Wgrave" unicode="&#x1e80;" horiz-adv-x="1591" 
d="M662 1905l325 -238l-35 -53l-348 192zM1479 1454l-303 -1454h-99l-219 938q-47 205 -61 348h-4q-14 -123 -60 -348l-215 -938h-104l-301 1454h106l193 -965q49 -256 59 -342h4q12 137 60 342l215 965h88l223 -965q47 -203 61 -342h4q8 121 56 342l194 965h103z" />
    <glyph glyph-name="wgrave" unicode="&#x1e81;" horiz-adv-x="1263" 
d="M498 1454l325 -237l-35 -54l-348 193zM1174 1004l-250 -1004h-88l-160 647q-29 123 -41 227h-4q-12 -88 -45 -227l-156 -647h-90l-250 1004h98l152 -644q29 -123 47 -227h4q18 104 47 227l152 644h88l151 -644q29 -123 48 -227h4q23 117 49 227l149 644h95z" />
    <glyph glyph-name="Wacute" unicode="&#x1e82;" horiz-adv-x="1591" 
d="M604 1667l326 238l57 -99l-348 -192zM1479 1454l-303 -1454h-99l-219 938q-47 205 -61 348h-4q-14 -123 -60 -348l-215 -938h-104l-301 1454h106l193 -965q49 -256 59 -342h4q12 137 60 342l215 965h88l223 -965q47 -203 61 -342h4q8 121 56 342l194 965h103z" />
    <glyph glyph-name="wacute" unicode="&#x1e83;" horiz-adv-x="1263" 
d="M440 1217l326 237l57 -98l-348 -193zM1174 1004l-250 -1004h-88l-160 647q-29 123 -41 227h-4q-12 -88 -45 -227l-156 -647h-90l-250 1004h98l152 -644q29 -123 47 -227h4q18 104 47 227l152 644h88l151 -644q29 -123 48 -227h4q23 117 49 227l149 644h95z" />
    <glyph glyph-name="Wdieresis" unicode="&#x1e84;" horiz-adv-x="1591" 
d="M989 1671h-112v184h112v-184zM715 1671h-113v184h113v-184zM1479 1454l-303 -1454h-99l-219 938q-47 205 -61 348h-4q-14 -123 -60 -348l-215 -938h-104l-301 1454h106l193 -965q49 -256 59 -342h4q12 137 60 342l215 965h88l223 -965q47 -203 61 -342h4q8 121 56 342
l194 965h103z" />
    <glyph glyph-name="wdieresis" unicode="&#x1e85;" horiz-adv-x="1263" 
d="M825 1221h-112v184h112v-184zM551 1221h-113v184h113v-184zM1174 1004l-250 -1004h-88l-160 647q-29 123 -41 227h-4q-12 -88 -45 -227l-156 -647h-90l-250 1004h98l152 -644q29 -123 47 -227h4q18 104 47 227l152 644h88l151 -644q29 -123 48 -227h4q23 117 49 227
l149 644h95z" />
    <glyph glyph-name="Ygrave" unicode="&#x1ef2;" horiz-adv-x="1048" 
d="M389 1905l326 -238l-35 -53l-348 192zM582 0h-109v657l-434 797h127l364 -678l357 678h123l-428 -797v-657z" />
    <glyph glyph-name="ygrave" unicode="&#x1ef3;" horiz-adv-x="886" 
d="M307 1454l326 -237l-35 -54l-348 193zM164 -426q-100 0 -176 51l37 74q73 -37 133 -37t96 37t63 117l64 184l-358 1004h110l234 -682l59 -187h4q27 92 59 187l234 682h108l-419 -1197q-39 -105 -94 -169q-54 -64 -154 -64z" />
    <glyph glyph-name="endash" unicode="&#x2013;" horiz-adv-x="1351" 
d="M1188 541h-1024v90h1024v-90z" />
    <glyph glyph-name="emdash" unicode="&#x2014;" horiz-adv-x="2101" 
d="M1808 541h-1515v90h1515v-90z" />
    <glyph glyph-name="quoteleft" unicode="&#x2018;" horiz-adv-x="735" 
d="M287 1026v180q-1 136 35 192t120 68v-61q-45 -6 -64 -37t-20 -147h93v-195h-164z" />
    <glyph glyph-name="quoteright" unicode="&#x2019;" horiz-adv-x="735" 
d="M449 1454v-180q0 -136 -36 -192t-120 -68v61q45 6 64 37t20 148h-92v194h164z" />
    <glyph glyph-name="quotesinglbase" unicode="&#x201a;" horiz-adv-x="735" 
d="M449 195v-181q0 -135 -36 -191t-120 -69v62q45 6 64 37t20 147h-92v195h164z" />
    <glyph glyph-name="quotedblleft" unicode="&#x201c;" horiz-adv-x="1030" 
d="M293 1026v180q0 136 36 192t120 68v-61q-45 -6 -65 -37t-19 -147h92v-195h-164zM573 1026v180q0 136 36 192t120 68v-61q-45 -6 -64 -37t-20 -147h92v-195h-164z" />
    <glyph glyph-name="quotedblright" unicode="&#x201d;" horiz-adv-x="1030" 
d="M737 1454v-180q1 -136 -35 -192t-120 -68v61q45 6 64 37t20 148h-93v194h164zM457 1454v-180q0 -136 -36 -192t-120 -68v61q45 6 65 37t19 148h-92v194h164z" />
    <glyph glyph-name="quotedblbase" unicode="&#x201e;" horiz-adv-x="1030" 
d="M737 195v-181q1 -135 -35 -191t-120 -69v62q45 6 64 37t20 147h-93v195h164zM457 195v-181q0 -135 -36 -191t-120 -69v62q45 6 65 37t19 147h-92v195h164z" />
    <glyph glyph-name="dagger" unicode="&#x2020;" horiz-adv-x="1015" 
d="M553 -102h-90v1030q-215 -6 -369 -6v82l369 -7v449h90v-449q215 6 369 7v-82l-369 6v-1030z" />
    <glyph glyph-name="daggerdbl" unicode="&#x2021;" horiz-adv-x="1015" 
d="M94 922v82l369 -7v449h90v-449q215 6 369 7v-82l-369 6v-852q215 6 369 6v-82l-369 6v-448h-90v448q-215 -6 -369 -6v82l369 -6v852q-215 -6 -369 -6z" />
    <glyph glyph-name="bullet" unicode="&#x2022;" horiz-adv-x="1050" 
d="M162 588q0 143 99 242q99 100 243 100t244 -100t100 -242q0 -144 -100 -244t-244 -100t-243 100q-99 101 -99 244z" />
    <glyph glyph-name="ellipsis" unicode="&#x2026;" horiz-adv-x="2097" 
d="M1812 0h-159v184h159v-184zM1130 0h-159v184h159v-184zM446 0h-159v184h159v-184z" />
    <glyph glyph-name="perthousand" unicode="&#x2030;" horiz-adv-x="2394" 
d="M1311 1454l-895 -1517l-66 36l895 1518zM2140 373q0 309 -176 309q-84 0 -133 -77t-49 -233t49 -231t132 -75t130 76t47 231zM2228 367q0 -178 -70 -278q-71 -99 -194 -99t-197 100q-73 100 -73 284t73 283q74 101 195 101q122 0 194 -106t72 -285zM584 1079
q0 309 -176 310q-84 0 -134 -77t-49 -233q0 -155 49 -231q48 -76 132 -76t131 76t47 231zM137 1080q0 184 74 284t195 100q122 0 194 -106t72 -285q0 -178 -71 -277q-71 -100 -193 -100t-197 100q-74 100 -74 284zM1450 373q0 309 -176 309q-84 0 -133 -77t-49 -233t49 -231
t132 -75t130 76t47 231zM1538 367q0 -177 -71 -277t-193 -100t-197 100q-73 100 -73 284t73 283q74 101 195 101q122 0 194 -106t72 -285z" />
    <glyph glyph-name="guilsinglleft" unicode="&#x2039;" horiz-adv-x="620" 
d="M412 102l-299 414l299 414l63 -43l-254 -371l254 -371z" />
    <glyph glyph-name="guilsinglright" unicode="&#x203a;" horiz-adv-x="620" 
d="M508 516l-299 -414l-64 43l254 371l-254 371l64 43z" />
    <glyph glyph-name="fraction" unicode="&#x2044;" horiz-adv-x="315" 
d="M631 1454l-895 -1517l-66 36l895 1518z" />
    <glyph glyph-name="Euro" unicode="&#x20ac;" horiz-adv-x="1157" 
d="M711 68q236 0 280 270l109 -21q-68 -344 -391 -344q-201 0 -317 163t-140 450h-166l18 82h142v135h-160l18 82h148q28 279 148 437t300 159t269 -95q90 -96 114 -229l-106 -16q-53 246 -266 245q-137 0 -229 -130t-117 -371h536l-20 -82h-523v-135h496l-20 -82h-472
q20 -254 110 -386t239 -132z" />
    <glyph glyph-name="afii61289" unicode="&#x2113;" horiz-adv-x="833" 
d="M340 1124v-520q305 309 305 592q0 94 -39 144t-104 51q-162 0 -162 -267zM248 1122q0 349 254 351q117 0 173 -76t56 -193q0 -346 -391 -702v-207q0 -117 41 -174t133 -58q63 0 148 72l45 -57q-98 -98 -207 -98q-141 0 -205 100q-47 74 -47 221v123q-86 -69 -131 -102
l-43 53q82 63 174 141v606z" />
    <glyph glyph-name="afii61352" unicode="&#x2116;" horiz-adv-x="1982" 
d="M1260 657v84h530v-84h-530zM1692 1159q0 109 -45 168t-124 59t-124 -59t-45 -168t45 -167t124 -58t124 58t45 167zM1786 1159q0 -145 -73 -227t-191 -82t-191 82q-72 82 -71 227q0 145 71 226q72 81 191 81q120 0 192 -81t72 -226zM231 1454h150l498 -1092
q70 -158 92 -212h4q-6 135 -6 241v1063h108v-1454h-147l-500 1096q-68 152 -90 209h-4q4 -92 4 -238v-1067h-109v1454z" />
    <glyph glyph-name="uni2117" unicode="&#x2117;" horiz-adv-x="1777" 
d="M1559 727q0 283 -194 479q-195 196 -477 197q-282 0 -476 -197q-194 -198 -193 -480q0 -282 194 -478q195 -196 477 -197q282 1 476 197t193 479zM1642 727q0 -317 -219 -535t-534 -219q-315 0 -535 218q-219 217 -219 535t218 536q219 218 535 219q316 -1 535 -219
t219 -535zM956 766q189 0 189 174t-187 174h-192v-348h190zM963 686h-197v-416h-94v926h293q113 0 172 -45q104 -76 104 -203q-1 -126 -73 -194t-205 -68z" />
    <glyph glyph-name="trademark" unicode="&#x2122;" horiz-adv-x="1523" 
d="M1389 651h-80v494q0 86 10 188h-4q-18 -88 -41 -151l-176 -531h-58l-178 531q-35 111 -43 151h-4q10 -68 10 -174v-508h-75v803h98l186 -567q6 -23 35 -133h4q20 100 33 133l182 567h101v-803zM670 1380h-238v-729h-80v729h-235v74h553v-74z" />
    <glyph glyph-name="Omega" unicode="&#x2126;" horiz-adv-x="1204" 
d="M526 0h-387v98h281v234q-281 154 -281 553q0 279 122 437t343 159q221 0 343 -159t122 -437q0 -399 -281 -553v-234h279v-98h-385v377q276 100 276 504q0 253 -96 377t-258 124t-258 -125t-96 -376q0 -404 276 -504v-377z" />
    <glyph glyph-name="estimated" unicode="&#x212e;" horiz-adv-x="1361" 
d="M408 573h567v285q-119 117 -287 117t-280 -117v-285zM408 504v-354q111 -115 282 -115q240 0 377 233l68 -39q-89 -141 -191 -201t-254 -61q-225 0 -363 154t-139 383q0 229 138 383q138 153 363 153q223 0 363 -149t142 -387h-786z" />
    <glyph glyph-name="arrowleft" unicode="&#x2190;" horiz-adv-x="1724" 
d="M582 768h1007v-84h-1007q-170 0 -281 4q99 -71 188 -147l224 -191l-54 -63l-524 440l524 440l54 -63l-228 -193q-18 -16 -184 -145q55 2 281 2z" />
    <glyph glyph-name="arrowup" unicode="&#x2191;" horiz-adv-x="1724" 
d="M903 1008v-1008h-84v1008q0 170 4 280q-71 -99 -147 -188l-191 -223l-63 53l440 524l441 -524l-64 -53l-192 227q-16 18 -146 184q2 -55 2 -280z" />
    <glyph glyph-name="arrowright" unicode="&#x2192;" horiz-adv-x="1724" 
d="M1143 686h-1008v84h1008q170 0 280 -4l-188 147l-223 191l53 63l524 -440l-524 -440l-53 63l227 193q18 16 184 145q-55 -2 -280 -2z" />
    <glyph glyph-name="arrowdown" unicode="&#x2193;" horiz-adv-x="1724" 
d="M821 446v1008h84v-1008q0 -170 -4 -280l148 188l190 224l64 -54l-441 -524l-440 524l63 54l193 -228q16 -18 145 -184q-2 55 -2 280z" />
    <glyph glyph-name="uni2196" unicode="&#x2196;" horiz-adv-x="1724" 
d="M408 559l-60 682l682 -59l-8 -82l-295 24q-134 11 -233 27q39 -37 198 -197l713 -712l-59 -60l-713 713q-84 84 -195 201q2 -23 14 -107t15 -131l22 -291z" />
    <glyph glyph-name="uni2197" unicode="&#x2197;" horiz-adv-x="1724" 
d="M723 1180l682 59l-59 -682l-82 8l24 295q9 119 27 234q-37 -39 -197 -199l-712 -713l-60 60l713 712q84 84 201 195q-23 -2 -107 -13t-131 -16l-291 -22z" />
    <glyph glyph-name="uni2198" unicode="&#x2198;" horiz-adv-x="1724" 
d="M1343 862l60 -682l-682 60l8 82l295 -25q182 -14 233 -27q-39 37 -198 197l-713 713l60 59l712 -713q84 -84 195 -200q-1 22 -13 106t-16 131l-22 291z" />
    <glyph glyph-name="uni2199" unicode="&#x2199;" horiz-adv-x="1724" 
d="M1026 240l-682 -60l59 682l82 -8l-24 -295q-11 -134 -27 -233q37 39 197 198l712 713l60 -59l-713 -713q-84 -84 -201 -195q23 2 107 14t131 15l291 23z" />
    <glyph glyph-name="uni21A4" unicode="&#x21a4;" horiz-adv-x="1724" 
d="M1507 307v377h-925q-170 0 -281 4q99 -71 188 -147l224 -191l-54 -63l-524 440l524 440l54 -63l-228 -193q-18 -16 -184 -145q55 2 281 2h925v379h82v-840h-82z" />
    <glyph glyph-name="uni21A5" unicode="&#x21a5;" horiz-adv-x="1724" 
d="M442 82h377v926q0 170 4 280q-71 -99 -147 -188l-191 -223l-63 53l440 524l441 -524l-64 -53l-192 227q-16 18 -146 184q2 -55 2 -280v-926h379v-82h-840v82z" />
    <glyph glyph-name="uni21A6" unicode="&#x21a6;" horiz-adv-x="1724" 
d="M217 1147v-377h926q170 0 280 -4l-188 147l-223 191l53 63l524 -440l-524 -440l-53 63l227 193q18 16 184 145q-55 -2 -280 -2h-926v-379h-82v840h82z" />
    <glyph glyph-name="uni21A7" unicode="&#x21a7;" horiz-adv-x="1724" 
d="M1282 1372h-377v-926q0 -170 -4 -280l148 188l190 224l64 -54l-441 -524l-440 524l63 54l193 -228q16 -18 145 -184q-2 55 -2 280v926h-379v82h840v-82z" />
    <glyph glyph-name="uni21B0" unicode="&#x21b0;" horiz-adv-x="1724" 
d="M1507 307v377h-925q-170 0 -281 4q99 -71 188 -147l224 -191l-54 -63l-524 440l524 440l54 -63l-228 -193q-18 -16 -184 -145q55 2 281 2h1007v-461h-82z" />
    <glyph glyph-name="uni21B1" unicode="&#x21b1;" horiz-adv-x="1724" 
d="M217 684v-377h-82v461h1008q225 0 280 -2q-166 129 -184 145l-227 193l53 63l524 -440l-524 -440l-53 63l223 191l188 147q-111 -4 -280 -4h-926z" />
    <glyph glyph-name="uni21B2" unicode="&#x21b2;" horiz-adv-x="1724" 
d="M1507 770v377h82v-461h-1007q-225 0 -281 2q166 -129 184 -145l228 -193l-54 -63l-524 440l524 440l54 -63l-224 -191q-86 -74 -188 -147q111 4 281 4h925z" />
    <glyph glyph-name="uni21B3" unicode="&#x21b3;" horiz-adv-x="1724" 
d="M217 1147v-377h926q170 0 280 -4l-188 147l-223 191l53 63l524 -440l-524 -440l-53 63l227 193q18 16 184 145q-55 -2 -280 -2h-1008v461h82z" />
    <glyph glyph-name="uni21B4" unicode="&#x21b4;" horiz-adv-x="1724" 
d="M819 1372h-377v82h461v-1008q0 -225 -2 -280q129 166 146 184l192 228l64 -54l-441 -524l-440 524l63 54l191 -224l147 -188q-4 111 -4 280v926z" />
    <glyph glyph-name="carriagereturn" unicode="&#x21b5;" horiz-adv-x="1724" 
d="M1507 770v377h82v-461h-1007q-225 0 -281 2q166 -129 184 -145l228 -193l-54 -63l-524 440l524 440l54 -63l-224 -191q-86 -74 -188 -147q111 4 281 4h925z" />
    <glyph glyph-name="partialdiff" unicode="&#x2202;" horiz-adv-x="1013" 
d="M907 676q0 -346 -121 -531q-111 -168 -313 -172q-174 0 -277 117q-104 118 -104 320t109 338t286 135q177 0 318 -154q0 201 -41 375q-68 293 -297 293q-110 0 -219 -82l-51 67q133 98 287 98t257 -114q166 -178 166 -690zM193 417q-1 -169 75 -263t199 -95
q152 1 242 143t90 390q-41 90 -125 147t-162 58q-145 0 -232 -106t-87 -274z" />
    <glyph glyph-name="Delta" unicode="&#x2206;" horiz-adv-x="1222" 
d="M1028 94l-426 1200l-420 -1200h846zM1167 0h-1122l518 1454h76z" />
    <glyph glyph-name="product" unicode="&#x220f;" horiz-adv-x="1245" 
d="M180 1720h885v-2162h-107v2068h-671v-2068h-107v2162z" />
    <glyph glyph-name="summation" unicode="&#x2211;" horiz-adv-x="925" 
d="M852 -442h-778v84l573 999l-573 995v84h778v-94h-655l569 -985l-569 -989h655v-94z" />
    <glyph glyph-name="minus" unicode="&#x2212;" 
d="M197 565h970v-82h-970v82z" />
    <glyph glyph-name="uni2219" unicode="&#x2219;" horiz-adv-x="618" 
d="M379 442h-164v195h164v-195z" />
    <glyph glyph-name="radical" unicode="&#x221a;" horiz-adv-x="991" 
d="M510 -297l422 2017h104l-463 -2162h-90l-352 712l-92 -45l-39 78l178 90z" />
    <glyph glyph-name="infinity" unicode="&#x221e;" 
d="M1206 534q0 -120 -62 -196t-152 -76t-158 54t-150 155q-61 -75 -93 -107t-90 -67t-116 -35q-100 0 -164 74q-63 74 -63 192t63 195q63 78 158 78q57 0 115 -37t96 -76q37 -39 94 -110q131 170 212 206q40 18 83 19q99 0 163 -75t64 -194zM1118 528q0 86 -34 138t-90 51
q-56 0 -108 -35t-83 -68t-76 -88q152 -178 258 -178q133 0 133 180zM385 348q45 0 95 31t80 61t77 86q-2 4 -40 46q-52 58 -104 100q-52 43 -115 43q-62 0 -97 -53t-35 -134q0 -180 139 -180z" />
    <glyph glyph-name="uni2224" unicode="&#x2224;" horiz-adv-x="618" 
d="M379 442h-164v195h164v-195z" />
    <glyph glyph-name="logicaland" unicode="&#x2227;" horiz-adv-x="618" 
d="M379 442h-164v195h164v-195z" />
    <glyph glyph-name="integral" unicode="&#x222b;" horiz-adv-x="1075" 
d="M440 -217v1724q0 213 195 213q90 0 162 -61l-41 -66q-47 37 -106 37q-60 0 -82 -28t-21 -107v-1724q0 -213 -195 -213q-90 0 -162 61l41 66q47 -37 106 -37t81 28t22 107z" />
    <glyph glyph-name="approxequal" unicode="&#x2248;" 
d="M430 395q-64 1 -106 -27t-43 -81h-82q0 94 71 143q72 49 158 49t130 -14q44 -15 142 -65t135 -61q35 -11 99 -11t106 28t43 80h82q1 -94 -71 -143t-158 -49t-130 14t-143 65q-98 50 -134 61q-35 11 -99 11zM1165 764q1 -94 -71 -143t-158 -49t-130 14t-143 64
q-98 50 -134 62q-35 12 -99 11q-64 0 -106 -28t-43 -81h-82q0 94 71 144q72 49 158 49t130 -14q44 -15 142 -65t135 -61q35 -11 99 -11t106 27q42 28 43 81h82z" />
    <glyph glyph-name="notequal" unicode="&#x2260;" 
d="M1167 322h-532l-117 -275l-76 35l101 240h-346v81h381l106 246h-487v82h522l123 287l78 -33l-109 -254h356v-82h-391l-106 -246h497v-81z" />
    <glyph glyph-name="lessequal" unicode="&#x2264;" 
d="M197 561v78l948 395l33 -76l-715 -288q-119 -47 -180 -68v-4q61 -20 180 -68l715 -288l-33 -76zM197 -35v82h970v-82h-970z" />
    <glyph glyph-name="greaterequal" unicode="&#x2265;" 
d="M1167 639v-78l-948 -395l-33 76l715 288q119 47 180 68v4q-61 20 -180 68l-715 288l33 76zM1167 -35h-970v82h970v-82z" />
    <glyph glyph-name="dotmath" unicode="&#x22c5;" horiz-adv-x="618" 
d="M379 442h-164v195h164v-195z" />
    <glyph glyph-name="lozenge" unicode="&#x25ca;" horiz-adv-x="1261" 
d="M629 41q144 350 291 690l-291 686l-289 -686zM1024 731l-338 -776h-115l-333 776l333 774h115z" />
    <glyph glyph-name="apple" unicode="&#xf8ff;" horiz-adv-x="1155" 
d="M864 803h-573v-578h573v578zM963 135h-770v758h770v-758z" />
    <glyph glyph-name="one.plf" horiz-adv-x="913" 
d="M643 1411v-1411h-104v1264q-47 -52 -170 -160t-219 -182l-60 75q244 188 459 414h94z" />
    <glyph glyph-name="two.plf" horiz-adv-x="1067" 
d="M911 0h-774v96q246 211 471 482q106 129 153 231q46 102 46 236q0 133 -67 215t-205 82q-139 0 -215 -85q-76 -84 -76 -233l-109 12q5 176 107 287t290 111q225 0 326 -162q57 -92 57 -238t-62 -271t-192 -279t-395 -394q135 2 275 2h370v-92z" />
    <glyph glyph-name="three.plf" horiz-adv-x="1159" 
d="M1008 420q0 -211 -118 -327t-318 -116t-310 119t-110 281l110 16q2 -139 80 -231t234 -92t239 87q84 87 84 249q0 338 -381 337h-80v88h80q156 0 248 68t92 194t-75 187t-203 61q-128 -1 -202 -69q-75 -68 -79 -180l-109 14q6 141 112 234q106 94 282 94t278 -89
t102 -235t-79 -222q-80 -75 -183 -93v-4q97 -12 191 -84q51 -39 83 -114t32 -173z" />
    <glyph glyph-name="four.plf" horiz-adv-x="1103" 
d="M684 438v779l-457 -779h457zM1004 346h-216v-346h-104v346h-561v105l567 960h98v-973h216v-92z" />
    <glyph glyph-name="five.plf" horiz-adv-x="1179" 
d="M1034 466q0 -222 -122 -355t-314 -133t-301 102t-139 268l108 17q47 -295 332 -295q145 0 237 104q91 104 91 290t-89 280q-89 95 -243 96q-102 0 -185 -50t-130 -139h-76l39 760h706v-92h-616l-31 -512q115 125 306 125t309 -122t118 -344z" />
    <glyph glyph-name="six.plf" horiz-adv-x="1173" 
d="M936 435q0 175 -82 273t-228 97q-146 0 -243 -99q-96 -99 -96 -259t87 -269q87 -108 232 -108t238 95q92 95 92 270zM1044 438q0 -209 -120 -335t-318 -126q-250 0 -364 222q-84 162 -84 438q0 379 138 588t345 209q174 0 262 -98t101 -249l-109 -12q-23 266 -260 266
q-160 0 -260 -178q-106 -184 -109 -491q111 225 363 225q195 0 305 -125t110 -334z" />
    <glyph glyph-name="seven.plf" horiz-adv-x="962" 
d="M885 1411v-84q-444 -608 -473 -1327h-107q23 392 139 706t334 613h-710v92h817z" />
    <glyph glyph-name="eight.plf" horiz-adv-x="1191" 
d="M596 811q130 -1 204 75t74 192t-76 190q-77 74 -202 74t-202 -74t-77 -190t74 -192t205 -75zM266 392q0 -138 91 -230t239 -92t238 92q92 92 92 230t-90 232t-240 95q-150 0 -240 -94t-90 -233zM1034 395q0 -182 -123 -300t-315 -118t-316 118q-122 118 -122 300
q0 143 87 247t197 126v4q-104 31 -168 113q-63 82 -63 216t110 233q109 100 275 100t276 -100t109 -233q0 -134 -61 -216t-166 -113v-4q112 -20 196 -125t84 -248z" />
    <glyph glyph-name="nine.plf" horiz-adv-x="1167" 
d="M568 1341q-150 0 -240 -97q-90 -96 -90 -250t87 -256t236 -101q149 0 236 96q86 96 86 256t-82 256t-233 96zM557 545q-190 1 -309 125t-119 320t120 320q119 124 329 124t327 -156q105 -143 105 -513q1 -786 -453 -788q-182 1 -279 101t-98 254l109 20q1 -137 69 -210
t203 -72q98 0 160 46q61 46 106 140q74 156 74 492q-96 -203 -344 -203z" />
    <glyph glyph-name="zero.plf" horiz-adv-x="1220" 
d="M152 711q0 342 115 532q116 191 342 191t343 -196t117 -532t-117 -533q-117 -196 -342 -196t-342 196q-116 196 -116 538zM260 707q0 -303 90 -470t260 -167t260 167t91 470q-1 303 -91 469t-260 166t-260 -166t-90 -469z" />
    <glyph glyph-name="parenleft.case" horiz-adv-x="675" 
d="M197 704q0 506 352 971l65 -47q-168 -244 -242 -458t-73 -466q-1 -252 73 -466q74 -215 242 -459l-65 -47q-352 466 -352 972z" />
    <glyph glyph-name="parenright.case" horiz-adv-x="675" 
d="M377 705q0 251 -74 465t-242 458l66 47q352 -465 352 -971t-352 -972l-66 47q168 244 242 459t74 467z" />
    <glyph glyph-name="hyphen.case" horiz-adv-x="911" 
d="M731 694h-551v90h551v-90z" />
    <glyph glyph-name="bracketleft.case" horiz-adv-x="688" 
d="M643 -236h-356v1891h356v-82h-262v-1727h262v-82z" />
    <glyph glyph-name="bracketright.case" horiz-adv-x="688" 
d="M401 -236h-356v82h262v1727h-262v82h356v-1891z" />
    <glyph glyph-name="braceleft.case" horiz-adv-x="641" 
d="M205 991v338q0 100 16 166q15 66 71 113t148 47h66v-84h-39q-125 0 -150 -88q-14 -51 -14 -150v-338q0 -113 -14 -157q-27 -90 -117 -125v-4q90 -35 117 -125q14 -45 14 -158v-340q0 -98 14 -149q25 -88 150 -89h39v-84h-66q-92 0 -147 48t-71 112q-16 65 -17 166v340
q0 104 -12 150q-23 82 -138 88v86q115 6 138 88q12 45 12 149z" />
    <glyph glyph-name="braceright.case" horiz-adv-x="641" 
d="M436 90q0 -100 -16 -166t-72 -112t-147 -48h-66v84h39q125 0 150 89q14 51 14 149v340q0 113 14 158q27 90 117 125v4q-90 35 -117 125q-14 45 -14 157v338q0 98 -14 150q-25 88 -150 88h-39v84h66q92 0 147 -47q56 -46 72 -112t16 -167v-338q0 -104 13 -149
q22 -82 137 -88v-86q-115 -6 -137 -88q-12 -45 -13 -150v-340z" />
    <glyph glyph-name="guillemotleft.case" horiz-adv-x="921" 
d="M713 256l-299 414l299 413l63 -43l-254 -370l254 -371zM412 256l-299 414l299 413l63 -43l-254 -370l254 -371z" />
    <glyph glyph-name="uni00AD.case" horiz-adv-x="911" 
d="M731 694h-551v90h551v-90z" />
    <glyph glyph-name="guillemotright.case" horiz-adv-x="921" 
d="M508 670l-299 -414l-64 43l254 371l-254 370l64 43zM809 670l-299 -414l-64 43l254 371l-254 370l64 43z" />
    <glyph glyph-name="endash.case" horiz-adv-x="1024" 
d="M1024 694h-1024v90h1024v-90z" />
    <glyph glyph-name="emdash.case" horiz-adv-x="2101" 
d="M1808 694h-1515v90h1515v-90z" />
    <glyph glyph-name="guilsinglleft.case" horiz-adv-x="620" 
d="M412 256l-299 414l299 413l63 -43l-254 -370l254 -371z" />
    <glyph glyph-name="guilsinglright.case" horiz-adv-x="620" 
d="M508 670l-299 -414l-64 43l254 371l-254 370l64 43z" />
    <glyph glyph-name="commaaccent" horiz-adv-x="735" 
d="M449 -152v-112q0 -94 -31 -132t-109 -61l-14 56q45 13 62 35t18 63h-90v151h164z" />
    <glyph glyph-name="commaturn" horiz-adv-x="735" 
d="M287 1303v112q0 94 30 132q31 38 109 61l14 -56q-45 -12 -62 -34t-18 -64h91v-151h-164z" />
    <glyph glyph-name="f_b" horiz-adv-x="1794" 
d="M1556 494q0 200 -78 322t-213 122q-134 0 -212 -125t-78 -310t76 -311t208 -126t215 113q82 114 82 315zM1276 1026q166 0 274 -142t109 -376q-1 -234 -105 -382t-284 -149q-102 -1 -180 55t-113 144h-4q0 -57 -8 -176h-95q8 205 9 307v1055q-43 4 -139 18t-162 15
q-123 0 -164 -72q-29 -53 -29 -174v-145h317v-82h-317v-922h-98v922h-219v82h219v149q-1 180 69 254t209 74q84 -1 199 -19t213 -26v-461q0 -90 -2 -139h4q90 190 297 190z" />
    <glyph glyph-name="f_f_j" horiz-adv-x="1757" 
d="M1573 1229h-107v205h107v-205zM561 1393q-113 0 -149 -64q-27 -49 -27 -180v-145h494v149q0 188 61 254q72 74 193 74q84 0 167 -43l-30 -72q-66 29 -131 29q-98 0 -135 -66q-27 -49 -27 -180v-145h592v-1104q0 -113 -5 -155t-30 -79q-60 -92 -182 -92t-193 43l35 76
q59 -31 134 -31t103 29q27 29 33 72t6 141v1018h-493v-922h-98v922h-494v-922h-98v922h-219v82h219v149q0 188 61 254q72 74 184 74t201 -47l-31 -74q-76 33 -141 33z" />
    <glyph glyph-name="f_f_t" horiz-adv-x="1939" 
d="M561 1393q-113 0 -149 -64q-27 -49 -27 -180v-145h494v149q0 188 61 254q72 74 193 74q84 0 167 -43l-30 -72q-66 29 -131 29q-98 0 -135 -66q-27 -49 -27 -180v-145h493v288l99 41v-329h286v-82h-286v-613q0 -66 6 -114q18 -129 160 -129q63 0 137 28l29 -76
q-88 -41 -190 -41q-101 0 -171 71t-70 257v617h-493v-922h-98v922h-494v-922h-98v922h-219v82h219v149q0 188 61 254q72 74 184 74t201 -47l-31 -74q-76 33 -141 33z" />
    <glyph glyph-name="f_h" horiz-adv-x="1785" 
d="M1274 1026q325 0 328 -377v-649h-99v631q0 135 -39 203q-59 104 -202 104t-224 -125q-61 -96 -61 -238v-575h-98v1362q-43 4 -139 18t-162 15q-123 0 -164 -72q-29 -53 -29 -174v-145h317v-82h-317v-922h-98v922h-219v82h219v149q-1 180 69 254t209 74q84 -1 199 -19
t213 -26v-441q0 -47 -4 -149h4q33 82 115 131t182 49z" />
    <glyph glyph-name="f_j" horiz-adv-x="1165" 
d="M981 1229h-107v205h107v-205zM977 -100q0 -113 -5 -155t-30 -79q-59 -92 -181 -92t-194 43l35 76q59 -31 134 -31t103 29q27 29 33 72t7 141v1018h-494v-922h-98v922h-219v82h219v149q0 188 61 254q72 74 176 74t185 -43l-31 -72q-66 29 -131 29q-98 0 -135 -66
q-27 -49 -27 -180v-145h592v-1104z" />
    <glyph glyph-name="f_k" horiz-adv-x="1683" 
d="M977 0h-98v1362q-43 4 -139 18t-162 15q-123 0 -164 -72q-29 -53 -29 -174v-145h317v-82h-317v-922h-98v922h-219v82h219v149q-1 180 69 254t209 74q84 -1 199 -19t213 -26v-994l508 562h137l-379 -408l395 -596h-122l-340 522l-199 -211v-311z" />
    <glyph glyph-name="f_t" horiz-adv-x="1347" 
d="M977 309q0 -66 6 -114q18 -129 160 -129q63 0 137 28l29 -76q-88 -41 -190 -41q-101 0 -171 71t-69 257v617h-494v-922h-98v922h-219v82h219v149q0 188 61 254q72 74 176 74t185 -43l-31 -72q-66 29 -131 29q-98 0 -135 -66q-27 -49 -27 -180v-145h494v288l98 41v-329
h287v-82h-287v-613z" />
    <glyph glyph-name="f_u" horiz-adv-x="1812" 
d="M561 1393q-113 0 -149 -64q-27 -49 -27 -180v-145h592v-629q0 -135 24 -193q51 -117 209 -116q82 0 149 43q144 92 144 325v570h99v-697q0 -168 8 -307h-92q-6 74 -9 162h-4q-88 -184 -300 -184t-290 153q-37 72 -36 225v566h-494v-922h-98v922h-219v82h219v149
q0 188 61 254q72 74 184 74t201 -47l-31 -74q-76 33 -141 33z" />
    <glyph glyph-name="f_v" horiz-adv-x="1595" 
d="M385 922v-922h-98v922h-219v82h219v149q0 188 61 254q72 74 184 74t201 -47l-31 -74q-76 33 -141 33q-113 0 -149 -64q-27 -49 -27 -180v-145h465l233 -682q29 -84 60 -197h6q37 129 59 197l232 682h100l-348 -1004h-96l-320 922h-391z" />
    <glyph glyph-name="f_w" horiz-adv-x="1941" 
d="M385 922v-922h-98v922h-219v82h219v149q0 188 61 254q72 74 184 74t201 -47l-31 -74q-76 33 -141 33q-113 0 -149 -64q-27 -49 -27 -180v-145h481l152 -644q29 -123 47 -227h4q18 104 47 227l152 644h88l151 -644q29 -123 47 -227h5q23 117 49 227l149 644h94l-249 -1004
h-89l-159 647q-29 123 -41 227h-4q-12 -88 -45 -227l-156 -647h-90l-230 922h-403z" />
    <glyph glyph-name="f_y" horiz-adv-x="1603" 
d="M880 -426q-99 0 -175 51l36 74q73 -37 133 -37t96 37t64 117l64 184l-330 922h-383v-922h-98v922h-219v82h219v149q0 188 61 254q72 74 184 74t201 -47l-31 -74q-76 33 -141 33q-113 0 -149 -64q-27 -49 -27 -180v-145h465l233 -682l60 -187h4q27 92 59 187l234 682h108
l-420 -1197q-39 -105 -94 -169t-154 -64z" />
    <glyph glyph-name="t_f" horiz-adv-x="1415" 
d="M1217 1393q-113 -1 -145 -57t-32 -187v-145h293v-82h-293v-922h-98v922h-567v-613q0 -66 6 -114q18 -129 160 -129q63 0 137 28l29 -76q-88 -41 -190 -41q-101 0 -171 71t-70 257v617h-208v82h208v288l99 41v-329h567v149q0 188 66 258t178 70t203 -47l-31 -74
q-76 33 -141 33z" />
    <glyph glyph-name="t_i" horiz-adv-x="1218" 
d="M1038 1229h-106v205h106v-205zM1034 0h-98v922h-561v-613q0 -66 6 -114q18 -129 160 -129q63 0 137 28l29 -76q-88 -41 -190 -41q-101 0 -171 71t-70 257v617h-208v82h208v288l99 41v-329h659v-1004z" />
    <glyph glyph-name="t_j" horiz-adv-x="1228" 
d="M1042 1229h-106v205h106v-205zM1038 1004v-1104q0 -113 -5 -155t-29 -79q-60 -92 -182 -92t-193 43l35 76q59 -31 134 -31q74 0 102 29t34 72t6 141v1018h-565v-613q0 -66 6 -114q18 -129 160 -129q63 0 137 28l29 -76q-88 -41 -190 -41q-101 0 -171 71t-70 257v617h-208
v82h208v288l99 41v-329h663z" />
    <glyph glyph-name="t_t" horiz-adv-x="1380" 
d="M1152 -23q-102 0 -172 71t-69 257v617h-536v-613q0 -66 6 -114q18 -129 160 -129q63 0 137 28l29 -76q-88 -41 -190 -41q-101 0 -171 71t-70 257v617h-208v82h208v288l99 41v-329h536v288l99 41v-329h286v-82h-286v-613q0 -66 6 -114q18 -129 160 -129q63 -1 137 28
l28 -76q-87 -41 -189 -41z" />
    <glyph glyph-name="t_t_f" horiz-adv-x="2029" 
d="M1152 -23q-102 0 -172 71t-69 257v617h-536v-613q0 -66 6 -114q18 -129 160 -129q63 0 137 28l29 -76q-88 -41 -190 -41q-101 0 -171 71t-70 257v617h-208v82h208v288l99 41v-329h536v288l99 41v-329h546v149q0 188 66 258t178 70t203 -47l-31 -74q-76 33 -141 33
q-113 -1 -145 -57t-31 -187v-145h293v-82h-293v-922h-99v922h-546v-613q0 -66 6 -114q18 -129 160 -129q63 -1 137 28l28 -76q-87 -41 -189 -41z" />
    <glyph glyph-name="t_t_j" horiz-adv-x="1843" 
d="M1659 1229h-107v205h107v-205zM1152 -23q-102 0 -172 71t-69 257v617h-536v-613q0 -66 6 -114q18 -129 160 -129q63 0 137 28l29 -76q-88 -41 -190 -41q-101 0 -171 71t-70 257v617h-208v82h208v288l99 41v-329h536v288l99 41v-329h645v-1104q0 -113 -5 -155t-30 -79
q-60 -92 -182 -92t-193 43l35 76q59 -31 134 -31t103 29q27 29 33 72t6 141v1018h-546v-613q0 -66 6 -114q18 -129 160 -129q63 -1 137 28l28 -76q-87 -41 -189 -41z" />
    <glyph glyph-name="t_u" horiz-adv-x="1841" 
d="M907 356v566h-532v-613q0 -66 6 -114q18 -129 160 -129q63 0 137 28l29 -76q-88 -41 -190 -41q-101 0 -171 71t-70 257v617h-208v82h208v288l99 41v-329h631v-629q0 -135 24 -193q51 -117 209 -116q82 0 149 43q144 92 144 325v570h98v-697q0 -168 8 -307h-92
q-6 74 -8 162h-4q-88 -184 -300 -184t-290 153q-37 72 -37 225z" />
    <glyph glyph-name="t_v" horiz-adv-x="1581" 
d="M375 922v-613q0 -66 6 -114q18 -129 160 -129q63 0 137 28l29 -76q-88 -41 -190 -41q-101 0 -171 71t-70 257v617h-208v82h208v288l99 41v-329h461l233 -682q29 -84 59 -197h7q37 129 59 197l231 682h101l-348 -1004h-97l-319 922h-387z" />
    <glyph glyph-name="t_w" horiz-adv-x="1964" 
d="M375 922v-613q0 -66 6 -114q18 -129 160 -129q63 0 137 28l29 -76q-88 -41 -190 -41q-101 0 -171 71t-70 257v617h-208v82h208v288l99 41v-329h514l151 -644q29 -123 47 -227h5q18 104 47 227l151 644h88l152 -644q29 -123 47 -227h4q23 117 49 227l150 644h94
l-250 -1004h-88l-160 647q-29 123 -41 227h-4q-12 -88 -45 -227l-156 -647h-90l-229 922h-436z" />
    <glyph glyph-name="t_y" horiz-adv-x="1599" 
d="M876 -426q-99 0 -176 51l37 74q73 -37 133 -37t96 37t64 117l64 184l-330 922h-389v-613q0 -66 6 -114q18 -129 160 -129q63 0 137 28l29 -76q-88 -41 -190 -41q-101 0 -171 71t-70 257v617h-208v82h208v288l99 41v-329h471l233 -682l60 -187h4q27 92 59 187l234 682h108
l-420 -1197q-39 -105 -94 -169t-154 -64z" />
    <glyph glyph-name="caron.alt" horiz-adv-x="473" 
d="M147 1116l97 338l106 -41l-141 -317z" />
    <glyph glyph-name="arrowleft.salt" horiz-adv-x="2275" 
d="M582 768h1558v-84h-1558q-182 0 -293 4q86 -70 200 -188l394 -406l-54 -63l-694 696l692 696l54 -63l-396 -408q-106 -111 -196 -186q55 2 293 2z" />
    <glyph glyph-name="arrowup.salt" horiz-adv-x="2275" 
d="M1180 1282v-1558h-84v1558q0 182 4 293q-70 -86 -189 -201l-405 -393l-64 53l697 695l696 -693l-63 -53l-408 395q-111 106 -186 197q2 -55 2 -293z" />
    <glyph glyph-name="arrowright.salt" horiz-adv-x="2273" 
d="M1690 684h-1559v84h1559q182 0 292 -4q-86 70 -200 188l-393 406l53 63l694 -694l-692 -698l-53 63l395 408q106 111 196 186q-55 -2 -292 -2z" />
    <glyph glyph-name="arrowdown.salt" horiz-adv-x="2275" 
d="M1096 170v1559h84v-1559q0 -238 -2 -293q76 90 186 197l408 395l63 -53l-696 -692l-697 694l64 53l405 -393q119 -115 189 -201q-4 111 -4 293z" />
    <glyph glyph-name="uni21A4.salt" horiz-adv-x="2275" 
d="M2054 25v659h-1472q-182 0 -293 4q86 -70 200 -188l394 -406l-54 -63l-694 696l692 696l54 -63l-396 -408q-106 -111 -196 -186q55 2 293 2h1472v662h86v-1405h-86z" />
    <glyph glyph-name="uni21A5.salt" horiz-adv-x="2275" 
d="M434 -190h660v1472q0 182 4 293q-70 -86 -189 -201l-405 -393l-64 53l697 695l696 -693l-64 -53l-407 395q-111 106 -186 197q2 -55 2 -293v-1472h661v-86h-1405v86z" />
    <glyph glyph-name="uni21A6.salt" horiz-adv-x="2275" 
d="M221 1427v-659h1473q182 0 293 -4q-86 70 -201 188l-393 406l53 63l694 -694l-692 -698l-53 63l395 408q106 111 197 186q-55 -2 -293 -2h-1473v-661h-86v1404h86z" />
    <glyph glyph-name="uni21A7.salt" horiz-adv-x="2275" 
d="M1841 1640h-659v-1472q0 -182 -4 -293q70 86 188 201l406 393l63 -53l-694 -695l-699 693l64 53l407 -395q111 -106 187 -197q-2 55 -2 293v1472h-662v86h1405v-86z" />
    <glyph glyph-name="uni21B0.salt" horiz-adv-x="2275" 
d="M2054 25v659h-1472q-182 0 -293 4q86 -70 200 -188l394 -406l-54 -63l-694 696l692 696l54 -63l-396 -408q-106 -111 -196 -186q55 2 293 2h1558v-743h-86z" />
    <glyph glyph-name="uni21B1.salt" horiz-adv-x="2275" 
d="M221 684v-659h-86v743h1559q238 0 293 -2q-90 76 -197 186l-395 408l53 63l692 -696l-694 -696l-53 63l393 406q115 119 201 188q-111 -4 -293 -4h-1473z" />
    <glyph glyph-name="uni21B2.salt" horiz-adv-x="2275" 
d="M2054 764v659h86v-743h-1558q-238 0 -293 2q90 -76 196 -186l396 -408l-54 -63l-692 696l694 696l54 -63l-394 -406q-115 -119 -200 -188q111 4 293 4h1472z" />
    <glyph glyph-name="uni21B3.salt" horiz-adv-x="2275" 
d="M221 1423v-659h1473q182 0 293 -4q-86 70 -201 188l-393 406l53 63l694 -696l-692 -696l-53 63l395 408q106 111 197 186q-55 -2 -293 -2h-1559v743h86z" />
    <glyph glyph-name="uni21B4.salt" horiz-adv-x="2275" 
d="M1098 1640h-660v86h744v-1558q0 -238 -2 -293q76 90 186 197l408 395l63 -53l-696 -693l-697 695l64 53l405 -393q119 -115 189 -201q-4 111 -4 293v1472z" />
    <glyph glyph-name="carriagereturn.salt" horiz-adv-x="2275" 
d="M2054 764v659h86v-743h-1558q-238 0 -293 2q90 -76 196 -186l396 -408l-54 -63l-692 696l694 696l54 -63l-394 -406q-115 -119 -200 -188q111 4 293 4h1472z" />
    <glyph glyph-name="zero.plfslash" horiz-adv-x="1220" 
d="M604 1341q-164 1 -254 -165t-90 -446t62 -435l534 903q-88 143 -252 143zM615 70q165 0 255 167t91 443q0 276 -64 438l-535 -903q88 -145 253 -145zM152 711q0 342 115 532q116 191 342 191t343 -196t117 -532t-117 -533q-117 -196 -342 -196t-342 196
q-116 196 -116 538z" />
    <glyph glyph-name="zero.tlfslash" horiz-adv-x="1155" 
d="M227 730q0 -280 62 -435l534 903q-87 143 -251 143t-255 -165q-90 -166 -90 -446zM928 680q0 276 -64 438l-534 -903q88 -145 253 -145t255 167t90 443zM119 711q0 342 115 532q116 191 342 191t344 -196q116 -196 116 -532t-116 -533q-116 -196 -342 -196
q-225 0 -342 196t-117 538z" />
    <glyph glyph-name="at.case" horiz-adv-x="1634" 
d="M977 856q0 188 -121 188q-66 0 -117 -46q-85 -76 -121 -250q-14 -68 -14 -123q0 -254 135 -254q63 0 112 55q82 94 114 295q12 76 12 135zM852 -98q-290 0 -486 196t-196 527q0 413 209 659t539 246q274 0 422 -192t148 -456q0 -266 -112 -436q-113 -170 -278 -170
q-66 0 -107 40t-51 106h-4q-29 -57 -83 -101t-130 -45q-113 0 -171 98t-58 229q0 289 161 454q84 86 195 86q55 0 99 -33t63 -90h4l37 100h104q-43 -106 -74 -293l-41 -252q-10 -57 -10 -116q0 -94 78 -94q115 0 202 147q87 148 87 374t-124 393t-357 167q-298 0 -478 -229
t-180 -592q0 -283 172 -463t430 -180q139 0 267 50t200 132l51 -62q-84 -96 -222 -148t-306 -52z" />
    <glyph glyph-name="bar.case" horiz-adv-x="454" 
d="M274 -381h-94v2204h94v-2204z" />
    <glyph glyph-name="plus.case" 
d="M1167 686h-444v-438h-82v438h-444v82h444v438h82v-438h444v-82z" />
    <glyph glyph-name="minus.case" 
d="M197 766h970v-82h-970v82z" />
    <glyph glyph-name="plusminus.case" 
d="M1167 686h-444v-438h-82v438h-444v82h444v438h82v-438h444v-82zM1167 0h-970v82h970v-82z" />
    <glyph glyph-name="multiply.case" 
d="M1092 319l-58 -57l-342 342l-342 -342l-57 57l342 343l-342 342l57 57l342 -342l342 342l58 -57l-342 -342z" />
    <glyph glyph-name="divide.case" 
d="M764 991h-164v195h164v-195zM764 270h-164v195h164v-195zM1167 686h-970v82h970v-82z" />
    <glyph glyph-name="equal.case" 
d="M1167 455h-970v82h970v-82zM1167 782h-970v82h970v-82z" />
    <glyph glyph-name="notequal.case" 
d="M1167 455h-532l-117 -275l-76 35l101 240h-346v82h381l106 245h-487v82h522l123 287l78 -33l-109 -254h356v-82h-391l-106 -245h497v-82z" />
    <glyph glyph-name="approxequal.case" 
d="M430 530q-64 0 -106 -28t-43 -80h-82q0 94 71 143q72 49 158 49t130 -14t142 -64t135 -62q35 -11 99 -11q64 -1 106 27t43 81h82q1 -94 -71 -143t-158 -49q-86 1 -130 15t-143 64q-98 50 -134 61q-35 11 -99 11zM1165 899q1 -94 -71 -143t-158 -49t-130 14t-143 64
q-98 49 -134 61q-35 12 -99 12t-106 -28t-43 -80h-82q0 94 71 143q72 49 158 49t130 -14t142 -64t135 -62q35 -11 99 -11q64 -1 106 27t43 81h82z" />
    <glyph glyph-name="less.case" 
d="M1169 223l-39 -73l-935 475v73l935 476l39 -74l-704 -350q-147 -72 -191 -86v-5q55 -18 191 -86z" />
    <glyph glyph-name="greater.case" 
d="M233 150l-38 73l704 350q135 68 191 86v5q-43 14 -191 86l-704 350l38 74l936 -476v-73z" />
    <glyph glyph-name="lessequal.case" 
d="M197 621v77l948 396l33 -76l-715 -289q-119 -47 -180 -67v-5q61 -20 180 -67l715 -289l-33 -76zM197 0v82h970v-82h-970z" />
    <glyph glyph-name="greaterequal.case" 
d="M1167 698v-77l-948 -396l-33 76l715 289q119 47 180 67v5q-61 20 -180 67l-715 289l33 76zM1167 0h-970v82h970v-82z" />
    <glyph glyph-name="logicalnot.case" 
d="M1167 442h-92v336h-878v94h970v-430z" />
    <glyph glyph-name="infinity.case" 
d="M979 936q99 0 163 -74t64 -194q0 -119 -62 -196t-152 -77q-90 1 -158 55t-150 154q-61 -74 -93 -106t-90 -68q-58 -35 -116 -35q-100 0 -164 74q-63 74 -63 192q0 117 63 195t158 78q57 0 115 -37t96 -76q37 -39 94 -110q130 168 212 207q40 18 83 18zM1118 662
q0 86 -34 137t-90 51t-108 -35t-83 -67t-76 -89q152 -178 258 -178q133 1 133 181zM385 481q45 0 95 31q50 32 80 62t77 85q-2 5 -40 47q-48 54 -102 98t-117 44q-62 0 -97 -53t-35 -133q0 -181 139 -181z" />
    <glyph glyph-name="uni2196.salt" horiz-adv-x="2275" 
d="M428 453v983l983 4l-8 -84l-567 -8q-147 -4 -271 8l94 -94q74 -74 115 -113l1102 -1102l-59 -59l-1102 1102q-121 119 -205 210q12 -121 8 -276l-8 -563z" />
    <glyph glyph-name="uni2197.salt" horiz-adv-x="2275" 
d="M862 1436h983l4 -983l-84 8l-8 567q-4 147 8 270q-18 -20 -93 -95l-1215 -1215l-60 59l1102 1102q119 121 211 205q-121 -12 -276 -8l-564 8z" />
    <glyph glyph-name="uni2198.salt" horiz-adv-x="2275" 
d="M1847 973v-983l-983 -4l8 84l568 8q147 4 270 -8q-20 18 -94 93t-115 113l-1102 1102l60 60l1102 -1102q121 -119 204 -211q-12 121 -8 276l8 564z" />
    <glyph glyph-name="uni2199.salt" horiz-adv-x="2275" 
d="M1384 -12h-983l-4 983l84 -8l8 -568q4 -147 -8 -270q18 20 93 95l1216 1216l59 -60l-1101 -1102q-119 -121 -211 -204q121 12 276 8l563 -8z" />
    <glyph glyph-name="l.salt" horiz-adv-x="577" 
d="M197 305v1149h98v-1145q0 -67 7 -121q16 -124 138 -122q64 -1 119 34l43 -69q-74 -53 -176 -53t-166 69q-63 70 -63 258z" />
    <glyph glyph-name="fl.salt" horiz-adv-x="1259" 
d="M879 305v1057q-43 4 -139 18t-162 15q-123 0 -164 -72q-29 -53 -29 -174v-145h317v-82h-317v-922h-98v922h-219v82h219v149q-1 180 69 254t209 74q84 -1 199 -19t213 -26v-1127q0 -67 7 -121q16 -124 138 -122q64 -1 119 34l43 -69q-74 -53 -176 -53t-166 69
q-63 70 -63 258z" />
    <glyph glyph-name="uniFB04.salt" horiz-adv-x="1851" 
d="M977 1149v-145h293v-82h-293v-922h-98v922h-494v-922h-98v922h-219v82h219v149q0 188 61 254q72 74 176 74t185 -43l-31 -72q-66 29 -131 29q-98 0 -135 -66q-27 -49 -27 -180v-145h494v149q-1 180 69 254t209 74q84 -1 199 -19t213 -26v-1127q0 -67 7 -121
q16 -124 138 -122q64 -1 119 34l43 -69q-74 -53 -176 -53t-166 69q-63 70 -64 258v1057q-43 4 -139 18t-162 15q-123 0 -163 -72q-29 -53 -29 -174z" />
    </font>
</defs>
</svg>
