<?xml version="1.0" standalone="no"?>
<!DOCTYPE svg PUBLIC "-//W3C//DTD SVG 1.1//EN" "http://www.w3.org/Graphics/SVG/1.1/DTD/svg11.dtd" >
<svg xmlns="http://www.w3.org/2000/svg">
<metadata>
Created by FontPrep 20130207 at Mon Jul 28 12:08:05 2014
 By Cem Sever
Copyright (c) 2007 by Optimo, Switzerland. All rights reserved.
</metadata>
<defs>
<font id="5ef4d53b7193eb44638a30edbb5ece5d" horiz-adv-x='1024' >
  <font-face 
    font-family="Executive-55Reg"
    font-weight="400"
    font-stretch="normal"
    units-per-em="2048"
    panose-1="2 11 6 4 2 2 2 2 2 4"
    ascent="1454"
    descent="-594"
    x-height="1006"
    cap-height="1454"
    bbox="-299 -520 2398 1946"
    underline-thickness="98"
    underline-position="-209"
    unicode-range="U+000D-FB04"
  />
<missing-glyph horiz-adv-x="1189" 
d="M858 786h-526v-542h526v542zM1006 111h-822v809h822v-809z" />
    <glyph glyph-name="IJ" unicode="IJ" horiz-adv-x="1675" 
d="M1481 1454v-1048q0 -180 -66 -283q-98 -154 -352 -154q-199 0 -309 113q-92 92 -92 252q0 37 2 59l178 21q-2 -18 -2 -47q0 -125 57 -183t181 -57q222 0 222 262v1065h181zM395 0h-180v1454h180v-1454z" />
    <glyph glyph-name="ij" unicode="ij" horiz-adv-x="1120" 
d="M762 -72v1078h164v-1092q0 -188 -73 -266t-198 -78t-223 47l49 127q74 -31 152 -31t110 58q19 32 19 157zM932 1214h-176v226h176v-226zM365 1214h-177v226h177v-226zM358 0h-163v1006h163v-1006z" />
    <glyph glyph-name="uniFB00" unicode="ff" horiz-adv-x="1480" 
d="M1384 862h-276v-862h-164v862h-510v-862h-164v862h-209v144h209v135q0 188 73 266t198 78t223 -47l-49 -127q-76 31 -153 31t-109 -58q-18 -33 -19 -158v-120h510v135q0 188 73 266t201 78t238 -62l-49 -118q-82 37 -164 37t-117 -60q-18 -33 -18 -156v-120h276v-144z
" />
    <glyph glyph-name="fi" unicode="fi" horiz-adv-x="1302" 
d="M1114 1214h-176v226h176v-226zM1108 0h-164v862h-510v-862h-164v862h-209v144h209v135q0 188 73 266t201 78t238 -62l-49 -118q-82 37 -164 37t-116 -60q-18 -33 -19 -156v-120h674v-1006z" />
    <glyph glyph-name="fl" unicode="fl" horiz-adv-x="1302" 
d="M1108 0h-164v1311q-63 2 -171 15t-183 13q-111 0 -141 -77q-14 -37 -15 -142v-114h279v-144h-279v-862h-164v862h-209v144h209v135q0 182 76 263t234 81q78 -1 230 -25t298 -26v-1434z" />
    <glyph glyph-name="uniFB03" unicode="ffi" horiz-adv-x="2103" 
d="M1915 1214h-176v226h176v-226zM1909 0h-164v862h-510v-862h-164v862h-510v-862h-164v862h-209v144h209v135q0 188 73 266t198 78t223 -47l-49 -127q-76 31 -153 31t-109 -58q-18 -33 -19 -158v-120h510v135q0 188 73 266t201 78t238 -62l-49 -118q-82 37 -164 37
t-117 -60q-18 -33 -18 -156v-120h674v-1006z" />
    <glyph glyph-name="uniFB04" unicode="ffl" horiz-adv-x="1974" 
d="M1780 0h-164v1311q-63 2 -171 15t-183 13q-111 0 -142 -77q-14 -37 -14 -142v-114h278v-144h-278v-862h-164v862h-508v-862h-164v862h-209v144h209v135q0 188 73 266t198 78t223 -47l-49 -127q-76 31 -153 31t-109 -58q-18 -33 -19 -158v-120h508v135q0 182 76 263
t233 81q78 -1 230 -25t299 -26v-1434z" />
    <glyph glyph-name=".notdef" horiz-adv-x="1189" 
d="M858 786h-526v-542h526v542zM1006 111h-822v809h822v-809z" />
    <glyph glyph-name=".null" horiz-adv-x="1024" 
 />
    <glyph glyph-name=".null" horiz-adv-x="1024" 
 />
    <glyph glyph-name="nonmarkingreturn" horiz-adv-x="681" 
 />
    <glyph glyph-name="CR" unicode="&#xd;" horiz-adv-x="1024" 
 />
    <glyph glyph-name="space" unicode=" " horiz-adv-x="614" 
 />
    <glyph glyph-name="exclam" unicode="!" horiz-adv-x="724" 
d="M469 0h-213v219h213v-219zM459 1454q-8 -641 -31 -987l-8 -121h-115q-37 414 -45 1108h199z" />
    <glyph glyph-name="quotedbl" unicode="&#x22;" horiz-adv-x="976" 
d="M565 1454h166v-225l-47 -420h-72l-47 420v225zM246 1454h166v-225l-47 -420h-72l-47 420v225z" />
    <glyph glyph-name="numbersign" unicode="#" horiz-adv-x="1187" 
d="M737 885h-233l-62 -328h236zM1169 1012v-127h-286l-62 -328h264v-127h-286l-80 -430h-146l80 430h-233l-80 -430h-145l79 430h-254v127h277l61 328h-252v127h277l76 409h145l-76 -409h234l76 409h145l-76 -409h262z" />
    <glyph glyph-name="dollar" unicode="$" horiz-adv-x="1187" 
d="M352 1133q0 -83 44 -141t151 -107v440q-95 -12 -145 -61t-50 -131zM657 645v-516q101 9 163 71t62 161t-48 164q-50 65 -177 120zM547 -215v186q-221 15 -323 137t-101 316l174 33q0 -305 250 -326v567l-103 50q-136 63 -204 154q-68 92 -68 236t102 237t273 106v182h110
v-180q109 -8 187 -48q78 -39 116 -99q70 -112 70 -246l-172 -23q0 231 -201 256v-489l117 -56q158 -74 224 -168t65 -231q0 -176 -109 -284t-297 -122v-188h-110z" />
    <glyph glyph-name="percent" unicode="%" horiz-adv-x="1918" 
d="M1442 1407l-854 -1450l-111 61l856 1452zM674 1050q0 269 -158 269t-158 -269t158 -270q158 1 158 270zM807 1051q0 -193 -84 -291t-207 -98t-207 98t-84 291t83 289t208 96t208 -96t83 -289zM1561 376q0 269 -158 269t-158 -269t158 -270q158 1 158 270zM1694 377
q0 -193 -84 -291t-207 -98t-207 98t-84 291t83 289t208 96t208 -96t83 -289z" />
    <glyph glyph-name="ampersand" unicode="&#x26;" horiz-adv-x="1284" 
d="M772 1186q0 60 -41 101q-41 40 -103 40t-106 -41q-44 -40 -45 -104q0 -64 55 -144l58 -86q106 72 144 123t38 111zM338 370q0 -106 66 -178t162 -71q97 0 169 49t99 102l-293 457q-111 -88 -157 -171q-46 -82 -46 -188zM559 -25q-159 0 -277 110t-118 272q0 163 74 277
t221 224l-47 72q-15 15 -45 66q-31 51 -36 66t-17 48t-11 86q0 115 87 195q86 79 236 79t233 -82t83 -190t-61 -192t-207 -183l237 -364q21 113 -10 270h156q16 -82 16 -168q0 -158 -53 -270l192 -291h-202l-90 141q-133 -166 -361 -166z" />
    <glyph glyph-name="quotesingle" unicode="'" horiz-adv-x="686" 
d="M260 1454h166v-225l-47 -420h-72l-47 420v225z" />
    <glyph glyph-name="parenleft" unicode="(" horiz-adv-x="724" 
d="M354 544q0 -245 73 -459t241 -450l-109 -77q-379 481 -379 987t379 987l109 -78q-168 -236 -241 -450t-73 -460z" />
    <glyph glyph-name="parenright" unicode=")" horiz-adv-x="724" 
d="M371 544q0 245 -73 460t-241 450l109 78q379 -481 379 -987t-379 -987l-109 77q168 236 241 450t73 459z" />
    <glyph glyph-name="asterisk" unicode="*" horiz-adv-x="913" 
d="M524 1178v-154h-135v154l17 131q-74 -59 -101 -74l-141 -82l-62 113l138 80l116 47q-78 29 -116 49l-136 78l62 112l137 -78q42 -24 86 -59l17 -14q-16 78 -17 125v157h135v-157l-16 -125q66 49 102 69l135 82l64 -112l-135 -80l-103 -47q62 -25 101 -45l139 -80
l-63 -113l-136 80l-102 72q14 -78 14 -129z" />
    <glyph glyph-name="plus" unicode="+" 
d="M1151 461h-420v-416h-131v416h-420v127h420v416h131v-416h420v-127z" />
    <glyph glyph-name="comma" unicode="," horiz-adv-x="686" 
d="M449 219v-153q0 -164 -34 -241t-110 -140l-57 55q55 51 75 105q19 54 19 139v16h-106v219h213z" />
    <glyph glyph-name="hyphen" unicode="-" horiz-adv-x="940" 
d="M776 514h-612v148h612v-148z" />
    <glyph glyph-name="period" unicode="." horiz-adv-x="686" 
d="M449 0h-213v219h213v-219z" />
    <glyph glyph-name="slash" unicode="/" horiz-adv-x="933" 
d="M883 1485l-660 -1516h-162l660 1516h162z" />
    <glyph glyph-name="zero" unicode="0" horiz-adv-x="1187" 
d="M594 127q307 0 307 579t-307 578q-307 0 -307 -578t307 -579zM1081 707q0 -342 -125 -537q-124 -195 -362 -195t-363 195t-125 537q0 341 125 535t363 194t362 -194t125 -535z" />
    <glyph glyph-name="one" unicode="1" horiz-adv-x="1187" 
d="M176 0v152h379v1024q-141 -139 -358 -295l-95 123q268 195 476 407h153v-1259h346v-152h-901z" />
    <glyph glyph-name="two" unicode="2" horiz-adv-x="1187" 
d="M993 0h-837v156q154 123 454 438q189 199 209 371q4 33 4 75q0 113 -60 179q-60 65 -178 65t-183 -77t-64 -220l-180 17q0 188 114 310q115 122 314 122q198 0 308 -112t110 -262t-58 -276t-218 -296q-161 -170 -363 -343q168 4 253 5h375v-152z" />
    <glyph glyph-name="three" unicode="3" horiz-adv-x="1187" 
d="M303 418q12 -295 276 -295q132 0 211 77t78 212q0 182 -125 240q-101 48 -249 48h-62v144h62q332 0 331 237q0 95 -62 149t-169 54q-233 0 -254 -209l-178 21q10 154 127 246t305 94q188 0 299 -98t111 -244q0 -250 -248 -314v-4q109 -16 201 -102t92 -252
q0 -207 -124 -329t-347 -122t-336 118t-117 304z" />
    <glyph glyph-name="four" unicode="4" horiz-adv-x="1187" 
d="M682 461v631l-397 -631h397zM1075 309h-217v-309h-176v309h-561v176l592 926h145v-950h217v-152z" />
    <glyph glyph-name="five" unicode="5" horiz-adv-x="1187" 
d="M1081 472q0 -224 -127 -362t-350 -139q-182 1 -310 103t-157 276l178 35q13 -125 93 -194t206 -69t206 92q81 91 81 251t-73 251t-210 91q-203 0 -290 -184h-150l39 788h764v-151h-612l-27 -429q110 129 306 129t314 -132t119 -356z" />
    <glyph glyph-name="six" unicode="6" horiz-adv-x="1187" 
d="M627 127q125 0 201 83q76 82 75 234q0 152 -73 236q-74 84 -198 84t-209 -87t-85 -233t82 -231q82 -86 207 -86zM1083 461q1 -207 -119 -346t-343 -140q-276 0 -398 236q-82 158 -82 461q1 369 145 566t369 198q187 0 279 -102t110 -251l-178 -20q-14 119 -64 170
t-155 51q-133 0 -223 -133q-104 -156 -105 -418q49 82 137 132t197 50q195 0 313 -123q117 -124 117 -331z" />
    <glyph glyph-name="seven" unicode="7" horiz-adv-x="1187" 
d="M160 1260v151h878l-2 -141q-220 -264 -330 -576t-135 -694h-184q31 385 141 683q111 298 328 577h-696z" />
    <glyph glyph-name="eight" unicode="8" horiz-adv-x="1187" 
d="M831 1064q0 102 -63 162t-172 60t-172 -59q-64 -59 -64 -163t62 -169q62 -66 174 -66q111 0 173 66t62 169zM889 406q0 126 -79 200t-214 74t-214 -75t-79 -199t83 -202q83 -77 210 -77t210 77t83 202zM1069 383q0 -172 -130 -290t-343 -118t-343 118t-130 290t90 268
t190 113v4q-89 28 -155 106t-66 199q0 160 118 261q118 102 296 102t296 -102t118 -261q0 -121 -66 -201t-156 -106v-4q100 -16 190 -112t91 -267z" />
    <glyph glyph-name="nine" unicode="9" horiz-adv-x="1187" 
d="M303 962q0 -148 73 -230q74 -83 206 -83t211 86q77 85 77 231t-79 232q-80 86 -212 86t-204 -87t-72 -235zM123 971q0 205 126 335t346 130t345 -159t125 -437t-34 -420q-34 -141 -99 -248q-121 -197 -371 -197q-171 1 -279 95t-116 260l176 24q14 -227 219 -227
q162 -1 243 145t81 385q-104 -162 -336 -161q-197 0 -311 135t-115 340z" />
    <glyph glyph-name="colon" unicode=":" horiz-adv-x="686" 
d="M449 0h-213v219h213v-219zM449 786h-213v220h213v-220z" />
    <glyph glyph-name="semicolon" unicode=";" horiz-adv-x="686" 
d="M449 219v-153q0 -166 -34 -241t-110 -140l-53 55q57 53 77 105q19 52 19 139v16h-112v219h213zM449 786h-213v220h213v-220z" />
    <glyph glyph-name="less" unicode="&#x3c;" 
d="M1102 -14l-938 456v123l938 457l55 -115l-618 -289q-172 -80 -263 -112v-4q90 -33 263 -113l618 -289z" />
    <glyph glyph-name="equal" unicode="=" 
d="M1151 299h-971v127h971v-127zM1151 623h-971v127h971v-127z" />
    <glyph glyph-name="greater" unicode="&#x3e;" 
d="M1167 442l-938 -456l-55 114l619 289q172 80 262 113v4q-90 33 -262 112l-619 289l55 115l938 -457v-123z" />
    <glyph glyph-name="question" unicode="?" horiz-adv-x="1107" 
d="M641 0h-213v219h213v-219zM956 1106q0 -162 -97 -259t-241 -124v-356h-167v462q334 29 333 271q0 106 -59 172t-170 66t-169 -64q-58 -63 -60 -174l-168 22q0 160 108 261q110 101 296 101t290 -108t104 -270z" />
    <glyph glyph-name="at" unicode="@" horiz-adv-x="1730" 
d="M1016 651q0 160 -125 160q-72 0 -124 -65q-97 -122 -95 -308q0 -225 135 -225q59 0 103 50q72 82 97 266q9 67 9 122zM971 1374q281 0 453 -198t173 -491q1 -292 -109 -454q-110 -161 -283 -161t-208 153h-4q-74 -154 -225 -153q-125 0 -194 98q-68 98 -68 240
q1 300 169 459q89 85 210 85q67 0 115 -37t63 -98h6l41 107h152q-35 -104 -64 -283l-43 -266q-10 -66 -10 -103q-1 -36 25 -58t57 -21q113 -1 176 123t63 368t-137 408t-366 163q-303 0 -489 -218t-185 -595q0 -332 183 -502t458 -169q127 0 262 56t194 128l66 -80
q-68 -86 -222 -154q-286 -127 -590 -20q-305 107 -420 386q-65 155 -64 355q0 422 226 677t589 255z" />
    <glyph glyph-name="A" unicode="A" horiz-adv-x="1210" 
d="M813 475l-137 479q-61 215 -74 279h-4q-14 -76 -72 -281l-139 -477h426zM1149 0h-201l-88 315h-518l-90 -315h-191l455 1454h172z" />
    <glyph glyph-name="B" unicode="B" horiz-adv-x="1280" 
d="M391 842h232q135 0 211 68t75 175q0 215 -266 215h-252v-458zM942 428q0 112 -80 188t-217 76h-254v-538h236q315 0 315 274zM1126 404q0 -156 -92 -258q-133 -146 -395 -146h-428v1454h442q250 0 369 -140q72 -85 72 -210t-70 -208t-186 -120v-4q128 -39 208 -125
q80 -87 80 -243z" />
    <glyph glyph-name="C" unicode="C" horiz-adv-x="1220" 
d="M133 723q0 350 131 556t391 206q193 0 309 -118t130 -284l-179 -32q-27 276 -264 276q-334 0 -334 -604q0 -274 81 -435t251 -161q259 0 277 346l182 -24q-12 -193 -110 -326q-111 -154 -357 -154t-377 202t-131 552z" />
    <glyph glyph-name="D" unicode="D" horiz-adv-x="1306" 
d="M989 727q0 244 -79 396q-89 175 -298 175h-221v-1142h219q379 0 379 571zM1174 733q0 -612 -402 -713q-76 -20 -182 -20h-379v1454h405q329 0 461 -266q97 -193 97 -455z" />
    <glyph glyph-name="E" unicode="E" horiz-adv-x="1118" 
d="M1020 0h-809v1454h809v-158h-629v-471h510v-157h-510v-510h629v-158z" />
    <glyph glyph-name="F" unicode="F" horiz-adv-x="1077" 
d="M391 0h-180v1454h809v-158h-629v-471h510v-157h-510v-668z" />
    <glyph glyph-name="G" unicode="G" horiz-adv-x="1306" 
d="M1112 0h-113l-18 182h-4q-37 -90 -125 -151t-203 -62q-233 -1 -375 191t-141 558q0 366 142 567q142 200 395 200q203 0 308 -111t122 -266l-176 -35q-33 254 -262 254q-154 0 -249 -144t-96 -456q0 -600 357 -600q122 0 196 106t74 285v123h-301v154h469v-795z" />
    <glyph glyph-name="H" unicode="H" horiz-adv-x="1288" 
d="M1077 0h-180v666h-506v-666h-180v1454h180v-625h506v625h180v-1454z" />
    <glyph glyph-name="I" unicode="I" horiz-adv-x="610" 
d="M395 0h-180v1454h180v-1454z" />
    <glyph glyph-name="J" unicode="J" horiz-adv-x="1105" 
d="M911 1454v-1048q0 -180 -65 -283q-98 -154 -352 -154q-199 0 -310 113q-92 92 -92 252q0 37 2 59l178 21q-2 -18 -2 -47q0 -125 58 -183t181 -57q222 0 222 262v1065h180z" />
    <glyph glyph-name="K" unicode="K" horiz-adv-x="1214" 
d="M391 0h-180v1454h180v-690l529 690h223l-488 -612l508 -842h-215l-401 709l-156 -197v-512z" />
    <glyph glyph-name="L" unicode="L" horiz-adv-x="1046" 
d="M995 0h-784v1454h180v-1294h604v-160z" />
    <glyph glyph-name="M" unicode="M" horiz-adv-x="1646" 
d="M1436 0h-170v903q0 193 4 367h-4q-47 -197 -76 -295l-293 -975h-149l-291 971q-37 127 -78 301h-4q4 -176 4 -369v-903h-168v1454h272l269 -942q45 -164 69 -289h4q23 106 74 291l264 940h273v-1454z" />
    <glyph glyph-name="N" unicode="N" horiz-adv-x="1380" 
d="M211 1454h248l436 -967q74 -168 98 -254h4q-8 229 -8 297v924h180v-1454h-247l-433 954q-66 141 -102 267h-4q8 -154 8 -297v-924h-180v1454z" />
    <glyph glyph-name="O" unicode="O" horiz-adv-x="1306" 
d="M989 727q0 600 -336 600t-336 -600t336 -600t336 600zM1174 727q0 -358 -136 -558t-385 -200q-250 0 -385 200t-135 558t135 558t385 200q249 0 385 -200t136 -558z" />
    <glyph glyph-name="P" unicode="P" horiz-adv-x="1236" 
d="M950 1032q0 119 -74 193q-75 74 -223 73h-262v-532h252q307 0 307 266zM664 1454q231 0 351 -120t120 -306t-121 -302t-350 -116h-273v-610h-180v1454h453z" />
    <glyph glyph-name="Q" unicode="Q" horiz-adv-x="1306" 
d="M989 727q0 600 -336 600t-336 -600t336 -600t336 600zM652 1485q250 0 386 -199t136 -552q0 -352 -119 -542t-324 -219v-59q-1 -48 17 -66t65 -18t105 31l47 -99q-91 -59 -193 -59t-145 45t-49 141l-7 86q-199 27 -319 216t-119 543q0 354 134 553q134 198 385 198z" />
    <glyph glyph-name="R" unicode="R" horiz-adv-x="1290" 
d="M965 1040q0 258 -283 258h-291v-512h293q137 0 209 68t72 186zM1149 1051q0 -188 -98 -287q-57 -57 -150 -94l266 -670h-202l-236 631h-338v-631h-180v1454h483q211 0 332 -104q123 -111 123 -299z" />
    <glyph glyph-name="S" unicode="S" horiz-adv-x="1239" 
d="M1108 379q0 -190 -131 -300t-363 -110t-356 115t-127 297l180 45q8 -160 87 -230q78 -70 216 -69q138 0 224 61q86 62 86 162t-52 162t-165 115l-240 114q-151 74 -223 161t-72 226q0 176 128 266t338 91t318 -101t113 -245l-176 -45q-10 125 -77 180q-66 55 -190 55
t-197 -50t-73 -138q0 -89 45 -141t156 -103l240 -113q167 -76 239 -172t72 -233z" />
    <glyph glyph-name="T" unicode="T" horiz-adv-x="1081" 
d="M1014 1294h-383v-1294h-180v1294h-383v160h946v-160z" />
    <glyph glyph-name="U" unicode="U" horiz-adv-x="1314" 
d="M657 -31q-238 0 -354 140q-98 117 -98 321v1024h180v-1008q0 -152 47 -223q68 -98 226 -98t225 98q47 70 47 223v1008h180v-1024q0 -205 -98 -321q-117 -140 -355 -140z" />
    <glyph glyph-name="V" unicode="V" horiz-adv-x="1216" 
d="M1161 1454l-444 -1454h-217l-445 1454h193l280 -981q45 -156 80 -291h4q37 146 80 293l281 979h188z" />
    <glyph glyph-name="W" unicode="W" horiz-adv-x="1775" 
d="M1673 1454l-334 -1454h-200l-195 887q-29 135 -57 332h-4q-25 -193 -56 -332l-190 -887h-209l-326 1454h187l200 -946q23 -111 46 -277h4q20 150 47 277l192 946h217l197 -946q29 -139 45 -277h4q16 137 45 277l203 946h184z" />
    <glyph glyph-name="X" unicode="X" horiz-adv-x="1173" 
d="M270 0h-198l411 752l-381 702h209l277 -516l278 516h201l-381 -694l416 -760h-209l-309 571z" />
    <glyph glyph-name="Y" unicode="Y" horiz-adv-x="1150" 
d="M670 0h-181v629l-452 825h221l324 -627l321 627h211l-444 -825v-629z" />
    <glyph glyph-name="Z" unicode="Z" horiz-adv-x="1157" 
d="M1049 0h-930v172l710 1124q-113 -2 -219 -2h-467v160h879v-172l-715 -1124q102 2 209 2h533v-160z" />
    <glyph glyph-name="bracketleft" unicode="[" horiz-adv-x="724" 
d="M684 -410h-422v1895h422v-133h-258v-1628h258v-134z" />
    <glyph glyph-name="backslash" unicode="\" horiz-adv-x="933" 
d="M711 -31l-660 1516h162l659 -1516h-161z" />
    <glyph glyph-name="bracketright" unicode="]" horiz-adv-x="724" 
d="M463 -410h-422v134h258v1628h-258v133h422v-1895z" />
    <glyph glyph-name="asciicircum" unicode="^" 
d="M721 1454l463 -842l-115 -61l-403 739h-4l-402 -739l-115 61l459 842h117z" />
    <glyph glyph-name="underscore" unicode="_" horiz-adv-x="1024" 
d="M1024 -215h-1024v94h1024v-94z" />
    <glyph glyph-name="grave" unicode="`" horiz-adv-x="450" 
d="M387 1143l-442 196l75 146l410 -262z" />
    <glyph glyph-name="a" unicode="a" horiz-adv-x="1107" 
d="M297 266q0 -68 41 -108t115 -41q169 -1 290 235v189q-19 -15 -55 -27t-124 -39t-130 -41q-137 -47 -137 -168zM430 -25q-137 0 -222 78t-85 213q0 225 283 303q27 8 130 35t142 38q39 12 52 28t13 47v16q0 74 -44 114t-154 40q-213 0 -213 -166l-170 18q2 131 99 211
t282 80q365 0 364 -297v-467q-1 -84 21 -118t94 -44l-18 -120q-121 0 -180 43q-58 43 -74 141q-119 -193 -320 -193z" />
    <glyph glyph-name="b" unicode="b" horiz-adv-x="1179" 
d="M887 512q0 170 -69 272q-70 102 -192 102t-191 -104q-69 -106 -69 -278t70 -279q70 -106 199 -106q252 0 252 393zM651 1030q186 0 298 -142t112 -387t-114 -385t-296 -141q-100 1 -175 51t-107 121h-4q0 -61 -9 -147h-161q10 246 10 324v1130h164v-450l-4 -146h4
q23 66 99 119q77 53 183 53z" />
    <glyph glyph-name="c" unicode="c" horiz-adv-x="1064" 
d="M119 498q0 232 122 383q122 150 328 149q167 0 263 -85t116 -220l-162 -31q-29 193 -217 193q-127 -1 -201 -103t-75 -288q0 -186 76 -281q76 -94 196 -94q203 0 230 217l168 -25q-25 -141 -119 -239t-292 -98t-316 144q-118 146 -117 378z" />
    <glyph glyph-name="d" unicode="d" horiz-adv-x="1179" 
d="M815 147h-4q-25 -71 -97 -121t-184 -51q-176 -1 -294 139t-117 391q0 251 114 388q115 137 306 137q98 0 172 -49t100 -123h4q-4 72 -4 135v461h164v-1128q0 -80 10 -326h-162q-8 86 -8 147zM293 496q0 -184 71 -280q72 -96 196 -97t189 109t65 279t-68 274
q-67 105 -197 106q-256 0 -256 -391z" />
    <glyph glyph-name="e" unicode="e" horiz-adv-x="1093" 
d="M544 887q-122 0 -190 -109q-49 -79 -55 -194h502q-2 145 -68 224q-67 79 -189 79zM561 -25q-209 1 -325 143t-117 385q0 243 118 385t313 142t312 -133t117 -358q0 -45 -4 -99h-678q16 -322 264 -321q182 0 223 184l164 -31q-31 -121 -125 -209t-262 -88z" />
    <glyph glyph-name="f" unicode="f" horiz-adv-x="788" 
d="M434 1006h277v-144h-277v-862h-164v862h-209v144h209v135q0 188 73 266t198 78t223 -47l-49 -127q-76 31 -153 31t-109 -58q-18 -33 -19 -158v-120z" />
    <glyph glyph-name="g" unicode="g" horiz-adv-x="1167" 
d="M973 680v-649q0 -231 -96 -352q-95 -121 -301 -121t-298 83t-102 203l162 23q16 -178 227 -178q141 0 199 84q45 66 45 243q0 37 4 131h-4q-23 -61 -95 -114t-192 -53q-178 0 -291 140t-112 388q0 248 114 385q115 137 309 137t267 -170h4q0 63 8 146h162
q-10 -170 -10 -326zM293 508q0 -182 63 -284q64 -102 194 -101q130 0 196 105q66 106 65 282q-2 176 -68 276t-186 101q-264 0 -264 -379z" />
    <glyph glyph-name="h" unicode="h" horiz-adv-x="1144" 
d="M637 1030q332 0 334 -379v-651h-164v623q0 135 -37 188q-54 76 -162 76t-179 -79t-71 -230v-578h-163v1454h163v-424q0 -53 -4 -160h4q86 160 279 160z" />
    <glyph glyph-name="i" unicode="i" horiz-adv-x="552" 
d="M365 1214h-177v226h177v-226zM358 0h-163v1006h163v-1006z" />
    <glyph glyph-name="j" unicode="j" horiz-adv-x="567" 
d="M209 -72v1078h164v-1092q0 -188 -73 -266t-198 -78t-223 47l49 127q74 -31 152 -31t110 58q19 32 19 157zM379 1214h-176v226h176v-226z" />
    <glyph glyph-name="k" unicode="k" horiz-adv-x="1073" 
d="M358 0h-163v1454h163v-913l439 465h221l-389 -412l403 -594h-201l-315 477l-158 -160v-317z" />
    <glyph glyph-name="l" unicode="l" horiz-adv-x="552" 
d="M195 0v1454h163v-1454h-163z" />
    <glyph glyph-name="m" unicode="m" horiz-adv-x="1456" 
d="M1118 684q0 203 -127 203q-45 0 -85 -26q-40 -25 -62 -69t-21 -145v-647h-164v682q0 82 -18 129q-29 76 -117 76q-43 0 -82 -26q-40 -27 -62 -71t-22 -149v-641h-163v686q0 178 -11 320h160q6 -59 6 -127h4q23 63 82 107q58 44 144 44t143 -44t74 -109h4q67 153 233 153
t221 -131q27 -68 27 -186v-713h-164v684z" />
    <glyph glyph-name="n" unicode="n" horiz-adv-x="1153" 
d="M352 864h4q92 166 308 166q174 0 260 -131q55 -82 55 -233v-666h-164v639q0 100 -27 152q-51 94 -180 94q-66 0 -122 -32q-128 -73 -128 -275v-578h-163v686q0 178 -11 320h160q8 -86 8 -142z" />
    <glyph glyph-name="o" unicode="o" horiz-adv-x="1122" 
d="M825 504q0 184 -69 284q-70 100 -195 100t-195 -100t-69 -284q0 -184 70 -286q71 -102 195 -101q124 0 194 101q69 102 69 286zM999 504q1 -240 -119 -384t-319 -144t-319 144t-119 384q0 240 120 383q121 143 319 143t318 -143t119 -383z" />
    <glyph glyph-name="p" unicode="p" horiz-adv-x="1169" 
d="M358 4v-414h-163v1088q0 186 -11 328h162q8 -78 8 -148h4q23 64 102 118t185 54q180 0 293 -142t113 -384t-112 -385t-294 -144q-104 0 -178 50t-109 122h-4q4 -80 4 -143zM877 508q0 188 -70 284t-191 95q-120 1 -190 -101t-70 -285t69 -283t191 -99q122 0 192 100
q70 101 69 289z" />
    <glyph glyph-name="q" unicode="q" horiz-adv-x="1169" 
d="M119 503q0 241 114 384q115 143 293 143q106 0 184 -54t101 -118h4q0 66 8 148h162q-10 -141 -10 -328v-1088h-164v414l4 143h-4q-31 -71 -101 -121t-173 -51q-184 -1 -301 143t-117 385zM293 494q0 -190 74 -282q75 -92 195 -93q120 0 186 100q66 101 66 283t-69 283
q-67 101 -195 101t-192 -100q-64 -102 -65 -292z" />
    <glyph glyph-name="r" unicode="r" horiz-adv-x="808" 
d="M637 864q-113 0 -182 -82q-96 -113 -97 -381v-401h-163v686q0 150 -11 320h156q8 -94 8 -207h4q45 107 123 169t178 62q56 0 95 -12v-168q-49 14 -111 14z" />
    <glyph glyph-name="s" unicode="s" horiz-adv-x="1062" 
d="M932 274q0 -136 -102 -218t-296 -81q-196 0 -297 86t-114 220l172 30q13 -104 73 -148t169 -44q221 0 221 151q0 70 -44 103t-147 61l-141 39q-215 59 -258 164q-20 49 -21 117q1 128 99 202t277 74t273 -74t105 -192l-162 -33q-10 86 -61 122t-154 36q-207 0 -207 -123
q0 -59 40 -92t139 -58l147 -38q143 -36 216 -102t73 -202z" />
    <glyph glyph-name="t" unicode="t" horiz-adv-x="811" 
d="M270 315v547h-209v144h209v319l164 74v-393h271v-144h-271v-528q0 -133 29 -174t109 -41t153 31l49 -127q-98 -47 -228 -47t-203 77q-73 78 -73 262z" />
    <glyph glyph-name="u" unicode="u" horiz-adv-x="1157" 
d="M344 360q0 -241 188 -241q174 0 242 145q25 51 25 168v574h164v-689q0 -154 10 -317h-162q-6 86 -6 143h-4q-82 -168 -289 -168q-144 -1 -238 91t-94 262v678h164v-646z" />
    <glyph glyph-name="v" unicode="v" horiz-adv-x="976" 
d="M926 1006l-359 -1006h-157l-359 1006h182l195 -578q41 -121 61 -221h5q31 127 61 221l197 578h174z" />
    <glyph glyph-name="w" unicode="w" horiz-adv-x="1372" 
d="M1290 1006l-248 -1006h-176l-135 571q-33 137 -41 240h-4q-12 -96 -45 -240l-129 -571h-186l-244 1006h170l131 -598q29 -135 39 -218h4q8 86 35 216l127 600h200l130 -598q25 -115 34 -222h4q12 113 37 222l131 598h166z" />
    <glyph glyph-name="x" unicode="x" horiz-adv-x="1007" 
d="M961 0h-205l-256 379l-252 -379h-201l365 518l-340 488h196l238 -351l233 351h197l-342 -486z" />
    <glyph glyph-name="y" unicode="y" horiz-adv-x="974" 
d="M216 -430q-118 0 -228 63l57 123q84 -45 153 -45q70 0 100 30t48 81l62 182l-367 1002h184l201 -578q37 -104 59 -205h4q12 53 64 205l197 578h174l-430 -1217q-37 -109 -98 -164q-62 -55 -180 -55z" />
    <glyph glyph-name="z" unicode="z" horiz-adv-x="1017" 
d="M928 0h-830v123l586 743q-104 -4 -199 -4h-346v144h768v-121l-583 -744q76 4 163 4h441v-145z" />
    <glyph glyph-name="braceleft" unicode="{" horiz-adv-x="768" 
d="M299 809v332q0 176 71 260t195 84h101v-142h-76q-72 -1 -98 -37t-25 -163v-344q0 -109 -27 -169t-110 -89v-4q84 -31 114 -99q23 -51 23 -159v-347q0 -128 26 -164t97 -36h76v-142h-101q-125 0 -195 84t-71 260v334q0 115 -14 146q-22 53 -131 55v139q109 2 131 56
q14 31 14 145z" />
    <glyph glyph-name="bar" unicode="|" horiz-adv-x="573" 
d="M358 -483h-143v2203h143v-2203z" />
    <glyph glyph-name="braceright" unicode="}" horiz-adv-x="768" 
d="M469 268v-334q0 -176 -71 -260t-195 -84h-101v142h76q72 0 98 37t25 163v347q0 109 23 159q31 68 114 99v4q-84 31 -110 90t-27 168v344q0 127 -26 164t-97 36h-76v142h101q125 0 195 -84t71 -260v-332q0 -115 14 -145q22 -54 131 -56v-139q-109 -2 -131 -55
q-14 -31 -14 -146z" />
    <glyph glyph-name="asciitilde" unicode="~" 
d="M450 526q-58 0 -99 -32q-40 -32 -87 -119l-108 59q115 227 290 228q74 0 132 -26t188 -108q60 -36 118 -36t98 32t87 119l109 -59q-113 -227 -291 -228q-74 0 -133 26t-187 107q-59 37 -117 37z" />
    <glyph glyph-name="nbspace" unicode="&#xa0;" horiz-adv-x="614" 
 />
    <glyph glyph-name="exclamdown" unicode="&#xa1;" horiz-adv-x="724" 
d="M256 1454h213v-219h-213v219zM266 0q8 641 31 987l8 121h115q37 -414 45 -1108h-199z" />
    <glyph glyph-name="cent" unicode="&#xa2;" horiz-adv-x="1187" 
d="M356 498q0 -162 58 -256t155 -115v752q-101 -25 -157 -122t-56 -259zM676 -156h-107v133q-180 19 -283 163q-104 144 -104 358t104 359q104 144 283 169v135h107v-133q150 -10 232 -93t104 -210l-162 -31q-25 170 -174 189v-760q162 24 182 217l168 -27
q-22 -133 -106 -227t-244 -109v-133z" />
    <glyph glyph-name="sterling" unicode="&#xa3;" horiz-adv-x="1187" 
d="M696 1485q182 1 276 -99t93 -245q0 -41 -10 -88l-152 -21q6 37 6 76q0 233 -219 233q-150 0 -211 -98q-39 -63 -39 -155t15 -207h348v-123h-330q29 -201 29 -295q0 -256 -129 -326q98 6 258 6h411v-143h-874v135q74 10 113 55q39 46 48 102t9 151t-33 315h-160v123h144
q-14 100 -15 166q0 438 422 438z" />
    <glyph glyph-name="currency" unicode="&#xa4;" horiz-adv-x="1187" 
d="M299 680q0 -133 83 -219t214 -86t214 86t83 219t-83 218t-214 85t-214 -85t-83 -218zM597 1128q151 0 267 -88l123 121l86 -94l-117 -117q88 -116 88 -270t-90 -266l119 -121l-88 -90l-119 119q-120 -90 -272 -90t-264 90q-47 -51 -121 -119l-94 88l125 121
q-92 111 -92 263t88 273l-121 117l94 94l121 -119q116 88 267 88z" />
    <glyph glyph-name="yen" unicode="&#xa5;" horiz-adv-x="1187" 
d="M190 659v121h277l-404 674h218l319 -551l318 551h206l-397 -674h281v-121h-322v-145h322v-121h-322v-393h-176v393h-320v121h320v145h-320z" />
    <glyph glyph-name="brokenbar" unicode="&#xa6;" horiz-adv-x="573" 
d="M358 -276h-143v761h143v-761zM358 958h-143v762h143v-762z" />
    <glyph glyph-name="section" unicode="&#xa7;" horiz-adv-x="1277" 
d="M406 1020q61 0 100 -19q-135 125 -135 239q-1 114 73 180t203 65t207 -61t78 -162q0 -23 -6 -66l-158 -14q4 24 4 66t-32 70t-85 28q-121 0 -120 -101q0 -47 20 -79t92 -103l252 -250q121 -121 178 -215t57 -223t-78 -204q-79 -75 -184 -75q-61 0 -100 19
q135 -125 135 -239q1 -114 -73 -180t-203 -65t-207 61t-78 163q0 23 6 65l158 14q-4 -24 -4 -66t32 -70t85 -27q121 0 120 100q0 47 -20 79t-92 103l-252 250q-121 121 -178 215t-57 223t78 204q79 75 184 75zM973 379q1 131 -189 319t-333 189q-66 0 -106 -40t-40 -110
q-1 -131 189 -319t333 -189q66 0 106 40t40 110z" />
    <glyph glyph-name="dieresis" unicode="&#xa8;" horiz-adv-x="450" 
d="M135 1196h-180v221h180v-221zM496 1196h-181v221h181v-221z" />
    <glyph glyph-name="copyright" unicode="&#xa9;" horiz-adv-x="1765" 
d="M123 727q0 317 220 537q219 220 539 219q320 0 540 -219q220 -218 220 -536t-220 -538t-539 -219q-319 0 -540 219q-220 220 -220 537zM233 727q1 -271 189 -463t460 -192t461 191t189 463t-188 464t-461 192q-272 0 -461 -192t-189 -463zM869 256q-169 0 -281 136
t-111 342q0 206 113 342t291 136q145 0 231 -88t94 -202l-119 -19q-29 201 -210 201q-117 0 -196 -99t-79 -271t80 -270q80 -99 195 -99q194 -1 221 204l123 -12q-15 -121 -99 -211t-253 -90z" />
    <glyph glyph-name="ordfeminine" unicode="&#xaa;" horiz-adv-x="927" 
d="M264 918q0 -47 31 -74t93 -27t132 44t111 126v135q-17 -14 -43 -22t-112 -30t-114 -32q-98 -33 -98 -120zM358 707q-90 0 -156 56q-65 57 -65 147t47 145t160 86q31 8 124 27q93 18 118 26t35 19t10 34v15q0 111 -166 110q-84 0 -131 -33t-47 -90l-121 11q0 96 80 156
t220 60t212 -60t72 -154v-338q0 -61 18 -86t68 -33l-15 -92q-88 1 -132 33t-54 104q-35 -59 -111 -101t-166 -42z" />
    <glyph glyph-name="guillemotleft" unicode="&#xab;" horiz-adv-x="966" 
d="M840 852l-238 -336l238 -336l-95 -65l-299 401l299 402zM496 852l-238 -336l238 -336l-95 -65l-299 401l299 402z" />
    <glyph glyph-name="logicalnot" unicode="&#xac;" 
d="M1176 305h-138v334h-882v133h1020v-467z" />
    <glyph glyph-name="uni00AD" unicode="&#xad;" horiz-adv-x="940" 
d="M776 514h-612v148h612v-148z" />
    <glyph glyph-name="registered" unicode="&#xae;" horiz-adv-x="1765" 
d="M123 727q0 317 220 537q219 220 539 219q320 0 540 -219q220 -218 220 -536t-220 -538t-539 -219q-319 0 -540 219q-220 220 -220 537zM233 727q1 -271 189 -463t460 -192t461 191t189 463t-188 464t-461 192q-272 0 -461 -192t-189 -463zM1106 936q0 72 -47 112t-131 39
h-180v-309h174q184 0 184 158zM1229 942q0 -193 -168 -252l164 -420h-142l-137 400h-198v-400h-123v926h309q125 0 210 -70t85 -184z" />
    <glyph glyph-name="macron" unicode="&#xaf;" horiz-adv-x="450" 
d="M481 1241h-512v119h512v-119z" />
    <glyph glyph-name="degree" unicode="&#xb0;" horiz-adv-x="950" 
d="M289 1143q0 -78 54 -132q54 -55 132 -55t132 54t55 133q0 78 -54 132t-133 54q-78 0 -132 -54t-54 -132zM786 1143q0 -129 -91 -220t-220 -91t-220 90q-91 92 -91 221t91 220t220 91t220 -91t91 -220z" />
    <glyph glyph-name="plusminus" unicode="&#xb1;" 
d="M180 127h971v-127h-971v127zM1151 537h-420v-330h-131v330h-420v127h420v329h131v-329h420v-127z" />
    <glyph glyph-name="twosuperior" unicode="&#xb2;" horiz-adv-x="800" 
d="M404 1436q115 0 185 -62t70 -143q1 -82 -23 -137q-53 -124 -323 -306q37 4 111 5h231v-119h-516v121q168 115 273 216t111 155q3 20 3 58t-32 66t-90 29q-60 0 -98 -36t-38 -107l-129 12q0 116 75 182t190 66z" />
    <glyph glyph-name="threesuperior" unicode="&#xb3;" horiz-adv-x="839" 
d="M686 897q0 -106 -76 -171q-76 -64 -196 -64t-194 55q-73 55 -81 162l129 18q14 -125 148 -125q59 0 99 35t40 92q0 127 -180 127h-58v100h58q158 0 157 105q0 39 -36 67t-90 27q-52 0 -88 -31t-37 -80l-129 15q6 94 79 150q74 57 184 57q109 0 179 -58t70 -141
q0 -115 -115 -152v-6q55 -18 96 -66t41 -116z" />
    <glyph glyph-name="acute" unicode="&#xb4;" horiz-adv-x="450" 
d="M506 1339l-443 -196l-43 80l410 262z" />
    <glyph glyph-name="mu" unicode="&#xb5;" horiz-adv-x="1157" 
d="M537 -27q-63 0 -115 27t-74 59h-4q4 -131 4 -260v-209h-164v1416h164v-648q0 -242 205 -241q76 0 135 39t87 99t28 175v576h164v-691q0 -152 10 -315h-162q-4 86 -6 141h-4q-82 -168 -268 -168z" />
    <glyph glyph-name="paragraph" unicode="&#xb6;" horiz-adv-x="1335" 
d="M123 1020q0 192 128 312q128 118 322 118h537v-1743h-143v1628h-248v-1628h-144l-2 883q-195 0 -323 119t-127 311z" />
    <glyph glyph-name="periodcentered" unicode="&#xb7;" horiz-adv-x="579" 
d="M381 428h-213v219h213v-219z" />
    <glyph glyph-name="cedilla" unicode="&#xb8;" horiz-adv-x="450" 
d="M401 -227q0 -164 -217 -164q-96 0 -161 55l40 66q49 -39 101 -39q102 0 100 67q0 68 -67 68q-41 0 -70 -27l-47 37l94 164h78l-70 -111l2 -2q33 15 82 15t92 -36t43 -93z" />
    <glyph glyph-name="onesuperior" unicode="&#xb9;" horiz-adv-x="722" 
d="M518 1423v-749h-133v583q-84 -80 -199 -172l-73 91q124 97 278 247h127z" />
    <glyph glyph-name="ordmasculine" unicode="&#xba;" horiz-adv-x="944" 
d="M688 1092q0 136 -59 208t-157 72t-156 -73q-60 -73 -60 -207t59 -207q59 -72 157 -72t157 72t59 207zM813 1092q0 -178 -94 -280t-246 -101q-152 0 -247 101q-95 102 -95 280t95 280t247 102t246 -102t94 -280z" />
    <glyph glyph-name="guillemotright" unicode="&#xbb;" horiz-adv-x="966" 
d="M365 516l-238 336l94 66l299 -402l-299 -401l-94 65zM709 516l-238 336l94 66l299 -402l-299 -401l-94 65z" />
    <glyph glyph-name="onequarter" unicode="&#xbc;" horiz-adv-x="1679" 
d="M1292 1407l-854 -1450l-110 61l856 1452zM1206 274v170q0 63 2 109h-4q-25 -47 -59 -100l-121 -179h182zM1452 168h-117v-168h-129v168h-321v86l334 496h116v-476h117v-106zM518 1423v-749h-133v581q-84 -80 -199 -172l-75 93q135 104 280 247h127z" />
    <glyph glyph-name="onehalf" unicode="&#xbd;" horiz-adv-x="1679" 
d="M1292 1407l-854 -1450l-110 61l856 1452zM520 1423v-749h-133v581q-84 -80 -199 -172l-75 93q135 104 280 247h127zM1252 762q114 0 184 -62t71 -143q1 -82 -23 -137q-52 -122 -323 -305q37 4 111 4h231v-119h-516v121q168 115 272 214t112 158q3 19 3 57t-32 66t-91 29
q-59 0 -97 -36t-38 -107l-129 12q0 116 75 182q76 66 190 66z" />
    <glyph glyph-name="threequarters" unicode="&#xbe;" horiz-adv-x="1679" 
d="M1393 1407l-854 -1450l-111 61l856 1452zM1309 274v170q0 63 2 109h-4q-25 -47 -60 -100l-121 -179h183zM1554 168h-116v-168h-129v168h-322v86l334 496h117v-476h116v-106zM705 897q0 -106 -76 -171q-76 -64 -197 -64q-122 0 -194 55t-80 162l129 18q14 -125 147 -125
q59 0 100 35q40 35 39 92q0 127 -180 127h-57v100h57q158 0 158 105q0 39 -37 67t-90 27q-53 0 -88 -31t-37 -80l-129 15q6 94 80 150q74 57 184 57t178 -58q70 -58 70 -141q0 -115 -115 -152v-6q55 -18 97 -66t41 -116z" />
    <glyph glyph-name="questiondown" unicode="&#xbf;" horiz-adv-x="1107" 
d="M467 1454h213v-219h-213v219zM152 348q0 162 97 259t240 124v356h168v-462q-334 -29 -333 -271q0 -106 59 -172t170 -66t169 64q58 63 60 174l168 -22q0 -160 -108 -261t-296 -101q-186 0 -290 108t-104 270z" />
    <glyph glyph-name="Agrave" unicode="&#xc0;" horiz-adv-x="1210" 
d="M801 1573l-443 196l76 146l410 -262zM813 475l-137 479q-61 215 -74 279h-4q-14 -76 -72 -281l-139 -477h426zM1149 0h-201l-88 315h-518l-90 -315h-191l455 1454h172z" />
    <glyph glyph-name="Aacute" unicode="&#xc1;" horiz-adv-x="1210" 
d="M844 1769l-443 -196l-43 80l410 262zM813 475l-137 479q-61 215 -74 279h-4q-14 -76 -72 -281l-139 -477h426zM1149 0h-201l-88 315h-518l-90 -315h-191l455 1454h172z" />
    <glyph glyph-name="Acircumflex" unicode="&#xc2;" horiz-adv-x="1210" 
d="M600 1743l-235 -170l-70 78l305 264l305 -264l-69 -78zM813 475l-137 479q-61 215 -74 279h-4q-14 -76 -72 -281l-139 -477h426zM1149 0h-201l-88 315h-518l-90 -315h-191l455 1454h172z" />
    <glyph glyph-name="Atilde" unicode="&#xc3;" horiz-adv-x="1210" 
d="M469 1704q-76 0 -78 -86h-92q0 92 51 151t134 59t157 -63q41 -35 90 -34q76 0 78 86h92q0 -91 -51 -151t-134 -60t-157 63q-41 35 -90 35zM813 475l-137 479q-61 215 -74 279h-4q-14 -76 -72 -281l-139 -477h426zM1149 0h-201l-88 315h-518l-90 -315h-191l455 1454h172z
" />
    <glyph glyph-name="Adieresis" unicode="&#xc4;" horiz-adv-x="1210" 
d="M514 1626h-180v221h180v-221zM874 1626h-180v221h180v-221zM813 475l-137 479q-61 215 -74 279h-4q-14 -76 -72 -281l-139 -477h426zM1149 0h-201l-88 315h-518l-90 -315h-191l455 1454h172z" />
    <glyph glyph-name="Aring" unicode="&#xc5;" horiz-adv-x="1210" 
d="M489 1708q0 -45 32 -78t79 -33t79 33t32 78t-32 78t-79 33t-79 -33t-32 -78zM799 1708q-1 -82 -59 -140t-139 -58t-139 58t-59 140t57 139t140 57t140 -56q58 -58 59 -140zM813 475l-137 479q-61 215 -74 279h-4q-14 -76 -72 -281l-139 -477h426zM1149 0h-201l-88 315
h-518l-90 -315h-191l455 1454h172z" />
    <glyph glyph-name="AE" unicode="&#xc6;" horiz-adv-x="1622" 
d="M752 489v611l-283 -611h283zM1524 1454v-154h-596v-475h477v-153h-477v-518h596v-154h-772v338h-353l-155 -338h-193l692 1454h781z" />
    <glyph glyph-name="Ccedilla" unicode="&#xc7;" horiz-adv-x="1220" 
d="M133 726q0 347 131 553t391 206q193 0 309 -118t130 -284l-179 -32q-27 276 -264 276q-334 0 -334 -604q0 -274 81 -435t251 -161q258 0 277 346l182 -24q-8 -119 -45 -215t-129 -173q-92 -76 -232 -88l-65 -104l2 -2q33 14 82 14t92 -36t43 -93q0 -164 -217 -164
q-96 0 -162 56l41 65q50 -39 102 -39q100 0 99 68q0 68 -68 67q-41 0 -69 -26l-47 37l88 155q-236 8 -363 208t-127 547z" />
    <glyph glyph-name="Egrave" unicode="&#xc8;" horiz-adv-x="1118" 
d="M825 1573l-442 196l76 146l409 -262zM1020 0h-809v1454h809v-158h-629v-471h510v-157h-510v-510h629v-158z" />
    <glyph glyph-name="Eacute" unicode="&#xc9;" horiz-adv-x="1118" 
d="M868 1769l-442 -196l-43 80l410 262zM1020 0h-809v1454h809v-158h-629v-471h510v-157h-510v-510h629v-158z" />
    <glyph glyph-name="Ecircumflex" unicode="&#xca;" horiz-adv-x="1118" 
d="M623 1745l-236 -170l-70 78l306 264l305 -264l-70 -78zM1020 0h-809v1454h809v-158h-629v-471h510v-157h-510v-510h629v-158z" />
    <glyph glyph-name="Edieresis" unicode="&#xcb;" horiz-adv-x="1118" 
d="M524 1626h-180v221h180v-221zM885 1626h-180v221h180v-221zM1020 0h-809v1454h809v-158h-629v-471h510v-157h-510v-510h629v-158z" />
    <glyph glyph-name="Igrave" unicode="&#xcc;" horiz-adv-x="610" 
d="M496 1573l-443 196l76 146l410 -262zM395 0h-180v1454h180v-1454z" />
    <glyph glyph-name="Iacute" unicode="&#xcd;" horiz-adv-x="610" 
d="M559 1769l-442 -196l-43 80l409 262zM395 0h-180v1454h180v-1454z" />
    <glyph glyph-name="Icircumflex" unicode="&#xce;" horiz-adv-x="610" 
d="M305 1747l-235 -170l-70 78l305 264l305 -264l-69 -78zM395 0h-180v1454h180v-1454z" />
    <glyph glyph-name="Idieresis" unicode="&#xcf;" horiz-adv-x="610" 
d="M215 1626h-180v221h180v-221zM575 1626h-180v221h180v-221zM395 0h-180v1454h180v-1454z" />
    <glyph glyph-name="Eth" unicode="&#xd0;" horiz-adv-x="1306" 
d="M989 727q0 244 -79 396q-90 177 -298 177h-221v-505h264v-131h-264v-510h219q379 0 379 573zM1174 733q0 -345 -134 -539t-448 -194h-381v664h-162v131h162v659h407q241 0 371 -142t167 -363q18 -101 18 -216z" />
    <glyph glyph-name="Ntilde" unicode="&#xd1;" horiz-adv-x="1380" 
d="M567 1704q-76 0 -78 -86h-92q-1 92 51 151t135 59t156 -63q41 -35 90 -34q76 0 78 86h92q0 -91 -51 -151t-134 -60t-157 63q-41 35 -90 35zM211 1454h248l436 -967q74 -168 98 -254h4q-8 229 -8 297v924h180v-1454h-247l-433 954q-66 141 -102 267h-4q8 -154 8 -297v-924
h-180v1454z" />
    <glyph glyph-name="Ograve" unicode="&#xd2;" horiz-adv-x="1306" 
d="M864 1573l-442 196l76 146l409 -262zM989 727q0 600 -336 600t-336 -600t336 -600t336 600zM1174 727q0 -358 -136 -558t-385 -200q-250 0 -385 200t-135 558t135 558t385 200q249 0 385 -200t136 -558z" />
    <glyph glyph-name="Oacute" unicode="&#xd3;" horiz-adv-x="1306" 
d="M887 1769l-443 -196l-43 80l410 262zM989 727q0 600 -336 600t-336 -600t336 -600t336 600zM1174 727q0 -358 -136 -558t-385 -200q-250 0 -385 200t-135 558t135 558t385 200q249 0 385 -200t136 -558z" />
    <glyph glyph-name="Ocircumflex" unicode="&#xd4;" horiz-adv-x="1306" 
d="M653 1747l-235 -170l-70 78l305 264l305 -264l-69 -78zM989 727q0 600 -336 600t-336 -600t336 -600t336 600zM1174 727q0 -358 -136 -558t-385 -200q-250 0 -385 200t-135 558t135 558t385 200q249 0 385 -200t136 -558z" />
    <glyph glyph-name="Otilde" unicode="&#xd5;" horiz-adv-x="1306" 
d="M522 1704q-76 0 -78 -86h-92q0 92 51 151t135 59t156 -63q41 -35 90 -34q76 0 78 86h92q0 -91 -51 -151t-134 -60t-157 63q-41 35 -90 35zM989 727q0 600 -336 600t-336 -600t336 -600t336 600zM1174 727q0 -358 -136 -558t-385 -200q-250 0 -385 200t-135 558t135 558
t385 200q249 0 385 -200t136 -558z" />
    <glyph glyph-name="Odieresis" unicode="&#xd6;" horiz-adv-x="1306" 
d="M563 1626h-180v221h180v-221zM924 1626h-181v221h181v-221zM989 727q0 600 -336 600t-336 -600t336 -600t336 600zM1174 727q0 -358 -136 -558t-385 -200q-250 0 -385 200t-135 558t135 558t385 200q249 0 385 -200t136 -558z" />
    <glyph glyph-name="multiply" unicode="&#xd7;" 
d="M999 100l-333 334l-334 -334l-90 90l333 334l-333 334l90 90l334 -334l333 334l91 -90l-334 -334l334 -334z" />
    <glyph glyph-name="Oslash" unicode="&#xd8;" horiz-adv-x="1306" 
d="M317 727q0 -193 35 -326l561 760q-84 170 -260 170q-336 0 -336 -604zM989 727q0 188 -37 330l-561 -760q84 -174 262 -174q336 0 336 604zM659 -31q-244 0 -378 181l-72 -99l-76 53l96 132q-96 188 -96 518t135 531q134 200 376 200t378 -176l76 102l76 -55l-99 -133
q99 -193 99 -523t-136 -531q-136 -200 -379 -200z" />
    <glyph glyph-name="Ugrave" unicode="&#xd9;" horiz-adv-x="1314" 
d="M858 1573l-442 196l76 146l409 -262zM657 -31q-238 0 -354 140q-98 117 -98 321v1024h180v-1008q0 -152 47 -223q68 -98 226 -98t225 98q47 70 47 223v1008h180v-1024q0 -205 -98 -321q-117 -140 -355 -140z" />
    <glyph glyph-name="Uacute" unicode="&#xda;" horiz-adv-x="1314" 
d="M901 1769l-442 -196l-43 80l409 262zM657 -31q-238 0 -354 140q-98 117 -98 321v1024h180v-1008q0 -152 47 -223q68 -98 226 -98t225 98q47 70 47 223v1008h180v-1024q0 -205 -98 -321q-117 -140 -355 -140z" />
    <glyph glyph-name="Ucircumflex" unicode="&#xdb;" horiz-adv-x="1314" 
d="M657 1741l-235 -170l-70 78l305 264l306 -264l-70 -78zM657 -31q-238 0 -354 140q-98 117 -98 321v1024h180v-1008q0 -152 47 -223q68 -98 226 -98t225 98q47 70 47 223v1008h180v-1024q0 -205 -98 -321q-117 -140 -355 -140z" />
    <glyph glyph-name="Udieresis" unicode="&#xdc;" horiz-adv-x="1314" 
d="M567 1626h-180v221h180v-221zM928 1626h-180v221h180v-221zM657 -31q-238 0 -354 140q-98 117 -98 321v1024h180v-1008q0 -152 47 -223q68 -98 226 -98t225 98q47 70 47 223v1008h180v-1024q0 -205 -98 -321q-117 -140 -355 -140z" />
    <glyph glyph-name="Yacute" unicode="&#xdd;" horiz-adv-x="1150" 
d="M838 1769l-443 -196l-43 80l410 262zM670 0h-181v629l-452 825h221l324 -627l321 627h211l-444 -825v-629z" />
    <glyph glyph-name="Thorn" unicode="&#xde;" horiz-adv-x="1206" 
d="M950 809q0 119 -74 193t-223 73h-262v-532h252q307 0 307 266zM664 1231q231 0 351 -120q120 -119 120 -305t-121 -302t-350 -117h-273v-387h-180v1454h180v-223h273z" />
    <glyph glyph-name="germandbls" unicode="&#xdf;" horiz-adv-x="1236" 
d="M195 0v1092q0 170 106 282t302 111q197 -1 305 -101t108 -258q0 -104 -67 -192t-165 -105v-4q123 -23 201 -124t78 -242q0 -233 -115 -359t-315 -125q-78 0 -148 25l31 137q55 -18 109 -18q139 0 201 79q62 80 62 236t-85 238q-86 82 -246 82h-45v135h45q145 0 215 60
q70 59 70 163t-60 164t-174 61q-114 -1 -182 -69t-68 -195v-1073h-163z" />
    <glyph glyph-name="agrave" unicode="&#xe0;" horiz-adv-x="1107" 
d="M748 1143l-443 196l76 146l410 -262zM297 266q0 -68 41 -108t115 -41q169 -1 290 235v189q-19 -15 -55 -27t-124 -39t-130 -41q-137 -47 -137 -168zM430 -25q-137 0 -222 78t-85 213q0 225 283 303q27 8 130 35t142 38q39 12 52 28t13 47v16q0 74 -44 114t-154 40
q-213 0 -213 -166l-170 18q2 131 99 211t282 80q365 0 364 -297v-467q-1 -84 21 -118t94 -44l-18 -120q-121 0 -180 43q-58 43 -74 141q-119 -193 -320 -193z" />
    <glyph glyph-name="aacute" unicode="&#xe1;" horiz-adv-x="1107" 
d="M784 1339l-442 -196l-43 80l410 262zM297 266q0 -68 41 -108t115 -41q169 -1 290 235v189q-19 -15 -55 -27t-124 -39t-130 -41q-137 -47 -137 -168zM430 -25q-137 0 -222 78t-85 213q0 225 283 303q27 8 130 35t142 38q39 12 52 28t13 47v16q0 74 -44 114t-154 40
q-213 0 -213 -166l-170 18q2 131 99 211t282 80q365 0 364 -297v-467q-1 -84 21 -118t94 -44l-18 -120q-121 0 -180 43q-58 43 -74 141q-119 -193 -320 -193z" />
    <glyph glyph-name="acircumflex" unicode="&#xe2;" horiz-adv-x="1107" 
d="M551 1296l-236 -170l-69 78l305 264l305 -264l-70 -78zM297 266q0 -68 41 -108t115 -41q169 -1 290 235v189q-19 -15 -55 -27t-124 -39t-130 -41q-137 -47 -137 -168zM430 -25q-137 0 -222 78t-85 213q0 225 283 303q27 8 130 35t142 38q39 12 52 28t13 47v16
q0 74 -44 114t-154 40q-213 0 -213 -166l-170 18q2 131 99 211t282 80q365 0 364 -297v-467q-1 -84 21 -118t94 -44l-18 -120q-121 0 -180 43q-58 43 -74 141q-119 -193 -320 -193z" />
    <glyph glyph-name="atilde" unicode="&#xe3;" horiz-adv-x="1107" 
d="M406 1290q-74 0 -78 -86h-92q0 92 51 152t134 59q83 0 157 -63q41 -35 90 -35q74 0 77 86h93q0 -91 -52 -151t-134 -60t-156 63q-41 35 -90 35zM297 266q0 -68 41 -108t115 -41q169 -1 290 235v189q-19 -15 -55 -27t-124 -39t-130 -41q-137 -47 -137 -168zM430 -25
q-137 0 -222 78t-85 213q0 225 283 303q27 8 130 35t142 38q39 12 52 28t13 47v16q0 74 -44 114t-154 40q-213 0 -213 -166l-170 18q2 131 99 211t282 80q365 0 364 -297v-467q-1 -84 21 -118t94 -44l-18 -120q-121 0 -180 43q-58 43 -74 141q-119 -193 -320 -193z" />
    <glyph glyph-name="adieresis" unicode="&#xe4;" horiz-adv-x="1107" 
d="M446 1196h-180v221h180v-221zM807 1196h-180v221h180v-221zM297 266q0 -68 41 -108t115 -41q169 -1 290 235v189q-19 -15 -55 -27t-124 -39t-130 -41q-137 -47 -137 -168zM430 -25q-137 0 -222 78t-85 213q0 225 283 303q27 8 130 35t142 38q39 12 52 28t13 47v16
q0 74 -44 114t-154 40q-213 0 -213 -166l-170 18q2 131 99 211t282 80q365 0 364 -297v-467q-1 -84 21 -118t94 -44l-18 -120q-121 0 -180 43q-58 43 -74 141q-119 -193 -320 -193z" />
    <glyph glyph-name="aring" unicode="&#xe5;" horiz-adv-x="1107" 
d="M424 1321q0 -47 32 -79t79 -32t79 32t31 79q0 47 -32 79q-33 32 -79 32t-78 -32t-32 -79zM733 1321q0 -82 -58 -140q-58 -59 -139 -59q-82 0 -140 58t-58 141q0 82 57 139q57 58 139 58t141 -58q58 -58 58 -139zM297 266q0 -68 41 -108t115 -41q169 -1 290 235v189
q-19 -15 -55 -27t-124 -39t-130 -41q-137 -47 -137 -168zM430 -25q-137 0 -222 78t-85 213q0 225 283 303q27 8 130 35t142 38q39 12 52 28t13 47v16q0 74 -44 114t-154 40q-213 0 -213 -166l-170 18q2 131 99 211t282 80q365 0 364 -297v-467q-1 -84 21 -118t94 -44
l-18 -120q-121 0 -180 43q-58 43 -74 141q-119 -193 -320 -193z" />
    <glyph glyph-name="ae" unicode="&#xe6;" horiz-adv-x="1699" 
d="M754 444h-191q-162 0 -215 -39t-53 -119t50 -124t132 -45t157 59t120 160v108zM1166 887q-114 0 -179 -79t-69 -224h489q-3 147 -65 225t-176 78zM1167 -25q-264 0 -364 232q-47 -107 -147 -169t-222 -62t-217 87q-94 88 -94 232q0 145 105 217t284 72h242v149
q0 154 -207 154t-207 -164l-166 12q0 131 96 213t281 82q229 0 317 -131q117 131 303 131t300 -133t114 -358q0 -43 -4 -97h-663v-30q25 -293 256 -293q86 0 146 50t79 134l160 -29q-29 -123 -125 -211t-267 -88z" />
    <glyph glyph-name="ccedilla" unicode="&#xe7;" horiz-adv-x="1064" 
d="M119 506q0 226 122 375q122 150 328 149q167 0 263 -85t116 -220l-162 -31q-29 193 -217 193q-127 -1 -201 -103t-75 -288q0 -186 76 -281q76 -94 196 -94q203 0 230 217l168 -25q-25 -135 -112 -232t-261 -106l-53 -86l2 -2q33 15 81 15t92 -36t44 -93q0 -164 -217 -164
q-96 0 -162 55l41 66q49 -39 101 -39q101 0 99 67q0 68 -67 68q-41 0 -70 -27l-47 37l80 141q-184 15 -290 159t-105 370z" />
    <glyph glyph-name="egrave" unicode="&#xe8;" horiz-adv-x="1093" 
d="M741 1143l-442 196l76 146l409 -262zM544 887q-122 0 -190 -109q-49 -79 -55 -194h502q-2 145 -68 224q-67 79 -189 79zM561 -25q-209 1 -325 143t-117 385q0 243 118 385t313 142t312 -133t117 -358q0 -45 -4 -99h-678q16 -322 264 -321q182 0 223 184l164 -31
q-31 -121 -125 -209t-262 -88z" />
    <glyph glyph-name="eacute" unicode="&#xe9;" horiz-adv-x="1093" 
d="M795 1339l-443 -196l-43 80l410 262zM544 887q-122 0 -190 -109q-49 -79 -55 -194h502q-2 145 -68 224q-67 79 -189 79zM561 -25q-209 1 -325 143t-117 385q0 243 118 385t313 142t312 -133t117 -358q0 -45 -4 -99h-678q16 -322 264 -321q182 0 223 184l164 -31
q-31 -121 -125 -209t-262 -88z" />
    <glyph glyph-name="ecircumflex" unicode="&#xea;" horiz-adv-x="1093" 
d="M551 1296l-236 -170l-69 78l305 264l305 -264l-70 -78zM544 887q-122 0 -190 -109q-49 -79 -55 -194h502q-2 145 -68 224q-67 79 -189 79zM561 -25q-209 1 -325 143t-117 385q0 243 118 385t313 142t312 -133t117 -358q0 -45 -4 -99h-678q16 -322 264 -321q182 0 223 184
l164 -31q-31 -121 -125 -209t-262 -88z" />
    <glyph glyph-name="edieresis" unicode="&#xeb;" horiz-adv-x="1093" 
d="M461 1196h-180v221h180v-221zM821 1196h-180v221h180v-221zM544 887q-122 0 -190 -109q-49 -79 -55 -194h502q-2 145 -68 224q-67 79 -189 79zM561 -25q-209 1 -325 143t-117 385q0 243 118 385t313 142t312 -133t117 -358q0 -45 -4 -99h-678q16 -322 264 -321
q182 0 223 184l164 -31q-31 -121 -125 -209t-262 -88z" />
    <glyph glyph-name="igrave" unicode="&#xec;" horiz-adv-x="552" 
d="M477 1143l-442 196l76 146l409 -262zM358 0h-163v1006h163v-1006z" />
    <glyph glyph-name="iacute" unicode="&#xed;" horiz-adv-x="552" 
d="M520 1339l-442 -196l-43 80l409 262zM358 0h-163v1006h163v-1006z" />
    <glyph glyph-name="icircumflex" unicode="&#xee;" horiz-adv-x="552" 
d="M276 1296l-235 -170l-70 78l305 264l306 -264l-70 -78zM358 0h-163v1006h163v-1006z" />
    <glyph glyph-name="idieresis" unicode="&#xef;" horiz-adv-x="552" 
d="M186 1196h-180v221h180v-221zM547 1196h-180v221h180v-221zM358 0h-163v1006h163v-1006z" />
    <glyph glyph-name="eth" unicode="&#xf0;" horiz-adv-x="1183" 
d="M563 119q135 0 197 94q62 93 61 239q0 146 -67 231q-68 85 -182 85t-186 -80t-71 -244q0 -164 74 -244q74 -81 174 -81zM1010 584q0 -293 -110 -454t-328 -161q-218 1 -326 145t-107 344q0 200 120 330t302 130q94 0 166 -41t107 -107h4q-25 258 -203 432l-266 -135
l-47 94l225 115q-92 66 -203 108l41 107q182 -63 289 -148l209 107l47 -94l-170 -88q250 -244 250 -684z" />
    <glyph glyph-name="ntilde" unicode="&#xf1;" horiz-adv-x="1153" 
d="M455 1290q-74 0 -78 -86h-92q0 92 51 152t134 59q83 0 157 -63q41 -35 90 -35q74 0 78 86h92q0 -91 -51 -151t-134 -60t-157 63q-41 35 -90 35zM352 864h4q92 166 308 166q174 0 260 -131q55 -82 55 -233v-666h-164v639q0 100 -27 152q-51 94 -180 94q-66 0 -122 -32
q-128 -73 -128 -275v-578h-163v686q0 178 -11 320h160q8 -86 8 -142z" />
    <glyph glyph-name="ograve" unicode="&#xf2;" horiz-adv-x="1114" 
d="M768 1143l-442 196l75 146l410 -262zM821 504q0 184 -69 284q-70 100 -195 100t-195 -100t-70 -284t70 -286q70 -101 195 -101t195 101q69 102 69 286zM995 504q1 -240 -119 -384t-319 -144t-319 144t-119 384q0 240 120 383q121 143 319 143t318 -143t119 -383z" />
    <glyph glyph-name="oacute" unicode="&#xf3;" horiz-adv-x="1114" 
d="M791 1339l-443 -196l-43 80l410 262zM821 504q0 184 -69 284q-70 100 -195 100t-195 -100t-70 -284t70 -286q70 -101 195 -101t195 101q69 102 69 286zM995 504q1 -240 -119 -384t-319 -144t-319 144t-119 384q0 240 120 383q121 143 319 143t318 -143t119 -383z" />
    <glyph glyph-name="ocircumflex" unicode="&#xf4;" horiz-adv-x="1114" 
d="M557 1296l-235 -170l-70 78l305 264l305 -264l-69 -78zM821 504q0 184 -69 284q-70 100 -195 100t-195 -100t-70 -284t70 -286q70 -101 195 -101t195 101q69 102 69 286zM995 504q1 -240 -119 -384t-319 -144t-319 144t-119 384q0 240 120 383q121 143 319 143t318 -143
t119 -383z" />
    <glyph glyph-name="otilde" unicode="&#xf5;" horiz-adv-x="1114" 
d="M426 1290q-74 0 -78 -86h-92q0 92 51 152t134 59q83 0 157 -63q41 -35 90 -35q74 0 78 86h92q0 -91 -51 -151t-134 -60t-157 63q-41 35 -90 35zM821 504q0 184 -69 284q-70 100 -195 100t-195 -100t-70 -284t70 -286q70 -101 195 -101t195 101q69 102 69 286zM995 504
q1 -240 -119 -384t-319 -144t-319 144t-119 384q0 240 120 383q121 143 319 143t318 -143t119 -383z" />
    <glyph glyph-name="odieresis" unicode="&#xf6;" horiz-adv-x="1114" 
d="M467 1196h-180v221h180v-221zM827 1196h-180v221h180v-221zM821 504q0 184 -69 284q-70 100 -195 100t-195 -100t-70 -284t70 -286q70 -101 195 -101t195 101q69 102 69 286zM995 504q1 -240 -119 -384t-319 -144t-319 144t-119 384q0 240 120 383q121 143 319 143
t318 -143t119 -383z" />
    <glyph glyph-name="divide" unicode="&#xf7;" 
d="M772 57h-213v219h213v-219zM772 774h-213v219h213v-219zM1151 461h-971v127h971v-127z" />
    <glyph glyph-name="oslash" unicode="&#xf8;" horiz-adv-x="1114" 
d="M821 502q0 121 -33 213l-397 -535q63 -63 177 -63t184 100q69 101 69 285zM552 889q-120 1 -190 -101t-69 -269q0 -167 47 -265l401 545q-69 90 -189 90zM995 490q1 -228 -119 -371t-319 -144q-152 0 -256 80l-113 -151l-69 49l121 164q-121 143 -121 384t120 385
t303 144t294 -104l90 121l69 -52l-100 -135q100 -142 100 -370z" />
    <glyph glyph-name="ugrave" unicode="&#xf9;" horiz-adv-x="1157" 
d="M782 1143l-442 196l76 146l409 -262zM344 360q0 -241 188 -241q174 0 242 145q25 51 25 168v574h164v-689q0 -154 10 -317h-162q-6 86 -6 143h-4q-82 -168 -289 -168q-144 -1 -238 91t-94 262v678h164v-646z" />
    <glyph glyph-name="uacute" unicode="&#xfa;" horiz-adv-x="1157" 
d="M805 1339l-443 -196l-43 80l410 262zM344 360q0 -241 188 -241q174 0 242 145q25 51 25 168v574h164v-689q0 -154 10 -317h-162q-6 86 -6 143h-4q-82 -168 -289 -168q-144 -1 -238 91t-94 262v678h164v-646z" />
    <glyph glyph-name="ucircumflex" unicode="&#xfb;" horiz-adv-x="1157" 
d="M569 1296l-235 -170l-70 78l305 264l305 -264l-69 -78zM344 360q0 -241 188 -241q174 0 242 145q25 51 25 168v574h164v-689q0 -154 10 -317h-162q-6 86 -6 143h-4q-82 -168 -289 -168q-144 -1 -238 91t-94 262v678h164v-646z" />
    <glyph glyph-name="udieresis" unicode="&#xfc;" horiz-adv-x="1157" 
d="M479 1196h-180v221h180v-221zM840 1196h-181v221h181v-221zM344 360q0 -241 188 -241q174 0 242 145q25 51 25 168v574h164v-689q0 -154 10 -317h-162q-6 86 -6 143h-4q-82 -168 -289 -168q-144 -1 -238 91t-94 262v678h164v-646z" />
    <glyph glyph-name="yacute" unicode="&#xfd;" horiz-adv-x="974" 
d="M762 1339l-443 -196l-43 80l410 262zM216 -430q-118 0 -228 63l57 123q84 -45 153 -45q70 0 100 30t48 81l62 182l-367 1002h184l201 -578q37 -104 59 -205h4q12 53 64 205l197 578h174l-430 -1217q-37 -109 -98 -164q-62 -55 -180 -55z" />
    <glyph glyph-name="thorn" unicode="&#xfe;" horiz-adv-x="1169" 
d="M358 1454v-432q0 -86 -4 -164h4q23 64 101 118t184 54q178 0 293 -143t115 -384t-113 -384t-293 -144q-104 1 -178 51t-109 121h-4q4 -74 4 -143v-414h-163v1864h163zM877 508q0 188 -71 284t-192 95q-122 1 -190 -101t-68 -285t69 -283t191 -99q122 0 192 100
q70 101 69 289z" />
    <glyph glyph-name="ydieresis" unicode="&#xff;" horiz-adv-x="974" 
d="M397 1196h-180v221h180v-221zM758 1196h-180v221h180v-221zM216 -430q-118 0 -228 63l57 123q84 -45 153 -45q70 0 100 30t48 81l62 182l-367 1002h184l201 -578q37 -104 59 -205h4q12 53 64 205l197 578h174l-430 -1217q-37 -109 -98 -164q-62 -55 -180 -55z" />
    <glyph glyph-name="Amacron" unicode="&#x100;" horiz-adv-x="1210" 
d="M856 1669h-512v119h512v-119zM813 475l-137 479q-61 215 -74 279h-4q-14 -76 -72 -281l-139 -477h426zM1149 0h-201l-88 315h-518l-90 -315h-191l455 1454h172z" />
    <glyph glyph-name="amacron" unicode="&#x101;" horiz-adv-x="1107" 
d="M795 1241h-512v119h512v-119zM297 266q0 -68 41 -108t115 -41q169 -1 290 235v189q-19 -15 -55 -27t-124 -39t-130 -41q-137 -47 -137 -168zM430 -25q-137 0 -222 78t-85 213q0 225 283 303q27 8 130 35t142 38q39 12 52 28t13 47v16q0 74 -44 114t-154 40
q-213 0 -213 -166l-170 18q2 131 99 211t282 80q365 0 364 -297v-467q-1 -84 21 -118t94 -44l-18 -120q-121 0 -180 43q-58 43 -74 141q-119 -193 -320 -193z" />
    <glyph glyph-name="Abreve" unicode="&#x102;" horiz-adv-x="1210" 
d="M602 1579q-258 0 -274 215h88q20 -111 186 -111t186 111h89q-17 -215 -275 -215zM813 475l-137 479q-61 215 -74 279h-4q-14 -76 -72 -281l-139 -477h426zM1149 0h-201l-88 315h-518l-90 -315h-191l455 1454h172z" />
    <glyph glyph-name="abreve" unicode="&#x103;" horiz-adv-x="1107" 
d="M543 1171q-258 0 -275 215h88q20 -110 186 -110t187 110h88q-16 -215 -274 -215zM297 266q0 -68 41 -108t115 -41q169 -1 290 235v189q-19 -15 -55 -27t-124 -39t-130 -41q-137 -47 -137 -168zM430 -25q-137 0 -222 78t-85 213q0 225 283 303q27 8 130 35t142 38
q39 12 52 28t13 47v16q0 74 -44 114t-154 40q-213 0 -213 -166l-170 18q2 131 99 211t282 80q365 0 364 -297v-467q-1 -84 21 -118t94 -44l-18 -120q-121 0 -180 43q-58 43 -74 141q-119 -193 -320 -193z" />
    <glyph glyph-name="Aogonek" unicode="&#x104;" horiz-adv-x="1210" 
d="M813 475l-137 479q-61 215 -74 279h-4q-14 -76 -72 -281l-139 -477h426zM967 -381q-82 0 -139 36q-56 37 -56 101q0 108 91 184q32 26 85 60l-88 315h-518l-90 -315h-191l455 1454h172l461 -1454h-98q-139 -98 -140 -205q0 -39 25 -63t55 -23q62 0 101 47l57 -55
q-66 -82 -182 -82z" />
    <glyph glyph-name="aogonek" unicode="&#x105;" horiz-adv-x="1107" 
d="M297 266q0 -68 41 -108t115 -41q169 -1 290 235v189q-19 -15 -55 -27t-124 -39t-130 -41q-137 -47 -137 -168zM844 -205q0 -39 24 -63t56 -23q61 0 100 47l57 -55q-66 -82 -182 -82q-82 0 -138 36t-56 112t46 128t128 105q-106 33 -129 168q-119 -193 -320 -193
q-137 0 -222 78t-85 213q0 225 283 303q27 8 130 35t142 38q39 12 52 28t13 47v16q0 74 -44 114t-154 40q-213 0 -213 -166l-170 18q2 131 99 211t282 80q365 0 364 -297v-467q0 -84 22 -118t93 -44l-18 -120l-41 2q-119 -90 -119 -191z" />
    <glyph glyph-name="Cacute" unicode="&#x106;" horiz-adv-x="1220" 
d="M881 1769l-443 -196l-43 80l410 262zM133 723q0 350 131 556t391 206q193 0 309 -118t130 -284l-179 -32q-27 276 -264 276q-334 0 -334 -604q0 -274 81 -435t251 -161q259 0 277 346l182 -24q-12 -193 -110 -326q-111 -154 -357 -154t-377 202t-131 552z" />
    <glyph glyph-name="cacute" unicode="&#x107;" horiz-adv-x="1064" 
d="M799 1339l-443 -196l-43 80l410 262zM119 498q0 232 122 383q122 150 328 149q167 0 263 -85t116 -220l-162 -31q-29 193 -217 193q-127 -1 -201 -103t-75 -288q0 -186 76 -281q76 -94 196 -94q203 0 230 217l168 -25q-25 -141 -119 -239t-292 -98t-316 144
q-118 146 -117 378z" />
    <glyph glyph-name="Ccircumflex" unicode="&#x108;" horiz-adv-x="1220" 
d="M649 1745l-235 -170l-70 78l305 264l305 -264l-69 -78zM133 723q0 350 131 556t391 206q193 0 309 -118t130 -284l-179 -32q-27 276 -264 276q-334 0 -334 -604q0 -274 81 -435t251 -161q259 0 277 346l182 -24q-12 -193 -110 -326q-111 -154 -357 -154t-377 202
t-131 552z" />
    <glyph glyph-name="ccircumflex" unicode="&#x109;" horiz-adv-x="1064" 
d="M569 1296l-235 -170l-70 78l305 264l305 -264l-69 -78zM119 498q0 232 122 383q122 150 328 149q167 0 263 -85t116 -220l-162 -31q-29 193 -217 193q-127 -1 -201 -103t-75 -288q0 -186 76 -281q76 -94 196 -94q203 0 230 217l168 -25q-25 -141 -119 -239t-292 -98
t-316 144q-118 146 -117 378z" />
    <glyph glyph-name="Cdotaccent" unicode="&#x10a;" horiz-adv-x="1220" 
d="M737 1642h-176v226h176v-226zM133 723q0 350 131 556t391 206q193 0 309 -118t130 -284l-179 -32q-27 276 -264 276q-334 0 -334 -604q0 -274 81 -435t251 -161q259 0 277 346l182 -24q-12 -193 -110 -326q-111 -154 -357 -154t-377 202t-131 552z" />
    <glyph glyph-name="cdotaccent" unicode="&#x10b;" horiz-adv-x="1064" 
d="M657 1214h-176v226h176v-226zM119 498q0 232 122 383q122 150 328 149q167 0 263 -85t116 -220l-162 -31q-29 193 -217 193q-127 -1 -201 -103t-75 -288q0 -186 76 -281q76 -94 196 -94q203 0 230 217l168 -25q-25 -141 -119 -239t-292 -98t-316 144q-118 146 -117 378z
" />
    <glyph glyph-name="Ccaron" unicode="&#x10c;" horiz-adv-x="1220" 
d="M416 1915l235 -170l236 170l69 -78l-305 -264l-305 264zM133 723q0 350 131 556t391 206q193 0 309 -118t130 -284l-179 -32q-27 276 -264 276q-334 0 -334 -604q0 -274 81 -435t251 -161q259 0 277 346l182 -24q-12 -193 -110 -326q-111 -154 -357 -154t-377 202
t-131 552z" />
    <glyph glyph-name="ccaron" unicode="&#x10d;" horiz-adv-x="1064" 
d="M334 1468l235 -170l236 170l69 -77l-305 -265l-305 265zM119 498q0 232 122 383q122 150 328 149q167 0 263 -85t116 -220l-162 -31q-29 193 -217 193q-127 -1 -201 -103t-75 -288q0 -186 76 -281q76 -94 196 -94q203 0 230 217l168 -25q-25 -141 -119 -239t-292 -98
t-316 144q-118 146 -117 378z" />
    <glyph glyph-name="Dcaron" unicode="&#x10e;" horiz-adv-x="1306" 
d="M383 1915l235 -170l236 170l70 -78l-306 -264l-305 264zM989 727q0 244 -79 396q-89 175 -298 175h-221v-1142h219q379 0 379 571zM1174 733q0 -612 -402 -713q-76 -20 -182 -20h-379v1454h405q329 0 461 -266q97 -193 97 -455z" />
    <glyph glyph-name="dcaron" unicode="&#x10f;" horiz-adv-x="1382" 
d="M1384 1409l-172 -348l-84 33l103 376zM815 147h-4q-25 -71 -97 -121t-184 -51q-176 -1 -294 139t-117 391q0 251 114 388q115 137 306 137q98 0 172 -49t100 -123h4q-4 72 -4 135v461h164v-1128q0 -80 10 -326h-162q-8 86 -8 147zM293 496q0 -184 71 -280q72 -96 196 -97
t189 109t65 279t-68 274q-67 105 -197 106q-256 0 -256 -391z" />
    <glyph glyph-name="Dcroat" unicode="&#x110;" horiz-adv-x="1306" 
d="M989 727q0 244 -79 396q-90 177 -298 177h-221v-505h264v-131h-264v-510h219q379 0 379 573zM1174 733q0 -345 -134 -539t-448 -194h-381v664h-162v131h162v659h407q241 0 371 -142t167 -363q18 -101 18 -216z" />
    <glyph glyph-name="dcroat" unicode="&#x111;" horiz-adv-x="1179" 
d="M293 496q0 -184 71 -280q72 -96 196 -97t189 109t65 279t-68 274q-67 105 -197 106q-256 0 -256 -391zM1147 1159h-172v-833q0 -80 10 -326h-162q-8 86 -8 147h-4q-25 -71 -97 -121t-184 -51q-176 -1 -294 139t-117 391q0 251 114 388q115 137 306 137q98 0 172 -49
t100 -123h4q-4 72 -4 135v166h-240v119h240v176h164v-176h172v-119z" />
    <glyph glyph-name="Emacron" unicode="&#x112;" horiz-adv-x="1118" 
d="M877 1669h-512v119h512v-119zM1020 0h-809v1454h809v-158h-629v-471h510v-157h-510v-510h629v-158z" />
    <glyph glyph-name="emacron" unicode="&#x113;" horiz-adv-x="1093" 
d="M803 1241h-512v119h512v-119zM544 887q-122 0 -190 -109q-49 -79 -55 -194h502q-2 145 -68 224q-67 79 -189 79zM561 -25q-209 1 -325 143t-117 385q0 243 118 385t313 142t312 -133t117 -358q0 -45 -4 -99h-678q16 -322 264 -321q182 0 223 184l164 -31
q-31 -121 -125 -209t-262 -88z" />
    <glyph glyph-name="Ebreve" unicode="&#x114;" horiz-adv-x="1118" 
d="M621 1579q-258 0 -275 215h88q20 -111 186 -111t187 111h88q-16 -215 -274 -215zM1020 0h-809v1454h809v-158h-629v-471h510v-157h-510v-510h629v-158z" />
    <glyph glyph-name="ebreve" unicode="&#x115;" horiz-adv-x="1093" 
d="M549 1171q-258 0 -275 215h88q20 -110 186 -110t187 110h88q-16 -215 -274 -215zM544 887q-122 0 -190 -109q-49 -79 -55 -194h502q-2 145 -68 224q-67 79 -189 79zM561 -25q-209 1 -325 143t-117 385q0 243 118 385t313 142t312 -133t117 -358q0 -45 -4 -99h-678
q16 -322 264 -321q182 0 223 184l164 -31q-31 -121 -125 -209t-262 -88z" />
    <glyph glyph-name="Edotaccent" unicode="&#x116;" horiz-adv-x="1118" 
d="M705 1622h-177v225h177v-225zM1020 0h-809v1454h809v-158h-629v-471h510v-157h-510v-510h629v-158z" />
    <glyph glyph-name="edotaccent" unicode="&#x117;" horiz-adv-x="1093" 
d="M637 1214h-176v226h176v-226zM544 887q-122 0 -190 -109q-49 -79 -55 -194h502q-2 145 -68 224q-67 79 -189 79zM561 -25q-209 1 -325 143t-117 385q0 243 118 385t313 142t312 -133t117 -358q0 -45 -4 -99h-678q16 -322 264 -321q182 0 223 184l164 -31
q-31 -121 -125 -209t-262 -88z" />
    <glyph glyph-name="Eogonek" unicode="&#x118;" horiz-adv-x="1118" 
d="M936 -381q-82 0 -138 36q-56 37 -56 101t29 111q30 47 62 73t85 60h-707v1454h809v-158h-629v-471h510v-157h-510v-510h629v-158q-139 -98 -139 -205q1 -39 25 -63t55 -23q61 0 100 47l57 -55q-66 -82 -182 -82z" />
    <glyph glyph-name="eogonek" unicode="&#x119;" horiz-adv-x="1093" 
d="M544 887q-122 0 -190 -109q-49 -79 -55 -194h502q-2 145 -68 224q-67 79 -189 79zM651 -291q61 0 101 47l57 -55q-66 -82 -182 -82q-82 0 -139 36q-56 36 -56 114q0 111 139 206h-10q-209 1 -325 143t-117 385q0 243 118 385t313 142t312 -133t117 -358q0 -45 -4 -99
h-678q16 -322 264 -321q182 0 223 184l164 -31q-55 -209 -239 -272q-137 -98 -138 -205q0 -39 25 -63t55 -23z" />
    <glyph glyph-name="Ecaron" unicode="&#x11a;" horiz-adv-x="1118" 
d="M383 1915l235 -170l236 170l70 -78l-306 -264l-305 264zM1020 0h-809v1454h809v-158h-629v-471h510v-157h-510v-510h629v-158z" />
    <glyph glyph-name="ecaron" unicode="&#x11b;" horiz-adv-x="1093" 
d="M311 1468l236 -170l235 170l70 -77l-305 -265l-305 265zM544 887q-122 0 -190 -109q-49 -79 -55 -194h502q-2 145 -68 224q-67 79 -189 79zM561 -25q-209 1 -325 143t-117 385q0 243 118 385t313 142t312 -133t117 -358q0 -45 -4 -99h-678q16 -322 264 -321
q182 0 223 184l164 -31q-31 -121 -125 -209t-262 -88z" />
    <glyph glyph-name="Gcircumflex" unicode="&#x11c;" horiz-adv-x="1306" 
d="M664 1745l-236 -170l-70 78l306 264l305 -264l-70 -78zM1112 0h-113l-18 182h-4q-37 -90 -125 -151t-203 -62q-233 -1 -375 191t-141 558q0 366 142 567q142 200 395 200q203 0 308 -111t122 -266l-176 -35q-33 254 -262 254q-154 0 -249 -144t-96 -456q0 -600 357 -600
q122 0 196 106t74 285v123h-301v154h469v-795z" />
    <glyph glyph-name="gcircumflex" unicode="&#x11d;" horiz-adv-x="1167" 
d="M571 1296l-235 -170l-70 78l305 264l306 -264l-70 -78zM973 680v-649q0 -231 -96 -352q-95 -121 -301 -121t-298 83t-102 203l162 23q16 -178 227 -178q141 0 199 84q45 66 45 243q0 37 4 131h-4q-23 -61 -95 -114t-192 -53q-178 0 -291 140t-112 388q0 248 114 385
q115 137 309 137t267 -170h4q0 63 8 146h162q-10 -170 -10 -326zM293 508q0 -182 63 -284q64 -102 194 -101q130 0 196 105q66 106 65 282q-2 176 -68 276t-186 101q-264 0 -264 -379z" />
    <glyph glyph-name="Gbreve" unicode="&#x11e;" horiz-adv-x="1306" 
d="M659 1579q-258 0 -274 215h88q20 -111 186 -111t187 111h88q-17 -215 -275 -215zM1112 0h-113l-18 182h-4q-37 -90 -125 -151t-203 -62q-233 -1 -375 191t-141 558q0 366 142 567q142 200 395 200q203 0 308 -111t122 -266l-176 -35q-33 254 -262 254q-154 0 -249 -144
t-96 -456q0 -600 357 -600q122 0 196 106t74 285v123h-301v154h469v-795z" />
    <glyph glyph-name="gbreve" unicode="&#x11f;" horiz-adv-x="1167" 
d="M565 1171q-258 0 -274 215h88q20 -110 186 -110t187 110h88q-17 -215 -275 -215zM973 680v-649q0 -231 -96 -352q-95 -121 -301 -121t-298 83t-102 203l162 23q16 -178 227 -178q141 0 199 84q45 66 45 243q0 37 4 131h-4q-23 -61 -95 -114t-192 -53q-178 0 -291 140
t-112 388q0 248 114 385q115 137 309 137t267 -170h4q0 63 8 146h162q-10 -170 -10 -326zM293 508q0 -182 63 -284q64 -102 194 -101q130 0 196 105q66 106 65 282q-2 176 -68 276t-186 101q-264 0 -264 -379z" />
    <glyph glyph-name="Gdotaccent" unicode="&#x120;" horiz-adv-x="1306" 
d="M750 1642h-177v226h177v-226zM1112 0h-113l-18 182h-4q-37 -90 -125 -151t-203 -62q-233 -1 -375 191t-141 558q0 366 142 567q142 200 395 200q203 0 308 -111t122 -266l-176 -35q-33 254 -262 254q-154 0 -249 -144t-96 -456q0 -600 357 -600q122 0 196 106t74 285v123
h-301v154h469v-795z" />
    <glyph glyph-name="gdotaccent" unicode="&#x121;" horiz-adv-x="1167" 
d="M672 1214h-176v226h176v-226zM973 680v-649q0 -231 -96 -352q-95 -121 -301 -121t-298 83t-102 203l162 23q16 -178 227 -178q141 0 199 84q45 66 45 243q0 37 4 131h-4q-23 -61 -95 -114t-192 -53q-178 0 -291 140t-112 388q0 248 114 385q115 137 309 137t267 -170h4
q0 63 8 146h162q-10 -170 -10 -326zM293 508q0 -182 63 -284q64 -102 194 -101q130 0 196 105q66 106 65 282q-2 176 -68 276t-186 101q-264 0 -264 -379z" />
    <glyph glyph-name="Gcommaaccent" unicode="&#x122;" horiz-adv-x="1306" 
d="M762 -152v-133q0 -113 -44 -163t-140 -72l-19 78q100 23 100 108h-110v182h213zM1112 0h-113l-18 182h-4q-37 -90 -125 -151t-203 -62q-233 -1 -375 191t-141 558q0 366 142 567q142 200 395 200q203 0 308 -111t122 -266l-176 -35q-33 254 -262 254q-154 0 -249 -144
t-96 -456q0 -600 357 -600q122 0 196 106t74 285v123h-301v154h469v-795z" />
    <glyph glyph-name="gcommaaccent" unicode="&#x123;" horiz-adv-x="1167" 
d="M444 1272v133q0 113 44 163t141 72l18 -77q-100 -23 -100 -109h110v-182h-213zM973 680v-649q0 -231 -96 -352q-95 -121 -301 -121t-298 83t-102 203l162 23q16 -178 227 -178q141 0 199 84q45 66 45 243q0 37 4 131h-4q-23 -61 -95 -114t-192 -53q-178 0 -291 140
t-112 388q0 248 114 385q115 137 309 137t267 -170h4q0 63 8 146h162q-10 -170 -10 -326zM293 508q0 -182 63 -284q64 -102 194 -101q130 0 196 105q66 106 65 282q-2 176 -68 276t-186 101q-264 0 -264 -379z" />
    <glyph glyph-name="Hcircumflex" unicode="&#x124;" horiz-adv-x="1288" 
d="M643 1745l-235 -170l-70 78l305 264l305 -264l-69 -78zM1077 0h-180v666h-506v-666h-180v1454h180v-625h506v625h180v-1454z" />
    <glyph glyph-name="hcircumflex" unicode="&#x125;" horiz-adv-x="1144" 
d="M276 1747l-235 -170l-70 78l305 264l306 -264l-70 -78zM637 1030q332 0 334 -379v-651h-164v623q0 135 -37 188q-54 76 -162 76t-179 -79t-71 -230v-578h-163v1454h163v-424q0 -53 -4 -160h4q86 160 279 160z" />
    <glyph glyph-name="Hbar" unicode="&#x126;" horiz-adv-x="1288" 
d="M391 829h506v146h-506v-146zM1077 0h-180v666h-506v-666h-180v1454h180v-360h506v360h180v-1454z" />
    <glyph glyph-name="hbar" unicode="&#x127;" horiz-adv-x="1144" 
d="M637 1030q332 0 334 -379v-651h-164v623q0 135 -37 188q-52 76 -162 76t-182 -79t-72 -230v-578h-159v1159h-150v119h150v176h163v-176h240v-119h-240v-129q0 -53 -4 -160h4q86 160 279 160z" />
    <glyph glyph-name="Itilde" unicode="&#x128;" horiz-adv-x="610" 
d="M174 1739q-76 0 -78 -86h-92q0 92 51 151q51 60 135 60t156 -64q41 -35 90 -35q76 0 78 86h92q0 -92 -51 -151t-134 -59t-157 63q-41 35 -90 35zM395 0h-180v1454h180v-1454z" />
    <glyph glyph-name="itilde" unicode="&#x129;" horiz-adv-x="552" 
d="M145 1290q-76 0 -77 -86h-93q-1 92 51 152t135 59q83 0 156 -63q41 -35 91 -35q76 0 77 86h93q0 -91 -52 -151t-134 -60t-156 63q-41 35 -91 35zM358 0h-163v1006h163v-1006z" />
    <glyph glyph-name="Imacron" unicode="&#x12a;" horiz-adv-x="610" 
d="M561 1669h-512v119h512v-119zM395 0h-180v1454h180v-1454z" />
    <glyph glyph-name="imacron" unicode="&#x12b;" horiz-adv-x="552" 
d="M532 1241h-512v119h512v-119zM358 0h-163v1006h163v-1006z" />
    <glyph glyph-name="Ibreve" unicode="&#x12c;" horiz-adv-x="610" 
d="M305 1579q-258 0 -274 215h88q20 -111 186 -111t187 111h88q-17 -215 -275 -215zM395 0h-180v1454h180v-1454z" />
    <glyph glyph-name="ibreve" unicode="&#x12d;" horiz-adv-x="552" 
d="M276 1171q-258 0 -274 215h88q20 -110 186 -110t187 110h88q-17 -215 -275 -215zM358 0h-163v1006h163v-1006z" />
    <glyph glyph-name="Iogonek" unicode="&#x12e;" horiz-adv-x="610" 
d="M311 -381q-82 0 -138 36q-56 37 -56 101q0 111 91 184q32 26 85 60h-78v1454h180v-1454q-139 -98 -139 -205q0 -39 25 -63t55 -23q61 0 100 47l58 -55q-66 -82 -183 -82z" />
    <glyph glyph-name="iogonek" unicode="&#x12f;" horiz-adv-x="552" 
d="M365 1214h-177v226h177v-226zM274 -381q-82 0 -138 36q-56 37 -56 101q0 108 91 184q32 26 85 60h-61v1006h163v-1006q-139 -98 -139 -205q0 -39 25 -63t55 -23q61 0 100 47l58 -55q-66 -82 -183 -82z" />
    <glyph glyph-name="Idotaccent" unicode="&#x130;" horiz-adv-x="610" 
d="M393 1642h-176v226h176v-226zM395 0h-180v1454h180v-1454z" />
    <glyph glyph-name="dotlessi" unicode="&#x131;" horiz-adv-x="552" 
d="M358 0h-163v1006h163v-1006z" />
    <glyph glyph-name="Jcircumflex" unicode="&#x134;" horiz-adv-x="1105" 
d="M821 1745l-235 -170l-70 78l305 264l305 -264l-69 -78zM911 1454v-1048q0 -180 -65 -283q-98 -154 -352 -154q-199 0 -310 113q-92 92 -92 252q0 37 2 59l178 21q-2 -18 -2 -47q0 -125 58 -183t181 -57q222 0 222 262v1065h180z" />
    <glyph glyph-name="jcircumflex" unicode="&#x135;" horiz-adv-x="567" 
d="M293 1296l-236 -170l-69 78l305 264l305 -264l-70 -78zM209 -72v1078h164v-1092q0 -188 -73 -266t-198 -78t-223 47l49 127q74 -31 152 -31t110 58q19 32 19 157z" />
    <glyph glyph-name="Kcommaaccent" unicode="&#x136;" horiz-adv-x="1214" 
d="M721 -152v-133q0 -113 -44 -163t-140 -72l-19 78q100 23 100 108h-110v182h213zM391 0h-180v1454h180v-690l529 690h223l-488 -612l508 -842h-215l-401 709l-156 -197v-512z" />
    <glyph glyph-name="kcommaaccent" unicode="&#x137;" horiz-adv-x="1073" 
d="M655 -152v-133q0 -113 -44 -163t-140 -72l-18 78q100 23 100 108h-111v182h213zM358 0h-163v1454h163v-913l439 465h221l-389 -412l403 -594h-201l-315 477l-158 -160v-317z" />
    <glyph glyph-name="kgreenlandic" unicode="&#x138;" horiz-adv-x="1073" 
d="M358 0h-163v1006h163v-465l347 368q55 57 104 77t158 20v-152q-55 0 -84 -10t-64 -49l-190 -201l403 -594h-201l-315 477l-158 -160v-317z" />
    <glyph glyph-name="Lacute" unicode="&#x139;" horiz-adv-x="1046" 
d="M557 1769l-442 -196l-43 80l409 262zM995 0h-784v1454h180v-1294h604v-160z" />
    <glyph glyph-name="lacute" unicode="&#x13a;" horiz-adv-x="552" 
d="M522 1767l-442 -196l-43 80l409 262zM195 0v1454h163v-1454h-163z" />
    <glyph glyph-name="Lcommaaccent" unicode="&#x13b;" horiz-adv-x="1046" 
d="M698 -152v-133q0 -113 -44 -163t-140 -72l-18 78q100 23 100 108h-111v182h213zM995 0h-784v1454h180v-1294h604v-160z" />
    <glyph glyph-name="lcommaaccent" unicode="&#x13c;" horiz-adv-x="552" 
d="M383 -152v-133q0 -113 -44 -163t-140 -72l-19 78q100 23 101 108h-111v182h213zM195 0v1454h163v-1454h-163z" />
    <glyph glyph-name="Lcaron" unicode="&#x13d;" horiz-adv-x="1046" 
d="M836 1409l-172 -348l-84 33l102 376zM995 0h-784v1454h180v-1294h604v-160z" />
    <glyph glyph-name="lcaron" unicode="&#x13e;" horiz-adv-x="782" 
d="M782 1409l-172 -348l-84 33l103 376zM195 0v1454h163v-1454h-163z" />
    <glyph glyph-name="Ldot" unicode="&#x13f;" horiz-adv-x="1046" 
d="M995 0h-784v1454h180v-1294h604v-160zM813 780h-197v226h197v-226z" />
    <glyph glyph-name="ldot" unicode="&#x140;" horiz-adv-x="819" 
d="M195 0v1454h163v-1454h-163zM731 780h-196v226h196v-226z" />
    <glyph glyph-name="Lslash" unicode="&#x141;" horiz-adv-x="1050" 
d="M999 0h-784v573l-158 -96v146l158 96v735h180v-623l381 236v-145l-381 -236v-526h604v-160z" />
    <glyph glyph-name="lslash" unicode="&#x142;" horiz-adv-x="561" 
d="M199 0v586l-181 -111v146l181 110v723h163v-623l187 115v-145l-187 -115v-686h-163z" />
    <glyph glyph-name="Nacute" unicode="&#x143;" horiz-adv-x="1380" 
d="M987 1769l-442 -196l-43 80l409 262zM211 1454h248l436 -967q74 -168 98 -254h4q-8 229 -8 297v924h180v-1454h-247l-433 954q-66 141 -102 267h-4q8 -154 8 -297v-924h-180v1454z" />
    <glyph glyph-name="nacute" unicode="&#x144;" horiz-adv-x="1153" 
d="M813 1339l-442 -196l-43 80l409 262zM352 864h4q92 166 308 166q174 0 260 -131q55 -82 55 -233v-666h-164v639q0 100 -27 152q-51 94 -180 94q-66 0 -122 -32q-128 -73 -128 -275v-578h-163v686q0 178 -11 320h160q8 -86 8 -142z" />
    <glyph glyph-name="Ncommaaccent" unicode="&#x145;" horiz-adv-x="1380" 
d="M817 -152v-133q0 -113 -44 -163t-140 -72l-19 78q100 23 101 108h-111v182h213zM211 1454h248l436 -967q74 -168 98 -254h4q-8 229 -8 297v924h180v-1454h-247l-433 954q-66 141 -102 267h-4q8 -154 8 -297v-924h-180v1454z" />
    <glyph glyph-name="ncommaaccent" unicode="&#x146;" horiz-adv-x="1153" 
d="M688 -152v-133q0 -113 -44 -163t-140 -72l-19 78q100 23 101 108h-111v182h213zM352 864h4q92 166 308 166q174 0 260 -131q55 -82 55 -233v-666h-164v639q0 100 -27 152q-51 94 -180 94q-66 0 -122 -32q-128 -73 -128 -275v-578h-163v686q0 178 -11 320h160
q8 -86 8 -142z" />
    <glyph glyph-name="Ncaron" unicode="&#x147;" horiz-adv-x="1380" 
d="M455 1915l235 -170l236 170l69 -78l-305 -264l-305 264zM211 1454h248l436 -967q74 -168 98 -254h4q-8 229 -8 297v924h180v-1454h-247l-433 954q-66 141 -102 267h-4q8 -154 8 -297v-924h-180v1454z" />
    <glyph glyph-name="ncaron" unicode="&#x148;" horiz-adv-x="1153" 
d="M346 1468l236 -170l235 170l70 -77l-305 -265l-306 265zM352 864h4q92 166 308 166q174 0 260 -131q55 -82 55 -233v-666h-164v639q0 100 -27 152q-51 94 -180 94q-66 0 -122 -32q-128 -73 -128 -275v-578h-163v686q0 178 -11 320h160q8 -86 8 -142z" />
    <glyph glyph-name="napostrophe" unicode="&#x149;" horiz-adv-x="1153" 
d="M326 1636v-133q0 -113 -44 -163t-141 -72l-18 78q100 23 100 108h-110v182h213zM272 864h4q92 166 308 166q174 0 260 -131q55 -82 55 -233v-666h-164v639q0 100 -26 152q-51 94 -181 94q-66 0 -122 -32q-129 -75 -127 -275v-578h-164v686q0 178 -11 320h160
q8 -86 8 -142z" />
    <glyph glyph-name="Eng" unicode="&#x14a;" horiz-adv-x="1380" 
d="M1169 12q0 -436 -347 -436q-177 0 -304 117l107 125q84 -84 190 -84q174 0 174 252v14l-475 868q-74 135 -127 271h-4q8 -154 8 -297v-842h-180v1454h180l475 -872q80 -145 123 -246h4q-4 115 -4 276v842h180v-1442z" />
    <glyph glyph-name="eng" unicode="&#x14b;" horiz-adv-x="1153" 
d="M815 -72v711q0 100 -27 152q-51 94 -180 94q-66 0 -122 -32q-128 -73 -128 -275v-578h-163v686q0 178 -11 320h160q8 -86 8 -142h4q92 166 308 166q174 0 260 -131q55 -82 55 -233v-752q0 -188 -73 -266t-198 -78t-223 47l50 127q73 -31 151 -31t111 58q18 32 18 157z
" />
    <glyph glyph-name="Omacron" unicode="&#x14c;" horiz-adv-x="1306" 
d="M909 1669h-512v119h512v-119zM989 727q0 600 -336 600t-336 -600t336 -600t336 600zM1174 727q0 -358 -136 -558t-385 -200q-250 0 -385 200t-135 558t135 558t385 200q249 0 385 -200t136 -558z" />
    <glyph glyph-name="omacron" unicode="&#x14d;" horiz-adv-x="1122" 
d="M817 1241h-512v119h512v-119zM825 504q0 184 -69 284q-70 100 -195 100t-195 -100t-69 -284q0 -184 70 -286q71 -102 195 -101q124 0 194 101q69 102 69 286zM999 504q1 -240 -119 -384t-319 -144t-319 144t-119 384q0 240 120 383q121 143 319 143t318 -143t119 -383z
" />
    <glyph glyph-name="Obreve" unicode="&#x14e;" horiz-adv-x="1306" 
d="M653 1579q-258 0 -274 215h88q20 -111 186 -111t187 111h88q-17 -215 -275 -215zM989 727q0 600 -336 600t-336 -600t336 -600t336 600zM1174 727q0 -358 -136 -558t-385 -200q-250 0 -385 200t-135 558t135 558t385 200q249 0 385 -200t136 -558z" />
    <glyph glyph-name="obreve" unicode="&#x14f;" horiz-adv-x="1122" 
d="M561 1171q-258 0 -274 215h88q20 -110 186 -110t187 110h88q-17 -215 -275 -215zM825 504q0 184 -69 284q-70 100 -195 100t-195 -100t-69 -284q0 -184 70 -286q71 -102 195 -101q124 0 194 101q69 102 69 286zM999 504q1 -240 -119 -384t-319 -144t-319 144t-119 384
q0 240 120 383q121 143 319 143t318 -143t119 -383z" />
    <glyph glyph-name="Ohungarumlaut" unicode="&#x150;" horiz-adv-x="1306" 
d="M762 1778l-387 -203l-47 76l352 266zM1174 1778l-388 -203l-47 76l353 266zM989 727q0 600 -336 600t-336 -600t336 -600t336 600zM1174 727q0 -358 -136 -558t-385 -200q-250 0 -385 200t-135 558t135 558t385 200q249 0 385 -200t136 -558z" />
    <glyph glyph-name="ohungarumlaut" unicode="&#x151;" horiz-adv-x="1122" 
d="M690 1329l-387 -203l-47 76l352 266zM1102 1329l-387 -203l-47 76l352 266zM825 504q0 184 -69 284q-70 100 -195 100t-195 -100t-69 -284q0 -184 70 -286q71 -102 195 -101q124 0 194 101q69 102 69 286zM999 504q1 -240 -119 -384t-319 -144t-319 144t-119 384
q0 240 120 383q121 143 319 143t318 -143t119 -383z" />
    <glyph glyph-name="OE" unicode="&#x152;" horiz-adv-x="1708" 
d="M666 1331q-160 0 -254 -144q-94 -143 -94 -459t94 -460t254 -145q96 0 157 27v1150q-72 31 -157 31zM1610 0h-764q-80 -31 -180 -31q-252 0 -393 201q-140 201 -140 557t140 557t393 201q100 0 180 -31h764v-156h-606v-473h485v-155h-485v-514h606v-156z" />
    <glyph glyph-name="oe" unicode="&#x153;" horiz-adv-x="1794" 
d="M557 117q125 0 195 101q70 102 70 286t-70 284t-195 100t-195 -100t-70 -284t70 -286q70 -101 195 -101zM1255 887q-113 0 -181 -80t-75 -223h502q-2 145 -67 224q-66 79 -179 79zM119 503q0 239 120 383q121 144 331 144t335 -194q123 195 350 194q189 0 307 -133
t117 -358q0 -43 -4 -97h-678q16 -324 265 -323q86 0 146 50t79 134l160 -29q-29 -122 -126 -210t-266 -89q-229 0 -350 189q-121 -188 -334 -188t-333 144t-119 383z" />
    <glyph glyph-name="Racute" unicode="&#x154;" horiz-adv-x="1290" 
d="M870 1788l-442 -197l-43 80l410 262zM965 1040q0 258 -283 258h-291v-512h293q137 0 209 68t72 186zM1149 1051q0 -188 -98 -287q-57 -57 -150 -94l266 -670h-202l-236 631h-338v-631h-180v1454h483q211 0 332 -104q123 -111 123 -299z" />
    <glyph glyph-name="racute" unicode="&#x155;" horiz-adv-x="808" 
d="M657 1339l-442 -196l-43 80l410 262zM637 864q-113 0 -182 -82q-96 -113 -97 -381v-401h-163v686q0 150 -11 320h156q8 -94 8 -207h4q45 107 123 169t178 62q56 0 95 -12v-168q-49 14 -111 14z" />
    <glyph glyph-name="Rcommaaccent" unicode="&#x156;" horiz-adv-x="1290" 
d="M772 -152v-133q0 -113 -44 -163t-140 -72l-19 78q100 23 101 108h-111v182h213zM965 1040q0 258 -283 258h-291v-512h293q137 0 209 68t72 186zM1149 1051q0 -188 -98 -287q-57 -57 -150 -94l266 -670h-202l-236 631h-338v-631h-180v1454h483q211 0 332 -104
q123 -111 123 -299z" />
    <glyph glyph-name="rcommaaccent" unicode="&#x157;" horiz-adv-x="808" 
d="M385 -152v-133q0 -113 -44 -163t-140 -72l-19 78q100 23 101 108h-111v182h213zM637 864q-113 0 -182 -82q-96 -113 -97 -381v-401h-163v686q0 150 -11 320h156q8 -94 8 -207h4q45 107 123 169t178 62q56 0 95 -12v-168q-49 14 -111 14z" />
    <glyph glyph-name="Rcaron" unicode="&#x158;" horiz-adv-x="1290" 
d="M389 1917l236 -170l235 170l70 -78l-305 -264l-306 264zM965 1040q0 258 -283 258h-291v-512h293q137 0 209 68t72 186zM1149 1051q0 -188 -98 -287q-57 -57 -150 -94l266 -670h-202l-236 631h-338v-631h-180v1454h483q211 0 332 -104q123 -111 123 -299z" />
    <glyph glyph-name="rcaron" unicode="&#x159;" horiz-adv-x="808" 
d="M190 1468l236 -170l236 170l69 -77l-305 -265l-305 265zM637 864q-113 0 -182 -82q-96 -113 -97 -381v-401h-163v686q0 150 -11 320h156q8 -94 8 -207h4q45 107 123 169t178 62q56 0 95 -12v-168q-49 14 -111 14z" />
    <glyph glyph-name="Sacute" unicode="&#x15a;" horiz-adv-x="1239" 
d="M852 1769l-442 -196l-43 80l409 262zM1108 379q0 -190 -131 -300t-363 -110t-356 115t-127 297l180 45q8 -160 87 -230q78 -70 216 -69q138 0 224 61q86 62 86 162t-52 162t-165 115l-240 114q-151 74 -223 161t-72 226q0 176 128 266t338 91t318 -101t113 -245l-176 -45
q-10 125 -77 180q-66 55 -190 55t-197 -50t-73 -138q0 -89 45 -141t156 -103l240 -113q167 -76 239 -172t72 -233z" />
    <glyph glyph-name="sacute" unicode="&#x15b;" horiz-adv-x="1062" 
d="M756 1339l-443 -196l-43 80l410 262zM932 274q0 -136 -102 -218t-296 -81q-196 0 -297 86t-114 220l172 30q13 -104 73 -148t169 -44q221 0 221 151q0 70 -44 103t-147 61l-141 39q-215 59 -258 164q-20 49 -21 117q1 128 99 202t277 74t273 -74t105 -192l-162 -33
q-10 86 -61 122t-154 36q-207 0 -207 -123q0 -59 40 -92t139 -58l147 -38q143 -36 216 -102t73 -202z" />
    <glyph glyph-name="Scircumflex" unicode="&#x15c;" horiz-adv-x="1239" 
d="M621 1745l-236 -170l-70 78l306 264l305 -264l-70 -78zM1108 379q0 -190 -131 -300t-363 -110t-356 115t-127 297l180 45q8 -160 87 -230q78 -70 216 -69q138 0 224 61q86 62 86 162t-52 162t-165 115l-240 114q-151 74 -223 161t-72 226q0 176 128 266t338 91t318 -101
t113 -245l-176 -45q-10 125 -77 180q-66 55 -190 55t-197 -50t-73 -138q0 -89 45 -141t156 -103l240 -113q167 -76 239 -172t72 -233z" />
    <glyph glyph-name="scircumflex" unicode="&#x15d;" horiz-adv-x="1062" 
d="M526 1296l-235 -170l-70 78l305 264l305 -264l-69 -78zM932 274q0 -136 -102 -218t-296 -81q-196 0 -297 86t-114 220l172 30q13 -104 73 -148t169 -44q221 0 221 151q0 70 -44 103t-147 61l-141 39q-215 59 -258 164q-20 49 -21 117q1 128 99 202t277 74t273 -74
t105 -192l-162 -33q-10 86 -61 122t-154 36q-207 0 -207 -123q0 -59 40 -92t139 -58l147 -38q143 -36 216 -102t73 -202z" />
    <glyph glyph-name="Scedilla" unicode="&#x15e;" horiz-adv-x="1239" 
d="M614 127q138 0 224 61q86 62 86 162t-52 162t-165 115l-240 114q-151 74 -223 161t-72 226q0 176 128 266t338 91t318 -101t113 -245l-176 -45q-10 125 -77 180q-66 55 -190 55t-197 -50t-73 -138q0 -89 45 -141t156 -103l240 -113q167 -76 239 -172t72 -233
q0 -186 -126 -295t-343 -115l-49 -80l2 -2q33 15 82 15t92 -36t43 -93q0 -164 -217 -164q-96 0 -162 55l41 66q49 -39 101 -39q100 -1 100 67t-68 68q-41 0 -69 -27l-48 37l78 135q-211 12 -321 126t-113 284l180 45q8 -160 87 -230q78 -70 216 -69z" />
    <glyph glyph-name="scedilla" unicode="&#x15f;" horiz-adv-x="1062" 
d="M537 119q221 0 221 151q0 70 -44 103t-147 61l-141 39q-215 59 -258 164q-20 49 -21 117q1 128 99 202t277 74t273 -74t105 -192l-162 -33q-10 86 -61 122t-154 36q-207 0 -207 -123q0 -59 40 -92t139 -58l147 -38q143 -37 216 -103q73 -65 73 -199t-94 -214t-283 -87
l-53 -86l2 -2q33 15 82 15t92 -36t43 -93q0 -164 -217 -164q-96 0 -162 55l41 66q49 -39 101 -39q100 -1 100 67t-68 68q-41 0 -70 -27l-47 37l80 141q-166 11 -256 95t-100 209l172 30q13 -104 73 -148t169 -44z" />
    <glyph glyph-name="Scaron" unicode="&#x160;" horiz-adv-x="1222" 
d="M393 1898l236 -169l235 169l70 -77l-305 -265l-305 265zM1096 379q0 -190 -131 -300t-363 -110t-356 115t-127 297l180 45q8 -160 87 -230t216 -69q137 0 223 61q86 62 86 162t-52 162t-165 115l-239 114q-152 74 -224 161t-71 226q0 176 128 266t338 91t317 -101
q108 -102 114 -245l-176 -45q-10 125 -77 180t-191 55q-125 0 -197 -50t-72 -138q0 -89 45 -141t156 -103l239 -113q166 -76 239 -172t73 -233z" />
    <glyph glyph-name="scaron" unicode="&#x161;" horiz-adv-x="1062" 
d="M287 1468l235 -170l236 170l69 -77l-305 -265l-305 265zM932 274q0 -136 -102 -218t-296 -81q-196 0 -297 86t-114 220l172 30q13 -104 73 -148t169 -44q221 0 221 151q0 70 -44 103t-147 61l-141 39q-215 59 -258 164q-20 49 -21 117q1 128 99 202t277 74t273 -74
t105 -192l-162 -33q-10 86 -61 122t-154 36q-207 0 -207 -123q0 -59 40 -92t139 -58l147 -38q143 -36 216 -102t73 -202z" />
    <glyph glyph-name="Tcommaaccent" unicode="&#x162;" horiz-adv-x="1081" 
d="M647 -152v-133q0 -113 -44 -163t-140 -72l-19 78q100 23 101 108h-111v182h213zM1014 1294h-383v-1294h-180v1294h-383v160h946v-160z" />
    <glyph glyph-name="tcommaaccent" unicode="&#x163;" horiz-adv-x="811" 
d="M594 -152v-133q0 -113 -44 -163t-140 -72l-19 78q100 23 101 108h-111v182h213zM270 315v547h-209v144h209v319l164 74v-393h271v-144h-271v-528q0 -133 29 -174t109 -41t153 31l49 -127q-98 -47 -228 -47t-203 77q-73 78 -73 262z" />
    <glyph glyph-name="Tcaron" unicode="&#x164;" horiz-adv-x="1081" 
d="M305 1896l236 -170l235 170l70 -77l-305 -265l-305 265zM1014 1294h-383v-1294h-180v1294h-383v160h946v-160z" />
    <glyph glyph-name="tcaron" unicode="&#x165;" horiz-adv-x="811" 
d="M823 1409l-172 -348l-84 33l103 376zM270 315v547h-209v144h209v319l164 74v-393h271v-144h-271v-528q0 -133 29 -174t109 -41t153 31l49 -127q-98 -47 -228 -47t-203 77q-73 78 -73 262z" />
    <glyph glyph-name="Tbar" unicode="&#x166;" horiz-adv-x="1081" 
d="M1014 1294h-383v-344h268v-119h-268v-831h-180v831h-269v119h269v344h-383v160h946v-160z" />
    <glyph glyph-name="tbar" unicode="&#x167;" horiz-adv-x="811" 
d="M270 315v207h-243v119h243v221h-209v144h209v319l164 74v-393h271v-144h-271v-221h289v-119h-289v-188q0 -133 29 -174t109 -41t153 31l49 -127q-98 -47 -228 -47t-203 77q-73 78 -73 262z" />
    <glyph glyph-name="Utilde" unicode="&#x168;" horiz-adv-x="1314" 
d="M526 1704q-76 0 -77 -86h-93q0 92 52 151t134 59q83 0 156 -63q41 -35 90 -34q76 0 78 86h92q0 -91 -51 -151t-134 -60t-157 63q-41 35 -90 35zM657 -31q-238 0 -354 140q-98 117 -98 321v1024h180v-1008q0 -152 47 -223q68 -98 226 -98t225 98q47 70 47 223v1008h180
v-1024q0 -205 -98 -321q-117 -140 -355 -140z" />
    <glyph glyph-name="utilde" unicode="&#x169;" horiz-adv-x="1157" 
d="M444 1290q-76 0 -77 -86h-93q0 92 52 152t134 59q83 0 156 -63q41 -35 91 -35q76 0 77 86h93q1 -91 -51 -151t-134 -60t-157 63q-41 35 -91 35zM344 360q0 -241 188 -241q174 0 242 145q25 51 25 168v574h164v-689q0 -154 10 -317h-162q-6 86 -6 143h-4
q-82 -168 -289 -168q-144 -1 -238 91t-94 262v678h164v-646z" />
    <glyph glyph-name="Umacron" unicode="&#x16a;" horiz-adv-x="1314" 
d="M913 1669h-512v119h512v-119zM657 -31q-238 0 -354 140q-98 117 -98 321v1024h180v-1008q0 -152 47 -223q68 -98 226 -98t225 98q47 70 47 223v1008h180v-1024q0 -205 -98 -321q-117 -140 -355 -140z" />
    <glyph glyph-name="umacron" unicode="&#x16b;" horiz-adv-x="1157" 
d="M834 1241h-512v119h512v-119zM344 360q0 -241 188 -241q174 0 242 145q25 51 25 168v574h164v-689q0 -154 10 -317h-162q-6 86 -6 143h-4q-82 -168 -289 -168q-144 -1 -238 91t-94 262v678h164v-646z" />
    <glyph glyph-name="Ubreve" unicode="&#x16c;" horiz-adv-x="1314" 
d="M657 1579q-258 0 -274 215h88q20 -111 186 -111t187 111h88q-17 -215 -275 -215zM657 -31q-238 0 -354 140q-98 117 -98 321v1024h180v-1008q0 -152 47 -223q68 -98 226 -98t225 98q47 70 47 223v1008h180v-1024q0 -205 -98 -321q-117 -140 -355 -140z" />
    <glyph glyph-name="ubreve" unicode="&#x16d;" horiz-adv-x="1157" 
d="M573 1171q-258 0 -274 215h88q20 -110 186 -110t187 110h88q-17 -215 -275 -215zM344 360q0 -241 188 -241q174 0 242 145q25 51 25 168v574h164v-689q0 -154 10 -317h-162q-6 86 -6 143h-4q-82 -168 -289 -168q-144 -1 -238 91t-94 262v678h164v-646z" />
    <glyph glyph-name="Uring" unicode="&#x16e;" horiz-adv-x="1314" 
d="M549 1708q0 -45 33 -78q34 -33 78 -33t77 33t33 78t-33 78t-78 33t-77 -33t-33 -78zM858 1708q0 -82 -58 -140t-140 -58t-139 58q-58 58 -58 140t57 139t139 57q83 0 141 -56q58 -58 58 -140zM657 -31q-238 0 -354 140q-98 117 -98 321v1024h180v-1008q0 -152 47 -223
q68 -98 226 -98t225 98q47 70 47 223v1008h180v-1024q0 -205 -98 -321q-117 -140 -355 -140z" />
    <glyph glyph-name="uring" unicode="&#x16f;" horiz-adv-x="1157" 
d="M463 1321q0 -47 33 -79q34 -32 78 -32t77 32t33 79t-33 79t-78 32t-77 -32t-33 -79zM772 1321q0 -82 -58 -140q-58 -59 -140 -59t-139 58q-58 58 -58 141q0 82 57 139q57 58 139 58q83 0 141 -58t58 -139zM344 360q0 -241 188 -241q174 0 242 145q25 51 25 168v574h164
v-689q0 -154 10 -317h-162q-6 86 -6 143h-4q-82 -168 -289 -168q-144 -1 -238 91t-94 262v678h164v-646z" />
    <glyph glyph-name="Uhungarumlaut" unicode="&#x170;" horiz-adv-x="1314" 
d="M811 1776l-387 -203l-47 76l352 266zM1223 1776l-387 -203l-48 76l353 266zM657 -31q-238 0 -354 140q-98 117 -98 321v1024h180v-1008q0 -152 47 -223q68 -98 226 -98t225 98q47 70 47 223v1008h180v-1024q0 -205 -98 -321q-117 -140 -355 -140z" />
    <glyph glyph-name="uhungarumlaut" unicode="&#x171;" horiz-adv-x="1157" 
d="M717 1329l-387 -203l-47 76l352 266zM1128 1329l-387 -203l-47 76l353 266zM344 360q0 -241 188 -241q174 0 242 145q25 51 25 168v574h164v-689q0 -154 10 -317h-162q-6 86 -6 143h-4q-82 -168 -289 -168q-144 -1 -238 91t-94 262v678h164v-646z" />
    <glyph glyph-name="Uogonek" unicode="&#x172;" horiz-adv-x="1314" 
d="M696 -381q-82 0 -138 36t-56 114q0 109 131 200q-221 9 -325 133t-103 328v1024h180v-1008q0 -152 47 -223q68 -98 226 -98t225 98q47 70 47 223v1008h180v-1024q0 -206 -96 -318t-266 -137q-106 -86 -107 -180q0 -39 25 -63t55 -23q61 0 100 47l58 -55q-66 -82 -183 -82
z" />
    <glyph glyph-name="uogonek" unicode="&#x173;" horiz-adv-x="1157" 
d="M344 360q0 -241 188 -241q174 0 242 145q25 51 25 168v574h164v-689q0 -154 10 -317q-139 -98 -139 -205q0 -39 24 -63t55 -23q61 0 101 47l57 -55q-66 -82 -182 -82q-82 0 -138 36q-57 37 -57 101q-1 108 91 184q32 26 85 60h-59q-6 86 -6 143h-4q-82 -168 -289 -168
q-144 -1 -238 91t-94 262v678h164v-646z" />
    <glyph glyph-name="Wcircumflex" unicode="&#x174;" horiz-adv-x="1775" 
d="M887 1745l-236 -170l-69 78l305 264l305 -264l-70 -78zM1673 1454l-334 -1454h-200l-195 887q-29 135 -57 332h-4q-25 -193 -56 -332l-190 -887h-209l-326 1454h187l200 -946q23 -111 46 -277h4q20 150 47 277l192 946h217l197 -946q29 -139 45 -277h4q16 137 45 277
l203 946h184z" />
    <glyph glyph-name="wcircumflex" unicode="&#x175;" horiz-adv-x="1372" 
d="M686 1296l-235 -170l-70 78l305 264l305 -264l-69 -78zM1290 1006l-248 -1006h-176l-135 571q-33 137 -41 240h-4q-12 -96 -45 -240l-129 -571h-186l-244 1006h170l131 -598q29 -135 39 -218h4q8 86 35 216l127 600h200l130 -598q25 -115 34 -222h4q12 113 37 222
l131 598h166z" />
    <glyph glyph-name="Ycircumflex" unicode="&#x176;" horiz-adv-x="1150" 
d="M575 1743l-235 -170l-70 78l305 264l306 -264l-70 -78zM670 0h-181v629l-452 825h221l324 -627l321 627h211l-444 -825v-629z" />
    <glyph glyph-name="ycircumflex" unicode="&#x177;" horiz-adv-x="974" 
d="M487 1296l-235 -170l-70 78l305 264l306 -264l-70 -78zM216 -430q-118 0 -228 63l57 123q84 -45 153 -45q70 0 100 30t48 81l62 182l-367 1002h184l201 -578q37 -104 59 -205h4q12 53 64 205l197 578h174l-430 -1217q-37 -109 -98 -164q-62 -55 -180 -55z" />
    <glyph glyph-name="Ydieresis" unicode="&#x178;" horiz-adv-x="1150" 
d="M494 1626h-181v221h181v-221zM854 1626h-180v221h180v-221zM670 0h-181v629l-452 825h221l324 -627l321 627h211l-444 -825v-629z" />
    <glyph glyph-name="Zacute" unicode="&#x179;" horiz-adv-x="1157" 
d="M825 1769l-442 -196l-43 80l410 262zM1049 0h-930v172l710 1124q-113 -2 -219 -2h-467v160h879v-172l-715 -1124q102 2 209 2h533v-160z" />
    <glyph glyph-name="zacute" unicode="&#x17a;" horiz-adv-x="1017" 
d="M760 1339l-443 -196l-43 80l410 262zM928 0h-830v123l586 743q-104 -4 -199 -4h-346v144h768v-121l-583 -744q76 4 163 4h441v-145z" />
    <glyph glyph-name="Zdotaccent" unicode="&#x17b;" horiz-adv-x="1157" 
d="M686 1642h-176v226h176v-226zM1049 0h-930v172l710 1124q-113 -2 -219 -2h-467v160h879v-172l-715 -1124q102 2 209 2h533v-160z" />
    <glyph glyph-name="zdotaccent" unicode="&#x17c;" horiz-adv-x="1017" 
d="M618 1214h-176v226h176v-226zM928 0h-830v123l586 743q-104 -4 -199 -4h-346v144h768v-121l-583 -744q76 4 163 4h441v-145z" />
    <glyph glyph-name="Zcaron" unicode="&#x17d;" horiz-adv-x="1157" 
d="M369 1896l235 -170l236 170l69 -77l-305 -265l-305 265zM1049 0h-930v172l710 1124q-113 -2 -219 -2h-467v160h879v-172l-715 -1124q102 2 209 2h533v-160z" />
    <glyph glyph-name="zcaron" unicode="&#x17e;" horiz-adv-x="1017" 
d="M326 1468l235 -170l236 170l69 -77l-305 -265l-305 265zM954 0h-829v123l586 743q-104 -4 -199 -4h-346v144h768v-121l-584 -744q76 4 164 4h440v-145z" />
    <glyph glyph-name="longs" unicode="&#x17f;" horiz-adv-x="788" 
d="M434 0h-164v862h-209v144h209v135q0 188 73 266t198 78t223 -47l-49 -127q-76 31 -153 31t-109 -58q-18 -33 -19 -158v-1126z" />
    <glyph glyph-name="florin" unicode="&#x192;" horiz-adv-x="1187" 
d="M940 1485q111 0 205 -82l-62 -109q-74 51 -147 52q-102 0 -133 -158l-51 -266h247l-24 -140h-252l-184 -876q-29 -135 -98 -207t-193 -72t-217 82l61 109q74 -51 138 -51q64 -1 95 37q32 38 48 120l182 858h-203l27 140h203l55 284q51 279 303 279z" />
    <glyph glyph-name="Aringacute" unicode="&#x1fa;" horiz-adv-x="1210" 
d="M494 1526q0 -70 110 -70t111 70q-1 70 -111 70t-110 -70zM813 475l-137 479q-61 215 -74 279h-4q-14 -76 -72 -281l-139 -477h426zM408 1526q0 70 53 112t143 43q90 0 144 -43t55 -112q0 -94 -94 -137l440 -1389h-201l-88 315h-518l-90 -315h-191l435 1389
q-88 41 -88 137zM799 1823l-398 -176l-41 69l379 230z" />
    <glyph glyph-name="aringacute" unicode="&#x1fb;" horiz-adv-x="1107" 
d="M762 1726l-443 -196l-43 80l410 262zM408 1321q0 -47 32 -79t78 -32q47 0 79 32t32 79t-32 79t-79 32q-46 0 -78 -32t-32 -79zM717 1321q-1 -82 -59 -140q-58 -59 -139 -59t-139 58t-58 141q0 82 57 139q57 58 139 58t140 -58t59 -139zM297 266q0 -68 41 -108t115 -41
q169 -1 290 235v189q-19 -15 -55 -27t-124 -39t-130 -41q-137 -47 -137 -168zM430 -25q-137 0 -222 78t-85 213q0 225 283 303q27 8 130 35t142 38q39 12 52 28t13 47v16q0 74 -44 114t-154 40q-213 0 -213 -166l-170 18q2 131 99 211t282 80q365 0 364 -297v-467
q-1 -84 21 -118t94 -44l-18 -120q-121 0 -180 43q-58 43 -74 141q-119 -193 -320 -193z" />
    <glyph glyph-name="AEacute" unicode="&#x1fc;" horiz-adv-x="1622" 
d="M1333 1769l-442 -196l-43 80l409 262zM752 489v611l-283 -611h283zM1524 1454v-154h-596v-475h477v-153h-477v-518h596v-154h-772v338h-353l-155 -338h-193l692 1454h781z" />
    <glyph glyph-name="aeacute" unicode="&#x1fd;" horiz-adv-x="1699" 
d="M1147 1339l-442 -196l-43 80l409 262zM754 444h-191q-162 0 -215 -39t-53 -119t50 -124t132 -45t157 59t120 160v108zM1166 887q-114 0 -179 -79t-69 -224h489q-3 147 -65 225t-176 78zM1167 -25q-264 0 -364 232q-47 -107 -147 -169t-222 -62t-217 87q-94 88 -94 232
q0 145 105 217t284 72h242v149q0 154 -207 154t-207 -164l-166 12q0 131 96 213t281 82q229 0 317 -131q117 131 303 131t300 -133t114 -358q0 -43 -4 -97h-663v-30q25 -293 256 -293q86 0 146 50t79 134l160 -29q-29 -123 -125 -211t-267 -88z" />
    <glyph glyph-name="Oslashacute" unicode="&#x1fe;" horiz-adv-x="1306" 
d="M317 727q0 -193 35 -326l561 760q-84 170 -260 170q-336 0 -336 -604zM989 727q0 188 -37 330l-561 -760q84 -174 262 -174q336 0 336 604zM659 -31q-244 0 -378 181l-72 -99l-76 53l96 132q-96 188 -96 518t135 531q134 200 376 200t378 -176l76 102l76 -55l-99 -133
q99 -193 99 -523t-136 -531q-136 -200 -379 -200zM879 1769l-443 -196l-43 80l410 262z" />
    <glyph glyph-name="oslashacute" unicode="&#x1ff;" horiz-adv-x="1122" 
d="M821 502q0 121 -33 213l-397 -535q63 -63 177 -63t184 100q69 101 69 285zM552 889q-120 1 -190 -101t-69 -269q0 -167 47 -265l401 545q-69 90 -189 90zM995 490q1 -228 -119 -371t-319 -144q-152 0 -256 80l-113 -151l-69 49l121 164q-121 143 -121 384t120 385
t303 144t294 -104l90 121l69 -52l-100 -135q100 -142 100 -370zM793 1339l-443 -196l-43 80l410 262z" />
    <glyph glyph-name="Scommaaccent" unicode="&#x218;" horiz-adv-x="1239" 
d="M748 -152v-133q0 -113 -44 -163t-141 -72l-18 78q100 23 100 108h-110v182h213zM1108 379q0 -190 -131 -300t-363 -110t-356 115t-127 297l180 45q8 -160 87 -230q78 -70 216 -69q138 0 224 61q86 62 86 162t-52 162t-165 115l-240 114q-151 74 -223 161t-72 226
q0 176 128 266t338 91t318 -101t113 -245l-176 -45q-10 125 -77 180q-66 55 -190 55t-197 -50t-73 -138q0 -89 45 -141t156 -103l240 -113q167 -76 239 -172t72 -233z" />
    <glyph glyph-name="scommaaccent" unicode="&#x219;" horiz-adv-x="1062" 
d="M639 -152v-133q0 -113 -44 -163t-140 -72l-19 78q100 23 101 108h-111v182h213zM932 274q0 -136 -102 -218t-296 -81q-196 0 -297 86t-114 220l172 30q13 -104 73 -148t169 -44q221 0 221 151q0 70 -44 103t-147 61l-141 39q-215 59 -258 164q-20 49 -21 117
q1 128 99 202t277 74t273 -74t105 -192l-162 -33q-10 86 -61 122t-154 36q-207 0 -207 -123q0 -59 40 -92t139 -58l147 -38q143 -36 216 -102t73 -202z" />
    <glyph glyph-name="uni021A" unicode="&#x21a;" horiz-adv-x="1081" 
d="M647 -152v-133q0 -113 -44 -163t-140 -72l-19 78q100 23 101 108h-111v182h213zM1014 1294h-383v-1294h-180v1294h-383v160h946v-160z" />
    <glyph glyph-name="uni021B" unicode="&#x21b;" horiz-adv-x="811" 
d="M512 -152v-133q0 -113 -44 -163t-140 -72l-19 78q100 23 101 108h-111v182h213zM270 315v547h-209v144h209v319l164 74v-393h271v-144h-271v-528q0 -133 29 -174t109 -41t153 31l49 -127q-98 -47 -228 -47t-203 77q-73 78 -73 262z" />
    <glyph glyph-name="circumflex" unicode="&#x2c6;" horiz-adv-x="450" 
d="M225 1296l-235 -170l-70 78l305 264l305 -264l-69 -78z" />
    <glyph glyph-name="caron" unicode="&#x2c7;" horiz-adv-x="450" 
d="M-10 1468l235 -170l236 170l69 -77l-305 -265l-305 265z" />
    <glyph glyph-name="breve" unicode="&#x2d8;" horiz-adv-x="450" 
d="M225 1171q-258 0 -274 215h88q20 -110 186 -110t187 110h88q-17 -215 -275 -215z" />
    <glyph glyph-name="dotaccent" unicode="&#x2d9;" horiz-adv-x="450" 
d="M313 1214h-176v226h176v-226z" />
    <glyph glyph-name="ring" unicode="&#x2da;" horiz-adv-x="450" 
d="M115 1321q1 -47 33 -79t77 -32t78 32t33 79t-33 79t-78 32t-77 -32t-33 -79zM424 1321q0 -82 -58 -140q-58 -59 -140 -59t-139 58q-58 58 -58 141q0 82 57 139q57 58 139 58q83 0 141 -58t58 -139z" />
    <glyph glyph-name="ogonek" unicode="&#x2db;" horiz-adv-x="450" 
d="M223 -381q-82 0 -138 36q-56 37 -56 101q0 111 91 184q32 26 85 60h102q-139 -98 -139 -205q0 -39 25 -63t55 -23q61 0 100 47l58 -55q-66 -82 -183 -82z" />
    <glyph glyph-name="tilde" unicode="&#x2dc;" horiz-adv-x="450" 
d="M94 1290q-74 0 -78 -86h-92q0 92 51 152t135 59q84 0 156 -63q41 -35 90 -35q74 0 78 86h92q0 -91 -51 -151t-134 -60t-157 63q-41 35 -90 35z" />
    <glyph glyph-name="hungarumlaut" unicode="&#x2dd;" horiz-adv-x="450" 
d="M297 1329l-387 -203l-47 76l352 266zM709 1329l-387 -203l-48 76l353 266z" />
    <glyph glyph-name="uni03A9" unicode="&#x3a9;" horiz-adv-x="1277" 
d="M639 1348q-162 0 -252 -115t-90 -339t63 -330t205 -158v-406h-399v129h262v201q-295 139 -295 555q0 283 134 441t372 159q238 0 372 -159t134 -441q0 -416 -295 -555v-201h262v-129h-399v406q141 51 205 157q63 106 63 331q0 226 -90 340t-252 114z" />
    <glyph glyph-name="pi" unicode="&#x3c0;" horiz-adv-x="1214" 
d="M428 0h-147v872h-199v134h1036v-134h-209v-655q-1 -71 19 -95t67 -24t99 25l49 -103q-80 -43 -171 -43q-90 1 -150 61t-60 165v669h-334v-872z" />
    <glyph glyph-name="Wgrave" unicode="&#x1e80;" horiz-adv-x="1775" 
d="M1085 1573l-442 196l76 146l409 -262zM1673 1454l-334 -1454h-200l-195 887q-29 135 -57 332h-4q-25 -193 -56 -332l-190 -887h-209l-326 1454h187l200 -946q23 -111 46 -277h4q20 150 47 277l192 946h217l197 -946q29 -139 45 -277h4q16 137 45 277l203 946h184z" />
    <glyph glyph-name="wgrave" unicode="&#x1e81;" horiz-adv-x="1372" 
d="M889 1143l-443 196l76 146l410 -262zM1290 1006l-248 -1006h-176l-135 571q-33 137 -41 240h-4q-12 -96 -45 -240l-129 -571h-186l-244 1006h170l131 -598q29 -135 39 -218h4q8 86 35 216l127 600h200l130 -598q25 -115 34 -222h4q12 113 37 222l131 598h166z" />
    <glyph glyph-name="Wacute" unicode="&#x1e82;" horiz-adv-x="1775" 
d="M1128 1769l-442 -196l-43 80l410 262zM1673 1454l-334 -1454h-200l-195 887q-29 135 -57 332h-4q-25 -193 -56 -332l-190 -887h-209l-326 1454h187l200 -946q23 -111 46 -277h4q20 150 47 277l192 946h217l197 -946q29 -139 45 -277h4q16 137 45 277l203 946h184z" />
    <glyph glyph-name="wacute" unicode="&#x1e83;" horiz-adv-x="1372" 
d="M928 1339l-443 -196l-43 80l410 262zM1290 1006l-248 -1006h-176l-135 571q-33 137 -41 240h-4q-12 -96 -45 -240l-129 -571h-186l-244 1006h170l131 -598q29 -135 39 -218h4q8 86 35 216l127 600h200l130 -598q25 -115 34 -222h4q12 113 37 222l131 598h166z" />
    <glyph glyph-name="Wdieresis" unicode="&#x1e84;" horiz-adv-x="1775" 
d="M797 1645h-181v221h181v-221zM1157 1645h-180v221h180v-221zM1673 1454l-334 -1454h-200l-195 887q-29 135 -57 332h-4q-25 -193 -56 -332l-190 -887h-209l-326 1454h187l200 -946q23 -111 46 -277h4q20 150 47 277l192 946h217l197 -946q29 -139 45 -277h4
q16 137 45 277l203 946h184z" />
    <glyph glyph-name="wdieresis" unicode="&#x1e85;" horiz-adv-x="1372" 
d="M596 1196h-180v221h180v-221zM956 1196h-180v221h180v-221zM1290 1006l-248 -1006h-176l-135 571q-33 137 -41 240h-4q-12 -96 -45 -240l-129 -571h-186l-244 1006h170l131 -598q29 -135 39 -218h4q8 86 35 216l127 600h200l130 -598q25 -115 34 -222h4q12 113 37 222
l131 598h166z" />
    <glyph glyph-name="Ygrave" unicode="&#x1ef2;" horiz-adv-x="1150" 
d="M776 1591l-442 197l76 145l409 -262zM670 0h-181v629l-452 825h221l324 -627l321 627h211l-444 -825v-629z" />
    <glyph glyph-name="ygrave" unicode="&#x1ef3;" horiz-adv-x="974" 
d="M692 1143l-442 196l76 146l409 -262zM216 -430q-118 0 -228 63l57 123q84 -45 153 -45q70 0 100 30t48 81l62 182l-367 1002h184l201 -578q37 -104 59 -205h4q12 53 64 205l197 578h174l-430 -1217q-37 -109 -98 -164q-62 -55 -180 -55z" />
    <glyph glyph-name="endash" unicode="&#x2013;" horiz-adv-x="1433" 
d="M1229 514h-1024v148h1024v-148z" />
    <glyph glyph-name="emdash" unicode="&#x2014;" horiz-adv-x="2048" 
d="M1782 514h-1516v148h1516v-148z" />
    <glyph glyph-name="quoteleft" unicode="&#x2018;" horiz-adv-x="686" 
d="M238 983v199q0 162 50 220t154 71v-80q-64 -8 -84 -44t-20 -130v-17h113v-219h-213z" />
    <glyph glyph-name="quoteright" unicode="&#x2019;" horiz-adv-x="686" 
d="M449 1454v-199q-1 -162 -51 -220t-154 -70v79q64 8 84 44t20 131v16h-112v219h213z" />
    <glyph glyph-name="quotesinglbase" unicode="&#x201a;" horiz-adv-x="686" 
d="M449 219v-199q-1 -162 -51 -220t-154 -70v80q64 8 84 44t20 130v16h-112v219h213z" />
    <glyph glyph-name="quotedblleft" unicode="&#x201c;" horiz-adv-x="976" 
d="M559 983v199q0 162 50 220t155 71v-80q-64 -8 -84 -44t-21 -130v-17h113v-219h-213zM205 983v199q0 162 50 220t155 71v-80q-64 -8 -84 -44t-21 -130v-17h113v-219h-213z" />
    <glyph glyph-name="quotedblright" unicode="&#x201d;" horiz-adv-x="976" 
d="M418 1454v-199q0 -162 -50 -220t-155 -70v79q63 8 83 44t21 131v16h-112v219h213zM772 1454v-199q0 -162 -50 -220t-155 -70v79q63 8 83 44t22 131v16h-113v219h213z" />
    <glyph glyph-name="quotedblbase" unicode="&#x201e;" horiz-adv-x="976" 
d="M772 219v-199q0 -162 -50 -220t-155 -70v80q63 8 83 44t22 130v16h-113v219h213zM418 219v-199q0 -162 -50 -220t-155 -70v80q63 8 83 44t21 130v16h-112v219h213z" />
    <glyph glyph-name="dagger" unicode="&#x2020;" horiz-adv-x="1048" 
d="M596 -176h-143v1048q-219 -4 -371 -4v138l371 -5v449h143v-449q254 4 371 5v-138l-371 4v-1048z" />
    <glyph glyph-name="daggerdbl" unicode="&#x2021;" horiz-adv-x="1048" 
d="M453 1450h143v-449q254 4 371 5v-138l-371 4v-739q219 4 371 4v-137l-371 4v-448h-143v448q-219 -4 -371 -4v137l371 -4v739q-219 -4 -371 -4v138l371 -5v449z" />
    <glyph glyph-name="bullet" unicode="&#x2022;" horiz-adv-x="1024" 
d="M160 741q0 145 103 247t247 104q144 0 248 -104t104 -248t-102 -247t-248 -103t-248 102q-104 104 -104 249z" />
    <glyph glyph-name="ellipsis" unicode="&#x2026;" horiz-adv-x="2048" 
d="M1812 0h-213v219h213v-219zM1130 0h-212v219h212v-219zM449 0h-213v219h213v-219z" />
    <glyph glyph-name="perthousand" unicode="&#x2030;" horiz-adv-x="2623" 
d="M1442 1407l-854 -1450l-111 61l856 1452zM2265 376q0 269 -158 269q-157 0 -157 -269t157 -270q158 1 158 270zM2398 377q0 -193 -84 -291t-207 -98t-207 98t-83 291q0 193 83 289q84 96 208 96t207 -96t83 -289zM674 1050q0 269 -158 269t-158 -269t158 -270
q158 1 158 270zM807 1051q0 -193 -84 -291t-207 -98t-207 98t-84 291t83 289t208 96t208 -96t83 -289zM1561 376q0 269 -158 269t-158 -269t158 -270q158 1 158 270zM1694 377q0 -193 -84 -291t-207 -98t-207 98t-84 291t83 289t208 96t208 -96t83 -289z" />
    <glyph glyph-name="guilsinglleft" unicode="&#x2039;" horiz-adv-x="622" 
d="M496 852l-238 -336l238 -336l-95 -65l-299 401l299 402z" />
    <glyph glyph-name="guilsinglright" unicode="&#x203a;" horiz-adv-x="622" 
d="M365 516l-238 336l94 66l299 -402l-299 -401l-94 65z" />
    <glyph glyph-name="fraction" unicode="&#x2044;" horiz-adv-x="366" 
d="M666 1407l-854 -1450l-111 61l856 1452z" />
    <glyph glyph-name="Euro" unicode="&#x20ac;" horiz-adv-x="1187" 
d="M215 676v35q0 59 2 88h-145l26 110h127q63 575 496 576q182 0 279 -97t130 -247l-178 -35q-39 223 -235 223q-264 0 -309 -420h497l-26 -110h-480v-123h459l-27 -111h-428q15 -211 89 -325t223 -113q201 0 246 231l174 -34q-25 -148 -129 -250t-310 -102t-328 155
q-122 156 -147 438h-153l26 111h121z" />
    <glyph glyph-name="afii61289" unicode="&#x2113;" horiz-adv-x="819" 
d="M618 1196q0 57 -32 101q-33 44 -90 44q-58 0 -98 -46t-40 -171v-426q260 289 260 498zM358 315q0 -215 160 -215q68 0 144 41l49 -98q-98 -63 -224 -63t-199 78t-73 266v82q-69 -57 -104 -84l-66 86q86 68 170 145v569q0 156 61 240q82 113 216 113t197 -76
q62 -76 63 -195q0 -309 -394 -674v-215z" />
    <glyph glyph-name="afii61352" unicode="&#x2116;" horiz-adv-x="2048" 
d="M1333 616v121h551v-121h-551zM1749 1157q0 90 -38 140q-38 51 -101 51q-62 0 -102 -50t-40 -141q0 -90 39 -139t103 -49t101 49q38 49 38 139zM1884 1157q0 -143 -76 -225t-198 -82t-200 82q-77 82 -77 225t77 226t200 83q122 0 198 -83t76 -226zM211 1454h248l436 -967
q74 -168 98 -254h4q-8 229 -8 297v924h180v-1454h-247l-433 954q-66 141 -102 267h-4q8 -154 8 -297v-924h-180v1454z" />
    <glyph glyph-name="uni2117" unicode="&#x2117;" horiz-adv-x="1765" 
d="M123 727q0 317 220 537q219 220 539 219q320 0 540 -219q220 -218 220 -536t-220 -538t-539 -219q-319 0 -540 219q-220 220 -220 537zM233 727q1 -271 189 -463t460 -192t461 191t189 463t-188 464t-461 192q-272 0 -461 -192t-189 -463zM1128 936q0 72 -47 112t-131 39
h-180v-309h174q184 0 184 158zM969 670h-199v-400h-123v926h309q125 0 210 -70t85 -188t-74 -193q-75 -75 -208 -75z" />
    <glyph glyph-name="trademark" unicode="&#x2122;" horiz-adv-x="1730" 
d="M1526 651h-103v445q0 119 4 202h-4q-29 -100 -59 -198l-145 -449h-74l-152 449q-43 135 -61 203h-4q4 -88 4 -207v-445h-98v803h145l158 -504q33 -109 43 -153h4q20 82 41 153l153 504h148v-803zM733 1358h-231v-707h-111v707h-227v96h569v-96z" />
    <glyph glyph-name="Omega" unicode="&#x2126;" horiz-adv-x="1277" 
d="M639 1348q-162 0 -252 -115t-90 -339t63 -330t205 -158v-406h-399v129h262v201q-295 139 -295 555q0 283 134 441t372 159q238 0 372 -159t134 -441q0 -416 -295 -555v-201h262v-129h-399v406q141 51 205 157q63 106 63 331q0 226 -90 340t-252 114z" />
    <glyph glyph-name="estimated" unicode="&#x212e;" 
d="M391 573h567v285q-118 117 -286 117t-281 -117v-285zM391 504v-354q111 -115 283 -115q240 0 377 233l67 -39q-90 -141 -191 -201t-253 -61q-225 0 -364 154q-138 154 -138 383t138 383q138 153 362 153t364 -149t142 -387h-787z" />
    <glyph glyph-name="arrowleft" unicode="&#x2190;" horiz-adv-x="1699" 
d="M1577 799v-146h-924q-125 0 -243 4q59 -41 141 -108l231 -195l-88 -106l-571 479l571 479l88 -106l-231 -195q-68 -55 -141 -110q119 4 243 4h924z" />
    <glyph glyph-name="arrowup" unicode="&#x2191;" horiz-adv-x="1699" 
d="M922 0h-146v924q0 125 4 243q-41 -59 -108 -141l-195 -231l-106 88l479 571l479 -571l-106 -88l-195 231q-55 68 -110 141q4 -119 4 -243v-924z" />
    <glyph glyph-name="arrowright" unicode="&#x2192;" horiz-adv-x="1699" 
d="M123 653v146h924q125 0 243 -4q-74 55 -141 110l-231 195l88 106l571 -479l-571 -479l-88 106l231 195q82 68 141 108q-119 -4 -243 -4h-924z" />
    <glyph glyph-name="arrowdown" unicode="&#x2193;" horiz-adv-x="1699" 
d="M776 1454h146v-924q0 -125 -4 -243q55 74 110 141l195 231l106 -88l-479 -571l-479 571l106 88l195 -231q68 -82 108 -141q-4 119 -4 243v924z" />
    <glyph glyph-name="uni2196" unicode="&#x2196;" horiz-adv-x="1699" 
d="M1415 264l-102 -102l-654 651q-47 47 -170 176q10 -61 23 -176l27 -301l-138 -14l-65 743l743 -65l-14 -138l-301 27l-178 20q59 -51 176 -167z" />
    <glyph glyph-name="uni2197" unicode="&#x2197;" horiz-adv-x="1699" 
d="M387 162l-102 102l653 654q117 117 176 167l-178 -20l-301 -27l-14 138l743 65l-66 -743l-137 14l27 301q12 115 22 176q-123 -129 -170 -176z" />
    <glyph glyph-name="uni2198" unicode="&#x2198;" horiz-adv-x="1699" 
d="M285 1190l102 102l653 -653q117 -117 168 -176l-20 178l-27 301l137 14l66 -743l-743 66l14 137l301 -27q115 -12 176 -22q-129 123 -176 170z" />
    <glyph glyph-name="uni2199" unicode="&#x2199;" horiz-adv-x="1699" 
d="M1313 1292l102 -102l-651 -653q-47 -47 -176 -170q61 10 176 22l301 27l14 -137l-743 -66l65 743l138 -14l-27 -301l-20 -178q51 59 167 176z" />
    <glyph glyph-name="uni21A4" unicode="&#x21a4;" horiz-adv-x="1699" 
d="M1577 1186v-920h-147v387h-777q-125 0 -243 4q59 -41 141 -108l231 -195l-88 -106l-571 479l571 479l88 -106l-231 -195q-68 -55 -141 -110q119 4 243 4h777v387h147z" />
    <glyph glyph-name="uni21A5" unicode="&#x21a5;" horiz-adv-x="1699" 
d="M1309 0h-920v147h387v777q0 125 4 243q-41 -59 -108 -141l-195 -231l-106 88l479 571l479 -571l-106 -88l-195 231q-55 68 -110 141q4 -119 4 -243v-777h387v-147z" />
    <glyph glyph-name="uni21A6" unicode="&#x21a6;" horiz-adv-x="1699" 
d="M123 266v920h147v-387h777q125 0 243 -4q-74 55 -141 110l-231 195l88 106l571 -479l-571 -479l-88 106l231 195q82 68 141 108q-119 -4 -243 -4h-777v-387h-147z" />
    <glyph glyph-name="uni21A7" unicode="&#x21a7;" horiz-adv-x="1699" 
d="M389 1454h920v-147h-387v-777q0 -125 -4 -243q55 74 110 141l195 231l106 -88l-479 -571l-479 571l106 88l195 -231q68 -82 108 -141q-4 119 -4 243v777h-387v147z" />
    <glyph glyph-name="uni21B0" unicode="&#x21b0;" horiz-adv-x="1699" 
d="M1577 799v-533h-147v387h-777q-125 0 -243 4q59 -41 141 -108l231 -195l-88 -106l-571 479l571 479l88 -106l-231 -195q-68 -55 -141 -110q119 4 243 4h924z" />
    <glyph glyph-name="uni21B1" unicode="&#x21b1;" horiz-adv-x="1699" 
d="M123 266v533h924q125 0 243 -4q-74 55 -141 110l-231 195l88 106l571 -479l-571 -479l-88 106l231 195q82 68 141 108q-119 -4 -243 -4h-777v-387h-147z" />
    <glyph glyph-name="uni21B2" unicode="&#x21b2;" horiz-adv-x="1699" 
d="M1577 1188v-533h-924q-125 0 -243 4q74 -55 141 -110l231 -195l-88 -106l-571 479l571 479l88 -106l-231 -195q-82 -68 -141 -108q119 4 243 4h777v387h147z" />
    <glyph glyph-name="uni21B3" unicode="&#x21b3;" horiz-adv-x="1699" 
d="M123 655v533h147v-387h777q125 0 243 -4q-59 41 -141 108l-231 195l88 106l571 -479l-571 -479l-88 106l231 195q68 55 141 110q-119 -4 -243 -4h-924z" />
    <glyph glyph-name="uni21B4" unicode="&#x21b4;" horiz-adv-x="1699" 
d="M389 1454h533v-924q0 -125 -4 -243q55 74 110 141l195 231l106 -88l-479 -571l-479 571l106 88l195 -231q68 -82 108 -141q-4 119 -4 243v777h-387v147z" />
    <glyph glyph-name="carriagereturn" unicode="&#x21b5;" horiz-adv-x="1699" 
d="M1577 1188v-533h-924q-125 0 -243 4q74 -55 141 -110l231 -195l-88 -106l-571 479l571 479l88 -106l-231 -195q-82 -68 -141 -108q119 4 243 4h777v387h147z" />
    <glyph glyph-name="partialdiff" unicode="&#x2202;" horiz-adv-x="1200" 
d="M571 1481q193 0 293 -123q88 -106 129 -294t41 -391q0 -202 -39 -339q-106 -365 -413 -365q-186 0 -300 124t-114 330t117 345t289 139t296 -129q-13 569 -299 570q-98 -1 -211 -91l-84 105q143 119 295 119zM608 776q-128 0 -204 -96t-76 -252t67 -241q68 -83 180 -83
q139 0 218 129q78 129 77 361q-37 80 -114 131q-78 51 -148 51z" />
    <glyph glyph-name="Delta" unicode="&#x2206;" horiz-adv-x="1300" 
d="M1028 139l-381 1080l-375 -1080h756zM1239 -2h-1178l523 1456h125z" />
    <glyph glyph-name="product" unicode="&#x220f;" horiz-adv-x="1343" 
d="M205 1720h934v-2162h-158v2025h-619v-2025h-157v2162z" />
    <glyph glyph-name="summation" unicode="&#x2211;" horiz-adv-x="1050" 
d="M948 -442h-846v133l553 948l-553 954v127h846v-137h-663l549 -944l-549 -944h663v-137z" />
    <glyph glyph-name="minus" unicode="&#x2212;" 
d="M1151 461h-971v127h971v-127z" />
    <glyph glyph-name="uni2219" unicode="&#x2219;" horiz-adv-x="548" 
d="M381 428h-213v219h213v-219z" />
    <glyph glyph-name="radical" unicode="&#x221a;" horiz-adv-x="1124" 
d="M1120 1720l-469 -2158h-119l-339 680l-119 -56l-54 107l248 123l293 -602l406 1906h153z" />
    <glyph glyph-name="infinity" unicode="&#x221e;" horiz-adv-x="1327" 
d="M961 819q107 0 175 -79t68 -206q0 -128 -66 -208t-162 -80q-95 0 -163 51t-147 147q-80 -96 -148 -147t-162 -51t-165 78q-69 78 -69 204t68 207q68 82 160 82t164 -56t152 -157q53 68 87 107t92 73t116 35zM1083 532q0 168 -118 168q-90 0 -236 -174q139 -162 238 -161
q116 -1 116 167zM367 365q59 0 112 43t119 118l-20 23q-131 150 -220 149q-55 0 -85 -48t-29 -122q0 -163 123 -163z" />
    <glyph glyph-name="uni2224" unicode="&#x2224;" horiz-adv-x="548" 
d="M381 428h-213v219h213v-219z" />
    <glyph glyph-name="logicaland" unicode="&#x2227;" horiz-adv-x="548" 
d="M381 428h-213v219h213v-219z" />
    <glyph glyph-name="integral" unicode="&#x222b;" horiz-adv-x="1034" 
d="M588 1479v-1696q0 -113 -56 -171t-164 -58t-198 86l66 96q55 -49 108 -49t74 24q20 25 20 84v1696q0 113 56 171t164 58t198 -86l-65 -96q-55 49 -109 49t-74 -24q-20 -25 -20 -84z" />
    <glyph glyph-name="approxequal" unicode="&#x2248;" 
d="M420 385q-117 0 -117 -104h-123q0 104 69 165t181 62q66 0 119 -18t149 -72q96 -52 132 -66t83 -14q117 0 117 104h123q0 -104 -69 -166t-181 -61q-66 1 -119 19t-148 71t-132 67t-84 13zM303 604h-123q0 104 69 166t181 61q66 0 119 -18q53 -17 149 -71t132 -67t83 -13
q117 0 117 104h123q0 -104 -69 -166t-181 -61q-66 1 -119 19t-148 71t-132 66t-84 14q-117 0 -117 -105z" />
    <glyph glyph-name="notequal" unicode="&#x2260;" 
d="M1151 750v-127h-375l-86 -197h461v-127h-514l-115 -268l-114 53l92 215h-320v127h373l84 197h-457v127h512l115 268l117 -51l-95 -217h322z" />
    <glyph glyph-name="lessequal" unicode="&#x2264;" 
d="M180 555v90l934 389l51 -116l-620 -250q-90 -37 -197 -66v-4q106 -29 197 -66l620 -249l-51 -117zM180 68h971v-127h-971v127z" />
    <glyph glyph-name="greaterequal" unicode="&#x2265;" 
d="M1151 645v-90l-934 -389l-51 117l620 249q90 37 197 66v4q-106 29 -197 66l-620 250l51 116zM180 68h971v-127h-971v127z" />
    <glyph glyph-name="dotmath" unicode="&#x22c5;" horiz-adv-x="548" 
d="M381 428h-213v219h213v-219z" />
    <glyph glyph-name="lozenge" unicode="&#x25ca;" horiz-adv-x="1220" 
d="M870 731l-262 602l-258 -604l258 -604zM1034 729l-346 -774h-162l-342 776l342 774h162z" />
    <glyph glyph-name="apple" unicode="&#xf8ff;" horiz-adv-x="1189" 
d="M858 786h-526v-542h526v542zM1006 111h-822v809h822v-809z" />
    <glyph glyph-name="zero.plf" horiz-adv-x="1253" 
d="M626 127q308 0 308 579t-307 578q-307 0 -307 -578q-2 -578 306 -579zM1114 707q0 -342 -125 -537t-363 -195t-362 195q-125 195 -125 537q0 341 125 535t363 194q239 0 363 -194t124 -535z" />
    <glyph glyph-name="one.plf" horiz-adv-x="956" 
d="M711 1411v-1411h-176v1176q-142 -139 -359 -295l-94 123q268 195 475 407h154z" />
    <glyph glyph-name="two.plf" horiz-adv-x="1110" 
d="M961 0h-838v156q154 123 455 438q188 198 208 371q4 33 5 75q-1 113 -61 179q-60 65 -178 65t-182 -77t-65 -220l-180 17q0 188 115 310q116 122 314 122t308 -112t109 -262q1 -150 -57 -276t-219 -296t-363 -343q168 4 254 5h375v-152z" />
    <glyph glyph-name="three.plf" horiz-adv-x="1202" 
d="M317 418q12 -295 276 -295q132 0 211 77t79 212q0 181 -125 240q-101 48 -250 48h-62v144h62q332 0 332 237q0 95 -62 149t-170 54q-233 0 -254 -209l-178 21q10 154 127 246t305 94q188 0 299 -98t111 -244q0 -250 -248 -314v-4q109 -16 201 -102t92 -252
q0 -207 -124 -329t-347 -122t-336 118t-117 304z" />
    <glyph glyph-name="four.plf" horiz-adv-x="1159" 
d="M674 461v631l-398 -631h398zM1067 309h-217v-309h-176v309h-561v176l592 926h145v-950h217v-152z" />
    <glyph glyph-name="five.plf" horiz-adv-x="1220" 
d="M1087 472q-1 -224 -127 -362t-350 -139q-182 1 -310 103t-157 276l179 35q14 -125 93 -194t205 -69t206 92q81 91 81 251t-72 251q-73 91 -210 91q-203 0 -291 -184h-150l39 788h764v-151h-612l-27 -429q110 129 306 129t314 -132t119 -356z" />
    <glyph glyph-name="six.plf" horiz-adv-x="1204" 
d="M629 127q125 0 201 83q76 82 75 234q0 152 -72 236q-73 84 -198 84t-210 -87t-85 -233t82 -231q82 -86 207 -86zM1085 461q1 -207 -119 -346t-343 -140q-276 0 -398 236q-82 158 -82 461q1 369 145 566t369 198q187 0 279 -102t111 -251l-179 -20q-14 119 -64 170
t-155 51q-133 0 -223 -133q-104 -156 -104 -418q49 82 136 132t197 50q195 0 313 -123q117 -124 117 -331z" />
    <glyph glyph-name="seven.plf" horiz-adv-x="1011" 
d="M61 1260v151h879l-2 -141q-221 -264 -331 -576t-134 -694h-184q31 385 141 683q111 298 328 577h-697z" />
    <glyph glyph-name="eight.plf" horiz-adv-x="1232" 
d="M852 1064q0 102 -64 162t-172 60q-109 0 -172 -59t-63 -163t62 -169q62 -66 173 -66t174 66q62 66 62 169zM909 406q0 126 -79 200t-214 74t-214 -75q-78 -75 -78 -199t83 -202q83 -77 209 -77t210 77q83 77 83 202zM1090 383q0 -172 -130 -290t-344 -118
q-213 0 -343 118t-130 290t90 268t191 113v4q-90 28 -156 106t-65 199q0 160 118 261q117 102 295 102t296 -102t118 -261q0 -121 -66 -201t-155 -106v-4q101 -16 191 -112t90 -267z" />
    <glyph glyph-name="nine.plf" horiz-adv-x="1204" 
d="M299 962q0 -148 73 -230q74 -83 206 -83t210 86q78 85 78 231t-80 232t-212 86t-203 -87q-72 -87 -72 -235zM119 971q0 205 126 335t346 130t345 -159t125 -437t-34 -420q-34 -141 -99 -248q-121 -197 -371 -197q-171 1 -279 95t-116 260l176 24q14 -227 219 -227
q162 -1 243 145t81 385q-104 -162 -336 -161q-197 0 -312 135q-114 135 -114 340z" />
    <glyph glyph-name="parenleft.case" horiz-adv-x="724" 
d="M354 718q0 -245 73 -459t241 -449l-109 -78q-379 481 -379 987t379 987l109 -78q-168 -236 -241 -450t-73 -460z" />
    <glyph glyph-name="parenright.case" horiz-adv-x="724" 
d="M371 718q0 245 -73 460t-241 450l109 78q379 -481 379 -987t-379 -987l-109 78q168 236 241 450t73 458z" />
    <glyph glyph-name="hyphen.case" horiz-adv-x="940" 
d="M776 657h-612v148h612v-148z" />
    <glyph glyph-name="bracketleft.case" horiz-adv-x="724" 
d="M684 -236h-422v1895h422v-133h-258v-1628h258v-134z" />
    <glyph glyph-name="bracketright.case" horiz-adv-x="724" 
d="M463 -236h-422v134h258v1628h-258v133h422v-1895z" />
    <glyph glyph-name="braceleft.case" horiz-adv-x="768" 
d="M299 983v332q0 176 71 260t195 84h101v-141h-76q-72 0 -98 -37t-25 -164v-344q0 -109 -27 -169t-110 -89v-4q84 -31 114 -99q23 -51 23 -159v-347q0 -128 26 -164t97 -36h76v-142h-101q-125 0 -195 84t-71 261v333q0 115 -14 146q-22 53 -131 55v139q109 2 131 56
q14 31 14 145z" />
    <glyph glyph-name="braceright.case" horiz-adv-x="768" 
d="M469 442v-333q0 -177 -71 -261t-195 -84h-101v142h76q72 0 98 37t25 163v347q0 109 23 159q31 68 114 99v4q-84 31 -110 90t-27 168v344q0 127 -26 164t-97 37h-76v141h101q125 0 195 -84t71 -260v-332q0 -115 14 -145q22 -54 131 -56v-139q-109 -2 -131 -55
q-14 -31 -14 -146z" />
    <glyph glyph-name="guillemotleft.case" horiz-adv-x="966" 
d="M840 995l-238 -336l238 -335l-95 -66l-299 401l299 402zM496 995l-238 -336l238 -335l-95 -66l-299 401l299 402z" />
    <glyph glyph-name="uni00AD.case" horiz-adv-x="940" 
d="M776 657h-612v148h612v-148z" />
    <glyph glyph-name="guillemotright.case" horiz-adv-x="966" 
d="M365 659l-238 336l94 66l299 -402l-299 -401l-94 66zM709 659l-238 336l94 66l299 -402l-299 -401l-94 66z" />
    <glyph glyph-name="endash.case" horiz-adv-x="1433" 
d="M1229 657h-1024v148h1024v-148z" />
    <glyph glyph-name="emdash.case" horiz-adv-x="2048" 
d="M1782 657h-1516v148h1516v-148z" />
    <glyph glyph-name="guilsinglleft.case" horiz-adv-x="622" 
d="M496 995l-238 -336l238 -335l-95 -66l-299 401l299 402z" />
    <glyph glyph-name="guilsinglright.case" horiz-adv-x="622" 
d="M365 659l-238 336l94 66l299 -402l-299 -401l-94 66z" />
    <glyph glyph-name="commaaccent" horiz-adv-x="686" 
d="M449 -152v-133q-1 -113 -45 -163t-140 -72l-18 78q100 23 100 108h-110v182h213z" />
    <glyph glyph-name="commaturn" horiz-adv-x="686" 
d="M238 1272v133q0 113 44 163t140 72l18 -77q-100 -23 -100 -109h111v-182h-213z" />
    <glyph glyph-name="f_b" horiz-adv-x="1918" 
d="M1626 512q0 170 -68 272q-69 102 -192 102q-124 0 -192 -104q-68 -106 -68 -278t70 -278t198 -107q252 0 252 393zM1391 1030q186 0 298 -142q111 -142 111 -387t-114 -385t-295 -141q-99 1 -175 51t-108 121h-4q0 -61 -8 -147h-162q10 246 10 324v987q-63 2 -171 15
t-183 13q-111 0 -141 -77q-14 -37 -15 -142v-114h279v-144h-279v-862h-164v862h-209v144h209v135q0 182 76 263t234 81q78 -1 230 -25t298 -26v-430l-4 -146h4q23 66 99 119q77 53 184 53z" />
    <glyph glyph-name="f_f_j" horiz-adv-x="1976" 
d="M1788 1214h-176v226h176v-226zM1618 -72v934h-510v-862h-164v862h-510v-862h-164v862h-209v144h209v135q0 188 73 266t198 78t223 -47l-49 -127q-76 31 -153 31t-109 -58q-18 -33 -19 -158v-120h510v135q0 188 73 266t201 78t238 -62l-49 -118q-82 37 -164 37t-117 -60
q-18 -33 -18 -156v-120h674v-1092q0 -188 -73 -266t-198 -78t-223 47l49 127q74 -31 152 -31t110 58q19 32 19 157z" />
    <glyph glyph-name="f_f_t" horiz-adv-x="2158" 
d="M1618 315v547h-510v-862h-164v862h-510v-862h-164v862h-209v144h209v135q0 188 73 266t198 78t223 -47l-49 -127q-76 31 -153 31t-109 -58q-18 -33 -19 -158v-120h510v135q0 188 73 266t201 78t238 -62l-49 -118q-82 37 -164 37t-117 -60q-18 -33 -18 -156v-120h510v319
l164 74v-393h270v-144h-270v-528q0 -133 28 -174t110 -41q81 0 153 31l49 -127q-98 -47 -228 -47t-203 77q-73 78 -73 262z" />
    <glyph glyph-name="f_h" horiz-adv-x="1894" 
d="M1108 1030q0 -53 -4 -160h4q86 160 277 160t276 -129q59 -92 59 -250v-651h-164v623q0 135 -36 188q-54 76 -162 76t-179 -79t-71 -230v-578h-164v1311q-63 2 -171 15t-183 13q-111 0 -141 -77q-14 -37 -15 -142v-114h279v-144h-279v-862h-164v862h-209v144h209v135
q0 182 76 263t234 81q78 -1 230 -25t298 -26v-404z" />
    <glyph glyph-name="f_j" horiz-adv-x="1302" 
d="M1114 1214h-176v226h176v-226zM944 -72v934h-510v-862h-164v862h-209v144h209v135q0 188 73 266t201 78t238 -62l-49 -118q-82 37 -164 37t-116 -60q-18 -33 -19 -156v-120h674v-1092q0 -188 -73 -266t-198 -78t-223 47l50 127q74 -31 152 -31t110 58q18 32 18 157z" />
    <glyph glyph-name="f_k" horiz-adv-x="1822" 
d="M1108 0h-164v1311q-63 2 -171 15t-183 13q-111 0 -141 -77q-14 -37 -15 -142v-114h279v-144h-279v-862h-164v862h-209v144h209v135q0 182 76 263t234 81q78 -1 230 -25t298 -26v-893l438 465h221l-389 -412l404 -594h-201l-315 477l-158 -160v-317z" />
    <glyph glyph-name="f_t" horiz-adv-x="1484" 
d="M1108 334q0 -133 29 -174t109 -41t153 31l49 -127q-98 -47 -228 -47t-203 77q-73 78 -73 262v547h-510v-862h-164v862h-209v144h209v135q0 188 73 266t201 78t238 -62l-49 -118q-82 37 -164 37t-116 -60q-18 -33 -19 -156v-120h510v319l164 74v-393h270v-144h-270v-528z
" />
    <glyph glyph-name="f_u" horiz-adv-x="1900" 
d="M1087 360q0 -241 189 -241q173 0 242 145q25 53 24 168v574h164v-689q0 -154 10 -317h-162q-6 86 -6 143h-4q-82 -168 -289 -168q-145 -1 -238 91t-93 262v534h-490v-862h-164v862h-209v144h209v135q0 188 73 266t201 78t238 -62l-49 -118q-82 37 -164 37t-116 -60
q-18 -33 -19 -156v-120h653v-646z" />
    <glyph glyph-name="f_v" horiz-adv-x="1724" 
d="M434 862v-862h-164v862h-209v144h209v135q0 188 73 266t198 78t223 -47l-49 -127q-76 31 -153 31t-109 -58q-18 -33 -19 -158v-120h547l195 -578q41 -121 61 -221h4q31 127 62 221l196 578h174l-358 -1006h-158l-307 862h-416z" />
    <glyph glyph-name="f_w" horiz-adv-x="2109" 
d="M434 862v-862h-164v862h-209v144h209v135q0 188 73 266t198 78t223 -47l-49 -127q-76 31 -153 31t-109 -58q-18 -33 -19 -158v-120h555l131 -598q29 -135 39 -218h4q8 86 35 216l127 600h201l129 -598q25 -115 35 -222h4q12 113 37 222l131 598h166l-248 -1006h-176
l-136 571q-33 137 -41 240h-4q-12 -96 -45 -240l-129 -571h-186l-209 862h-420z" />
    <glyph glyph-name="f_y" horiz-adv-x="1722" 
d="M964 -430q-119 0 -229 63l58 123q85 -45 153 -45t99 30t49 81l61 182l-315 858h-406v-862h-164v862h-209v144h209v135q0 188 73 266t198 78t223 -47l-49 -127q-76 31 -153 31t-109 -58q-18 -33 -19 -158v-120h539l201 -578q37 -104 59 -205h4q12 53 63 205l197 578h174
l-430 -1217q-37 -109 -97 -164t-180 -55z" />
    <glyph glyph-name="t_f" horiz-adv-x="1505" 
d="M1151 1126v-120h276v-144h-276v-862h-164v862h-553v-528q0 -133 29 -174t109 -41t153 31l49 -127q-98 -47 -228 -47t-203 77q-73 78 -73 262v547h-209v144h209v319l164 74v-393h553v135q0 188 73 266t198 78t223 -47l-49 -127q-76 31 -153 31t-110 -58q-18 -33 -18 -158z
" />
    <glyph glyph-name="t_i" horiz-adv-x="1345" 
d="M1157 1214h-176v226h176v-226zM1151 0h-164v862h-553v-528q0 -133 29 -174t109 -41t153 31l49 -127q-98 -47 -228 -47t-203 77q-73 78 -73 262v547h-209v144h209v319l164 74v-393h717v-1006z" />
    <glyph glyph-name="t_j" horiz-adv-x="1378" 
d="M1190 1214h-176v226h176v-226zM1020 -72v934h-586v-528q0 -133 29 -174t109 -41t153 31l49 -127q-98 -47 -228 -47t-203 77q-73 78 -73 262v547h-209v144h209v319l164 74v-393h750v-1092q0 -188 -73 -266t-198 -78t-223 47l49 127q74 -31 152 -31t110 58q19 32 19 157z
" />
    <glyph glyph-name="t_t" horiz-adv-x="1527" 
d="M987 315v547h-553v-528q0 -133 29 -174t109 -41t153 31l49 -127q-98 -47 -228 -47t-203 77q-73 78 -73 262v547h-209v144h209v319l164 74v-393h553v319l164 74v-393h270v-144h-270v-528q0 -133 29 -174q30 -41 110 -41t152 31l49 -127q-98 -47 -228 -47t-203 77
q-73 78 -73 262z" />
    <glyph glyph-name="t_t_f" horiz-adv-x="2222" 
d="M987 315v547h-553v-528q0 -133 29 -174t109 -41t153 31l49 -127q-98 -47 -228 -47t-203 77q-73 78 -73 262v547h-209v144h209v319l164 74v-393h553v319l164 74v-393h553v135q0 188 73 266t198 78t223 -47l-50 -127q-76 31 -152 31t-110 -58q-18 -33 -18 -158v-120h276
v-144h-276v-862h-164v862h-553v-528q0 -133 29 -174q30 -41 110 -41t152 31l49 -127q-98 -47 -228 -47t-203 77q-73 78 -73 262z" />
    <glyph glyph-name="t_t_j" horiz-adv-x="2115" 
d="M1927 1214h-176v226h176v-226zM1008 862h-574v-528q0 -133 29 -174t109 -41t153 31l49 -127q-98 -47 -228 -47t-203 77q-73 78 -73 262v547h-209v144h209v319l164 74v-393h574v319l163 74v-393h750v-1092q0 -188 -73 -266t-198 -78t-223 47l50 127q73 -31 151 -31t111 58
q18 33 18 157v934h-586v-528q0 -133 29 -174q30 -41 110 -41t152 31l49 -127q-98 -47 -228 -47t-203 77q-73 78 -72 262v547z" />
    <glyph glyph-name="t_u" horiz-adv-x="1943" 
d="M1130 360q0 -241 189 -241q173 0 242 145q25 53 24 168v574h164v-689q0 -154 10 -317h-162q-6 86 -6 143h-4q-82 -168 -289 -168q-145 -1 -238 91t-93 262v534h-533v-528q0 -133 29 -174t109 -41t153 31l49 -127q-98 -47 -228 -47t-203 77q-73 78 -73 262v547h-209v144
h209v319l164 74v-393h696v-646z" />
    <glyph glyph-name="t_v" horiz-adv-x="1726" 
d="M434 862v-528q0 -133 29 -174t109 -41t153 31l49 -127q-98 -47 -228 -47t-203 77q-73 78 -73 262v547h-209v144h209v319l164 74v-393h549l195 -578q41 -121 61 -221h4q31 127 62 221l196 578h174l-358 -1006h-158l-307 862h-418z" />
    <glyph glyph-name="t_w" horiz-adv-x="2148" 
d="M434 862v-528q0 -133 29 -174t109 -41t153 31l49 -127q-98 -47 -228 -47t-203 77q-73 78 -73 262v547h-209v144h209v319l164 74v-393h594l131 -598q29 -135 39 -218h4q8 86 35 216l127 600h201l129 -598q25 -115 35 -222h4q12 113 36 222l132 598h165l-247 -1006h-177
l-135 571q-33 137 -41 240h-4q-12 -96 -45 -240l-129 -571h-186l-209 862h-459z" />
    <glyph glyph-name="t_y" horiz-adv-x="1755" 
d="M997 -430q-119 0 -229 63l57 123q84 -45 153 -45q70 0 100 30t48 81l62 182l-316 858h-438v-528q0 -133 29 -174t109 -41t153 31l49 -127q-98 -47 -228 -47t-203 77q-73 78 -73 262v547h-209v144h209v319l164 74v-393h572l200 -578q37 -104 60 -205h4q12 53 63 205
l197 578h174l-430 -1217q-38 -109 -98 -164t-179 -55z" />
    <glyph glyph-name="caron.alt" horiz-adv-x="450" 
d="M373 1409l-172 -348l-84 33l102 376z" />
    <glyph glyph-name="arrowleft.salt" horiz-adv-x="2250" 
d="M2128 655h-1475q-160 0 -278 4q57 -49 213 -204l358 -361l-98 -94l-725 727l725 727l98 -94l-358 -361q-156 -156 -213 -204q119 4 278 4h1475v-144z" />
    <glyph glyph-name="arrowup.salt" horiz-adv-x="2250" 
d="M1053 -276v1474q0 160 4 279q-49 -57 -205 -213l-360 -359l-95 99l727 725l727 -725l-94 -99l-360 359q-156 156 -205 213q4 -119 4 -279v-1474h-143z" />
    <glyph glyph-name="arrowright.salt" horiz-adv-x="2250" 
d="M1597 655h-1474v144h1474q160 0 279 -4q-57 49 -213 204l-358 361l98 94l725 -727l-725 -727l-98 94l358 361q156 156 213 204q-119 -4 -279 -4z" />
    <glyph glyph-name="arrowdown.salt" horiz-adv-x="2250" 
d="M1053 254v1475h143v-1475q0 -160 -4 -279q49 57 205 213l360 359l94 -98l-727 -725l-727 725l95 98l360 -359q156 -156 205 -213q-4 119 -4 279z" />
    <glyph glyph-name="uni2196.salt" horiz-adv-x="2250" 
d="M416 410v1026h1030v-136h-508q-221 0 -295 5q66 -59 199 -193l1042 -1042l-100 -103l-1043 1043q-72 72 -194 200q6 -76 6 -295l-2 -505h-135z" />
    <glyph glyph-name="uni2197.salt" horiz-adv-x="2250" 
d="M803 1298v138h1030l2 -1028l-137 -2v507q0 221 4 295q-59 -66 -193 -198l-1042 -1043l-102 101l1042 1042q72 72 201 195q-76 -6 -295 -7h-510z" />
    <glyph glyph-name="uni2198.salt" horiz-adv-x="2250" 
d="M1698 539v505h137v-1026l-1028 -2l-2 138h508q221 0 295 -4q-66 59 -199 192l-1042 1042l100 103l1042 -1043q72 -72 195 -200q-6 76 -6 295z" />
    <glyph glyph-name="uni2199.salt" horiz-adv-x="2250" 
d="M938 154h508v-138l-1030 2v1026h135v-505q0 -244 -4 -295q123 129 194 200l1043 1043l100 -103l-1042 -1042q-133 -135 -199 -192q74 4 295 4z" />
    <glyph glyph-name="uni21A4.salt" horiz-adv-x="2250" 
d="M1993 25v630h-1340q-160 0 -278 4q57 -49 213 -204l358 -361l-98 -94l-725 727l725 727l98 -94l-358 -361q-156 -156 -213 -204q119 4 278 4h1340v631h135v-1405h-135z" />
    <glyph glyph-name="uni21A5.salt" horiz-adv-x="2250" 
d="M422 -141h631v1339q0 160 4 279q-49 -57 -205 -213l-360 -359l-95 99l727 725l727 -725l-94 -99l-360 359q-156 156 -205 213q4 -119 4 -279v-1339h631v-135h-1405v135z" />
    <glyph glyph-name="uni21A6.salt" horiz-adv-x="2250" 
d="M258 655v-630h-135v1405h135v-631h1339q160 0 279 -4q-57 49 -213 204l-358 361l98 94l725 -727l-725 -727l-98 94l358 361q156 156 213 204q-119 -4 -279 -4h-1339z" />
    <glyph glyph-name="uni21A7.salt" horiz-adv-x="2250" 
d="M1053 1593h-631v136h1405v-136h-631v-1339q0 -160 -4 -279q49 57 205 213l360 359l94 -98l-727 -725l-727 725l95 98l360 -359q156 -156 205 -213q-4 119 -4 279v1339z" />
    <glyph glyph-name="uni21B0.salt" horiz-adv-x="2250" 
d="M1993 25v630h-1340q-160 0 -278 4q57 -49 213 -204l358 -361l-98 -94l-725 727l725 727l98 -94l-358 -361q-156 -156 -213 -204q119 4 278 4h1475v-774h-135z" />
    <glyph glyph-name="uni21B1.salt" horiz-adv-x="2250" 
d="M258 655v-630h-135v774h1474q160 0 279 -4q-57 49 -213 204l-358 361l98 94l725 -727l-725 -727l-98 94l358 361q156 156 213 204q-119 -4 -279 -4h-1339z" />
    <glyph glyph-name="uni21B2.salt" horiz-adv-x="2250" 
d="M1993 799v631h135v-775h-1475q-160 0 -278 4q57 -49 213 -204l358 -361l-98 -94l-725 727l725 727l98 -94l-358 -361q-156 -156 -213 -204q119 4 278 4h1340z" />
    <glyph glyph-name="uni21B3.salt" horiz-adv-x="2250" 
d="M258 1430v-631h1339q160 0 279 -4q-57 49 -213 204l-358 361l98 94l725 -727l-725 -727l-98 94l358 361q156 156 213 204q-119 -4 -279 -4h-1474v775h135z" />
    <glyph glyph-name="uni21B4.salt" horiz-adv-x="2250" 
d="M1053 1593h-631v136h774v-1475q0 -160 -4 -279q49 57 205 213l360 359l94 -98l-727 -725l-727 725l95 98l360 -359q156 -156 205 -213q-4 119 -4 279v1339z" />
    <glyph glyph-name="carriagereturn.salt" horiz-adv-x="2250" 
d="M1993 799v631h135v-775h-1475q-160 0 -278 4q57 -49 213 -204l358 -361l-98 -94l-725 727l725 727l98 -94l-358 -361q-156 -156 -213 -204q119 4 278 4h1340z" />
    <glyph glyph-name="zero.plfslash" horiz-adv-x="1253" 
d="M934 707q0 182 -37 323l-473 -801q76 -102 203 -102q307 0 307 580zM319 707q0 -211 39 -340l476 807q-78 111 -207 110q-308 1 -308 -577zM1114 707q0 -342 -125 -537t-363 -195t-362 195q-125 195 -125 537q0 341 125 535t363 194q239 0 363 -194t124 -535z" />
    <glyph glyph-name="zero.tlfslash" horiz-adv-x="1187" 
d="M903 707q0 182 -37 323l-473 -801q76 -102 203 -102q307 0 307 580zM289 707q0 -211 39 -340l475 807q-78 111 -207 110q-307 1 -307 -577zM1083 707q0 -342 -125 -537q-124 -195 -362 -195t-363 195t-124 537q1 341 125 535t362 194t362 -194t125 -535z" />
    <glyph glyph-name="at.case" horiz-adv-x="1730" 
d="M1016 813q0 160 -125 160q-72 0 -124 -65q-97 -122 -95 -308q0 -225 135 -225q59 0 103 50q72 82 97 266q9 67 9 122zM971 1536q281 0 453 -199t173 -491t-109 -453q-110 -162 -294 -162q-162 0 -197 154h-4q-74 -154 -225 -154q-125 1 -194 99q-68 98 -68 240t40 258
t129 201t210 85q67 0 115 -37t63 -98h6l41 106h152q-35 -104 -64 -282l-43 -266q-10 -66 -10 -103q-1 -36 25 -58t57 -22q113 0 176 124t63 368t-137 407q-137 164 -366 164q-303 0 -489 -218t-185 -595q0 -332 183 -502t458 -170q127 0 262 56t194 129l66 -80
q-68 -86 -222 -154q-286 -127 -590 -20q-305 107 -420 386q-65 155 -64 355q0 422 226 677t589 255z" />
    <glyph glyph-name="bar.case" horiz-adv-x="573" 
d="M358 -381h-143v2204h143v-2204z" />
    <glyph glyph-name="plus.case" 
d="M1151 662h-420v-416h-131v416h-420v126h420v416h131v-416h420v-126z" />
    <glyph glyph-name="minus.case" 
d="M1151 662h-971v126h971v-126z" />
    <glyph glyph-name="plusminus.case" 
d="M1151 662h-420v-416h-131v416h-420v126h420v416h131v-416h420v-126zM180 127h971v-127h-971v127z" />
    <glyph glyph-name="multiply.case" 
d="M999 238l-333 333l-334 -333l-90 90l333 334l-333 333l90 90l334 -333l333 333l91 -90l-334 -333l334 -334z" />
    <glyph glyph-name="divide.case" 
d="M772 258h-213v219h213v-219zM772 975h-213v219h213v-219zM1151 662h-971v126h971v-126z" />
    <glyph glyph-name="equal.case" 
d="M1151 434h-971v127h971v-127zM1151 758h-971v127h971v-127z" />
    <glyph glyph-name="notequal.case" 
d="M1151 885v-127h-375l-86 -197h461v-127h-514l-115 -268l-114 53l92 215h-320v127h373l84 197h-457v127h512l115 268l117 -51l-95 -217h322z" />
    <glyph glyph-name="approxequal.case" 
d="M420 522q-117 0 -117 -104h-123q0 104 69 166t181 61q66 0 119 -18q53 -17 149 -71t132 -68t83 -13q117 0 117 105h123q0 -104 -69 -166t-181 -62q-66 0 -119 18t-148 72q-95 52 -132 66t-84 14zM420 846q-117 0 -117 -105h-123q0 103 69 165t181 63q66 -1 119 -19
t149 -72t132 -66q36 -13 83 -13q117 0 117 104h123q0 -103 -69 -165t-181 -62q-66 0 -119 18t-148 72q-95 52 -132 66t-84 14z" />
    <glyph glyph-name="less.case" 
d="M1102 143l-938 457v123l938 457l55 -115l-618 -289q-172 -80 -263 -112v-5q90 -33 263 -112l618 -289z" />
    <glyph glyph-name="greater.case" 
d="M1167 600l-938 -457l-55 115l619 289q172 80 262 112v5q-90 33 -262 112l-619 289l55 115l938 -457v-123z" />
    <glyph glyph-name="lessequal.case" 
d="M180 614v91l934 389l51 -117l-620 -250q-90 -37 -197 -65v-5q106 -29 197 -65l620 -250l-51 -117zM180 127h971v-127h-971v127z" />
    <glyph glyph-name="greaterequal.case" 
d="M1151 705v-91l-934 -389l-51 117l620 250q90 37 197 65v5q-106 29 -197 65l-620 250l51 117zM180 127h971v-127h-971v127z" />
    <glyph glyph-name="logicalnot.case" 
d="M1176 426h-138v334h-882v133h1020v-467z" />
    <glyph glyph-name="infinity.case" horiz-adv-x="1327" 
d="M1204 670q0 -127 -66 -208t-162 -81q-95 0 -163 51t-147 148q-80 -96 -148 -148t-162 -51q-94 0 -165 78q-69 78 -69 204q0 125 68 207t160 82t164 -56t152 -157q53 68 87 107t92 74t116 34q106 0 175 -78q68 -79 68 -206zM967 500q116 0 116 168t-118 168
q-90 0 -236 -174q139 -162 238 -162zM367 500q59 0 112 43t119 119l-20 22q-131 150 -220 150q-55 0 -85 -48t-29 -122q0 -164 123 -164z" />
    <glyph glyph-name="l.salt" horiz-adv-x="612" 
d="M184 317v1137h164v-1122q0 -129 26 -172t86 -43t111 33l68 -109q-90 -68 -203 -68q-112 -1 -182 75t-70 269z" />
    <glyph glyph-name="fl.salt" horiz-adv-x="1378" 
d="M944 317v994q-63 2 -171 15t-183 13q-111 0 -141 -77q-14 -37 -15 -142v-114h279v-144h-279v-862h-164v862h-209v144h209v135q0 182 76 263t234 81q78 0 230 -25t298 -26v-1102q0 -129 26 -172t86 -43t111 33l68 -109q-90 -68 -203 -68q-112 -1 -182 75t-70 269z" />
    <glyph glyph-name="uniFB04.salt" horiz-adv-x="2050" 
d="M1616 317v994q-63 2 -171 15t-183 13q-111 0 -142 -77q-14 -37 -14 -142v-114h278v-144h-278v-862h-164v862h-508v-862h-164v862h-209v144h209v135q0 188 73 266t198 78t223 -47l-49 -127q-76 31 -153 31t-109 -58q-18 -33 -19 -158v-120h508v135q0 182 76 263t233 81
q78 0 230 -25t299 -26v-1102q0 -129 26 -172t85 -43q60 0 112 33l68 -109q-90 -68 -203 -68q-112 -1 -182 75t-70 269z" />
    </font>
</defs>
</svg>
