<?xml version="1.0" standalone="no"?>
<!DOCTYPE svg PUBLIC "-//W3C//DTD SVG 1.1//EN" "http://www.w3.org/Graphics/SVG/1.1/DTD/svg11.dtd" >
<svg xmlns="http://www.w3.org/2000/svg">
<metadata>
Created by FontPrep 20130207 at Mon Jul 28 12:08:07 2014
 By Cem Sever
Copyright (c) 2007 by Optimo, Switzerland. All rights reserved.
</metadata>
<defs>
<font id="be6f6d8fc632253c9fbd722cd66dd83e" horiz-adv-x='1024' >
  <font-face 
    font-family="Executive-65Medium"
    font-weight="500"
    font-stretch="normal"
    units-per-em="2048"
    panose-1="2 11 6 4 2 2 2 2 2 4"
    ascent="1454"
    descent="-594"
    x-height="1006"
    cap-height="1454"
    bbox="-303 -551 2376 1970"
    underline-thickness="98"
    underline-position="-209"
    unicode-range="U+000D-FB04"
  />
<missing-glyph horiz-adv-x="1171" 
d="M848 786h-526v-542h526v542zM995 111h-821v809h821v-809z" />
    <glyph glyph-name="IJ" unicode="IJ" horiz-adv-x="1796" 
d="M1612 1454v-1032q0 -219 -104 -336t-347 -117q-195 1 -311 97t-115 284q0 43 4 74q168 23 238 29q-4 -20 -4 -72q-1 -209 197 -209t198 229v1053h244zM449 0h-244v1454h244v-1454z" />
    <glyph glyph-name="ij" unicode="ij" horiz-adv-x="1224" 
d="M1047 1202h-226v242h226v-242zM1042 -74q0 -358 -302 -358q-146 0 -269 63l64 152q91 -41 163 -41t105 49q20 33 20 154v1061h219v-1080zM403 1202h-225v242h225v-242zM401 0h-219v1006h219v-1006z" />
    <glyph glyph-name="uniFB00" unicode="ff" horiz-adv-x="1548" 
d="M1462 836h-280v-836h-219v836h-486v-836h-219v836h-201v170h201v131q0 250 145 319q65 31 173 31t235 -60l-55 -151q-76 35 -153 35t-101 -43t-25 -158v-104h486v131q0 350 307 350q121 0 256 -68l-56 -145q-80 37 -160 37t-104 -44q-25 -44 -24 -157v-104h280v-170z" />
    <glyph glyph-name="fi" unicode="fi" horiz-adv-x="1366" 
d="M1186 1202h-225v242h225v-242zM1182 0h-219v836h-486v-836h-219v836h-201v170h201v131q0 186 76 268t231 82q111 0 234 -64l-58 -145q-69 33 -141 33t-97 -43t-26 -158v-104h705v-1006z" />
    <glyph glyph-name="fl" unicode="fl" horiz-adv-x="1366" 
d="M258 1137q0 350 323 350q95 1 269 -25t332 -28v-1434h-219v1282q-43 2 -154 15t-191 13t-110 -40q-31 -41 -31 -160v-104h275v-170h-275v-836h-219v836h-201v170h201v131z" />
    <glyph glyph-name="uniFB03" unicode="ffi" horiz-adv-x="2070" 
d="M1890 1202h-225v242h225v-242zM258 1137q0 350 289 350q137 0 264 -60l-55 -151q-76 35 -153 35t-105 -51q-20 -35 -21 -150v-104h486v131q1 186 77 268t230 82q113 0 235 -64l-57 -145q-72 33 -144 33t-96 -43q-26 -43 -26 -158v-104h706v-1006h-219v836h-487v-836h-219
v836h-486v-836h-219v836h-201v170h201v131z" />
    <glyph glyph-name="uniFB04" unicode="ffl" horiz-adv-x="2072" 
d="M258 1137q0 350 291 350q135 0 262 -60l-55 -151q-76 35 -153 35t-101 -43t-25 -158v-104h486v131q0 350 333 350q80 1 257 -25t333 -28v-1434h-219v1282q-43 2 -154 15t-191 13t-110 -40q-31 -41 -30 -160v-104h274v-170h-274v-836h-219v836h-486v-836h-219v836h-201
v170h201v131z" />
    <glyph glyph-name=".notdef" horiz-adv-x="1171" 
d="M848 786h-526v-542h526v542zM995 111h-821v809h821v-809z" />
    <glyph glyph-name=".null" horiz-adv-x="512" 
 />
    <glyph glyph-name=".null" horiz-adv-x="512" 
 />
    <glyph glyph-name="nonmarkingreturn" horiz-adv-x="681" 
 />
    <glyph glyph-name="CR" unicode="&#xd;" horiz-adv-x="1024" 
 />
    <glyph glyph-name="space" unicode=" " horiz-adv-x="614" 
 />
    <glyph glyph-name="exclam" unicode="!" horiz-adv-x="747" 
d="M504 0h-260v252h260v-252zM489 1454q-8 -589 -38 -952l-11 -121h-135q-47 410 -55 1073h239z" />
    <glyph glyph-name="quotedbl" unicode="&#x22;" horiz-adv-x="958" 
d="M555 1454h190v-250l-47 -409h-96l-47 409v250zM211 1454h190v-250l-49 -409h-94l-47 409v250z" />
    <glyph glyph-name="numbersign" unicode="#" horiz-adv-x="1187" 
d="M735 868h-223l-55 -297h223zM1178 1024v-156h-267l-57 -297h240v-155h-269l-75 -416h-175l76 416h-223l-78 -416h-174l76 416h-242v155h271l55 297h-240v156h271l73 397h174l-71 -397h221l74 397h174l-72 -397h238z" />
    <glyph glyph-name="dollar" unicode="$" 
d="M371 1116q0 -74 39 -124t133 -91v381q-172 -22 -172 -166zM848 370q0 83 -44 141t-151 105v-448q90 10 143 64q52 55 52 138zM543 -215v184q-229 12 -339 135t-110 326l232 41q0 -279 217 -303v498l-123 55q-147 68 -217 157q-70 90 -70 244t113 252t297 109v180h110
v-178q300 -22 380 -267q22 -65 22 -137l-230 -34q-6 209 -172 233v-426l123 -55q166 -74 238 -169t71 -241q1 -182 -115 -292t-317 -126v-186h-110z" />
    <glyph glyph-name="percent" unicode="%" horiz-adv-x="1929" 
d="M1462 1430q-594 -1004 -889 -1506l-120 68l893 1507zM514 795q141 0 141 254t-141 254t-141 -254t141 -254zM813 1051q0 -193 -85 -291t-214 -98t-215 98t-86 291t85 289t215 96t215 -96t85 -289zM1415 121q141 0 141 254t-141 254t-141 -254t141 -254zM1716 377
q0 -193 -86 -291t-215 -98t-214 98t-85 291t85 289t215 96t215 -96t85 -289z" />
    <glyph glyph-name="ampersand" unicode="&#x26;" horiz-adv-x="1325" 
d="M776 1176q0 58 -36 94q-36 37 -93 37t-95 -38q-38 -39 -38 -97t49 -136l51 -78q94 60 128 110t34 108zM580 158q154 0 239 123l-270 413q-94 -72 -135 -144t-41 -169q0 -98 58 -161q59 -62 149 -62zM156 377q0 274 293 473l-41 63q-2 4 -19 29q-16 25 -21 34t-20 34
q-14 25 -19 40t-17 48t-11 84q0 123 94 209t252 86q158 -1 246 -91t88 -208t-63 -203q-63 -86 -199 -172l209 -320q10 41 10 101t-12 121h188q10 -76 10 -127q0 -174 -65 -285l196 -293h-251l-82 125q-129 -150 -359 -150q-170 0 -289 113q-118 113 -118 289z" />
    <glyph glyph-name="quotesingle" unicode="'" horiz-adv-x="663" 
d="M236 1454h190v-250l-49 -409h-94l-47 409v250z" />
    <glyph glyph-name="parenleft" unicode="(" horiz-adv-x="751" 
d="M389 551q0 -485 307 -903l-133 -97q-391 477 -391 999t391 1000l133 -96q-307 -418 -307 -903z" />
    <glyph glyph-name="parenright" unicode=")" horiz-adv-x="751" 
d="M362 551q0 485 -307 903l133 96q392 -477 392 -999t-392 -1000l-133 97q307 418 307 903z" />
    <glyph glyph-name="asterisk" unicode="*" horiz-adv-x="925" 
d="M539 1014h-152v153l14 125q-59 -49 -98 -71l-137 -80l-70 127l135 78q45 27 95 38l18 7q-68 23 -113 47l-133 78l70 126l135 -77q47 -28 98 -72q-14 68 -14 121v155h152v-155l-15 -121q55 43 99 70l131 79l71 -126l-133 -80q-49 -29 -88 -39l-16 -6q59 -16 104 -43
l135 -78l-71 -127l-131 78l-99 71q12 -70 13 -125v-153z" />
    <glyph glyph-name="plus" unicode="+" 
d="M1073 442h-401v-395h-168v395h-402v166h402v396h168v-396h401v-166z" />
    <glyph glyph-name="comma" unicode="," horiz-adv-x="667" 
d="M457 254v-170q0 -226 -71 -325q-30 -42 -87 -91l-70 72q57 53 79 107t22 137v16h-121v254h248z" />
    <glyph glyph-name="hyphen" unicode="-" horiz-adv-x="923" 
d="M768 494h-612v188h612v-188z" />
    <glyph glyph-name="period" unicode="." horiz-adv-x="667" 
d="M457 0h-248v254h248v-254z" />
    <glyph glyph-name="slash" unicode="/" horiz-adv-x="964" 
d="M915 1487l-661 -1520h-197l662 1520h196z" />
    <glyph glyph-name="zero" unicode="0" 
d="M588 162q272 0 272 544t-270 543q-272 1 -272 -543q-2 -544 270 -544zM1087 707q-1 -336 -125 -535t-372 -199t-374 199t-126 535q0 335 126 533t374 198t372 -198t125 -533z" />
    <glyph glyph-name="one" unicode="1" 
d="M190 0v188h367v928q-135 -129 -319 -262l-119 154q281 209 465 403h198v-1223h334v-188h-926z" />
    <glyph glyph-name="two" unicode="2" 
d="M1010 0h-858v197q188 145 440 411q119 125 160 221q41 97 41 199q-1 102 -53 162t-148 59q-219 0 -223 -270l-226 16q0 195 117 319t330 124q212 0 322 -113t110 -269t-61 -284q-61 -126 -217 -286t-336 -302q193 4 266 4h336v-188z" />
    <glyph glyph-name="three" unicode="3" 
d="M1061 426q0 -203 -124 -329q-123 -126 -359 -126t-352 122t-122 319l226 24q8 -276 248 -276q122 0 188 70t66 170q-1 183 -113 235q-91 43 -225 43h-56v172h56q301 0 301 211q1 86 -55 137t-150 51t-154 -47t-69 -147l-224 20q6 158 125 260q119 103 323 103
q203 0 315 -104t112 -246t-76 -217t-178 -93v-4q119 -16 208 -104t89 -244z" />
    <glyph glyph-name="four" unicode="4" 
d="M651 485v533l-350 -533h350zM1081 297h-192v-297h-238v297h-549v201l605 913h182v-926h192v-188z" />
    <glyph glyph-name="five" unicode="5" 
d="M662 965q193 0 307 -133q114 -134 114 -358t-128 -363t-357 -140q-182 -1 -316 99t-167 292q152 20 227 33q16 -111 83 -173t181 -62t182 85t68 225t-65 225q-66 85 -189 85q-172 0 -256 -172h-192l49 803h786v-188h-604l-27 -381l2 -2q109 125 302 125z" />
    <glyph glyph-name="six" unicode="6" 
d="M610 162q114 0 178 76q66 76 66 210t-61 210t-177 77q-116 0 -186 -79q-70 -80 -70 -210t68 -207t182 -77zM653 922q199 0 313 -126t115 -332q0 -206 -122 -348q-121 -142 -361 -142t-360 178q-120 180 -121 501q0 321 115 545q58 113 162 176t241 64q187 0 289 -98
t120 -263q-80 -6 -217 -22q-10 100 -55 151t-141 51q-139 0 -213 -146t-78 -347q43 70 126 114t187 44z" />
    <glyph glyph-name="seven" unicode="7" 
d="M150 1223v188h897l-3 -168q-217 -256 -321 -560t-127 -683h-238q25 362 138 654t323 569h-669z" />
    <glyph glyph-name="eight" unicode="8" 
d="M793 1051q-1 92 -55 145t-148 53t-148 -53t-55 -145q0 -93 54 -151q55 -58 149 -58t148 58t55 151zM846 413q0 115 -68 181t-186 66t-188 -68q-68 -68 -68 -178t71 -182q71 -70 185 -70t184 68t70 183zM1073 403q0 -193 -133 -311t-350 -119q-217 0 -349 119t-132 311
q0 150 81 241q82 91 183 120v4q-86 25 -149 104q-62 80 -62 191q0 166 121 270q121 105 306 105t307 -104t122 -271q0 -113 -65 -193t-150 -104v-4q100 -23 185 -116t85 -243z" />
    <glyph glyph-name="nine" unicode="9" 
d="M576 1249q-118 0 -182 -78q-62 -78 -62 -210q0 -133 63 -209t181 -76t185 78t66 209t-67 209t-184 77zM104 971q0 205 127 336t360 131t357 -173t123 -464q0 -426 -125 -627t-389 -201q-182 -1 -291 93t-123 268l217 24q6 -98 56 -152t141 -54q147 0 216 134t73 349
q0 2 -2 2q-94 -147 -304 -147t-324 138q-112 138 -112 343z" />
    <glyph glyph-name="colon" unicode=":" horiz-adv-x="667" 
d="M457 0h-248v254h248v-254zM457 752h-248v254h248v-254z" />
    <glyph glyph-name="semicolon" unicode=";" horiz-adv-x="667" 
d="M457 254v-170q0 -178 -36 -260t-122 -156l-68 72q59 53 79 106t22 138v16h-123v254h248zM457 752h-248v254h248v-254z" />
    <glyph glyph-name="less" unicode="&#x3c;" 
d="M1032 -23l-956 455v141l956 457l70 -147l-606 -277q-127 -57 -250 -100v-4q123 -43 250 -101l606 -278z" />
    <glyph glyph-name="equal" unicode="=" 
d="M1075 260h-971v166h971v-166zM1075 627h-971v166h971v-166z" />
    <glyph glyph-name="greater" unicode="&#x3e;" 
d="M1102 432l-957 -455l-69 146l606 278q127 57 250 101v4q-96 31 -250 100l-606 277l69 147l957 -457v-141z" />
    <glyph glyph-name="question" unicode="?" horiz-adv-x="1140" 
d="M682 0h-248v254h248v-254zM574 1487q196 -1 310 -109t113 -271q0 -163 -92 -263t-243 -137v-310h-209v428q159 12 239 87q80 74 80 176t-53 158t-149 56t-148 -58q-53 -58 -55 -165l-217 25q0 166 114 274t310 109z" />
    <glyph glyph-name="at" unicode="@" horiz-adv-x="1759" 
d="M1028 676q0 160 -115 160q-71 0 -121 -62q-87 -108 -90 -293q0 -219 134 -219q141 0 184 296q8 63 8 118zM958 -322q-416 0 -645 277q-76 92 -120 229q-45 137 -46 303q1 424 231 683t607 260q291 0 469 -205t178 -499t-114 -456t-308 -161q-76 1 -125 39t-67 104h-4
q-72 -146 -212 -146t-216 100t-76 244q0 303 170 459q90 84 211 84q68 0 121 -35t71 -100h7l40 107h168q-43 -127 -65 -283l-39 -260q-12 -70 -12 -102t21 -52q22 -18 50 -18q104 0 164 121q59 121 60 331q1 260 -135 422t-363 162q-297 0 -479 -213t-183 -586
q-1 -172 53 -305q97 -240 346 -324q110 -38 234 -38t255 54q132 54 200 130l86 -96q-82 -98 -237 -164t-296 -66z" />
    <glyph glyph-name="A" unicode="A" horiz-adv-x="1263" 
d="M807 489l-105 388q-61 225 -73 290h-4q-14 -82 -72 -293l-109 -385h363zM1204 0h-262l-80 291h-473l-82 -291h-250l457 1454h231z" />
    <glyph glyph-name="B" unicode="B" horiz-adv-x="1316" 
d="M442 854h209q115 0 179 58t65 152q0 94 -58 144q-58 51 -167 52h-228v-406zM922 440q0 100 -67 167t-183 67h-230v-479h215q265 -1 265 245zM1169 412q0 -154 -92 -258q-136 -154 -409 -154h-467v1454h479q259 0 381 -135q78 -86 78 -214t-67 -212t-171 -117v-4
q268 -76 268 -360z" />
    <glyph glyph-name="C" unicode="C" horiz-adv-x="1269" 
d="M654 -33q-252 0 -390 201q-137 201 -137 556t139 559t410 204q217 0 336 -124t137 -310l-231 -41q-29 270 -244 270q-301 0 -301 -555t297 -555q236 0 256 315l235 -32q-18 -213 -136 -351q-119 -138 -371 -137z" />
    <glyph glyph-name="D" unicode="D" horiz-adv-x="1345" 
d="M971 727q0 528 -346 528h-183v-1056h197q332 0 332 528zM1219 741q0 -592 -379 -712q-86 -29 -211 -29h-428v1454h442q113 0 199 -31q195 -66 286 -250t91 -432z" />
    <glyph glyph-name="E" unicode="E" horiz-adv-x="1153" 
d="M1059 0h-858v1454h858v-205h-615v-403h500v-197h-500v-446h615v-203z" />
    <glyph glyph-name="F" unicode="F" horiz-adv-x="1114" 
d="M444 0h-243v1454h858v-205h-615v-403h500v-197h-500v-649z" />
    <glyph glyph-name="G" unicode="G" horiz-adv-x="1351" 
d="M1165 0h-145l-27 180h-4q-39 -94 -125 -153t-198 -60q-242 0 -391 194q-148 194 -148 559t147 566t416 201q223 0 338 -125t129 -291l-235 -37q-27 248 -238 248q-307 0 -307 -555t309 -555q125 0 194 101t68 272v71h-280v185h497v-801z" />
    <glyph glyph-name="H" unicode="H" horiz-adv-x="1345" 
d="M1145 0h-244v641h-457v-641h-243v1454h243v-606h457v606h244v-1454z" />
    <glyph glyph-name="I" unicode="I" horiz-adv-x="653" 
d="M449 0h-244v1454h244v-1454z" />
    <glyph glyph-name="J" unicode="J" horiz-adv-x="1148" 
d="M965 1454v-1032q1 -219 -103 -336t-348 -117q-194 1 -310 97t-116 284q0 43 4 74q168 23 238 29q-4 -20 -4 -72q0 -209 198 -209t197 229v1053h244z" />
    <glyph glyph-name="K" unicode="K" horiz-adv-x="1290" 
d="M444 0h-243v1454h243v-620l471 620h304l-480 -594l502 -860h-291l-362 676l-144 -180v-496z" />
    <glyph glyph-name="L" unicode="L" horiz-adv-x="1093" 
d="M1044 0h-843v1454h243v-1249h600v-205z" />
    <glyph glyph-name="M" unicode="M" horiz-adv-x="1710" 
d="M1509 0h-229v795q0 221 4 376h-4q-45 -193 -84 -331l-246 -840h-192l-246 840q-47 160 -86 331h-4q6 -233 6 -376v-795h-227v1454h350l227 -836q37 -133 76 -323h4q39 186 76 326l225 833h350v-1454z" />
    <glyph glyph-name="N" unicode="N" horiz-adv-x="1396" 
d="M952 1454h244v-1454h-295l-346 766q-51 111 -115 293h-4q6 -172 6 -330v-729h-241v1454h299l342 -768q63 -143 112 -293h4l-6 328v733z" />
    <glyph glyph-name="O" unicode="O" horiz-adv-x="1349" 
d="M975 727q0 555 -301 555t-301 -555t301 -555t301 555zM674 1487q266 0 408 -200t141 -559q1 -359 -141 -560t-408 -201t-407 200q-140 200 -140 560t140 560q141 200 407 200z" />
    <glyph glyph-name="P" unicode="P" horiz-adv-x="1265" 
d="M922 1020q0 106 -65 172t-189 65h-224v-475h213q265 0 265 238zM1169 1014q0 -190 -126 -308q-126 -120 -363 -120h-236v-586h-243v1454h479q236 0 371 -131q118 -119 118 -309z" />
    <glyph glyph-name="Q" unicode="Q" horiz-adv-x="1349" 
d="M975 727q0 555 -301 555t-301 -555t301 -555t301 555zM674 1487q266 0 408 -200t141 -548q0 -347 -120 -541t-337 -225v-59q0 -82 74 -82q55 0 116 31l54 -117q-98 -63 -224 -63q-190 0 -202 200l-6 92q-213 29 -332 223t-119 542t140 548q141 199 407 199z" />
    <glyph glyph-name="R" unicode="R" horiz-adv-x="1333" 
d="M711 801q115 -1 176 61t61 167t-58 167t-181 61h-265v-456h267zM1196 1034q0 -190 -106 -293q-53 -51 -138 -88l265 -653h-271l-217 610h-285v-610h-243v1454h520q221 0 342 -108q133 -122 133 -312z" />
    <glyph glyph-name="S" unicode="S" horiz-adv-x="1267" 
d="M1143 389q0 -197 -138 -309t-380 -113q-242 0 -369 120t-131 321l235 51q4 -160 75 -227q71 -66 198 -66t197 54t71 153q0 150 -199 237l-241 109q-158 70 -230 159t-71 232q0 184 135 280t353 97q218 0 337 -112t123 -269l-234 -49q-8 121 -67 175t-169 54t-172 -43
q-64 -43 -64 -121t42 -126q43 -48 144 -91l231 -102q172 -77 248 -173t76 -241z" />
    <glyph glyph-name="T" unicode="T" horiz-adv-x="1107" 
d="M1042 1249h-366v-1249h-244v1249h-369v205h979v-205z" />
    <glyph glyph-name="U" unicode="U" horiz-adv-x="1353" 
d="M1159 453q0 -225 -125 -355t-357 -131q-231 0 -357 129t-125 357v1001h243v-991q0 -149 56 -221t182 -72t186 78q51 63 51 215v991h246v-1001z" />
    <glyph glyph-name="V" unicode="V" horiz-adv-x="1253" 
d="M1200 1454l-444 -1454h-258l-445 1454h256l238 -858q61 -223 82 -320h4q41 184 80 322l235 856h252z" />
    <glyph glyph-name="W" unicode="W" horiz-adv-x="1824" 
d="M1729 1454l-340 -1454h-252l-164 793q-29 139 -60 342h-4q-27 -190 -57 -342l-164 -793h-258l-334 1454h248l172 -854q16 -74 49 -295h4q16 119 49 297l164 852h260l168 -852q18 -92 47 -297h5q16 119 49 297l172 852h246z" />
    <glyph glyph-name="X" unicode="X" horiz-adv-x="1236" 
d="M332 0h-264l413 750l-383 704h275l245 -461l250 461h265l-381 -696l415 -758h-274l-279 516z" />
    <glyph glyph-name="Y" unicode="Y" horiz-adv-x="1204" 
d="M729 0h-244v608l-450 846h284l289 -580l289 580h272l-440 -846v-608z" />
    <glyph glyph-name="Z" unicode="Z" horiz-adv-x="1193" 
d="M1090 0h-977v199l675 1052q-123 -2 -233 -2h-416v205h924v-201l-678 -1050q109 2 217 2h488v-205z" />
    <glyph glyph-name="bracketleft" unicode="[" horiz-adv-x="765" 
d="M727 -410h-477v1897h477v-170h-258v-1559h258v-168z" />
    <glyph glyph-name="backslash" unicode="\" horiz-adv-x="964" 
d="M709 -33l-660 1520h197l659 -1520h-196z" />
    <glyph glyph-name="bracketright" unicode="]" horiz-adv-x="765" 
d="M516 -410h-477v168h258v1559h-258v170h477v-1897z" />
    <glyph glyph-name="asciicircum" unicode="^" horiz-adv-x="1316" 
d="M713 1454l463 -842l-144 -77l-375 686h-4l-372 -686l-144 77l459 842h117z" />
    <glyph glyph-name="underscore" unicode="_" horiz-adv-x="1024" 
d="M1024 -215h-1024v94h1024v-94z" />
    <glyph glyph-name="grave" unicode="`" horiz-adv-x="493" 
d="M432 1126l-483 201l88 180l444 -286z" />
    <glyph glyph-name="a" unicode="a" horiz-adv-x="1138" 
d="M342 274q0 -63 37 -99t100 -36q144 1 242 185v200q-20 -20 -76 -39l-164 -51q-139 -49 -139 -160zM117 255q0 130 73 204q74 74 238 116t213 55t65 28q15 15 15 47v18q0 71 -37 107t-133 36q-180 0 -180 -161l-221 18q2 137 107 222t294 85q389 0 389 -305v-446
q0 -76 24 -107t93 -39l-21 -149q-132 0 -198 39t-93 137q-113 -186 -313 -187q-139 0 -227 76t-88 206z" />
    <glyph glyph-name="b" unicode="b" horiz-adv-x="1204" 
d="M864 506q0 170 -58 260t-166 90t-168 -93t-60 -261t60 -261t169 -94q223 1 223 359zM680 1030q182 0 296 -139t114 -391t-116 -389t-294 -138q-90 0 -163 44t-105 116h-4q-2 -63 -11 -133h-213q10 178 11 330v1124h219v-410q0 -113 -4 -170h4q35 68 105 112q71 44 161 44
z" />
    <glyph glyph-name="c" unicode="c" horiz-adv-x="1083" 
d="M115 504q0 240 125 382q125 144 320 144q194 0 294 -93t121 -232l-207 -27q-25 178 -193 178q-113 0 -174 -91t-61 -265t62 -262t164 -88t152 51q48 51 58 151l211 -20q-57 -358 -422 -359q-207 -1 -329 145t-121 386z" />
    <glyph glyph-name="d" unicode="d" horiz-adv-x="1206" 
d="M530 -27q-176 1 -296 139t-120 393t117 390t301 135q86 0 156 -42t105 -114h4q-4 57 -4 164v416h219v-1122q0 -148 10 -332h-209q-8 74 -10 133h-4q-31 -70 -99 -115t-170 -45zM340 500q0 -174 62 -263t172 -89t165 94q55 96 55 263t-56 259q-58 92 -169 92
q-229 0 -229 -356z" />
    <glyph glyph-name="e" unicode="e" horiz-adv-x="1114" 
d="M566 858q-102 0 -160 -74q-60 -74 -64 -194h438q-2 128 -57 198t-157 70zM573 -27q-219 -1 -339 143t-120 387t125 385t325 142t320 -134t120 -359q0 -43 -5 -105h-659q12 -287 235 -287q160 0 201 162l199 -31q-29 -123 -128 -213t-274 -90z" />
    <glyph glyph-name="f" unicode="f" horiz-adv-x="833" 
d="M258 1137q0 351 289 349q137 0 264 -59l-55 -151q-76 35 -153 35t-105 -51q-20 -35 -21 -150v-104h281v-170h-281v-836h-219v836h-201v170h201v131z" />
    <glyph glyph-name="g" unicode="g" horiz-adv-x="1189" 
d="M791 -43q0 117 4 176h-4q-31 -63 -100 -108t-175 -45q-168 0 -285 136t-116 388q0 252 118 389q119 137 300 137t260 -160h4q2 59 10 136h209q-10 -195 -10 -332v-662q0 -219 -98 -339t-343 -119q-176 0 -281 76t-122 220l207 23q16 -164 206 -164q123 0 177 76
q39 55 39 172zM340 506q0 -350 221 -350q233 0 234 352q-1 168 -61 258t-163 90q-231 0 -231 -350z" />
    <glyph glyph-name="h" unicode="h" horiz-adv-x="1173" 
d="M674 1030q332 0 334 -385v-645h-220v608q0 123 -38 180q-38 58 -130 58q-94 0 -155 -71t-62 -208v-567h-219v1454h219v-403q0 -117 -4 -174h4q37 69 110 111t161 42z" />
    <glyph glyph-name="i" unicode="i" horiz-adv-x="583" 
d="M403 1202h-225v242h225v-242zM401 0h-219v1006h219v-1006z" />
    <glyph glyph-name="j" unicode="j" horiz-adv-x="610" 
d="M432 1202h-225v242h225v-242zM428 -74q0 -358 -302 -358q-146 0 -269 63l63 152q92 -41 164 -41t98 41t27 162v1061h219v-1080z" />
    <glyph glyph-name="k" unicode="k" horiz-adv-x="1120" 
d="M403 0h-219v1454h219v-860l373 412h283l-389 -412l411 -594h-268l-289 442l-121 -123v-319z" />
    <glyph glyph-name="l" unicode="l" horiz-adv-x="587" 
d="M184 0v1454h219v-1454h-219z" />
    <glyph glyph-name="m" unicode="m" horiz-adv-x="1572" 
d="M1407 0h-219v639q0 99 -27 153t-102 54q-152 0 -152 -234v-612h-219v649q0 82 -11 106q-11 23 -25 47q-25 44 -93 44q-156 0 -156 -248v-598h-219v688q0 174 -10 318h211q8 -63 8 -129h4q31 65 95 109t149 44q176 0 231 -156h5q74 156 247 156q205 0 256 -180
q27 -96 27 -225v-625z" />
    <glyph glyph-name="n" unicode="n" horiz-adv-x="1187" 
d="M688 1030q164 0 249 -99t85 -278v-653h-219v616q0 229 -180 230q-95 0 -157 -71t-63 -208v-567h-219v686q0 184 -10 320h211q4 -39 8 -138h4q33 70 110 116t181 46z" />
    <glyph glyph-name="o" unicode="o" horiz-adv-x="1148" 
d="M805 502q1 174 -59 264t-173 90t-172 -90t-59 -264t59 -264t172 -90t173 90t59 264zM1032 502q0 -246 -126 -387t-332 -141t-332 140q-126 142 -125 388q0 246 126 387q125 141 331 141t332 -141t126 -387z" />
    <glyph glyph-name="p" unicode="p" horiz-adv-x="1196" 
d="M403 -39v-371h-219v1082q0 190 -10 334h213q8 -70 10 -132h4q33 66 108 111t167 45q184 0 295 -142t111 -389t-112 -386q-110 -139 -290 -140q-90 0 -164 43t-113 115h-4q4 -57 4 -170zM854 505q0 177 -59 264t-167 87t-168 -91t-60 -264t60 -263t168 -90t166 90
q60 90 60 267z" />
    <glyph glyph-name="q" unicode="q" horiz-adv-x="1196" 
d="M524 -25q-184 -1 -297 139t-112 388q0 248 113 386q114 138 288 138q100 0 174 -43t105 -109h4q4 90 8 132h213q-10 -190 -10 -334v-1082h-219v371l4 170h-4q-83 -156 -267 -156zM340 500q0 -178 62 -266t169 -87t165 91t58 263t-58 264q-60 91 -171 91q-225 0 -225 -356
z" />
    <glyph glyph-name="r" unicode="r" horiz-adv-x="858" 
d="M688 817q-133 0 -208 -100t-74 -307v-410h-220v680q0 129 -12 326h207q6 -47 10 -207h4q94 231 312 231q51 0 94 -14v-215q-47 16 -113 16z" />
    <glyph glyph-name="s" unicode="s" horiz-adv-x="1087" 
d="M963 297q0 -324 -422 -324q-397 0 -424 316l223 24q12 -98 64 -137t144 -39t139 36q48 36 48 98q0 61 -42 93t-128 54l-135 37q-141 37 -216 97t-75 193q1 133 107 209t288 76t284 -77q103 -77 114 -203l-213 -25q-10 74 -52 109q-42 34 -128 34q-177 -1 -179 -106
q0 -55 35 -83t117 -48l141 -37q154 -40 232 -106t78 -191z" />
    <glyph glyph-name="t" unicode="t" horiz-adv-x="860" 
d="M262 319v517h-205v170h205v317l219 94v-411h264v-170h-264v-490q0 -121 28 -159q27 -38 101 -38t156 35q10 -31 59 -151q-123 -59 -256 -60q-307 0 -307 346z" />
    <glyph glyph-name="u" unicode="u" horiz-adv-x="1191" 
d="M172 346v660h219v-621q0 -227 178 -227q96 0 158 69q61 70 61 213v566h220v-689q0 -150 10 -317h-211q-4 31 -8 137h-4q-31 -69 -104 -115t-175 -47q-168 -1 -256 97t-88 274z" />
    <glyph glyph-name="v" unicode="v" horiz-adv-x="1028" 
d="M979 1006l-365 -1006h-202l-363 1006h238l166 -510q39 -121 63 -236h4q29 123 45 172l185 574h229z" />
    <glyph glyph-name="w" unicode="w" horiz-adv-x="1482" 
d="M1405 1006l-248 -1006h-252l-112 504q-29 119 -48 272h-4q-16 -135 -49 -272l-108 -504h-258l-248 1006h227l115 -549q27 -129 41 -240h4q12 117 37 240l108 549h264l115 -549q23 -102 39 -242h4q14 127 37 244l111 547h225z" />
    <glyph glyph-name="x" unicode="x" horiz-adv-x="1054" 
d="M1010 0h-262l-224 338l-221 -338h-258l358 516l-337 490h256l208 -314l207 314h246l-336 -488z" />
    <glyph glyph-name="y" unicode="y" horiz-adv-x="1042" 
d="M240 -432q-130 0 -252 74l63 149q99 -49 161 -49t86 24t34 36q10 13 23 44t20 46q6 16 19 56t18 54l-373 1004h242l176 -529q41 -127 61 -213h4q12 72 68 232l166 510h237l-440 -1194q-45 -124 -114 -184t-199 -60z" />
    <glyph glyph-name="z" unicode="z" horiz-adv-x="1036" 
d="M950 0h-856v150l549 688q-100 -4 -194 -4h-316v172h799v-150l-547 -688q109 4 197 4h368v-172z" />
    <glyph glyph-name="braceleft" unicode="{" horiz-adv-x="811" 
d="M276 1141q0 186 69 266t251 80h100v-174h-75q-78 0 -101 -39t-22 -133v-338q0 -119 -42 -179t-134 -83v-4q90 -23 133 -82t43 -181v-337q0 -96 22 -135q23 -38 101 -38h75v-174h-125q-168 0 -231 85t-64 262v317q0 115 -35 157q-36 42 -132 46v164q96 4 132 46t35 156
v318z" />
    <glyph glyph-name="bar" unicode="|" horiz-adv-x="555" 
d="M365 -487h-175v2207h175v-2207z" />
    <glyph glyph-name="braceright" unicode="}" horiz-adv-x="811" 
d="M535 -63q0 -187 -70 -267t-250 -80h-100v174h75q78 0 101 38t22 135v337q0 120 42 180t134 83v4q-92 21 -134 81t-42 181v338q0 94 -22 133q-23 39 -101 39h-75v174h125q166 0 230 -85t65 -261v-318q1 -115 35 -157t132 -45v-164q-98 -2 -133 -45t-34 -158v-317z" />
    <glyph glyph-name="asciitilde" unicode="~" horiz-adv-x="1318" 
d="M137 426q128 250 291 250q88 0 146 -26t188 -109q57 -37 119 -37q84 0 168 155l131 -71q-125 -250 -306 -250q-72 0 -130 26t-187 109q-57 37 -111 37t-91 -34q-38 -34 -87 -122z" />
    <glyph glyph-name="nbspace" unicode="&#xa0;" horiz-adv-x="614" 
 />
    <glyph glyph-name="exclamdown" unicode="&#xa1;" horiz-adv-x="747" 
d="M244 1454h260v-252h-260v252zM256 0q8 619 39 950l10 121h135q47 -408 56 -1071h-240z" />
    <glyph glyph-name="cent" unicode="&#xa2;" 
d="M383 504q0 -152 49 -240t135 -108v692q-184 -49 -184 -344zM676 -156h-109v131q-186 17 -298 161q-111 144 -111 366t110 364q111 141 299 162v133h109v-133q158 -12 247 -103t107 -220q-59 -8 -207 -27q-20 145 -147 172v-696q135 24 155 200q133 -16 211 -22
q-55 -328 -366 -357v-131z" />
    <glyph glyph-name="sterling" unicode="&#xa3;" 
d="M461 1071q0 -88 18 -190h332v-146h-305q25 -164 24 -248q0 -236 -133 -311q147 4 254 4h414v-180h-930v176q100 16 137 90t37 188t-33 281h-161v146h133q-16 78 -17 184q0 190 114 306t326 116q212 -1 311 -101t99 -266q0 -27 -8 -84l-205 -20q6 37 6 76q0 213 -200 213
q-213 -1 -213 -234z" />
    <glyph glyph-name="currency" unicode="&#xa4;" horiz-adv-x="1183" 
d="M322 678q0 -117 76 -196t194 -79q116 0 194 79t78 196q0 118 -78 196t-194 78t-194 -78q-76 -78 -76 -196zM592 1133q141 0 258 -78q18 20 41 42q23 21 51 49l41 42l119 -123l-129 -129q78 -117 78 -259t-80 -255l131 -133l-121 -121l-131 133q-117 -78 -258 -78t-254 78
q-18 -20 -42 -43q-24 -22 -52 -50l-39 -40l-123 121l135 133q-82 106 -82 250t78 262l-41 41q-26 27 -48 49t-42 41l123 123l133 -133q113 78 254 78z" />
    <glyph glyph-name="yen" unicode="&#xa5;" 
d="M158 637v149h250l-377 668h278l287 -536l287 536h266l-371 -668h252v-149h-317v-131h317v-150h-317v-356h-236v356h-319v150h319v131h-319z" />
    <glyph glyph-name="brokenbar" unicode="&#xa6;" horiz-adv-x="583" 
d="M379 -383h-174v811h174v-811zM379 907h-174v813h174v-813z" />
    <glyph glyph-name="section" unicode="&#xa7;" horiz-adv-x="1200" 
d="M365 997q48 0 77 -12q-135 129 -135 248t82 187t220 67q138 0 217 -67t79 -177q0 -35 -6 -59l-178 -15q4 23 4 64t-30 70t-80 29t-84 -28q-33 -26 -33 -70t22 -79t82 -90l275 -260q221 -206 221 -384q1 -225 -178 -288q-41 -14 -89 -14t-77 12q137 -129 137 -247
t-83 -186t-221 -67q-138 0 -217 67t-79 177q0 4 6 59l178 15q-4 -23 -4 -53q0 -109 112 -109t111 96q0 63 -57 120q-21 22 -78 79l-240 229q-221 211 -221 385q0 226 178 287q40 14 89 14zM756 256q72 0 110 41t39 105q0 64 -43 133q-43 68 -139 159q-178 166 -283 166
q-72 0 -110 -41t-39 -105q0 -64 43 -132t139 -160q178 -166 283 -166z" />
    <glyph glyph-name="dieresis" unicode="&#xa8;" horiz-adv-x="460" 
d="M143 1192h-217v240h217v-240zM535 1192h-218v240h218v-240z" />
    <glyph glyph-name="copyright" unicode="&#xa9;" horiz-adv-x="1761" 
d="M881 1485q323 0 543 -220q220 -221 220 -539t-220 -538q-222 -220 -544 -219q-322 -1 -542 219q-221 220 -221 538t221 538t543 221zM244 727q0 -271 184 -457t452 -186t453 186t185 456t-184 458q-184 186 -453 186q-268 0 -453 -186q-184 -187 -184 -457zM868 256
q-178 0 -288 133t-111 344q0 211 114 345t284 134q171 0 261 -90t101 -213l-148 -20q-27 190 -204 190q-111 0 -182 -90t-71 -255t72 -256q70 -91 181 -91q184 0 213 195l151 -15q-16 -127 -105 -219q-90 -92 -268 -92z" />
    <glyph glyph-name="ordfeminine" unicode="&#xaa;" horiz-adv-x="815" 
d="M227 926q0 -41 25 -66q25 -24 76 -24q52 0 110 36t97 109v127q-18 -18 -44 -26q-27 -8 -89 -25q-62 -18 -87 -27q-88 -31 -88 -104zM297 705q-100 0 -164 57q-63 57 -63 160q0 164 202 217l211 49q33 8 42 19t10 34v19q-1 98 -143 98t-142 -115l-156 10q0 97 80 161
t223 64t216 -60t73 -156v-322q0 -61 16 -87t66 -34l-14 -108q-182 0 -209 129q-88 -135 -248 -135z" />
    <glyph glyph-name="guillemotleft" unicode="&#xab;" horiz-adv-x="1032" 
d="M913 848l-237 -332l237 -334l-116 -80l-312 414l312 412zM289 516l235 -334l-114 -80l-314 414l314 412l114 -80z" />
    <glyph glyph-name="logicalnot" unicode="&#xac;" 
d="M1098 297h-187v315h-833v181h1020v-496z" />
    <glyph glyph-name="uni00AD" unicode="&#xad;" horiz-adv-x="923" 
d="M768 494h-612v188h612v-188z" />
    <glyph glyph-name="registered" unicode="&#xae;" horiz-adv-x="1761" 
d="M881 1485q323 0 543 -220q220 -221 220 -539t-220 -538q-222 -220 -544 -219q-322 -1 -542 219q-221 220 -221 538t221 538t543 221zM244 727q0 -271 184 -457t452 -186t453 186t185 456t-184 458q-184 186 -453 186q-268 0 -453 -186q-184 -187 -184 -457zM1087 924
q0 66 -44 102t-121 37h-168v-279h161q172 1 172 140zM1241 934q0 -195 -170 -256l166 -408h-168l-137 381h-178v-381h-148v926h322q133 0 223 -72t90 -190z" />
    <glyph glyph-name="macron" unicode="&#xaf;" horiz-adv-x="493" 
d="M526 1233h-559v143h559v-143z" />
    <glyph glyph-name="degree" unicode="&#xb0;" horiz-adv-x="854" 
d="M252 1137q0 -72 51 -124t123 -52t124 52t52 124t-52 123t-124 51t-123 -51t-51 -123zM111 1137q0 131 92 223t223 92t224 -92t93 -224t-93 -224t-224 -93t-223 93t-92 225z" />
    <glyph glyph-name="plusminus" unicode="&#xb1;" 
d="M104 166h971v-166h-971v166zM1075 535h-401v-297h-168v297h-402v165h402v299h168v-299h401v-165z" />
    <glyph glyph-name="twosuperior" unicode="&#xb2;" horiz-adv-x="819" 
d="M416 1436q120 0 194 -62t74 -148t-25 -141q-52 -115 -321 -276q78 4 119 4h221v-139h-543v141q293 192 360 292q24 36 26 54q3 18 3 53t-28 62q-29 27 -81 27t-88 -33t-36 -103l-158 13q0 116 81 186t202 70z" />
    <glyph glyph-name="threesuperior" unicode="&#xb3;" horiz-adv-x="851" 
d="M705 897q0 -104 -80 -170q-80 -65 -205 -65t-202 56t-85 161l160 18q10 -106 129 -106q53 1 88 29t35 79q0 119 -164 119h-55v108h55q139 0 139 101q0 35 -31 57t-73 23q-102 0 -113 -93l-158 15q6 94 84 150q78 57 192 57q113 0 187 -58t74 -130q0 -134 -129 -163v-6
q66 -18 109 -63t43 -119z" />
    <glyph glyph-name="acute" unicode="&#xb4;" horiz-adv-x="493" 
d="M543 1327l-484 -201l-49 95l447 286z" />
    <glyph glyph-name="mu" unicode="&#xb5;" horiz-adv-x="1198" 
d="M397 -410h-217v1416h219v-623q0 -119 44 -172q43 -53 139 -53t155 66t60 206v576h219v-691q0 -147 10 -315h-211l-8 135h-4q-74 -162 -246 -162q-45 -1 -90 19t-68 51h-4l2 -168v-285z" />
    <glyph glyph-name="paragraph" unicode="&#xb6;" horiz-adv-x="1361" 
d="M115 1018q0 192 130 312t324 120h582v-1743h-174v1602h-232v-1602h-174l-2 879q-195 0 -325 120t-129 312z" />
    <glyph glyph-name="periodcentered" unicode="&#xb7;" horiz-adv-x="565" 
d="M391 414h-248v254h248v-254z" />
    <glyph glyph-name="cedilla" unicode="&#xb8;" horiz-adv-x="487" 
d="M444 -238q0 -170 -219 -170q-106 0 -186 50l35 79q66 -39 120 -39q97 1 97 67q0 65 -68 65q-41 0 -69 -27l-54 43l99 170h88l-74 -117l2 -2q33 15 86 15t98 -36t45 -98z" />
    <glyph glyph-name="onesuperior" unicode="&#xb9;" horiz-adv-x="755" 
d="M561 1423v-749h-162v545q-76 -74 -202 -175l-91 115q185 143 308 264h147z" />
    <glyph glyph-name="ordmasculine" unicode="&#xba;" horiz-adv-x="819" 
d="M217 1092q0 -128 51 -192q52 -64 138 -64t136 63t50 193t-50 194t-136 64t-138 -64t-51 -194zM748 1093q0 -179 -96 -281t-248 -103q-152 0 -247 102q-95 101 -95 281t94 282q96 102 249 102t248 -102t95 -281z" />
    <glyph glyph-name="guillemotright" unicode="&#xbb;" horiz-adv-x="1032" 
d="M346 516l-237 332l116 80l312 -412l-312 -414l-116 80zM498 182q185 260 235 334l-235 332l114 80l314 -412l-314 -414z" />
    <glyph glyph-name="onequarter" unicode="&#xbc;" horiz-adv-x="1773" 
d="M1368 1430q-594 -1004 -889 -1506l-121 68l893 1507zM1292 283v166q0 55 2 100h-4q-18 -37 -67 -107l-111 -159h180zM1556 160h-110v-160h-154v160h-323v110l331 480h146v-467h110v-123zM555 1423v-749h-164v547q-82 -78 -196 -170q-29 37 -91 110q165 129 302 262h149z
" />
    <glyph glyph-name="onehalf" unicode="&#xbd;" horiz-adv-x="1744" 
d="M1343 1430q-594 -1004 -888 -1506l-121 68l893 1507zM555 1423v-749h-162v545q-78 -76 -194 -168l-93 114q175 137 300 258h149zM1313 762q121 0 195 -62t73 -160q0 -100 -72 -192t-274 -213q78 4 119 4h221v-139h-543v141q160 102 291 215q90 82 95 129q3 19 3 53
q1 34 -29 62t-81 29q-51 0 -87 -33t-36 -102l-158 12q0 116 81 186t202 70z" />
    <glyph glyph-name="threequarters" unicode="&#xbe;" horiz-adv-x="1751" 
d="M1438 1430q-594 -1004 -889 -1506l-121 68l893 1507zM1362 283v166q0 55 2 100h-4q-18 -37 -68 -107l-110 -159h180zM1632 160h-110v-160h-160v160h-324v110l332 480h152v-467h110v-123zM723 897q0 -104 -80 -170q-80 -65 -205 -65q-124 0 -202 56t-86 161l159 18
q10 -106 131 -106q51 1 86 29t35 79q0 119 -162 119h-57v108h57q139 0 140 99q0 31 -32 55t-77 25q-45 0 -76 -24t-32 -67l-160 15q8 94 86 150q78 57 190 57t187 -58q74 -58 73 -141q0 -121 -127 -152v-6q66 -18 109 -63t43 -119z" />
    <glyph glyph-name="questiondown" unicode="&#xbf;" horiz-adv-x="1085" 
d="M418 1454h248v-254h-248v254zM525 -33q-195 1 -309 109t-114 270t92 263t244 136v312h209v-428q-159 -14 -239 -88q-80 -75 -80 -177t53 -158t148 -56t149 59q53 59 55 166l217 -25q0 -166 -114 -274t-311 -109z" />
    <glyph glyph-name="Agrave" unicode="&#xc0;" horiz-adv-x="1263" 
d="M844 1567l-484 200l89 181l444 -287zM807 489l-105 388q-61 225 -73 290h-4q-14 -82 -72 -293l-109 -385h363zM1204 0h-262l-80 291h-473l-82 -291h-250l457 1454h231z" />
    <glyph glyph-name="Aacute" unicode="&#xc1;" horiz-adv-x="1263" 
d="M893 1767l-483 -200l-50 94l447 287zM807 489l-105 388q-61 225 -73 290h-4q-14 -82 -72 -293l-109 -385h363zM1204 0h-262l-80 291h-473l-82 -291h-250l457 1454h231z" />
    <glyph glyph-name="Acircumflex" unicode="&#xc2;" horiz-adv-x="1263" 
d="M627 1743l-246 -174l-84 96l330 277l327 -275l-82 -98zM807 489l-105 388q-61 225 -73 290h-4q-14 -82 -72 -293l-109 -385h363zM1204 0h-262l-80 291h-473l-82 -291h-250l457 1454h231z" />
    <glyph glyph-name="Atilde" unicode="&#xc3;" horiz-adv-x="1263" 
d="M506 1700q-74 0 -74 -84h-131q0 102 57 171q58 69 138 69t145 -48q65 -47 101 -47t57 23q20 23 20 61h131q0 -102 -57 -170q-57 -67 -143 -67t-144 46q-59 46 -100 46zM807 489l-105 388q-61 225 -73 290h-4q-14 -82 -72 -293l-109 -385h363zM1204 0h-262l-80 291h-473
l-82 -291h-250l457 1454h231z" />
    <glyph glyph-name="Adieresis" unicode="&#xc4;" horiz-adv-x="1263" 
d="M543 1632h-217v240h217v-240zM934 1632h-217v240h217v-240zM807 489l-105 388q-61 225 -73 290h-4q-14 -82 -72 -293l-109 -385h363zM1204 0h-262l-80 291h-473l-82 -291h-250l457 1454h231z" />
    <glyph glyph-name="Aring" unicode="&#xc5;" horiz-adv-x="1263" 
d="M412 1745q0 90 63 152q63 63 153 63t154 -62t64 -153q0 -90 -64 -155q-64 -64 -153 -64q-90 0 -154 64q-63 65 -63 155zM516 1745q0 -45 33 -79t79 -34t79 33t33 79t-32 79t-79 33t-80 -34q-33 -32 -33 -77zM807 489l-105 388q-61 225 -73 290h-4q-14 -82 -72 -293
l-109 -385h363zM1204 0h-262l-80 291h-473l-82 -291h-250l457 1454h231z" />
    <glyph glyph-name="AE" unicode="&#xc6;" horiz-adv-x="1677" 
d="M784 496v579h-6q-16 -41 -46 -109t-204 -470h256zM1583 1454v-203h-565v-405h452v-195h-452v-450h565v-201h-799v303h-340l-135 -303h-262l680 1454h856z" />
    <glyph glyph-name="Ccedilla" unicode="&#xc7;" horiz-adv-x="1269" 
d="M127 731q0 348 139 552t410 204q217 0 336 -124t137 -310l-231 -41q-29 270 -244 270q-301 0 -301 -555t297 -555q236 0 256 315l235 -32q-17 -201 -123 -335t-323 -149l-66 -104l2 -2q33 14 86 14t99 -36q46 -37 45 -109q1 -72 -57 -116t-163 -44t-186 49l35 82
q58 -39 116 -39q103 0 101 66q0 66 -68 65q-37 0 -69 -26l-53 43l90 155q-244 14 -372 214t-128 548z" />
    <glyph glyph-name="Egrave" unicode="&#xc8;" horiz-adv-x="1153" 
d="M850 1567l-483 200l88 181l444 -287zM1059 0h-858v1454h858v-205h-615v-403h500v-197h-500v-446h615v-203z" />
    <glyph glyph-name="Eacute" unicode="&#xc9;" horiz-adv-x="1153" 
d="M895 1767l-483 -200l-50 94l447 287zM1059 0h-858v1454h858v-205h-615v-403h500v-197h-500v-446h615v-203z" />
    <glyph glyph-name="Ecircumflex" unicode="&#xca;" horiz-adv-x="1153" 
d="M633 1743l-246 -174l-84 96l330 277l328 -275l-82 -98zM1059 0h-858v1454h858v-205h-615v-403h500v-197h-500v-446h615v-203z" />
    <glyph glyph-name="Edieresis" unicode="&#xcb;" horiz-adv-x="1153" 
d="M541 1632h-217v240h217v-240zM932 1632h-217v240h217v-240zM1059 0h-858v1454h858v-205h-615v-403h500v-197h-500v-446h615v-203z" />
    <glyph glyph-name="Igrave" unicode="&#xcc;" horiz-adv-x="653" 
d="M539 1567l-484 200l88 181l445 -287zM449 0h-244v1454h244v-1454z" />
    <glyph glyph-name="Iacute" unicode="&#xcd;" horiz-adv-x="653" 
d="M598 1767l-483 -200l-49 94l446 287zM449 0h-244v1454h244v-1454z" />
    <glyph glyph-name="Icircumflex" unicode="&#xce;" horiz-adv-x="653" 
d="M326 1745l-246 -174l-84 96l330 277l327 -275l-82 -98zM449 0h-244v1454h244v-1454z" />
    <glyph glyph-name="Idieresis" unicode="&#xcf;" horiz-adv-x="653" 
d="M240 1632h-217v240h217v-240zM631 1632h-217v240h217v-240zM449 0h-244v1454h244v-1454z" />
    <glyph glyph-name="Eth" unicode="&#xd0;" horiz-adv-x="1345" 
d="M639 197q332 0 332 529t-346 529h-183v-440h263v-178h-263v-440h197zM1219 741q0 -741 -588 -741h-430v637h-162v178h162v639h444q434 0 543 -446q31 -124 31 -267z" />
    <glyph glyph-name="Ntilde" unicode="&#xd1;" horiz-adv-x="1396" 
d="M582 1700q-74 0 -74 -84h-131q0 102 57 171q58 69 138 69t145 -48q65 -47 101 -47t56 23t21 61h131q0 -102 -57 -170q-57 -67 -143 -67t-144 46q-59 46 -100 46zM952 1454h244v-1454h-295l-346 766q-51 111 -115 293h-4q6 -172 6 -330v-729h-241v1454h299l342 -768
q63 -143 112 -293h4l-6 328v733z" />
    <glyph glyph-name="Ograve" unicode="&#xd2;" horiz-adv-x="1349" 
d="M897 1567l-483 200l88 181l444 -287zM975 727q0 555 -301 555t-301 -555t301 -555t301 555zM674 1487q266 0 408 -200t141 -559q1 -359 -141 -560t-408 -201t-407 200q-140 200 -140 560t140 560q141 200 407 200z" />
    <glyph glyph-name="Oacute" unicode="&#xd3;" horiz-adv-x="1349" 
d="M930 1767l-484 -200l-49 94l447 287zM975 727q0 555 -301 555t-301 -555t301 -555t301 555zM674 1487q266 0 408 -200t141 -559q1 -359 -141 -560t-408 -201t-407 200q-140 200 -140 560t140 560q141 200 407 200z" />
    <glyph glyph-name="Ocircumflex" unicode="&#xd4;" horiz-adv-x="1349" 
d="M674 1745l-246 -174l-84 96l330 277l327 -275l-81 -98zM975 727q0 555 -301 555t-301 -555t301 -555t301 555zM674 1487q266 0 408 -200t141 -559q1 -359 -141 -560t-408 -201t-407 200q-140 200 -140 560t140 560q141 200 407 200z" />
    <glyph glyph-name="Otilde" unicode="&#xd5;" horiz-adv-x="1349" 
d="M555 1700q-74 0 -74 -84h-131q0 102 58 171t137 69q80 0 145 -48q66 -47 102 -47t56 23t20 61h131q0 -102 -57 -170q-57 -67 -142 -67q-84 0 -144 46t-101 46zM975 727q0 555 -301 555t-301 -555t301 -555t301 555zM674 1487q266 0 408 -200t141 -559q1 -359 -141 -560
t-408 -201t-407 200q-140 200 -140 560t140 560q141 200 407 200z" />
    <glyph glyph-name="Odieresis" unicode="&#xd6;" horiz-adv-x="1349" 
d="M588 1632h-217v240h217v-240zM979 1632h-217v240h217v-240zM975 727q0 555 -301 555t-301 -555t301 -555t301 555zM674 1487q266 0 408 -200t141 -559q1 -359 -141 -560t-408 -201t-407 200q-140 200 -140 560t140 560q141 200 407 200z" />
    <glyph glyph-name="multiply" unicode="&#xd7;" 
d="M907 88l-319 320l-322 -320l-116 117l319 321l-319 320l116 119l322 -322l319 322l119 -119l-321 -320l321 -321z" />
    <glyph glyph-name="Oslash" unicode="&#xd8;" horiz-adv-x="1349" 
d="M975 727q0 158 -27 279l-506 -684q74 -152 232 -152q301 0 301 557zM373 727q0 -158 26 -276l506 684q-74 150 -231 149q-301 0 -301 -557zM1223 706q1 -337 -141 -538t-408 -201q-236 0 -375 162l-86 -117l-90 64l108 149q-104 188 -104 525t140 537t407 200
q236 0 373 -160l90 121l90 -66l-113 -151q109 -188 109 -525z" />
    <glyph glyph-name="Ugrave" unicode="&#xd9;" horiz-adv-x="1353" 
d="M901 1567l-483 200l88 181l444 -287zM1159 453q0 -225 -125 -355t-357 -131q-231 0 -357 129t-125 357v1001h243v-991q0 -149 56 -221t182 -72t186 78q51 63 51 215v991h246v-1001z" />
    <glyph glyph-name="Uacute" unicode="&#xda;" horiz-adv-x="1353" 
d="M938 1767l-483 -200l-49 94l446 287zM1159 453q0 -225 -125 -355t-357 -131q-231 0 -357 129t-125 357v1001h243v-991q0 -149 56 -221t182 -72t186 78q51 63 51 215v991h246v-1001z" />
    <glyph glyph-name="Ucircumflex" unicode="&#xdb;" horiz-adv-x="1353" 
d="M678 1741l-246 -174l-84 96l330 276l328 -274l-82 -98zM1159 453q0 -225 -125 -355t-357 -131q-231 0 -357 129t-125 357v1001h243v-991q0 -149 56 -221t182 -72t186 78q51 63 51 215v991h246v-1001z" />
    <glyph glyph-name="Udieresis" unicode="&#xdc;" horiz-adv-x="1353" 
d="M590 1632h-217v240h217v-240zM981 1632h-217v240h217v-240zM1159 453q0 -225 -125 -355t-357 -131q-231 0 -357 129t-125 357v1001h243v-991q0 -149 56 -221t182 -72t186 78q51 63 51 215v991h246v-1001z" />
    <glyph glyph-name="Yacute" unicode="&#xdd;" horiz-adv-x="1204" 
d="M881 1767l-484 -200l-49 94l447 287zM729 0h-244v608l-450 846h284l289 -580l289 580h272l-440 -846v-608z" />
    <glyph glyph-name="Thorn" unicode="&#xde;" horiz-adv-x="1251" 
d="M922 811q0 109 -65 175t-189 65h-224v-478h213q265 0 265 238zM680 1245q223 1 356 -117t133 -315t-126 -315t-363 -119h-236v-379h-243v1454h243v-209h236z" />
    <glyph glyph-name="germandbls" unicode="&#xdf;" horiz-adv-x="1253" 
d="M184 0v1083q0 178 113 291t319 113t322 -99q115 -99 115 -260q0 -114 -68 -198t-174 -101v-4q131 -25 213 -124t82 -248q0 -231 -112 -355t-326 -123q-88 0 -156 25q10 53 35 164q37 -14 94 -14q240 0 240 294q0 142 -76 218t-213 75h-49v162h49q123 0 179 57
q56 56 56 150t-52 149q-51 55 -153 55t-160 -60t-59 -175v-1075h-219z" />
    <glyph glyph-name="agrave" unicode="&#xe0;" horiz-adv-x="1138" 
d="M774 1126l-483 201l88 180l444 -286zM342 274q0 -63 37 -99t100 -36q144 1 242 185v200q-20 -20 -76 -39l-164 -51q-139 -49 -139 -160zM117 255q0 130 73 204q74 74 238 116t213 55t65 28q15 15 15 47v18q0 71 -37 107t-133 36q-180 0 -180 -161l-221 18q2 137 107 222
t294 85q389 0 389 -305v-446q0 -76 24 -107t93 -39l-21 -149q-132 0 -198 39t-93 137q-113 -186 -313 -187q-139 0 -227 76t-88 206z" />
    <glyph glyph-name="aacute" unicode="&#xe1;" horiz-adv-x="1138" 
d="M811 1327l-483 -201l-49 95l446 286zM342 274q0 -63 37 -99t100 -36q144 1 242 185v200q-20 -20 -76 -39l-164 -51q-139 -49 -139 -160zM117 255q0 130 73 204q74 74 238 116t213 55t65 28q15 15 15 47v18q0 71 -37 107t-133 36q-180 0 -180 -161l-221 18q2 137 107 222
t294 85q389 0 389 -305v-446q0 -76 24 -107t93 -39l-21 -149q-132 0 -198 39t-93 137q-113 -186 -313 -187q-139 0 -227 76t-88 206z" />
    <glyph glyph-name="acircumflex" unicode="&#xe2;" horiz-adv-x="1138" 
d="M555 1294l-246 -174l-84 97l330 276l328 -274l-82 -99zM342 274q0 -63 37 -99t100 -36q144 1 242 185v200q-20 -20 -76 -39l-164 -51q-139 -49 -139 -160zM117 255q0 130 73 204q74 74 238 116t213 55t65 28q15 15 15 47v18q0 71 -37 107t-133 36q-180 0 -180 -161
l-221 18q2 137 107 222t294 85q389 0 389 -305v-446q0 -76 24 -107t93 -39l-21 -149q-132 0 -198 39t-93 137q-113 -186 -313 -187q-139 0 -227 76t-88 206z" />
    <glyph glyph-name="atilde" unicode="&#xe3;" horiz-adv-x="1138" 
d="M430 1268q-74 0 -74 -84h-131q-1 102 57 171t138 69t145 -48q65 -47 101 -47t57 23q20 23 20 61h131q0 -102 -57 -170q-57 -67 -142 -67t-145 46t-100 46zM342 274q0 -63 37 -99t100 -36q144 1 242 185v200q-20 -20 -76 -39l-164 -51q-139 -49 -139 -160zM117 255
q0 130 73 204q74 74 238 116t213 55t65 28q15 15 15 47v18q0 71 -37 107t-133 36q-180 0 -180 -161l-221 18q2 137 107 222t294 85q389 0 389 -305v-446q0 -76 24 -107t93 -39l-21 -149q-132 0 -198 39t-93 137q-113 -186 -313 -187q-139 0 -227 76t-88 206z" />
    <glyph glyph-name="adieresis" unicode="&#xe4;" horiz-adv-x="1138" 
d="M461 1192h-217v240h217v-240zM852 1192h-217v240h217v-240zM342 274q0 -63 37 -99t100 -36q144 1 242 185v200q-20 -20 -76 -39l-164 -51q-139 -49 -139 -160zM117 255q0 130 73 204q74 74 238 116t213 55t65 28q15 15 15 47v18q0 71 -37 107t-133 36q-180 0 -180 -161
l-221 18q2 137 107 222t294 85q389 0 389 -305v-446q0 -76 24 -107t93 -39l-21 -149q-132 0 -198 39t-93 137q-113 -186 -313 -187q-139 0 -227 76t-88 206z" />
    <glyph glyph-name="aring" unicode="&#xe5;" horiz-adv-x="1138" 
d="M330 1337q0 91 63 153t153 62t154 -62t64 -152t-64 -156q-64 -64 -153 -64t-153 64t-64 155zM434 1336q0 -46 33 -79t79 -33t79 34q33 32 32 79q0 47 -31 79q-32 32 -79 32t-80 -33t-33 -79zM342 274q0 -63 37 -99t100 -36q144 1 242 185v200q-20 -20 -76 -39l-164 -51
q-139 -49 -139 -160zM117 255q0 130 73 204q74 74 238 116t213 55t65 28q15 15 15 47v18q0 71 -37 107t-133 36q-180 0 -180 -161l-221 18q2 137 107 222t294 85q389 0 389 -305v-446q0 -76 24 -107t93 -39l-21 -149q-132 0 -198 39t-93 137q-113 -186 -313 -187
q-139 0 -227 76t-88 206z" />
    <glyph glyph-name="ae" unicode="&#xe6;" horiz-adv-x="1703" 
d="M573 436q-239 0 -239 -139q0 -75 45 -113t119 -39q74 0 136 46t101 122v123h-162zM1163 864q-95 0 -153 -74t-62 -200h428q-6 274 -213 274zM1171 -27q-254 0 -358 211q-45 -94 -143 -152t-228 -58t-228 83q-97 84 -97 236q-1 153 117 225t305 72h196v131q0 145 -179 145
t-179 -161l-215 16q0 139 101 224t308 85t303 -125q118 125 306 125t302 -132t113 -359q0 -55 -6 -105h-641q0 -137 60 -214t168 -77q157 0 198 164l195 -28q-29 -127 -127 -217t-271 -89z" />
    <glyph glyph-name="ccedilla" unicode="&#xe7;" horiz-adv-x="1083" 
d="M115 512q0 232 125 374q125 144 320 144q194 0 294 -93t121 -232q-59 -8 -207 -27q-25 178 -193 178q-113 0 -174 -91t-61 -265t62 -262t164 -88t152 51q48 51 58 151l211 -20q-57 -344 -391 -359q-10 -14 -28 -44t-29 -44l2 -2q33 15 86 15t98 -36t45 -109t-57 -117
t-163 -44t-185 50l34 82q59 -39 117 -39q102 0 100 65q0 66 -67 66q-37 0 -70 -27l-53 43q47 78 84 145q-184 19 -290 161t-105 374z" />
    <glyph glyph-name="egrave" unicode="&#xe8;" horiz-adv-x="1114" 
d="M780 1126l-483 201l88 180l444 -286zM566 858q-102 0 -160 -74q-60 -74 -64 -194h438q-2 128 -57 198t-157 70zM573 -27q-219 -1 -339 143t-120 387t125 385t325 142t320 -134t120 -359q0 -43 -5 -105h-659q12 -287 235 -287q160 0 201 162l199 -31q-29 -123 -128 -213
t-274 -90z" />
    <glyph glyph-name="eacute" unicode="&#xe9;" horiz-adv-x="1114" 
d="M825 1327l-483 -201l-49 95l446 286zM566 858q-102 0 -160 -74q-60 -74 -64 -194h438q-2 128 -57 198t-157 70zM573 -27q-219 -1 -339 143t-120 387t125 385t325 142t320 -134t120 -359q0 -43 -5 -105h-659q12 -287 235 -287q160 0 201 162l199 -31q-29 -123 -128 -213
t-274 -90z" />
    <glyph glyph-name="ecircumflex" unicode="&#xea;" horiz-adv-x="1114" 
d="M563 1294l-246 -174l-84 97l330 276l328 -274l-82 -99zM566 858q-102 0 -160 -74q-60 -74 -64 -194h438q-2 128 -57 198t-157 70zM573 -27q-219 -1 -339 143t-120 387t125 385t325 142t320 -134t120 -359q0 -43 -5 -105h-659q12 -287 235 -287q160 0 201 162l199 -31
q-29 -123 -128 -213t-274 -90z" />
    <glyph glyph-name="edieresis" unicode="&#xeb;" horiz-adv-x="1114" 
d="M475 1192h-217v240h217v-240zM866 1192h-217v240h217v-240zM566 858q-102 0 -160 -74q-60 -74 -64 -194h438q-2 128 -57 198t-157 70zM573 -27q-219 -1 -339 143t-120 387t125 385t325 142t320 -134t120 -359q0 -43 -5 -105h-659q12 -287 235 -287q160 0 201 162l199 -31
q-29 -123 -128 -213t-274 -90z" />
    <glyph glyph-name="igrave" unicode="&#xec;" horiz-adv-x="583" 
d="M401 0h-219v1006h219v-1006zM508 1126l-483 201l88 180l444 -286z" />
    <glyph glyph-name="iacute" unicode="&#xed;" horiz-adv-x="583" 
d="M401 0h-219v1006h219v-1006zM557 1327l-483 -201l-49 95l446 286z" />
    <glyph glyph-name="icircumflex" unicode="&#xee;" horiz-adv-x="583" 
d="M291 1294l-246 -174l-84 97l330 276l327 -274l-81 -99zM401 0h-219v1006h219v-1006z" />
    <glyph glyph-name="idieresis" unicode="&#xef;" horiz-adv-x="583" 
d="M401 0h-219v1006h219v-1006zM205 1192h-217v240h217v-240zM596 1192h-217v240h217v-240z" />
    <glyph glyph-name="eth" unicode="&#xf0;" horiz-adv-x="1228" 
d="M825 467q0 131 -63 217t-173 86t-173 -81q-64 -81 -64 -225t66 -226q66 -80 176 -80t171 89q60 89 60 220zM1063 600q0 -281 -116 -455t-345 -174q-229 1 -349 143t-120 351t116 344t301 135t277 -129h2l2 2q-37 221 -192 371l-268 -137l-58 114q140 68 211 107
q-84 51 -188 94l59 143q172 -51 305 -147l246 127l58 -115q-35 -16 -101 -50t-98 -50q123 -113 191 -288t67 -386z" />
    <glyph glyph-name="ntilde" unicode="&#xf1;" horiz-adv-x="1187" 
d="M483 1268q-74 0 -73 -84h-131q0 102 57 171t137 69q79 0 145 -48q66 -47 102 -47t56 23t21 61h131q0 -102 -58 -170q-58 -67 -142 -67t-144 46t-101 46zM688 1030q164 0 249 -99t85 -278v-653h-219v616q0 229 -180 230q-95 0 -157 -71t-63 -208v-567h-219v686
q0 184 -10 320h211q4 -39 8 -138h4q33 70 110 116t181 46z" />
    <glyph glyph-name="ograve" unicode="&#xf2;" horiz-adv-x="1148" 
d="M801 1126l-484 201l89 180l444 -286zM805 502q1 174 -59 264t-173 90t-172 -90t-59 -264t59 -264t172 -90t173 90t59 264zM1032 502q0 -246 -126 -387t-332 -141t-332 140q-126 142 -125 388q0 246 126 387q125 141 331 141t332 -141t126 -387z" />
    <glyph glyph-name="oacute" unicode="&#xf3;" horiz-adv-x="1148" 
d="M831 1327l-483 -201l-49 95l446 286zM805 502q1 174 -59 264t-173 90t-172 -90t-59 -264t59 -264t172 -90t173 90t59 264zM1032 502q0 -246 -126 -387t-332 -141t-332 140q-126 142 -125 388q0 246 126 387q125 141 331 141t332 -141t126 -387z" />
    <glyph glyph-name="ocircumflex" unicode="&#xf4;" horiz-adv-x="1148" 
d="M573 1294l-245 -174l-84 97l329 276l328 -274l-82 -99zM805 502q1 174 -59 264t-173 90t-172 -90t-59 -264t59 -264t172 -90t173 90t59 264zM1032 502q0 -246 -126 -387t-332 -141t-332 140q-126 142 -125 388q0 246 126 387q125 141 331 141t332 -141t126 -387z" />
    <glyph glyph-name="otilde" unicode="&#xf5;" horiz-adv-x="1148" 
d="M455 1268q-74 0 -74 -84h-131q0 102 57 171t137 69t146 -48q65 -47 101 -47t57 23q20 23 20 61h131q0 -102 -57 -170q-56 -67 -142 -67t-145 46t-100 46zM805 502q1 174 -59 264t-173 90t-172 -90t-59 -264t59 -264t172 -90t173 90t59 264zM1032 502q0 -246 -126 -387
t-332 -141t-332 140q-126 142 -125 388q0 246 126 387q125 141 331 141t332 -141t126 -387z" />
    <glyph glyph-name="odieresis" unicode="&#xf6;" horiz-adv-x="1148" 
d="M489 1192h-217v240h217v-240zM881 1192h-217v240h217v-240zM805 502q1 174 -59 264t-173 90t-172 -90t-59 -264t59 -264t172 -90t173 90t59 264zM1032 502q0 -246 -126 -387t-332 -141t-332 140q-126 142 -125 388q0 246 126 387q125 141 331 141t332 -141t126 -387z" />
    <glyph glyph-name="divide" unicode="&#xf7;" 
d="M713 35h-248v254h248v-254zM713 766h-248v254h248v-254zM1075 442h-971v166h971v-166z" />
    <glyph glyph-name="oslash" unicode="&#xf8;" horiz-adv-x="1148" 
d="M805 502q0 90 -21 168l-350 -473q56 -49 154 -49t158 90t59 264zM342 528q0 -148 33 -235l360 487q-59 76 -167 76t-167 -90t-59 -238zM1032 490q0 -234 -126 -375t-333 -142q-143 0 -251 70l-117 -156l-84 60l123 166q-127 139 -127 387t126 389t330 141q164 0 279 -92
l92 123l84 -62l-102 -135q106 -140 106 -374z" />
    <glyph glyph-name="ugrave" unicode="&#xf9;" horiz-adv-x="1191" 
d="M817 1126l-483 201l88 180l444 -286zM172 346v660h219v-621q0 -227 178 -227q96 0 158 69q61 70 61 213v566h220v-689q0 -150 10 -317h-211q-4 31 -8 137h-4q-31 -69 -104 -115t-175 -47q-168 -1 -256 97t-88 274z" />
    <glyph glyph-name="uacute" unicode="&#xfa;" horiz-adv-x="1191" 
d="M846 1327l-484 -201l-49 95l447 286zM172 346v660h219v-621q0 -227 178 -227q96 0 158 69q61 70 61 213v566h220v-689q0 -150 10 -317h-211q-4 31 -8 137h-4q-31 -69 -104 -115t-175 -47q-168 -1 -256 97t-88 274z" />
    <glyph glyph-name="ucircumflex" unicode="&#xfb;" horiz-adv-x="1191" 
d="M586 1294l-246 -174l-84 97l330 276l327 -274l-82 -99zM172 346v660h219v-621q0 -227 178 -227q96 0 158 69q61 70 61 213v566h220v-689q0 -150 10 -317h-211q-4 31 -8 137h-4q-31 -69 -104 -115t-175 -47q-168 -1 -256 97t-88 274z" />
    <glyph glyph-name="udieresis" unicode="&#xfc;" horiz-adv-x="1191" 
d="M500 1192h-217v240h217v-240zM891 1192h-217v240h217v-240zM172 346v660h219v-621q0 -227 178 -227q96 0 158 69q61 70 61 213v566h220v-689q0 -150 10 -317h-211q-4 31 -8 137h-4q-31 -69 -104 -115t-175 -47q-168 -1 -256 97t-88 274z" />
    <glyph glyph-name="yacute" unicode="&#xfd;" horiz-adv-x="1042" 
d="M788 1327l-483 -201l-49 95l446 286zM240 -432q-130 0 -252 74l63 149q99 -49 161 -49t86 24t34 36q10 13 23 44t20 46q6 16 19 56t18 54l-373 1004h242l176 -529q41 -127 61 -213h4q12 72 68 232l166 510h237l-440 -1194q-45 -124 -114 -184t-199 -60z" />
    <glyph glyph-name="thorn" unicode="&#xfe;" horiz-adv-x="1196" 
d="M403 1454v-381q0 -100 -4 -199h4q33 66 107 111t166 45q180 0 293 -143t113 -389t-112 -385t-290 -140q-90 0 -164 43t-113 113h-4q4 -90 4 -168v-371h-219v1864h219zM854 505q0 177 -59 264t-167 87t-168 -91t-60 -264t60 -263t168 -90t166 90q60 90 60 267z" />
    <glyph glyph-name="ydieresis" unicode="&#xff;" horiz-adv-x="1042" 
d="M432 1192h-217v240h217v-240zM823 1192h-217v240h217v-240zM240 -432q-130 0 -252 74l63 149q99 -49 161 -49t86 24t34 36q10 13 23 44t20 46q6 16 19 56t18 54l-373 1004h242l176 -529q41 -127 61 -213h4q12 72 68 232l166 510h237l-440 -1194q-45 -124 -114 -184
t-199 -60z" />
    <glyph glyph-name="Amacron" unicode="&#x100;" horiz-adv-x="1263" 
d="M907 1671h-559v144h559v-144zM807 489l-105 388q-61 225 -73 290h-4q-14 -82 -72 -293l-109 -385h363zM1204 0h-262l-80 291h-473l-82 -291h-250l457 1454h231z" />
    <glyph glyph-name="amacron" unicode="&#x101;" horiz-adv-x="1138" 
d="M840 1233h-559v143h559v-143zM342 274q0 -63 37 -99t100 -36q144 1 242 185v200q-20 -20 -76 -39l-164 -51q-139 -49 -139 -160zM117 255q0 130 73 204q74 74 238 116t213 55t65 28q15 15 15 47v18q0 71 -37 107t-133 36q-180 0 -180 -161l-221 18q2 137 107 222t294 85
q389 0 389 -305v-446q0 -76 24 -107t93 -39l-21 -149q-132 0 -198 39t-93 137q-113 -186 -313 -187q-139 0 -227 76t-88 206z" />
    <glyph glyph-name="Abreve" unicode="&#x102;" horiz-adv-x="1263" 
d="M628 1604q-130 0 -209 66t-83 198h98q27 -127 195 -127t194 127h97q-4 -132 -83 -198t-209 -66zM807 489l-105 388q-61 225 -73 290h-4q-14 -82 -72 -293l-109 -385h363zM1204 0h-262l-80 291h-473l-82 -291h-250l457 1454h231z" />
    <glyph glyph-name="abreve" unicode="&#x103;" horiz-adv-x="1138" 
d="M562 1176q-130 0 -209 66t-83 198h99q27 -127 195 -127t194 127h96q-4 -132 -83 -198t-209 -66zM342 274q0 -63 37 -99t100 -36q144 1 242 185v200q-20 -20 -76 -39l-164 -51q-139 -49 -139 -160zM117 255q0 130 73 204q74 74 238 116t213 55t65 28q15 15 15 47v18
q0 71 -37 107t-133 36q-180 0 -180 -161l-221 18q2 137 107 222t294 85q389 0 389 -305v-446q0 -76 24 -107t93 -39l-21 -149q-132 0 -198 39t-93 137q-113 -186 -313 -187q-139 0 -227 76t-88 206z" />
    <glyph glyph-name="Aogonek" unicode="&#x104;" horiz-adv-x="1263" 
d="M807 489l-105 388q-61 225 -73 290h-4q-14 -82 -72 -293l-109 -385h363zM967 -397q-90 0 -147 39q-56 39 -56 118q0 127 178 240l-80 291h-473l-82 -291h-250l457 1454h231l459 -1454h-135q-147 -102 -147 -209q0 -37 22 -59t55 -23q68 0 111 53l68 -63q-76 -96 -211 -96
z" />
    <glyph glyph-name="aogonek" unicode="&#x105;" horiz-adv-x="1138" 
d="M342 278q0 -66 37 -103q37 -36 100 -36q144 1 242 185v200q-20 -20 -76 -39l-135 -43q-90 -30 -129 -64t-39 -100zM854 -209q0 -37 24 -59t54 -21q67 0 112 53l68 -65q-78 -94 -211 -94q-94 0 -148 39t-55 116q0 133 181 242q-100 35 -134 158q-113 -186 -313 -187
q-139 0 -227 76t-88 219q0 229 307 307l217 56q51 12 66 26q14 14 14 48v18q0 71 -37 107t-133 36q-180 0 -180 -161l-221 18q2 137 107 222t294 85q389 0 389 -305v-446q0 -76 24 -107t93 -39l-21 -149l-55 2q-127 -92 -127 -195z" />
    <glyph glyph-name="Cacute" unicode="&#x106;" horiz-adv-x="1269" 
d="M934 1765l-483 -200l-50 94l447 287zM654 -33q-252 0 -390 201q-137 201 -137 556t139 559t410 204q217 0 336 -124t137 -310l-231 -41q-29 270 -244 270q-301 0 -301 -555t297 -555q236 0 256 315l235 -32q-18 -213 -136 -351q-119 -138 -371 -137z" />
    <glyph glyph-name="cacute" unicode="&#x107;" horiz-adv-x="1083" 
d="M827 1327l-483 -201l-49 95l446 286zM115 504q0 240 125 382q125 144 320 144q194 0 294 -93t121 -232l-207 -27q-25 178 -193 178q-113 0 -174 -91t-61 -265t62 -262t164 -88t152 51q48 51 58 151l211 -20q-57 -358 -422 -359q-207 -1 -329 145t-121 386z" />
    <glyph glyph-name="Ccircumflex" unicode="&#x108;" horiz-adv-x="1269" 
d="M674 1743l-246 -174l-84 96l330 277l327 -275l-81 -98zM654 -33q-252 0 -390 201q-137 201 -137 556t139 559t410 204q217 0 336 -124t137 -310l-231 -41q-29 270 -244 270q-301 0 -301 -555t297 -555q236 0 256 315l235 -32q-18 -213 -136 -351q-119 -138 -371 -137z
" />
    <glyph glyph-name="ccircumflex" unicode="&#x109;" horiz-adv-x="1083" 
d="M578 1294l-246 -174l-84 97l330 276l327 -274l-82 -99zM115 504q0 240 125 382q125 144 320 144q194 0 294 -93t121 -232l-207 -27q-25 178 -193 178q-113 0 -174 -91t-61 -265t62 -262t164 -88t152 51q48 51 58 151l211 -20q-57 -358 -422 -359q-207 -1 -329 145
t-121 386z" />
    <glyph glyph-name="Cdotaccent" unicode="&#x10a;" horiz-adv-x="1269" 
d="M780 1640h-225v242h225v-242zM654 -33q-252 0 -390 201q-137 201 -137 556t139 559t410 204q217 0 336 -124t137 -310l-231 -41q-29 270 -244 270q-301 0 -301 -555t297 -555q236 0 256 315l235 -32q-18 -213 -136 -351q-119 -138 -371 -137z" />
    <glyph glyph-name="cdotaccent" unicode="&#x10b;" horiz-adv-x="1083" 
d="M682 1202h-225v242h225v-242zM115 504q0 240 125 382q125 144 320 144q194 0 294 -93t121 -232l-207 -27q-25 178 -193 178q-113 0 -174 -91t-61 -265t62 -262t164 -88t152 51q48 51 58 151l211 -20q-57 -358 -422 -359q-207 -1 -329 145t-121 386z" />
    <glyph glyph-name="Ccaron" unicode="&#x10c;" horiz-adv-x="1269" 
d="M428 1942l246 -175l246 175l81 -99l-327 -274l-330 276zM654 -33q-252 0 -390 201q-137 201 -137 556t139 559t410 204q217 0 336 -124t137 -310l-231 -41q-29 270 -244 270q-301 0 -301 -555t297 -555q236 0 256 315l235 -32q-18 -213 -136 -351q-119 -138 -371 -137z
" />
    <glyph glyph-name="ccaron" unicode="&#x10d;" horiz-adv-x="1083" 
d="M324 1495l245 -174l246 174l82 -98l-328 -275l-329 277zM115 504q0 240 125 382q125 144 320 144q194 0 294 -93t121 -232l-207 -27q-25 178 -193 178q-113 0 -174 -91t-61 -265t62 -262t164 -88t152 51q48 51 58 151l211 -20q-57 -358 -422 -359q-207 -1 -329 145
t-121 386z" />
    <glyph glyph-name="Dcaron" unicode="&#x10e;" horiz-adv-x="1345" 
d="M408 1942l245 -175l246 175l82 -99l-328 -274l-329 276zM971 727q0 528 -346 528h-183v-1056h197q332 0 332 528zM1219 741q0 -592 -379 -712q-86 -29 -211 -29h-428v1454h442q113 0 199 -31q195 -66 286 -250t91 -432z" />
    <glyph glyph-name="dcaron" unicode="&#x10f;" horiz-adv-x="1454" 
d="M1454 1419l-184 -358l-105 37l103 397zM530 -27q-176 1 -296 139t-120 393t117 390t301 135q86 0 156 -42t105 -114h4q-4 57 -4 164v416h219v-1122q0 -148 10 -332h-209q-8 74 -10 133h-4q-31 -70 -99 -115t-170 -45zM340 500q0 -174 62 -263t172 -89t165 94
q55 96 55 263t-56 259q-58 92 -169 92q-229 0 -229 -356z" />
    <glyph glyph-name="Dcroat" unicode="&#x110;" horiz-adv-x="1353" 
d="M647 197q332 0 332 529t-346 529h-182v-440h262v-178h-262v-440h196zM1227 741q0 -741 -588 -741h-430v637h-162v178h162v639h444q434 0 543 -446q31 -124 31 -267z" />
    <glyph glyph-name="dcroat" unicode="&#x111;" horiz-adv-x="1214" 
d="M340 500q0 -174 62 -263t172 -89t165 94q55 96 55 263t-56 259q-58 92 -169 92q-229 0 -229 -356zM1174 1151h-162v-819q0 -147 10 -332h-209q-8 76 -10 133h-4q-31 -70 -99 -115t-170 -45q-176 1 -296 139t-120 393t117 390t301 135q86 0 156 -42t105 -114h4
q-4 57 -4 164v113h-244v143h244v160h219v-160h162v-143z" />
    <glyph glyph-name="Emacron" unicode="&#x112;" horiz-adv-x="1153" 
d="M913 1671h-559v144h559v-144zM1059 0h-858v1454h858v-205h-615v-403h500v-197h-500v-446h615v-203z" />
    <glyph glyph-name="emacron" unicode="&#x113;" horiz-adv-x="1114" 
d="M846 1233h-559v143h559v-143zM566 858q-102 0 -160 -74q-60 -74 -64 -194h438q-2 128 -57 198t-157 70zM573 -27q-219 -1 -339 143t-120 387t125 385t325 142t320 -134t120 -359q0 -43 -5 -105h-659q12 -287 235 -287q160 0 201 162l199 -31q-29 -123 -128 -213t-274 -90
z" />
    <glyph glyph-name="Ebreve" unicode="&#x114;" horiz-adv-x="1153" 
d="M624 1604q-130 0 -209 66t-83 198h98q27 -127 195 -127t194 127h96q-4 -133 -82 -199q-79 -65 -209 -65zM1059 0h-858v1454h858v-205h-615v-403h500v-197h-500v-446h615v-203z" />
    <glyph glyph-name="ebreve" unicode="&#x115;" horiz-adv-x="1114" 
d="M566 1176q-130 0 -209 66t-83 198h99q27 -127 195 -127t194 127h96q-4 -132 -83 -198t-209 -66zM566 858q-102 0 -160 -74q-60 -74 -64 -194h438q-2 128 -57 198t-157 70zM573 -27q-219 -1 -339 143t-120 387t125 385t325 142t320 -134t120 -359q0 -43 -5 -105h-659
q12 -287 235 -287q160 0 201 162l199 -31q-29 -123 -128 -213t-274 -90z" />
    <glyph glyph-name="Edotaccent" unicode="&#x116;" horiz-adv-x="1153" 
d="M735 1630h-225v242h225v-242zM1059 0h-858v1454h858v-205h-615v-403h500v-197h-500v-446h615v-203z" />
    <glyph glyph-name="edotaccent" unicode="&#x117;" horiz-adv-x="1114" 
d="M680 1202h-225v242h225v-242zM566 858q-102 0 -160 -74q-60 -74 -64 -194h438q-2 128 -57 198t-157 70zM573 -27q-219 -1 -339 143t-120 387t125 385t325 142t320 -134t120 -359q0 -43 -5 -105h-659q12 -287 235 -287q160 0 201 162l199 -31q-29 -123 -128 -213t-274 -90
z" />
    <glyph glyph-name="Eogonek" unicode="&#x118;" horiz-adv-x="1153" 
d="M956 -397q-90 0 -146 39t-56 118q0 127 178 240h-731v1454h858v-205h-615v-403h500v-197h-500v-446h615v-203q-147 -102 -148 -209q0 -37 23 -59t55 -23q68 0 111 53l67 -63q-76 -96 -211 -96z" />
    <glyph glyph-name="eogonek" unicode="&#x119;" horiz-adv-x="1114" 
d="M566 858q-102 0 -160 -74q-60 -74 -64 -194h438q-2 128 -57 198t-157 70zM653 -289q68 0 113 53l68 -65q-78 -96 -213 -96q-90 0 -146 39q-55 39 -55 118q0 117 137 215q-209 -1 -326 145t-116 386q0 240 124 382q125 142 325 142t320 -134t120 -359q0 -43 -5 -105h-659
q12 -287 235 -287q160 0 201 162l199 -31q-23 -94 -89 -173t-173 -109q-137 -96 -138 -203q0 -37 24 -59t54 -21z" />
    <glyph glyph-name="Ecaron" unicode="&#x11a;" horiz-adv-x="1153" 
d="M387 1942l246 -175l246 175l82 -99l-328 -274l-330 276zM1059 0h-858v1454h858v-205h-615v-403h500v-197h-500v-446h615v-203z" />
    <glyph glyph-name="ecaron" unicode="&#x11b;" horiz-adv-x="1114" 
d="M319 1495l246 -174l246 174l82 -98l-328 -275l-329 277zM566 858q-102 0 -160 -74q-60 -74 -64 -194h438q-2 128 -57 198t-157 70zM573 -27q-219 -1 -339 143t-120 387t125 385t325 142t320 -134t120 -359q0 -43 -5 -105h-659q12 -287 235 -287q160 0 201 162l199 -31
q-29 -123 -128 -213t-274 -90z" />
    <glyph glyph-name="Gcircumflex" unicode="&#x11c;" horiz-adv-x="1351" 
d="M692 1743l-246 -174l-84 96l330 277l328 -275l-82 -98zM1165 0h-145l-27 180h-4q-39 -94 -125 -153t-198 -60q-242 0 -391 194q-148 194 -148 559t147 566t416 201q223 0 338 -125t129 -291l-235 -37q-27 248 -238 248q-307 0 -307 -555t309 -555q125 0 194 101t68 272
v71h-280v185h497v-801z" />
    <glyph glyph-name="gcircumflex" unicode="&#x11d;" horiz-adv-x="1189" 
d="M590 1294l-246 -174l-84 97l330 276l328 -274l-82 -99zM791 -43q0 117 4 176h-4q-31 -63 -100 -108t-175 -45q-168 0 -285 136t-116 388q0 252 118 389q119 137 300 137t260 -160h4q2 59 10 136h209q-10 -195 -10 -332v-662q0 -219 -98 -339t-343 -119q-176 0 -281 76
t-122 220l207 23q16 -164 206 -164q123 0 177 76q39 55 39 172zM340 506q0 -350 221 -350q233 0 234 352q-1 168 -61 258t-163 90q-231 0 -231 -350z" />
    <glyph glyph-name="Gbreve" unicode="&#x11e;" horiz-adv-x="1351" 
d="M689 1604q-130 0 -209 66t-83 198h99q26 -127 194 -127t195 127h96q-4 -132 -83 -198t-209 -66zM1165 0h-145l-27 180h-4q-39 -94 -125 -153t-198 -60q-242 0 -391 194q-148 194 -148 559t147 566t416 201q223 0 338 -125t129 -291l-235 -37q-27 248 -238 248
q-307 0 -307 -555t309 -555q125 0 194 101t68 272v71h-280v185h497v-801z" />
    <glyph glyph-name="gbreve" unicode="&#x11f;" horiz-adv-x="1189" 
d="M587 1176q-130 0 -209 66t-83 198h98q27 -127 195 -127t194 127h97q-4 -132 -83 -198t-209 -66zM791 -43q0 117 4 176h-4q-31 -63 -100 -108t-175 -45q-168 0 -285 136t-116 388q0 252 118 389q119 137 300 137t260 -160h4q2 59 10 136h209q-10 -195 -10 -332v-662
q0 -219 -98 -339t-343 -119q-176 0 -281 76t-122 220l207 23q16 -164 206 -164q123 0 177 76q39 55 39 172zM340 506q0 -350 221 -350q233 0 234 352q-1 168 -61 258t-163 90q-231 0 -231 -350z" />
    <glyph glyph-name="Gdotaccent" unicode="&#x120;" horiz-adv-x="1351" 
d="M803 1640h-225v242h225v-242zM1165 0h-145l-27 180h-4q-39 -94 -125 -153t-198 -60q-242 0 -391 194q-148 194 -148 559t147 566t416 201q223 0 338 -125t129 -291l-235 -37q-27 248 -238 248q-307 0 -307 -555t309 -555q125 0 194 101t68 272v71h-280v185h497v-801z" />
    <glyph glyph-name="gdotaccent" unicode="&#x121;" horiz-adv-x="1189" 
d="M709 1202h-226v242h226v-242zM791 -43q0 117 4 176h-4q-31 -63 -100 -108t-175 -45q-168 0 -285 136t-116 388q0 252 118 389q119 137 300 137t260 -160h4q2 59 10 136h209q-10 -195 -10 -332v-662q0 -219 -98 -339t-343 -119q-176 0 -281 76t-122 220l207 23
q16 -164 206 -164q123 0 177 76q39 55 39 172zM340 506q0 -350 221 -350q233 0 234 352q-1 168 -61 258t-163 90q-231 0 -231 -350z" />
    <glyph glyph-name="Gcommaaccent" unicode="&#x122;" horiz-adv-x="1351" 
d="M801 -152v-159q0 -113 -50 -165t-163 -75l-21 90q61 12 87 36t26 77h-127v196h248zM1165 0h-145l-27 180h-4q-39 -94 -125 -153t-198 -60q-242 0 -391 194q-148 194 -148 559t147 566t416 201q223 0 338 -125t129 -291l-235 -37q-27 248 -238 248q-307 0 -307 -555
t309 -555q125 0 194 101t68 272v71h-280v185h497v-801z" />
    <glyph glyph-name="gcommaaccent" unicode="&#x123;" horiz-adv-x="1189" 
d="M457 1255v160q0 113 49 165t162 75l22 -90q-59 -12 -87 -36t-28 -75h130v-199h-248zM791 -43q0 117 4 176h-4q-31 -63 -100 -108t-175 -45q-168 0 -285 136t-116 388q0 252 118 389q119 137 300 137t260 -160h4q2 59 10 136h209q-10 -195 -10 -332v-662q0 -219 -98 -339
t-343 -119q-176 0 -281 76t-122 220l207 23q16 -164 206 -164q123 0 177 76q39 55 39 172zM340 506q0 -350 221 -350q233 0 234 352q-1 168 -61 258t-163 90q-231 0 -231 -350z" />
    <glyph glyph-name="Hcircumflex" unicode="&#x124;" horiz-adv-x="1345" 
d="M672 1743l-246 -174l-84 96l330 277l327 -275l-81 -98zM1145 0h-244v641h-457v-641h-243v1454h243v-606h457v606h244v-1454z" />
    <glyph glyph-name="hcircumflex" unicode="&#x125;" horiz-adv-x="1173" 
d="M295 1735l-246 -174l-84 96l330 276l328 -274l-82 -98zM674 1030q332 0 334 -385v-645h-220v608q0 123 -38 180q-38 58 -130 58q-94 0 -155 -71t-62 -208v-567h-219v1454h219v-403q0 -117 -4 -174h4q37 69 110 111t161 42z" />
    <glyph glyph-name="Hbar" unicode="&#x126;" horiz-adv-x="1345" 
d="M444 848h457v141h-457v-141zM1145 0h-244v641h-457v-641h-243v1454h243v-321h457v321h244v-1454z" />
    <glyph glyph-name="hbar" unicode="&#x127;" horiz-adv-x="1173" 
d="M1008 0h-220v608q0 121 -39 179q-41 59 -131 59t-153 -71t-64 -208v-567h-217v1151h-161v143h161v160h219v-160h250v-143h-250v-100q0 -117 -4 -174h4q37 69 110 111t161 42q334 0 334 -385v-645z" />
    <glyph glyph-name="Itilde" unicode="&#x128;" horiz-adv-x="653" 
d="M205 1716q-74 0 -74 -84h-131q0 102 57 171t137 69t146 -47q65 -47 101 -47t57 22q20 23 20 62h131q0 -102 -57 -170q-56 -68 -142 -68t-145 46t-100 46zM449 0h-244v1454h244v-1454z" />
    <glyph glyph-name="itilde" unicode="&#x129;" horiz-adv-x="583" 
d="M401 0h-219v1006h219v-1006zM170 1268q-74 0 -74 -84h-131q-1 102 57 171t138 69t145 -48q65 -47 101 -47t57 23q20 23 20 61h131q0 -102 -57 -170q-57 -67 -142 -67t-145 46t-100 46z" />
    <glyph glyph-name="Imacron" unicode="&#x12a;" horiz-adv-x="653" 
d="M606 1671h-559v144h559v-144zM449 0h-244v1454h244v-1454z" />
    <glyph glyph-name="imacron" unicode="&#x12b;" horiz-adv-x="583" 
d="M401 0h-219v1006h219v-1006zM571 1233h-559v143h559v-143z" />
    <glyph glyph-name="Ibreve" unicode="&#x12c;" horiz-adv-x="653" 
d="M325 1604q-130 0 -209 66t-83 198h98q27 -127 195 -127t194 127h96q-4 -133 -82 -199q-79 -65 -209 -65zM449 0h-244v1454h244v-1454z" />
    <glyph glyph-name="ibreve" unicode="&#x12d;" horiz-adv-x="583" 
d="M401 0h-219v1006h219v-1006zM292 1176q-130 0 -209 66t-83 198h98q27 -127 195 -127t194 127h97q-4 -132 -83 -198t-209 -66z" />
    <glyph glyph-name="Iogonek" unicode="&#x12e;" horiz-adv-x="653" 
d="M346 -397q-90 0 -146 39t-57 118q0 127 179 240h-117v1454h244v-1454q-147 -102 -148 -209q0 -37 23 -59t55 -23q67 0 110 53l68 -63q-76 -96 -211 -96z" />
    <glyph glyph-name="iogonek" unicode="&#x12f;" horiz-adv-x="583" 
d="M403 1202h-225v242h225v-242zM254 -209q0 -37 22 -59t56 -23q68 0 110 53l68 -63q-76 -96 -211 -96q-90 0 -146 39t-57 118q0 127 178 240h-92v1006h219v-1006q-147 -102 -147 -209z" />
    <glyph glyph-name="Idotaccent" unicode="&#x130;" horiz-adv-x="653" 
d="M438 1640h-225v242h225v-242zM449 0h-244v1454h244v-1454z" />
    <glyph glyph-name="dotlessi" unicode="&#x131;" horiz-adv-x="583" 
d="M401 0h-219v1006h219v-1006z" />
    <glyph glyph-name="Jcircumflex" unicode="&#x134;" horiz-adv-x="1148" 
d="M840 1743l-246 -174l-84 96l330 277l327 -275l-82 -98zM965 1454v-1032q1 -219 -103 -336t-348 -117q-194 1 -310 97t-116 284q0 43 4 74q168 23 238 29q-4 -20 -4 -72q0 -209 198 -209t197 229v1053h244z" />
    <glyph glyph-name="jcircumflex" unicode="&#x135;" horiz-adv-x="610" 
d="M317 1294l-245 -174l-84 97l329 276l328 -274l-82 -99zM428 -74q0 -358 -302 -358q-146 0 -269 63l63 152q92 -41 164 -41t98 41t27 162v1061h219v-1080z" />
    <glyph glyph-name="Kcommaaccent" unicode="&#x136;" horiz-adv-x="1290" 
d="M768 -152v-159q0 -113 -50 -165t-163 -75l-20 90q61 12 87 36t25 77h-127v196h248zM444 0h-243v1454h243v-620l471 620h304l-480 -594l502 -860h-291l-362 676l-144 -180v-496z" />
    <glyph glyph-name="kcommaaccent" unicode="&#x137;" horiz-adv-x="1120" 
d="M686 -152v-159q0 -113 -50 -165t-163 -75l-20 90q61 12 87 36t25 77h-127v196h248zM403 0h-219v1454h219v-860l373 412h283l-389 -412l411 -594h-268l-289 442l-121 -123v-319z" />
    <glyph glyph-name="kgreenlandic" unicode="&#x138;" horiz-adv-x="1120" 
d="M401 0h-217v1006h217v-414l228 250q90 100 163 132t226 32v-193h-39q-61 0 -100 -20t-93 -76l-116 -123l411 -594h-268l-289 442l-123 -125v-317z" />
    <glyph glyph-name="Lacute" unicode="&#x139;" horiz-adv-x="1093" 
d="M596 1765l-483 -200l-50 94l447 287zM1044 0h-843v1454h243v-1249h600v-205z" />
    <glyph glyph-name="lacute" unicode="&#x13a;" horiz-adv-x="589" 
d="M561 1755l-483 -201l-49 95l446 286zM184 0v1454h219v-1454h-219z" />
    <glyph glyph-name="Lcommaaccent" unicode="&#x13b;" horiz-adv-x="1093" 
d="M741 -152v-159q0 -113 -50 -165t-163 -75l-20 90q61 12 87 36t26 77h-127v196h247zM1044 0h-843v1454h243v-1249h600v-205z" />
    <glyph glyph-name="lcommaaccent" unicode="&#x13c;" horiz-adv-x="589" 
d="M420 -152v-159q0 -113 -50 -165t-163 -75l-21 90q61 12 87 36t26 77h-127v196h248zM184 0v1454h219v-1454h-219z" />
    <glyph glyph-name="Lcaron" unicode="&#x13d;" horiz-adv-x="1093" 
d="M913 1419l-184 -358l-104 37l102 397zM1044 0h-843v1454h243v-1249h600v-205z" />
    <glyph glyph-name="lcaron" unicode="&#x13e;" horiz-adv-x="866" 
d="M866 1419l-184 -358l-104 37l102 397zM184 0v1454h219v-1454h-219z" />
    <glyph glyph-name="Ldot" unicode="&#x13f;" horiz-adv-x="1093" 
d="M1044 0h-843v1454h243v-1249h600v-205zM895 762h-240v258h240v-258z" />
    <glyph glyph-name="ldot" unicode="&#x140;" horiz-adv-x="1005" 
d="M184 0v1454h219v-1454h-219zM815 762h-240v258h240v-258z" />
    <glyph glyph-name="Lslash" unicode="&#x141;" horiz-adv-x="1097" 
d="M1049 0h-844v541l-142 -86v168l142 86v745h244v-594l360 223v-168l-360 -223v-487h600v-205z" />
    <glyph glyph-name="lslash" unicode="&#x142;" horiz-adv-x="598" 
d="M188 0v557l-178 -108v167q119 74 178 109v729h220v-594l198 121v-168l-198 -121v-692h-220z" />
    <glyph glyph-name="Nacute" unicode="&#x143;" horiz-adv-x="1396" 
d="M991 1765l-483 -200l-49 94l446 287zM952 1454h244v-1454h-295l-346 766q-51 111 -115 293h-4q6 -172 6 -330v-729h-241v1454h299l342 -768q63 -143 112 -293h4l-6 328v733z" />
    <glyph glyph-name="nacute" unicode="&#x144;" horiz-adv-x="1187" 
d="M854 1327l-483 -201l-49 95l446 286zM688 1030q164 0 249 -99t85 -278v-653h-219v616q0 229 -180 230q-95 0 -157 -71t-63 -208v-567h-219v686q0 184 -10 320h211q4 -39 8 -138h4q33 70 110 116t181 46z" />
    <glyph glyph-name="Ncommaaccent" unicode="&#x145;" horiz-adv-x="1396" 
d="M831 -152v-159q0 -113 -50 -165t-163 -75l-20 90q61 12 87 36t26 77h-127v196h247zM952 1454h244v-1454h-295l-346 766q-51 111 -115 293h-4q6 -172 6 -330v-729h-241v1454h299l342 -768q63 -143 112 -293h4l-6 328v733z" />
    <glyph glyph-name="ncommaaccent" unicode="&#x146;" horiz-adv-x="1187" 
d="M719 -152v-159q0 -113 -50 -165t-163 -75l-21 90q61 12 87 36t26 77h-127v196h248zM688 1030q164 0 249 -99t85 -278v-653h-219v616q0 229 -180 230q-95 0 -157 -71t-63 -208v-567h-219v686q0 184 -10 320h211q4 -39 8 -138h4q33 70 110 116t181 46z" />
    <glyph glyph-name="Ncaron" unicode="&#x147;" horiz-adv-x="1396" 
d="M453 1942l245 -175l246 175l82 -99l-328 -274l-329 276zM952 1454h244v-1454h-295l-346 766q-51 111 -115 293h-4q6 -172 6 -330v-729h-241v1454h299l342 -768q63 -143 112 -293h4l-6 328v733z" />
    <glyph glyph-name="ncaron" unicode="&#x148;" horiz-adv-x="1187" 
d="M350 1495l246 -174l246 174l82 -98l-328 -275l-330 277zM688 1030q164 0 249 -99t85 -278v-653h-219v616q0 229 -180 230q-95 0 -157 -71t-63 -208v-567h-219v686q0 184 -10 320h211q4 -39 8 -138h4q33 70 110 116t181 46z" />
    <glyph glyph-name="napostrophe" unicode="&#x149;" horiz-adv-x="1187" 
d="M426 1636v-159q0 -113 -50 -165t-163 -75l-20 90q61 12 87 36t25 77h-127v196h248zM688 1030q164 0 249 -99t85 -278v-653h-219v616q0 229 -180 230q-95 0 -157 -71t-63 -208v-567h-219v686q0 184 -10 320h211q4 -39 8 -138h4q33 70 110 116t181 46z" />
    <glyph glyph-name="Eng" unicode="&#x14a;" horiz-adv-x="1396" 
d="M201 1454h245l381 -721q72 -133 125 -260h4q-4 229 -4 289v692h244v-1458q0 -215 -94 -325t-314 -109q-266 0 -356 190l193 101q47 -92 170 -93q158 0 157 209v31l-385 723q-68 127 -127 268h-4q6 -172 6 -303v-688h-241v1454z" />
    <glyph glyph-name="eng" unicode="&#x14b;" horiz-adv-x="1187" 
d="M803 -53v669q0 229 -180 230q-95 0 -157 -71t-63 -208v-567h-219v686q0 184 -10 320h211q4 -39 8 -138h4q33 70 110 116t181 46q164 0 249 -99t85 -278v-725q0 -164 -69 -262t-246 -98q-129 0 -256 65q51 121 63 150q88 -39 165 -39t101 44t23 159z" />
    <glyph glyph-name="Omacron" unicode="&#x14c;" horiz-adv-x="1349" 
d="M954 1671h-559v144h559v-144zM975 727q0 555 -301 555t-301 -555t301 -555t301 555zM674 1487q266 0 408 -200t141 -559q1 -359 -141 -560t-408 -201t-407 200q-140 200 -140 560t140 560q141 200 407 200z" />
    <glyph glyph-name="omacron" unicode="&#x14d;" horiz-adv-x="1148" 
d="M854 1233h-559v143h559v-143zM805 502q1 174 -59 264t-173 90t-172 -90t-59 -264t59 -264t172 -90t173 90t59 264zM1032 502q0 -246 -126 -387t-332 -141t-332 140q-126 142 -125 388q0 246 126 387q125 141 331 141t332 -141t126 -387z" />
    <glyph glyph-name="Obreve" unicode="&#x14e;" horiz-adv-x="1349" 
d="M673 1604q-130 0 -209 66t-83 198h98q27 -127 195 -127t194 127h97q-4 -132 -83 -198t-209 -66zM975 727q0 555 -301 555t-301 -555t301 -555t301 555zM674 1487q266 0 408 -200t141 -559q1 -359 -141 -560t-408 -201t-407 200q-140 200 -140 560t140 560
q141 200 407 200z" />
    <glyph glyph-name="obreve" unicode="&#x14f;" horiz-adv-x="1148" 
d="M572 1176q-130 0 -208 66t-83 198h98q27 -127 195 -127t194 127h96q-4 -132 -83 -198t-209 -66zM805 502q1 174 -59 264t-173 90t-172 -90t-59 -264t59 -264t172 -90t173 90t59 264zM1032 502q0 -246 -126 -387t-332 -141t-332 140q-126 142 -125 388q0 246 126 387
q125 141 331 141t332 -141t126 -387z" />
    <glyph glyph-name="Ohungarumlaut" unicode="&#x150;" horiz-adv-x="1349" 
d="M735 1778l-418 -211l-55 88l377 293zM1182 1778l-418 -211l-55 88l376 293zM975 727q0 555 -301 555t-301 -555t301 -555t301 555zM674 1487q266 0 408 -200t141 -559q1 -359 -141 -560t-408 -201t-407 200q-140 200 -140 560t140 560q141 200 407 200z" />
    <glyph glyph-name="ohungarumlaut" unicode="&#x151;" horiz-adv-x="1148" 
d="M647 1329l-418 -211l-55 88l377 293zM1094 1329l-418 -211l-55 88l376 293zM805 502q1 174 -59 264t-173 90t-172 -90t-59 -264t59 -264t172 -90t173 90t59 264zM1032 502q0 -246 -126 -387t-332 -141t-332 140q-126 142 -125 388q0 246 126 387q125 141 331 141
t332 -141t126 -387z" />
    <glyph glyph-name="OE" unicode="&#x152;" horiz-adv-x="1740" 
d="M373 727q0 -293 88 -425t227 -132q86 0 135 20v1070q-59 23 -135 22q-139 0 -227 -131t-88 -424zM1647 0h-785q-78 -31 -180 -31q-260 0 -408 196q-147 197 -147 563t147 560t408 195q104 0 180 -29h785v-203h-582v-405h467v-197h-467v-446h582v-203z" />
    <glyph glyph-name="oe" unicode="&#x153;" horiz-adv-x="1783" 
d="M569 147q111 1 170 91t60 264t-59 264t-171 90t-170 -90t-59 -264t59 -264t170 -91zM1235 858q-97 0 -155 -72t-62 -196h432q-6 268 -215 268zM1243 -27q-213 0 -338 170q-123 -170 -332 -170q-209 -1 -333 141t-125 388q0 246 125 387q124 141 334 141t331 -174
q117 174 324 174t325 -134t119 -359q0 -57 -6 -103h-651q0 -139 63 -214t168 -75q158 0 199 162l196 -28q-29 -125 -126 -216q-98 -90 -273 -90z" />
    <glyph glyph-name="Racute" unicode="&#x154;" horiz-adv-x="1333" 
d="M920 1776l-484 -201l-49 94l447 287zM711 801q115 -1 176 61t61 167t-58 167t-181 61h-265v-456h267zM1196 1034q0 -190 -106 -293q-53 -51 -138 -88l265 -653h-271l-217 610h-285v-610h-243v1454h520q221 0 342 -108q133 -122 133 -312z" />
    <glyph glyph-name="racute" unicode="&#x155;" horiz-adv-x="858" 
d="M713 1327l-484 -201l-49 95l447 286zM688 817q-133 0 -208 -100t-74 -307v-410h-220v680q0 129 -12 326h207q6 -47 10 -207h4q94 231 312 231q51 0 94 -14v-215q-47 16 -113 16z" />
    <glyph glyph-name="Rcommaaccent" unicode="&#x156;" horiz-adv-x="1333" 
d="M799 -152v-159q0 -113 -50 -165t-163 -75l-21 90q61 12 87 36t26 77h-127v196h248zM711 801q115 -1 176 61t61 167t-58 167t-181 61h-265v-456h267zM1196 1034q0 -190 -106 -293q-53 -51 -138 -88l265 -653h-271l-217 610h-285v-610h-243v1454h520q221 0 342 -108
q133 -122 133 -312z" />
    <glyph glyph-name="rcommaaccent" unicode="&#x157;" horiz-adv-x="858" 
d="M436 -152v-159q0 -113 -50 -165t-163 -75l-20 90q61 12 87 36t25 77h-127v196h248zM688 817q-133 0 -208 -100t-74 -307v-410h-220v680q0 129 -12 326h207q6 -47 10 -207h4q94 231 312 231q51 0 94 -14v-215q-47 16 -113 16z" />
    <glyph glyph-name="Rcaron" unicode="&#x158;" horiz-adv-x="1333" 
d="M408 1944l245 -175l246 175l82 -99l-328 -274l-329 276zM711 801q115 -1 176 61t61 167t-58 167t-181 61h-265v-456h267zM1196 1034q0 -190 -106 -293q-53 -51 -138 -88l265 -653h-271l-217 610h-285v-610h-243v1454h520q221 0 342 -108q133 -122 133 -312z" />
    <glyph glyph-name="rcaron" unicode="&#x159;" horiz-adv-x="858" 
d="M207 1495l246 -174l245 174l82 -98l-327 -275l-330 277zM688 817q-133 0 -208 -100t-74 -307v-410h-220v680q0 129 -12 326h207q6 -47 10 -207h4q94 231 312 231q51 0 94 -14v-215q-47 16 -113 16z" />
    <glyph glyph-name="Sacute" unicode="&#x15a;" horiz-adv-x="1267" 
d="M893 1765l-483 -200l-50 94l447 287zM1143 389q0 -197 -138 -309t-380 -113q-242 0 -369 120t-131 321l235 51q4 -160 75 -227q71 -66 198 -66t197 54t71 153q0 150 -199 237l-241 109q-158 70 -230 159t-71 232q0 184 135 280t353 97q218 0 337 -112t123 -269l-234 -49
q-8 121 -67 175t-169 54t-172 -43q-64 -43 -64 -121t42 -126q43 -48 144 -91l231 -102q172 -77 248 -173t76 -241z" />
    <glyph glyph-name="sacute" unicode="&#x15b;" horiz-adv-x="1087" 
d="M799 1327l-484 -201l-49 95l447 286zM963 297q0 -324 -422 -324q-397 0 -424 316l223 24q12 -98 64 -137t144 -39t139 36q48 36 48 98q0 61 -42 93t-128 54l-135 37q-141 37 -216 97t-75 193q1 133 107 209t288 76t284 -77q103 -77 114 -203l-213 -25q-10 74 -52 109
q-42 34 -128 34q-177 -1 -179 -106q0 -55 35 -83t117 -48l141 -37q154 -40 232 -106t78 -191z" />
    <glyph glyph-name="Scircumflex" unicode="&#x15c;" horiz-adv-x="1267" 
d="M635 1743l-246 -174l-84 96l330 277l328 -275l-82 -98zM1143 389q0 -197 -138 -309t-380 -113q-242 0 -369 120t-131 321l235 51q4 -160 75 -227q71 -66 198 -66t197 54t71 153q0 150 -199 237l-241 109q-158 70 -230 159t-71 232q0 184 135 280t353 97q218 0 337 -112
t123 -269l-234 -49q-8 121 -67 175t-169 54t-172 -43q-64 -43 -64 -121t42 -126q43 -48 144 -91l231 -102q172 -77 248 -173t76 -241z" />
    <glyph glyph-name="scircumflex" unicode="&#x15d;" horiz-adv-x="1087" 
d="M541 1294l-246 -174l-84 97l330 276l327 -274l-82 -99zM963 297q0 -324 -422 -324q-397 0 -424 316l223 24q12 -98 64 -137t144 -39t139 36q48 36 48 98q0 61 -42 93t-128 54l-135 37q-141 37 -216 97t-75 193q1 133 107 209t288 76t284 -77q103 -77 114 -203l-213 -25
q-10 74 -52 109q-42 34 -128 34q-177 -1 -179 -106q0 -55 35 -83t117 -48l141 -37q154 -40 232 -106t78 -191z" />
    <glyph glyph-name="Scedilla" unicode="&#x15e;" horiz-adv-x="1267" 
d="M901 373q0 150 -199 237l-241 109q-158 70 -230 159t-71 232q0 184 135 280t353 97q218 0 337 -112t123 -269l-234 -49q-8 121 -67 175t-169 54t-172 -43q-64 -43 -64 -121t42 -126q43 -48 144 -91l231 -102q172 -76 248 -172t76 -242q0 -193 -130 -303t-356 -119
l-53 -84l2 -2q33 15 86 15q52 0 98 -36t46 -98q0 -170 -220 -170q-106 0 -186 50l35 79q66 -39 120 -39q97 1 97 67q0 65 -68 65q-41 0 -69 -27l-53 43l81 139q-219 14 -331 132t-117 307l235 51q4 -160 75 -227q71 -66 198 -66t197 54t71 153z" />
    <glyph glyph-name="scedilla" unicode="&#x15f;" horiz-adv-x="1087" 
d="M548 137q92 0 139 36q48 36 48 98q0 61 -42 93t-128 54l-135 37q-141 37 -216 97t-75 193q1 133 107 209t288 76t284 -77q103 -77 114 -203l-213 -25q-10 74 -52 109q-42 34 -128 34q-177 -1 -179 -106q0 -55 35 -83t117 -48l141 -37q154 -39 232 -106t78 -191
q0 -311 -392 -324l-57 -90l2 -2q33 15 86 15t98 -36t45 -98q0 -170 -219 -170q-106 0 -186 50l35 79q66 -39 120 -39q97 1 97 67q0 65 -68 65q-41 0 -69 -27l-54 43l84 145q-346 23 -368 314l223 24q12 -98 64 -137t144 -39z" />
    <glyph glyph-name="Scaron" unicode="&#x160;" horiz-adv-x="1267" 
d="M395 1935l246 -174l246 174l82 -98l-328 -274l-330 276zM1143 389q0 -197 -138 -309t-380 -113q-242 0 -369 120t-131 321l235 51q4 -160 75 -227q71 -66 198 -66t197 54t71 153q0 150 -199 237l-241 109q-158 70 -230 159t-71 232q0 184 135 280t353 97q218 0 337 -112
t123 -269l-234 -49q-8 121 -67 175t-169 54t-172 -43q-64 -43 -64 -121t42 -126q43 -48 144 -91l231 -102q172 -77 248 -173t76 -241z" />
    <glyph glyph-name="scaron" unicode="&#x161;" horiz-adv-x="1087" 
d="M285 1495l245 -174l246 174l82 -98l-328 -275l-329 277zM963 297q0 -324 -422 -324q-397 0 -424 316l223 24q12 -98 64 -137t144 -39t139 36q48 36 48 98q0 61 -42 93t-128 54l-135 37q-141 37 -216 97t-75 193q1 133 107 209t288 76t284 -77q103 -77 114 -203l-213 -25
q-10 74 -52 109q-42 34 -128 34q-177 -1 -179 -106q0 -55 35 -83t117 -48l141 -37q154 -40 232 -106t78 -191z" />
    <glyph glyph-name="Tcommaaccent" unicode="&#x162;" horiz-adv-x="1107" 
d="M678 -152v-159q0 -113 -50 -165t-163 -75l-21 90q61 12 87 36t26 77h-127v196h248zM1042 1249h-366v-1249h-244v1249h-369v205h979v-205z" />
    <glyph glyph-name="tcommaaccent" unicode="&#x163;" horiz-adv-x="860" 
d="M625 -152v-159q-1 -113 -51 -165t-162 -75l-21 90q61 12 87 36t26 77h-127v196h248zM262 319v517h-205v170h205v317l219 94v-411h264v-170h-264v-490q0 -121 28 -159q27 -38 101 -38t156 35q10 -31 59 -151q-123 -59 -256 -60q-307 0 -307 346z" />
    <glyph glyph-name="Tcaron" unicode="&#x164;" horiz-adv-x="1107" 
d="M307 1933l246 -174l246 174l82 -98l-328 -274l-330 276zM1042 1249h-366v-1249h-244v1249h-369v205h979v-205z" />
    <glyph glyph-name="tcaron" unicode="&#x165;" horiz-adv-x="860" 
d="M895 1419l-184 -358l-105 37l103 397zM262 319v517h-205v170h205v317l219 94v-411h264v-170h-264v-490q0 -121 28 -159q27 -38 101 -38t156 35q10 -31 59 -151q-123 -59 -256 -60q-307 0 -307 346z" />
    <glyph glyph-name="Tbar" unicode="&#x166;" horiz-adv-x="1107" 
d="M1042 1249h-366v-309h260v-143h-260v-797h-244v797h-260v143h260v309h-369v205h979v-205z" />
    <glyph glyph-name="tbar" unicode="&#x167;" horiz-adv-x="862" 
d="M264 287v211h-235v143h235v195h-205v170h205v317l219 94v-411h265v-170h-265v-195h289v-143h-289v-152q0 -121 28 -159q27 -38 101 -38t156 35q10 -31 59 -151q-123 -59 -271 -59t-220 87q-72 88 -72 226z" />
    <glyph glyph-name="Utilde" unicode="&#x168;" horiz-adv-x="1353" 
d="M555 1698q-74 0 -74 -84h-131q0 102 58 171t137 69q80 0 145 -48q66 -47 102 -47t56 23t20 61h131q0 -102 -57 -170q-57 -67 -142 -67q-84 0 -144 46t-101 46zM1159 453q0 -225 -125 -355t-357 -131q-231 0 -357 129t-125 357v1001h243v-991q0 -149 56 -221t182 -72
t186 78q51 63 51 215v991h246v-1001z" />
    <glyph glyph-name="utilde" unicode="&#x169;" horiz-adv-x="1191" 
d="M475 1268q-74 0 -74 -84h-131q0 102 58 171t137 69t145 -48q66 -47 102 -47t56 23t20 61h132q0 -102 -58 -170q-58 -67 -142 -67t-144 46t-101 46zM172 346v660h219v-621q0 -227 178 -227q96 0 158 69q61 70 61 213v566h220v-689q0 -150 10 -317h-211q-4 31 -8 137h-4
q-31 -69 -104 -115t-175 -47q-168 -1 -256 97t-88 274z" />
    <glyph glyph-name="Umacron" unicode="&#x16a;" horiz-adv-x="1353" 
d="M956 1671h-559v144h559v-144zM1159 453q0 -225 -125 -355t-357 -131q-231 0 -357 129t-125 357v1001h243v-991q0 -149 56 -221t182 -72t186 78q51 63 51 215v991h246v-1001z" />
    <glyph glyph-name="umacron" unicode="&#x16b;" horiz-adv-x="1191" 
d="M874 1233h-559v143h559v-143zM172 346v660h219v-621q0 -227 178 -227q96 0 158 69q61 70 61 213v566h220v-689q0 -150 10 -317h-211q-4 31 -8 137h-4q-31 -69 -104 -115t-175 -47q-168 -1 -256 97t-88 274z" />
    <glyph glyph-name="Ubreve" unicode="&#x16c;" horiz-adv-x="1353" 
d="M675 1604q-130 0 -209 66t-83 198h98q27 -127 195 -127t194 127h97q-4 -132 -83 -198t-209 -66zM1159 453q0 -225 -125 -355t-357 -131q-231 0 -357 129t-125 357v1001h243v-991q0 -149 56 -221t182 -72t186 78q51 63 51 215v991h246v-1001z" />
    <glyph glyph-name="ubreve" unicode="&#x16d;" horiz-adv-x="1191" 
d="M593 1176q-130 0 -209 66t-83 198h98q27 -127 195 -127t194 127h97q-4 -132 -83 -198t-209 -66zM172 346v660h219v-621q0 -227 178 -227q96 0 158 69q61 70 61 213v566h220v-689q0 -150 10 -317h-211q-4 31 -8 137h-4q-31 -69 -104 -115t-175 -47q-168 -1 -256 97
t-88 274z" />
    <glyph glyph-name="Uring" unicode="&#x16e;" horiz-adv-x="1353" 
d="M461 1755q0 91 63 153q64 62 154 62t153 -62t63 -152t-62 -156q-64 -64 -154 -64t-154 64t-63 155zM565 1754q0 -46 33 -79t79 -33t79 33t32 80q0 47 -31 79q-32 32 -79 32t-80 -33t-33 -79zM1159 453q0 -225 -125 -355t-357 -131q-231 0 -357 129t-125 357v1001h243
v-991q0 -149 56 -221t182 -72t186 78q51 63 51 215v991h246v-1001z" />
    <glyph glyph-name="uring" unicode="&#x16f;" horiz-adv-x="1191" 
d="M377 1337q0 91 63 153q64 62 154 62t154 -62t63 -152q0 -90 -63 -156q-64 -64 -154 -64t-154 64t-63 155zM481 1336q0 -46 34 -79t79 -33t78 34q33 32 33 79t-33 79t-79 32t-79 -33t-33 -79zM172 346v660h219v-621q0 -227 178 -227q96 0 158 69q61 70 61 213v566h220
v-689q0 -150 10 -317h-211q-4 31 -8 137h-4q-31 -69 -104 -115t-175 -47q-168 -1 -256 97t-88 274z" />
    <glyph glyph-name="Uhungarumlaut" unicode="&#x170;" horiz-adv-x="1353" 
d="M760 1776l-418 -211l-55 88l377 293zM1206 1776l-418 -211l-55 88l377 293zM1159 453q0 -225 -125 -355t-357 -131q-231 0 -357 129t-125 357v1001h243v-991q0 -149 56 -221t182 -72t186 78q51 63 51 215v991h246v-1001z" />
    <glyph glyph-name="uhungarumlaut" unicode="&#x171;" horiz-adv-x="1191" 
d="M672 1329l-418 -211l-55 88l376 293zM1118 1329l-418 -211l-55 88l377 293zM172 346v660h219v-621q0 -227 178 -227q96 0 158 69q61 70 61 213v566h220v-689q0 -150 10 -317h-211q-4 31 -8 137h-4q-31 -69 -104 -115t-175 -47q-168 -1 -256 97t-88 274z" />
    <glyph glyph-name="Uogonek" unicode="&#x172;" horiz-adv-x="1353" 
d="M707 -397q-90 0 -147 39q-56 39 -56 118q0 113 133 209q-209 12 -326 134t-116 350v1001h243v-991q0 -149 56 -221t182 -72t186 78q51 63 51 215v991h246v-1001q0 -225 -119 -351q-98 -102 -266 -127q-113 -86 -112 -184q0 -37 22 -59t55 -23q68 0 111 53l68 -63
q-76 -96 -211 -96z" />
    <glyph glyph-name="uogonek" unicode="&#x173;" horiz-adv-x="1191" 
d="M172 346v660h219v-621q0 -115 41 -171t137 -56t158 69q61 70 61 213v566h220v-689q0 -150 10 -317q-147 -98 -148 -209q0 -37 23 -59t55 -21q70 0 111 53l67 -65q-78 -96 -211 -96q-90 0 -146 39t-56 118q0 127 178 240h-84q-4 31 -8 137h-4q-31 -69 -104 -115t-175 -47
q-166 1 -255 97t-89 274z" />
    <glyph glyph-name="Wcircumflex" unicode="&#x174;" horiz-adv-x="1824" 
d="M911 1743l-245 -174l-84 96l329 277l328 -275l-82 -98zM1729 1454l-340 -1454h-252l-164 793q-29 139 -60 342h-4q-27 -190 -57 -342l-164 -793h-258l-334 1454h248l172 -854q16 -74 49 -295h4q16 119 49 297l164 852h260l168 -852q18 -92 47 -297h5q16 119 49 297
l172 852h246z" />
    <glyph glyph-name="wcircumflex" unicode="&#x175;" horiz-adv-x="1482" 
d="M741 1294l-245 -174l-84 97l329 276l328 -274l-82 -99zM1405 1006l-248 -1006h-252l-112 504q-29 119 -48 272h-4q-16 -135 -49 -272l-108 -504h-258l-248 1006h227l115 -549q27 -129 41 -240h4q12 117 37 240l108 549h264l115 -549q23 -102 39 -242h4q14 127 37 244
l111 547h225z" />
    <glyph glyph-name="Ycircumflex" unicode="&#x176;" horiz-adv-x="1204" 
d="M602 1741l-246 -174l-84 96l330 276l328 -274l-82 -98zM729 0h-244v608l-450 846h284l289 -580l289 580h272l-440 -846v-608z" />
    <glyph glyph-name="ycircumflex" unicode="&#x177;" horiz-adv-x="1042" 
d="M522 1294l-246 -174l-83 97l329 276l328 -274l-82 -99zM240 -432q-130 0 -252 74l63 149q99 -49 161 -49t86 24t34 36q10 13 23 44t20 46q6 16 19 56t18 54l-373 1004h242l176 -529q41 -127 61 -213h4q12 72 68 232l166 510h237l-440 -1194q-45 -124 -114 -184t-199 -60z
" />
    <glyph glyph-name="Ydieresis" unicode="&#x178;" horiz-adv-x="1204" 
d="M522 1632h-217v240h217v-240zM913 1632h-217v240h217v-240zM729 0h-244v608l-450 846h284l289 -580l289 580h272l-440 -846v-608z" />
    <glyph glyph-name="Zacute" unicode="&#x179;" horiz-adv-x="1193" 
d="M864 1765l-483 -200l-49 94l446 287zM1090 0h-977v199l675 1052q-123 -2 -233 -2h-416v205h924v-201l-678 -1050q109 2 217 2h488v-205z" />
    <glyph glyph-name="zacute" unicode="&#x17a;" horiz-adv-x="1036" 
d="M786 1327l-483 -201l-49 95l446 286zM950 0h-856v150l549 688q-100 -4 -194 -4h-316v172h799v-150l-547 -688q109 4 197 4h368v-172z" />
    <glyph glyph-name="Zdotaccent" unicode="&#x17b;" horiz-adv-x="1193" 
d="M719 1640h-225v242h225v-242zM1090 0h-977v199l675 1052q-123 -2 -233 -2h-416v205h924v-201l-678 -1050q109 2 217 2h488v-205z" />
    <glyph glyph-name="zdotaccent" unicode="&#x17c;" horiz-adv-x="1036" 
d="M641 1202h-225v242h225v-242zM950 0h-856v150l549 688q-100 -4 -194 -4h-316v172h799v-150l-547 -688q109 4 197 4h368v-172z" />
    <glyph glyph-name="Zcaron" unicode="&#x17d;" horiz-adv-x="1193" 
d="M350 1933l246 -174l246 174l82 -98l-328 -274l-330 276zM1090 0h-977v199l675 1052q-123 -2 -233 -2h-416v205h924v-201l-678 -1050q109 2 217 2h488v-205z" />
    <glyph glyph-name="zcaron" unicode="&#x17e;" horiz-adv-x="1036" 
d="M291 1495l246 -174l245 174l82 -98l-327 -275l-330 277zM950 0h-856v150l549 688q-100 -4 -194 -4h-316v172h799v-150l-547 -688q109 4 197 4h368v-172z" />
    <glyph glyph-name="longs" unicode="&#x17f;" horiz-adv-x="833" 
d="M258 1137q0 351 289 349q137 0 264 -59l-55 -151q-76 35 -153 35t-105 -51q-20 -35 -21 -150v-1110h-219v836h-201v170h201v131z" />
    <glyph glyph-name="florin" unicode="&#x192;" 
d="M926 1487q145 0 270 -109l-86 -149q-82 57 -164 57q-98 0 -125 -135l-39 -209h252l-35 -184h-256l-176 -846q-31 -147 -109 -220t-222 -73t-265 109l86 147q80 -55 166 -55q94 0 123 135l172 803h-219l35 184h221l47 252q55 293 324 293z" />
    <glyph glyph-name="Aringacute" unicode="&#x1fa;" horiz-adv-x="1263" 
d="M518 1516q0 -61 111 -62h8q100 0 100 64q1 64 -109 64t-110 -66zM807 489l-92 340q-70 256 -86 338h-4q-20 -113 -86 -340l-95 -338h363zM630 1683q96 0 153 -46q57 -45 57 -127t-72 -130l436 -1380h-262l-80 291h-473q-61 -221 -82 -291h-250q180 567 432 1378
q-77 48 -77 128t61 128t157 49zM846 1802l-443 -133l-34 88l424 209z" />
    <glyph glyph-name="aringacute" unicode="&#x1fb;" horiz-adv-x="1138" 
d="M815 1772l-483 -201l-49 94l446 287zM334 1337q0 91 63 153t153 62t154 -62t64 -152t-63 -156q-63 -64 -153 -64t-154 64t-64 155zM438 1336q0 -46 33 -79t79 -33t79 34q33 32 33 79t-32 79t-79 32t-80 -33t-33 -79zM342 274q0 -63 37 -99t100 -36q144 1 242 185v200
q-20 -20 -76 -39l-164 -51q-139 -49 -139 -160zM117 255q0 130 73 204q74 74 238 116t213 55t65 28q15 15 15 47v18q0 71 -37 107t-133 36q-180 0 -180 -161l-221 18q2 137 107 222t294 85q389 0 389 -305v-446q0 -76 24 -107t93 -39l-21 -149q-132 0 -198 39t-93 137
q-113 -186 -313 -187q-139 0 -227 76t-88 206z" />
    <glyph glyph-name="AEacute" unicode="&#x1fc;" horiz-adv-x="1677" 
d="M1337 1765l-483 -200l-49 94l446 287zM784 496v579h-6q-16 -41 -46 -109t-204 -470h256zM1583 1454v-203h-565v-405h452v-195h-452v-450h565v-201h-799v303h-340l-135 -303h-262l680 1454h856z" />
    <glyph glyph-name="aeacute" unicode="&#x1fd;" horiz-adv-x="1703" 
d="M1153 1327l-483 -201l-49 95l446 286zM573 436q-239 0 -239 -139q0 -75 45 -113t119 -39q74 0 136 46t101 122v123h-162zM1163 864q-95 0 -153 -74t-62 -200h428q-6 274 -213 274zM1171 -27q-254 0 -358 211q-45 -94 -143 -152t-228 -58t-228 83q-97 84 -97 236
q-1 153 117 225t305 72h196v131q0 145 -179 145t-179 -161l-215 16q0 139 101 224t308 85t303 -125q118 125 306 125t302 -132t113 -359q0 -55 -6 -105h-641q0 -137 60 -214t168 -77q157 0 198 164l195 -28q-29 -127 -127 -217t-271 -89z" />
    <glyph glyph-name="Oslashacute" unicode="&#x1fe;" horiz-adv-x="1349" 
d="M975 727q0 158 -27 279l-506 -684q74 -152 232 -152q301 0 301 557zM373 727q0 -158 26 -276l506 684q-74 150 -231 149q-301 0 -301 -557zM1223 706q1 -337 -141 -538t-408 -201q-236 0 -375 162l-86 -117l-90 64l108 149q-104 188 -104 525t140 537t407 200
q236 0 373 -160l90 121l90 -66l-113 -151q109 -188 109 -525zM926 1765l-484 -200l-49 94l447 287z" />
    <glyph glyph-name="oslashacute" unicode="&#x1ff;" horiz-adv-x="1148" 
d="M803 502q0 90 -21 168l-350 -473q56 -49 154 -49t158 90t59 264zM340 528q0 -148 33 -235l360 487q-59 76 -167 76t-167 -90t-59 -238zM1030 490q0 -234 -126 -375t-333 -142q-143 0 -252 70l-116 -156l-84 60l123 166q-127 139 -127 387t126 389t330 141q164 0 279 -92
l92 123l84 -62l-102 -135q106 -140 106 -374zM834 1327l-484 -201l-49 95l447 286z" />
    <glyph glyph-name="Scommaaccent" unicode="&#x218;" horiz-adv-x="1267" 
d="M766 -152v-159q0 -113 -50 -165t-163 -75l-21 90q61 12 88 36q26 24 25 77h-127v196h248zM1143 389q0 -197 -138 -309t-380 -113q-242 0 -369 120t-131 321l235 51q4 -160 75 -227q71 -66 198 -66t197 54t71 153q0 150 -199 237l-241 109q-158 70 -230 159t-71 232
q0 184 135 280t353 97q218 0 337 -112t123 -269l-234 -49q-8 121 -67 175t-169 54t-172 -43q-64 -43 -64 -121t42 -126q43 -48 144 -91l231 -102q172 -77 248 -173t76 -241z" />
    <glyph glyph-name="scommaaccent" unicode="&#x219;" horiz-adv-x="1087" 
d="M668 -152v-159q0 -113 -50 -165t-163 -75l-21 90q61 12 87 36t26 77h-127v196h248zM963 297q0 -324 -422 -324q-397 0 -424 316l223 24q12 -98 64 -137t144 -39t139 36q48 36 48 98q0 61 -42 93t-128 54l-135 37q-141 37 -216 97t-75 193q1 133 107 209t288 76t284 -77
q103 -77 114 -203l-213 -25q-10 74 -52 109q-42 34 -128 34q-177 -1 -179 -106q0 -55 35 -83t117 -48l141 -37q154 -40 232 -106t78 -191z" />
    <glyph glyph-name="uni021A" unicode="&#x21a;" horiz-adv-x="1107" 
d="M678 -152v-159q0 -113 -50 -165t-163 -75l-21 90q61 12 87 36t26 77h-127v196h248zM1042 1249h-366v-1249h-244v1249h-369v205h979v-205z" />
    <glyph glyph-name="uni021B" unicode="&#x21b;" horiz-adv-x="860" 
d="M584 -152v-159q0 -113 -50 -165t-163 -75l-21 90q61 12 87 36t26 77h-127v196h248zM262 319v517h-205v170h205v317l219 94v-411h264v-170h-264v-490q0 -121 28 -159q27 -38 101 -38t156 35q10 -31 59 -151q-123 -59 -256 -60q-307 0 -307 346z" />
    <glyph glyph-name="circumflex" unicode="&#x2c6;" horiz-adv-x="499" 
d="M250 1294l-246 -174l-84 97l330 276l328 -274l-82 -99z" />
    <glyph glyph-name="caron" unicode="&#x2c7;" horiz-adv-x="499" 
d="M4 1495l246 -174l246 174l82 -98l-328 -275l-330 277z" />
    <glyph glyph-name="breve" unicode="&#x2d8;" horiz-adv-x="495" 
d="M247 1176q-130 0 -209 66t-83 198h98q27 -127 195 -127t194 127h97q-4 -132 -83 -198t-209 -66z" />
    <glyph glyph-name="dotaccent" unicode="&#x2d9;" horiz-adv-x="479" 
d="M352 1202h-225v242h225v-242z" />
    <glyph glyph-name="ring" unicode="&#x2da;" horiz-adv-x="489" 
d="M29 1337q0 91 63 153q64 62 154 62t153 -62t63 -152t-62 -156q-64 -64 -154 -64t-154 64t-63 155zM133 1336q0 -46 34 -79t79 -33t78 34q33 32 32 79q0 47 -32 79q-33 32 -79 32t-79 -33t-33 -79z" />
    <glyph glyph-name="ogonek" unicode="&#x2db;" horiz-adv-x="487" 
d="M225 -397q-90 0 -145 39t-55 118q0 129 178 240h125q-147 -104 -148 -209q0 -37 24 -59t54 -23q66 0 113 53l67 -63q-76 -96 -213 -96z" />
    <glyph glyph-name="tilde" unicode="&#x2dc;" horiz-adv-x="499" 
d="M129 1268q-74 0 -74 -84h-131q0 102 58 171t137 69q80 0 145 -48q66 -47 102 -47t56 23t20 61h131q0 -102 -57 -170q-57 -67 -142 -67q-84 0 -144 46t-101 46z" />
    <glyph glyph-name="hungarumlaut" unicode="&#x2dd;" horiz-adv-x="514" 
d="M315 1329l-417 -211l-56 88l377 293zM762 1329l-418 -211l-55 88l377 293z" />
    <glyph glyph-name="uni03A9" unicode="&#x3a9;" horiz-adv-x="1247" 
d="M627 1300q-152 0 -238 -108t-86 -304q0 -198 56 -306t186 -156v-426h-418v166h254v170q-287 143 -287 541q0 283 146 445t388 161q243 0 387 -162t144 -444q0 -397 -287 -541v-170h254v-166h-415v426q127 47 183 155t56 306q0 197 -86 305t-237 108z" />
    <glyph glyph-name="pi" unicode="&#x3c0;" horiz-adv-x="1198" 
d="M438 0h-190v838h-201v168h1073v-168h-211v-598q-1 -57 19 -80t66 -23t91 27l64 -133q-79 -53 -191 -53t-176 67q-63 68 -63 184v609h-281v-838z" />
    <glyph glyph-name="Wgrave" unicode="&#x1e80;" horiz-adv-x="1824" 
d="M1126 1565l-483 200l88 181l445 -287zM1729 1454l-340 -1454h-252l-164 793q-29 139 -60 342h-4q-27 -190 -57 -342l-164 -793h-258l-334 1454h248l172 -854q16 -74 49 -295h4q16 119 49 297l164 852h260l168 -852q18 -92 47 -297h5q16 119 49 297l172 852h246z" />
    <glyph glyph-name="wgrave" unicode="&#x1e81;" horiz-adv-x="1482" 
d="M958 1126l-483 201l88 180l445 -286zM1405 1006l-248 -1006h-252l-112 504q-29 119 -48 272h-4q-16 -135 -49 -272l-108 -504h-258l-248 1006h227l115 -549q27 -129 41 -240h4q12 117 37 240l108 549h264l115 -549q23 -102 39 -242h4q14 127 37 244l111 547h225z" />
    <glyph glyph-name="Wacute" unicode="&#x1e82;" horiz-adv-x="1824" 
d="M1176 1765l-484 -200l-49 94l447 287zM1729 1454l-340 -1454h-252l-164 793q-29 139 -60 342h-4q-27 -190 -57 -342l-164 -793h-258l-334 1454h248l172 -854q16 -74 49 -295h4q16 119 49 297l164 852h260l168 -852q18 -92 47 -297h5q16 119 49 297l172 852h246z" />
    <glyph glyph-name="wacute" unicode="&#x1e83;" horiz-adv-x="1482" 
d="M1006 1327l-484 -201l-49 95l447 286zM1405 1006l-248 -1006h-252l-112 504q-29 119 -48 272h-4q-16 -135 -49 -272l-108 -504h-258l-248 1006h227l115 -549q27 -129 41 -240h4q12 117 37 240l108 549h264l115 -549q23 -102 39 -242h4q14 127 37 244l111 547h225z" />
    <glyph glyph-name="Wdieresis" unicode="&#x1e84;" horiz-adv-x="1824" 
d="M825 1640h-217v240h217v-240zM1217 1640h-218v240h218v-240zM1729 1454l-340 -1454h-252l-164 793q-29 139 -60 342h-4q-27 -190 -57 -342l-164 -793h-258l-334 1454h248l172 -854q16 -74 49 -295h4q16 119 49 297l164 852h260l168 -852q18 -92 47 -297h5q16 119 49 297
l172 852h246z" />
    <glyph glyph-name="wdieresis" unicode="&#x1e85;" horiz-adv-x="1482" 
d="M653 1192h-217v240h217v-240zM1044 1192h-217v240h217v-240zM1405 1006l-248 -1006h-252l-112 504q-29 119 -48 272h-4q-16 -135 -49 -272l-108 -504h-258l-248 1006h227l115 -549q27 -129 41 -240h4q12 117 37 240l108 549h264l115 -549q23 -102 39 -242h4
q14 127 37 244l111 547h225z" />
    <glyph glyph-name="Ygrave" unicode="&#x1ef2;" horiz-adv-x="1204" 
d="M819 1575l-483 201l88 180l444 -287zM729 0h-244v608l-450 846h284l289 -580l289 580h272l-440 -846v-608z" />
    <glyph glyph-name="ygrave" unicode="&#x1ef3;" horiz-adv-x="1042" 
d="M741 1126l-483 201l88 180l445 -286zM240 -432q-130 0 -252 74l63 149q99 -49 161 -49t86 24t34 36q10 13 23 44t20 46q6 16 19 56t18 54l-373 1004h242l176 -529q41 -127 61 -213h4q12 72 68 232l166 510h237l-440 -1194q-45 -124 -114 -184t-199 -60z" />
    <glyph glyph-name="endash" unicode="&#x2013;" horiz-adv-x="1228" 
d="M1126 494h-1024v188h1024v-188z" />
    <glyph glyph-name="emdash" unicode="&#x2014;" horiz-adv-x="2021" 
d="M1767 494h-1515v188h1515v-188z" />
    <glyph glyph-name="quoteleft" unicode="&#x2018;" horiz-adv-x="667" 
d="M211 928v227q0 157 53 231t180 89v-105q-66 -8 -88 -46t-22 -130v-12h125v-254h-248z" />
    <glyph glyph-name="quoteright" unicode="&#x2019;" horiz-adv-x="667" 
d="M457 1454v-229q-1 -158 -55 -233t-179 -85v103q68 12 88 51t21 129v10h-123v254h248z" />
    <glyph glyph-name="quotesinglbase" unicode="&#x201a;" horiz-adv-x="667" 
d="M457 254v-229q-1 -158 -55 -232t-179 -86v105q65 8 87 47t22 133v8h-123v254h248z" />
    <glyph glyph-name="quotedblleft" unicode="&#x201c;" horiz-adv-x="964" 
d="M553 928v227q0 157 53 231t180 89v-105q-66 -8 -88 -46t-22 -130v-12h125v-254h-248zM164 928v227q0 157 53 231t180 89v-105q-67 -8 -89 -46t-21 -130v-12h125v-254h-248z" />
    <glyph glyph-name="quotedblright" unicode="&#x201d;" horiz-adv-x="964" 
d="M412 1454v-229q0 -158 -54 -233t-180 -85v103q68 12 88 51t21 129v10h-123v254h248zM801 1454v-229q-1 -158 -55 -233t-179 -85v103q68 12 88 51t21 129v10h-123v254h248z" />
    <glyph glyph-name="quotedblbase" unicode="&#x201e;" horiz-adv-x="964" 
d="M801 254v-229q-1 -158 -55 -232t-179 -86v105q65 8 87 47t22 133v8h-123v254h248zM412 254v-229q0 -158 -54 -232t-180 -86v105q66 8 88 47t21 133v8h-123v254h248z" />
    <glyph glyph-name="dagger" unicode="&#x2020;" horiz-adv-x="1073" 
d="M440 1452h197v-451q90 4 356 5v-170l-356 2v-1059h-197v1059l-356 -2v170l356 -5v451z" />
    <glyph glyph-name="daggerdbl" unicode="&#x2021;" horiz-adv-x="1021" 
d="M403 1452h197v-451q90 4 356 5v-170l-356 2v-672q86 4 356 4v-170l-356 2v-448h-197v448l-356 -2v170l356 -4v672l-356 -2v170l356 -5v451z" />
    <glyph glyph-name="bullet" unicode="&#x2022;" horiz-adv-x="1005" 
d="M152 741q0 145 103 247t247 104q144 0 248 -104t104 -248t-102 -247t-248 -103t-248 102q-104 104 -104 249z" />
    <glyph glyph-name="ellipsis" unicode="&#x2026;" horiz-adv-x="2029" 
d="M1821 0h-248v254h248v-254zM1139 0h-248v254h248v-254zM457 0h-248v254h248v-254z" />
    <glyph glyph-name="perthousand" unicode="&#x2030;" horiz-adv-x="2553" 
d="M1403 1430q-594 -1004 -889 -1506l-121 68l893 1507zM2075 629q-141 0 -141 -254t140 -254q142 0 142 254t-141 254zM2376 377q0 -193 -86 -291t-215 -98t-214 98t-85 291t85 289t215 96t215 -96t85 -289zM455 1303q-141 0 -141 -254t140 -254q142 0 142 254t-141 254z
M754 1051q0 -193 -85 -291t-214 -98t-215 98t-86 291t85 289t215 96t215 -96t85 -289zM1356 629q-142 0 -142 -254t142 -254t141 254q0 254 -141 254zM1657 377q0 -193 -86 -291t-215 -98t-214 98t-85 291t85 289t215 96t215 -96t85 -289z" />
    <glyph glyph-name="guilsinglleft" unicode="&#x2039;" horiz-adv-x="649" 
d="M289 516l235 -334l-114 -80l-314 414l314 412l114 -80z" />
    <glyph glyph-name="guilsinglright" unicode="&#x203a;" horiz-adv-x="649" 
d="M360 516l-237 332l117 80l311 -412l-311 -414l-117 80z" />
    <glyph glyph-name="fraction" unicode="&#x2044;" horiz-adv-x="401" 
d="M705 1430l-887 -1506l-121 68l891 1507z" />
    <glyph glyph-name="Euro" unicode="&#x20ac;" 
d="M190 680v39q0 49 3 72h-132q10 51 29 124h113q35 270 164 421t342 151q350 0 432 -352l-226 -56q-31 209 -208 209q-223 0 -269 -373h451l-33 -124h-428v-111h403l-32 -123h-365q35 -391 268 -391q191 0 216 213l227 -27q-23 -172 -135 -277t-321 -105q-210 0 -336 152
q-126 153 -154 435h-142q20 82 29 123h104z" />
    <glyph glyph-name="afii61289" unicode="&#x2113;" horiz-adv-x="874" 
d="M639 1174q0 59 -30 99t-89 40q-129 0 -129 -199v-414q248 263 248 474zM207 1112q0 176 88 269t226 93t207 -78q69 -79 69 -204q0 -334 -406 -676v-190q0 -106 29 -156t117 -51q88 0 161 53l68 -98q-128 -94 -276 -94t-216 98t-67 246v49l-88 -64l-72 92q102 78 160 127
v584z" />
    <glyph glyph-name="afii61352" unicode="&#x2116;" horiz-adv-x="2097" 
d="M1376 590v141h553v-141h-553zM1524 1155q0 -90 35 -135t94 -45t94 45t35 135t-35 136t-94 46t-94 -46t-35 -136zM1939 1155q-1 -143 -81 -226t-205 -83t-206 83t-81 226t82 227t206 84t204 -84t81 -227zM952 1454h244v-1454h-295l-346 766q-51 111 -115 293h-4
q6 -172 6 -330v-729h-241v1454h299l342 -768q63 -143 112 -293h4l-6 328v733z" />
    <glyph glyph-name="uni2117" unicode="&#x2117;" horiz-adv-x="1761" 
d="M881 1485q323 0 543 -220q220 -221 220 -539t-220 -538q-222 -220 -544 -219q-322 -1 -542 219q-221 220 -221 538t221 538t543 221zM244 727q0 -271 184 -457t452 -186t453 186t185 456t-184 458q-184 186 -453 186q-268 0 -453 -186q-184 -187 -184 -457zM1110 924
q0 66 -44 102t-122 37h-168v-279h162q172 1 172 140zM956 651h-180v-381h-147v926h321q133 0 222 -72q90 -72 90 -196t-82 -201q-82 -76 -224 -76z" />
    <glyph glyph-name="trademark" unicode="&#x2122;" horiz-adv-x="1716" 
d="M1548 651h-129v387q0 125 4 213h-4q-39 -147 -61 -211l-123 -389h-102l-132 391q-35 100 -63 211h-4q4 -90 4 -215v-387h-127v803h188l131 -428q25 -80 50 -176h4q10 47 47 176l123 428h194v-803zM713 1329h-230v-678h-139v678h-225v125h594v-125z" />
    <glyph glyph-name="Omega" unicode="&#x2126;" horiz-adv-x="1247" 
d="M627 1300q-152 0 -238 -108t-86 -304q0 -198 56 -306t186 -156v-426h-418v166h254v170q-287 143 -287 541q0 283 146 445t388 161q243 0 387 -162t144 -444q0 -397 -287 -541v-170h254v-166h-415v426q127 47 183 155t56 306q0 197 -86 305t-237 108z" />
    <glyph glyph-name="estimated" unicode="&#x212e;" horiz-adv-x="1314" 
d="M383 573h567v285q-118 117 -286 117t-281 -117v-285zM383 504v-354q111 -115 283 -115q240 0 376 233l68 -39q-90 -141 -191 -201t-253 -61q-225 0 -364 154q-138 154 -138 383t138 383q138 153 362 153t364 -149q139 -149 141 -387h-786z" />
    <glyph glyph-name="arrowleft" unicode="&#x2190;" horiz-adv-x="1771" 
d="M1661 817v-184h-934q-106 0 -250 4q92 -70 154 -119l213 -176l-115 -137l-625 520l625 520l115 -135l-213 -176q-59 -49 -154 -121q143 4 250 4h934z" />
    <glyph glyph-name="arrowup" unicode="&#x2191;" horiz-adv-x="1771" 
d="M977 0h-184v881q0 104 4 252q-41 -57 -119 -154l-176 -215l-137 115l520 624l520 -624l-135 -115l-176 215q-72 84 -121 154q4 -147 4 -252v-881z" />
    <glyph glyph-name="arrowright" unicode="&#x2192;" horiz-adv-x="1771" 
d="M109 633v184h933q104 0 252 -4q-70 49 -153 121l-215 176l114 135l625 -520l-625 -520l-114 137l215 176q96 78 153 119q-147 -4 -252 -4h-933z" />
    <glyph glyph-name="arrowdown" unicode="&#x2193;" horiz-adv-x="1771" 
d="M793 1454h184v-885q0 -106 -4 -250q72 94 121 154l176 213l135 -115l-520 -624l-520 624l137 115l176 -213q49 -61 119 -154q-4 143 -4 250v885z" />
    <glyph glyph-name="uni2196" unicode="&#x2196;" horiz-adv-x="1771" 
d="M1499 240l-131 -131l-661 661q-74 74 -172 180q2 -26 11 -92t13 -100l25 -277l-178 -16l-74 811l811 -74l-15 -178l-276 27q-27 2 -195 22q106 -98 181 -172z" />
    <glyph glyph-name="uni2197" unicode="&#x2197;" horiz-adv-x="1771" 
d="M463 109l-131 131l661 661q74 74 181 172q-25 -2 -92 -11t-101 -13l-276 -25l-17 178l811 74l-74 -811l-178 14l27 277q2 27 22 194q-98 -106 -172 -180z" />
    <glyph glyph-name="uni2198" unicode="&#x2198;" horiz-adv-x="1771" 
d="M332 1145l131 131l661 -662q74 -74 172 -180q-2 26 -11 92t-13 101l-25 276l178 17l74 -811l-811 73l14 178l277 -26q27 -2 195 -23q-106 98 -181 172z" />
    <glyph glyph-name="uni2199" unicode="&#x2199;" horiz-adv-x="1771" 
d="M1368 1276l131 -131l-661 -662q-74 -74 -181 -172q25 1 92 11t101 14l276 24l17 -178l-811 -73l74 811l178 -15l-27 -276q-2 -27 -22 -195q98 106 172 180z" />
    <glyph glyph-name="uni21A4" unicode="&#x21a4;" horiz-adv-x="1771" 
d="M1661 1219v-992h-184v406h-750q-106 0 -250 4q92 -70 154 -119l213 -176l-115 -137q-319 270 -625 520l625 520q78 -90 115 -135l-213 -176q-59 -49 -154 -121q143 4 250 4h750v402h184z" />
    <glyph glyph-name="uni21A5" unicode="&#x21a5;" horiz-adv-x="1771" 
d="M977 184h401v-184h-991v184h406v697q0 104 4 252q-41 -57 -119 -154l-176 -215l-137 115l520 624q270 -319 520 -624q-45 -37 -135 -115l-176 215q-72 84 -121 154l4 -330v-619z" />
    <glyph glyph-name="uni21A6" unicode="&#x21a6;" horiz-adv-x="1771" 
d="M109 227v992h186v-402h747q104 0 252 -4q-4 4 -192 154l-176 143q78 90 114 135q305 -250 625 -520l-625 -520l-114 137l215 176q96 78 153 119q-92 -4 -315 -4h-684v-406h-186z" />
    <glyph glyph-name="uni21A7" unicode="&#x21a7;" horiz-adv-x="1771" 
d="M387 1454h991v-186h-401v-697q0 -106 -4 -249q72 94 121 153l176 213q45 -37 135 -115l-520 -622l-520 622l137 115l176 -213q49 -61 119 -153q-4 94 -4 327v619h-406v186z" />
    <glyph glyph-name="uni21B0" unicode="&#x21b0;" horiz-adv-x="1771" 
d="M1661 817v-590h-184v406h-684q-225 0 -316 4q14 -10 367 -295l-115 -137q-319 270 -625 520l625 520q78 -90 115 -135l-213 -176q-59 -49 -154 -121q143 4 250 4h934z" />
    <glyph glyph-name="uni21B1" unicode="&#x21b1;" horiz-adv-x="1771" 
d="M109 227v590h933q104 0 252 -4q-45 31 -108 84l-260 213q78 90 114 135q305 -250 625 -520l-625 -520l-114 137l215 176q96 78 153 119q-92 -4 -315 -4h-684v-406h-186z" />
    <glyph glyph-name="uni21B2" unicode="&#x21b2;" horiz-adv-x="1771" 
d="M1661 1223v-588h-934q-106 0 -250 4q49 -31 156 -119l211 -178l-115 -137q-319 270 -625 520l625 520q78 -90 115 -135l-213 -176q-59 -49 -154 -121q143 4 250 4h750v406h184z" />
    <glyph glyph-name="uni21B3" unicode="&#x21b3;" horiz-adv-x="1771" 
d="M125 635v588h186v-406h748q104 0 252 -4q-4 4 -193 154l-176 143q78 90 115 135q305 -250 624 -520l-624 -520l-115 137l215 176q133 106 154 121q-147 -4 -252 -4h-934z" />
    <glyph glyph-name="uni21B4" unicode="&#x21b4;" horiz-adv-x="1771" 
d="M387 1454h590v-807q0 -49 -2 -165t-2 -163q72 94 121 154l176 213q45 -37 135 -115l-520 -622l-520 622l137 115l176 -213q49 -61 119 -154q-4 94 -4 328v621h-406v186z" />
    <glyph glyph-name="carriagereturn" unicode="&#x21b5;" horiz-adv-x="1771" 
d="M1661 1223v-588h-934q-106 0 -250 4q86 -66 154 -121l213 -176l-115 -137q-319 270 -625 520l625 520q78 -90 115 -135l-213 -176q-59 -49 -154 -121q143 4 250 4h750v406h184z" />
    <glyph glyph-name="partialdiff" unicode="&#x2202;" horiz-adv-x="1095" 
d="M508 1485q215 0 319 -142q164 -219 164 -668t-208 -617q-114 -91 -269 -91q-194 0 -310 123t-116 333t116 349t294 139t274 -104q-4 145 -37 263t-87 175t-149 57t-204 -90l-107 136q143 137 320 137zM539 733q-109 1 -171 -79t-63 -222q0 -142 56 -211q56 -70 151 -69
q127 0 194 114t66 318q-34 68 -100 108t-133 41z" />
    <glyph glyph-name="Delta" unicode="&#x2206;" horiz-adv-x="1257" 
d="M924 186l-316 920l-311 -920h627zM1212 -2h-1202l512 1456h170z" />
    <glyph glyph-name="product" unicode="&#x220f;" horiz-adv-x="1267" 
d="M164 1720h960v-2166h-217v1972h-526v-1972h-217v2166z" />
    <glyph glyph-name="summation" unicode="&#x2211;" horiz-adv-x="980" 
d="M932 -446h-877v182l541 901l-541 905v178h877v-194h-615l533 -889l-533 -889h615v-194z" />
    <glyph glyph-name="minus" unicode="&#x2212;" 
d="M1075 442h-971v166h971v-166z" />
    <glyph glyph-name="uni2219" unicode="&#x2219;" horiz-adv-x="565" 
d="M391 414h-248v254h248v-254z" />
    <glyph glyph-name="radical" unicode="&#x221a;" horiz-adv-x="1071" 
d="M1106 1720l-473 -2164h-164l-313 630l-148 -69l-74 151l324 158l248 -512l385 1806h215z" />
    <glyph glyph-name="infinity" unicode="&#x221e;" 
d="M1149 533q0 -136 -73 -221t-189 -85q-152 0 -297 187q-147 -186 -295 -187q-119 0 -194 82t-75 217t73 222q73 86 190 86q147 0 301 -197q74 96 141 147q68 51 150 52q119 0 193 -84t75 -219zM879 387q47 0 77 38q30 39 29 103q0 64 -30 103t-78 39q-82 0 -207 -146
q117 -137 209 -137zM297 387q90 0 207 137l-25 27q-109 117 -186 117q-45 0 -75 -40t-30 -104t30 -100t79 -37z" />
    <glyph glyph-name="uni2224" unicode="&#x2224;" horiz-adv-x="565" 
d="M391 414h-248v254h248v-254z" />
    <glyph glyph-name="logicaland" unicode="&#x2227;" horiz-adv-x="565" 
d="M391 414h-248v254h248v-254z" />
    <glyph glyph-name="integral" unicode="&#x222b;" horiz-adv-x="1026" 
d="M582 1434v-1618q0 -125 -67 -195t-177 -70q-150 0 -256 117l102 129q53 -49 111 -49q78 0 78 90v1616q0 125 66 196q67 71 175 70q150 0 256 -118l-100 -129q-55 49 -113 49q-75 0 -75 -88z" />
    <glyph glyph-name="approxequal" unicode="&#x2248;" 
d="M348 348q-117 0 -117 -104h-153q0 134 78 200t198 66q66 0 119 -18t149 -72t131 -68q34 -12 81 -12q117 0 116 104h152q0 -134 -77 -200t-198 -66q-66 0 -119 18t-149 73t-130 67t-81 12zM231 608h-153q0 133 78 200t198 66q66 0 119 -18t149 -72t131 -67q34 -12 81 -12
q117 0 116 104h152q0 -133 -77 -200t-198 -66q-66 1 -119 19t-149 72t-130 66t-81 13q-117 0 -117 -105z" />
    <glyph glyph-name="notequal" unicode="&#x2260;" 
d="M1075 793v-166h-352l-88 -201h440v-166h-510l-110 -260l-152 68l80 192h-279v166h351l86 201h-437v166h508q90 211 113 260l154 -66l-86 -194h282z" />
    <glyph glyph-name="lessequal" unicode="&#x2264;" 
d="M1014 158l-918 383v143l918 385l67 -158l-503 -202q-162 -68 -269 -95v-4q68 -18 152 -49l117 -43l252 -102t251 -103zM96 68h971v-166h-971v166z" />
    <glyph glyph-name="greaterequal" unicode="&#x2265;" 
d="M1081 541l-917 -383l-68 155q36 13 182 75t286 120t302 102v4q-98 27 -204 70l-566 227l68 158l917 -385v-143zM111 68h970v-166h-970v166z" />
    <glyph glyph-name="dotmath" unicode="&#x22c5;" horiz-adv-x="565" 
d="M391 414h-248v254h248v-254z" />
    <glyph glyph-name="lozenge" unicode="&#x25ca;" horiz-adv-x="1206" 
d="M819 731l-229 531l-225 -533l225 -534zM1034 729l-346 -774h-199l-339 776l339 774h199z" />
    <glyph glyph-name="apple" unicode="&#xf8ff;" horiz-adv-x="1140" 
d="M834 786h-527v-542h527v542zM981 111h-821v809h821v-809z" />
    <glyph glyph-name="zero.plf" horiz-adv-x="1189" 
d="M324 706q0 -544 271 -544t271 544t-272 543q-270 1 -270 -543zM1094 707q0 -336 -126 -535t-374 -199t-373 199t-125 535q0 335 125 533t373 198t374 -198t126 -533z" />
    <glyph glyph-name="one.plf" horiz-adv-x="1024" 
d="M770 1411v-1411h-225v1116q-136 -129 -320 -262l-119 154q281 209 465 403h199z" />
    <glyph glyph-name="two.plf" horiz-adv-x="1112" 
d="M983 0h-858v197q188 145 440 411q119 125 160 221q41 97 41 199t-52 162t-149 59q-219 0 -223 -270l-225 16q0 195 116 319q117 124 330 124t323 -113t110 -269t-62 -284q-61 -126 -217 -286t-336 -302q193 4 266 4h336v-188z" />
    <glyph glyph-name="three.plf" horiz-adv-x="1161" 
d="M1065 426q0 -203 -124 -329q-123 -126 -359 -126t-353 122t-120 319l225 24q6 -276 256 -276q114 0 180 70t66 188q0 186 -155 234q-83 26 -183 26h-58v172h58q301 0 301 211q-1 86 -57 137t-150 51q-207 0 -221 -194l-226 20q6 158 125 260q119 103 323 103
q205 0 317 -104t112 -246t-76 -217t-178 -93v-4q119 -16 208 -104t89 -244z" />
    <glyph glyph-name="four.plf" horiz-adv-x="1140" 
d="M641 485v533l-350 -533h350zM1071 297h-192v-297h-238v297h-549v201l604 913h183v-926h192v-188z" />
    <glyph glyph-name="five.plf" horiz-adv-x="1171" 
d="M655 965q193 0 307 -133q114 -134 115 -358q0 -224 -127 -363t-358 -140q-180 -1 -316 99t-167 292q164 23 229 33q14 -111 81 -173t181 -62t182 85t68 225t-65 225t-187 85q-172 0 -256 -172h-192l49 803h786v-188h-606l-25 -381q0 -2 2 -2q106 125 299 125z" />
    <glyph glyph-name="six.plf" horiz-adv-x="1161" 
d="M604 162q114 0 178 76q66 76 66 210t-62 210t-177 77q-115 0 -185 -79q-70 -80 -70 -210t68 -207t182 -77zM1075 462q0 -204 -123 -346q-122 -142 -362 -142t-361 180q-121 182 -121 505t120 543q60 111 162 173t237 63q189 0 291 -98t120 -263q-66 -6 -219 -22
q-10 100 -55 151t-139 51q-139 0 -214 -145t-79 -348h2q43 70 126 114t187 44q199 0 314 -128q114 -128 114 -332z" />
    <glyph glyph-name="seven.plf" horiz-adv-x="1062" 
d="M94 1223v188h897l-2 -168q-217 -256 -321 -560t-127 -683h-238q25 362 137 654q113 292 324 569h-670z" />
    <glyph glyph-name="eight.plf" 
d="M791 1051q-1 92 -55 145t-148 53t-148 -53t-55 -145q0 -93 54 -151q55 -58 149 -58t148 58t55 151zM844 413q0 115 -68 181t-186 66t-188 -68q-68 -68 -68 -178t70 -182q70 -70 186 -70q114 0 184 68t70 183zM1071 403q0 -193 -133 -311t-350 -119q-217 0 -349 119
t-133 311q0 150 82 241t183 120v4q-86 25 -149 104q-62 80 -62 191q0 166 121 270q121 105 306 105t307 -104t122 -271q0 -113 -65 -193t-150 -104v-4q100 -23 185 -116t85 -243z" />
    <glyph glyph-name="nine.plf" horiz-adv-x="1163" 
d="M322 961q0 -133 63 -209t181 -76t185 78t66 209t-67 209t-185 77q-119 0 -181 -78t-62 -210zM94 971q0 205 127 336t359 131t357 -173q124 -173 124 -464q0 -426 -125 -627t-389 -201q-182 -1 -291 93t-123 268l217 24q6 -98 56 -152t141 -54q147 0 216 134t73 349
q0 2 -2 2q-94 -147 -304 -147t-324 138q-112 138 -112 343z" />
    <glyph glyph-name="parenleft.case" horiz-adv-x="751" 
d="M389 727q0 -485 307 -903l-133 -96q-391 477 -391 999t391 999l133 -96q-307 -418 -307 -903z" />
    <glyph glyph-name="parenright.case" horiz-adv-x="751" 
d="M362 727q0 485 -307 903l133 96q392 -477 392 -999t-392 -999l-133 96q307 418 307 903z" />
    <glyph glyph-name="hyphen.case" horiz-adv-x="923" 
d="M768 635h-612v188h612v-188z" />
    <glyph glyph-name="bracketleft.case" horiz-adv-x="765" 
d="M727 -233h-477v1896h477v-170h-258v-1559h258v-167z" />
    <glyph glyph-name="bracketright.case" horiz-adv-x="765" 
d="M516 -233h-477v167h258v1559h-258v170h477v-1896z" />
    <glyph glyph-name="braceleft.case" horiz-adv-x="811" 
d="M276 1317q0 186 69 266t251 80h100v-174h-75q-78 0 -101 -39t-22 -133v-338q0 -119 -42 -179t-134 -83v-4q90 -23 133 -82t43 -180v-340q0 -94 23 -133q24 -38 100 -37h75v-174h-125q-170 0 -232 85t-63 261v317q0 115 -35 157q-36 42 -132 46v164q96 4 132 46t35 156
v318z" />
    <glyph glyph-name="braceright.case" horiz-adv-x="811" 
d="M535 113q0 -187 -70 -267t-250 -79h-100v174h75q76 1 100 37t23 133v340q0 121 42 180t134 82v4q-92 21 -134 81t-42 181v338q0 94 -22 133q-23 39 -101 39h-75v174h125q166 0 230 -85t65 -261v-318q1 -115 35 -157t132 -45v-164q-98 -2 -133 -45t-34 -158v-317z" />
    <glyph glyph-name="guillemotleft.case" horiz-adv-x="1032" 
d="M913 999l-237 -331l237 -334l-116 -80l-312 414l312 411zM289 668l235 -334l-114 -80l-314 414l314 411l114 -80z" />
    <glyph glyph-name="uni00AD.case" horiz-adv-x="923" 
d="M768 635h-612v188h612v-188z" />
    <glyph glyph-name="guillemotright.case" horiz-adv-x="1032" 
d="M346 668l-237 331l116 80l312 -411l-312 -414l-116 80zM498 334q185 260 235 334l-235 331l114 80l314 -411l-314 -414z" />
    <glyph glyph-name="endash.case" horiz-adv-x="1228" 
d="M1126 635h-1024v188h1024v-188z" />
    <glyph glyph-name="emdash.case" horiz-adv-x="2021" 
d="M1767 635h-1515v188h1515v-188z" />
    <glyph glyph-name="guilsinglleft.case" horiz-adv-x="649" 
d="M289 668l235 -334l-114 -80l-314 414l314 411l114 -80z" />
    <glyph glyph-name="guilsinglright.case" horiz-adv-x="649" 
d="M360 668l-237 331l117 80l311 -411l-311 -414l-117 80z" />
    <glyph glyph-name="commaaccent" horiz-adv-x="667" 
d="M457 -152v-159q0 -113 -50 -165t-163 -75l-21 90q61 12 87 36t26 77h-127v196h248z" />
    <glyph glyph-name="commaturn" horiz-adv-x="667" 
d="M211 1255v160q0 113 49 165t162 75l22 -90q-59 -12 -87 -36t-27 -75h129v-199h-248z" />
    <glyph glyph-name="f_b" horiz-adv-x="1972" 
d="M1632 506q0 170 -58 260t-166 90t-168 -93t-60 -261t60 -261t169 -94q223 1 223 359zM1182 1044q0 -113 -4 -170h4q35 68 105 112q71 44 161 44q182 0 296 -139t114 -391t-116 -389t-294 -138q-90 0 -163 44t-105 116h-4q-2 -63 -11 -133h-213q10 178 11 330v952
q-43 2 -154 15t-195 13t-118 -63q-18 -35 -19 -137v-104h275v-170h-275v-836h-219v836h-201v170h201v131q0 174 78 262t256 88q76 1 253 -25t337 -28v-390z" />
    <glyph glyph-name="f_f_j" horiz-adv-x="2068" 
d="M1890 1202h-225v242h225v-242zM258 1137q0 350 289 350q137 0 264 -60l-55 -151q-76 35 -153 35t-105 -51q-20 -35 -21 -150v-104h486v131q1 186 77 268t230 82q113 0 235 -64l-57 -145q-72 33 -144 33t-96 -43q-26 -43 -26 -158v-104h706v-1080q0 -358 -302 -358
q-146 0 -269 63l63 152q92 -41 165 -41t102 49q23 35 22 154v891h-487v-836h-219v836h-486v-836h-219v836h-201v170h201v131z" />
    <glyph glyph-name="f_f_t" horiz-adv-x="2267" 
d="M1669 319v517h-487v-836h-219v836h-486v-836h-219v836h-201v170h201v131q0 250 145 319q65 31 173 31t235 -60l-55 -151q-76 35 -153 35t-101 -43t-25 -158v-104h486v131q0 350 307 350q113 0 235 -64q-20 -47 -57 -145q-72 33 -144 33t-98 -44q-25 -44 -24 -157v-104
h487v317l219 94v-411h264v-170h-264v-490q0 -121 28 -159t102 -38t155 35q10 -31 59 -151q-123 -59 -256 -60q-307 0 -307 346z" />
    <glyph glyph-name="f_h" horiz-adv-x="1951" 
d="M1182 1012q0 -90 -2 -135h2q38 69 110 111t160 42q334 0 334 -385v-645h-219v608q0 121 -40 179q-40 59 -130 59q-91 0 -153 -71t-62 -208v-567h-219v1282q-43 2 -154 15t-191 13t-110 -40q-31 -41 -31 -160v-104h275v-170h-275v-836h-219v836h-201v170h201v131
q0 350 334 350q76 1 253 -25t337 -28v-422z" />
    <glyph glyph-name="f_j" horiz-adv-x="1363" 
d="M1186 1202h-225v242h225v-242zM1182 -74q0 -358 -302 -358q-146 0 -270 63l64 152q92 -41 164 -41t104 49q20 33 21 154v891h-486v-836h-219v836h-201v170h201v131q0 186 76 268t231 82q111 0 234 -64l-58 -145q-69 33 -141 33t-97 -43t-26 -158v-104h705v-1080z" />
    <glyph glyph-name="f_k" horiz-adv-x="1898" 
d="M1182 0h-219v1282q-43 2 -154 15t-191 13t-110 -40q-31 -41 -31 -160v-104h275v-170h-275v-836h-219v836h-201v170h201v131q0 247 157 318q71 32 162 32q91 1 268 -25t337 -28v-840l372 412h283l-389 -412l412 -594h-269l-288 442l-121 -123v-319z" />
    <glyph glyph-name="f_t" horiz-adv-x="1560" 
d="M1182 346q0 -119 28 -158q28 -38 102 -38q75 0 154 34q49 -121 60 -151q-119 -59 -254 -60q-309 0 -309 346v517h-486v-836h-219v836h-201v170h201v131q0 250 145 319q65 31 169 31t227 -64l-58 -145q-71 33 -143 33t-96 -44t-25 -157v-104h486v317l219 94v-411h264v-170
h-264v-490z" />
    <glyph glyph-name="f_u" horiz-adv-x="1961" 
d="M1571 137h-4q-33 -69 -106 -115t-173 -47q-166 1 -256 97t-90 274v490h-465v-836h-219v836h-201v170h201v135q0 346 307 346q123 0 254 -68l-55 -145q-80 37 -159 37t-103 -44t-25 -157v-104h684v-621q0 -227 180 -227q98 0 158 69q59 70 60 213v566h219v-689
q0 -150 10 -317h-211q-6 104 -6 137z" />
    <glyph glyph-name="f_v" horiz-adv-x="1800" 
d="M258 1137q0 350 291 350q135 0 262 -60l-55 -151q-76 35 -153 35t-101 -43t-25 -158v-104h582q16 -49 147 -453l33 -100q2 -4 51 -193h4q27 117 52 193l178 553h227l-362 -1006h-203l-303 836h-406v-836h-219v836h-201v170h201v131z" />
    <glyph glyph-name="f_w" horiz-adv-x="2248" 
d="M258 1137q0 350 289 350q137 0 264 -60l-55 -151q-76 35 -153 35t-105 -51q-20 -35 -21 -150v-104h594l115 -549q27 -129 41 -240h4q12 117 37 240l108 549h264l115 -549q23 -102 39 -242h4q14 127 37 244l111 547h225l-248 -1006h-252l-112 504q-29 119 -48 272h-4
q-16 -135 -49 -272l-108 -504h-258l-207 836h-408v-836h-219v836h-201v170h201v131z" />
    <glyph glyph-name="f_y" horiz-adv-x="1818" 
d="M258 1137q0 350 291 350q135 0 262 -60l-55 -151q-76 35 -153 35t-101 -43t-25 -158v-104h580l155 -461q14 -59 43 -151t39 -130h4q14 70 54 189l180 553h237l-440 -1194q-45 -124 -114 -184t-199 -60t-252 74l63 149q99 -49 161 -49t86 24t42 47q19 24 43 99
q24 76 29 90l-309 834h-402v-836h-219v836h-201v170h201v131z" />
    <glyph glyph-name="t_f" horiz-adv-x="1609" 
d="M1034 1137q0 351 289 349q137 0 264 -59l-55 -151q-76 35 -153 35t-105 -51q-20 -35 -21 -150v-104h281v-170h-281v-836h-219v836h-553v-490q0 -116 27 -156q28 -40 102 -40t156 34l59 -151q-123 -59 -269 -59q-294 -1 -294 345v517h-205v170h205v317l219 94v-411h553
v131z" />
    <glyph glyph-name="t_i" horiz-adv-x="1435" 
d="M1255 1202h-225v242h225v-242zM1253 0h-219v836h-553v-490q0 -121 28 -159q27 -37 101 -37t156 34q10 -31 59 -151q-123 -59 -256 -60q-307 0 -307 346v517h-205v170h205v317l219 94v-411h772v-1006z" />
    <glyph glyph-name="t_j" horiz-adv-x="1474" 
d="M1294 1202h-225v242h225v-242zM1073 -53v889h-592v-490q0 -121 28 -159q27 -37 101 -37t156 34q10 -31 59 -151q-123 -59 -256 -60q-307 0 -307 346v517h-205v170h205v317l219 94v-411h811v-1078q0 -164 -68 -262t-247 -98q-129 0 -256 65q51 121 63 150q88 -39 165 -39
t101 44q23 44 23 159z" />
    <glyph glyph-name="t_t" horiz-adv-x="1632" 
d="M1034 319v517h-553v-490q0 -121 28 -159q27 -37 101 -37t156 34q10 -31 59 -151q-123 -59 -256 -60q-307 0 -307 346v517h-205v170h205v317l219 94v-411h553v317l219 94v-411h265v-170h-265v-490q0 -121 28 -159q27 -38 101 -38t156 35q10 -31 59 -151q-123 -59 -256 -60
q-307 0 -307 346z" />
    <glyph glyph-name="t_t_f" horiz-adv-x="2381" 
d="M1034 319v517h-553v-490q0 -121 28 -159q27 -37 101 -37t156 34q10 -31 59 -151q-123 -59 -256 -60q-307 0 -307 346v517h-205v170h205v317l219 94v-411h553v317l219 94v-411h553v131q0 249 146 319q66 31 174 31t233 -60l-55 -151q-76 35 -153 35t-101 -43t-25 -158
v-104h281v-170h-281v-836h-219v836h-553v-490q0 -121 28 -159q27 -38 101 -38t156 35q10 -31 59 -151q-123 -59 -256 -60q-307 0 -307 346z" />
    <glyph glyph-name="t_t_j" horiz-adv-x="2232" 
d="M2054 1202h-225v242h225v-242zM1044 836h-563v-490q0 -121 28 -159q27 -37 101 -37t156 34q10 -31 59 -151q-123 -59 -256 -60q-307 0 -307 346v517h-205v170h205v317l219 94v-411h563v317l220 94v-411h788v-1078q0 -164 -69 -262t-246 -98q-129 0 -256 65q51 121 63 150
q88 -39 165 -39t101 44t23 159v889h-569v-490q0 -121 28 -159t100 -38q74 0 156 35q10 -31 60 -151q-123 -59 -256 -60q-307 0 -308 346v517z" />
    <glyph glyph-name="t_u" horiz-adv-x="2029" 
d="M1010 346v490h-529v-490q0 -121 28 -159q27 -37 101 -37t156 34q10 -31 59 -151q-123 -59 -256 -60q-307 0 -307 346v517h-205v170h205v317l219 94v-411h748v-621q0 -115 41 -171t137 -56t158 69q61 70 61 213v566h219v-689q0 -150 10 -317h-210q-4 31 -9 137h-4
q-32 -69 -104 -115t-174 -47q-168 -1 -256 97t-88 274z" />
    <glyph glyph-name="t_v" horiz-adv-x="1812" 
d="M481 836v-490q0 -121 28 -159q27 -37 101 -37t156 34q10 -31 59 -151q-123 -59 -256 -60q-307 0 -307 346v517h-205v170h205v317l219 94v-411h590l178 -553q35 -109 51 -193h5q27 117 51 193l178 553h229l-364 -1006h-203l-301 836h-414z" />
    <glyph glyph-name="t_w" horiz-adv-x="2304" 
d="M481 836v-490q0 -121 28 -159q27 -37 101 -37t156 34q10 -31 59 -151q-123 -59 -256 -60q-307 0 -307 346v517h-205v170h205v317l219 94v-411h645q16 -86 73 -345t81 -444h4q14 119 31 201l115 588h266l100 -490q39 -188 53 -301h4q8 109 37 244l111 547h225l-248 -1006
h-252l-122 549q-23 100 -39 227h-4q-12 -98 -39 -227l-117 -549h-260l-205 836h-459z" />
    <glyph glyph-name="t_y" horiz-adv-x="1863" 
d="M1064 -432q-132 0 -255 74l63 149q98 -49 161 -49t86 24t42 47q19 24 43 99q24 76 29 90l-309 834h-443v-490q0 -121 28 -159q27 -37 101 -37t156 34q10 -31 59 -151q-123 -59 -256 -60q-307 0 -307 346v517h-205v170h205v317l219 94v-411h621l153 -461q49 -145 84 -281
h4q14 70 54 189l180 553h238l-441 -1194q-47 -129 -112 -187q-66 -57 -198 -57z" />
    <glyph glyph-name="caron.alt" horiz-adv-x="481" 
d="M393 1419l-184 -358l-105 37l103 397z" />
    <glyph glyph-name="arrowleft.salt" horiz-adv-x="2394" 
d="M2279 635h-1544q-160 0 -303 4q51 -43 215 -203l369 -368l-133 -123l-777 780l777 780l133 -121l-369 -368q-125 -125 -215 -203q143 4 303 4h1544v-182z" />
    <glyph glyph-name="arrowup.salt" horiz-adv-x="2394" 
d="M1106 -362v1546q0 156 4 303q-45 -55 -203 -217l-368 -367l-123 133l780 776l780 -776l-121 -133l-368 367q-131 131 -203 217q4 -147 4 -303v-1546h-182z" />
    <glyph glyph-name="arrowright.salt" horiz-adv-x="2394" 
d="M1659 635h-1544v182h1544q160 0 303 -4q-90 78 -215 203l-369 368l133 121l777 -780l-777 -780l-133 123l369 368q125 125 215 203q-143 -4 -303 -4z" />
    <glyph glyph-name="arrowdown.salt" horiz-adv-x="2394" 
d="M1106 266v1546h182v-1546q0 -156 -4 -303q72 86 203 217l368 367l121 -133l-780 -776l-780 776l123 133l368 -367q113 -109 203 -217q-4 147 -4 303z" />
    <glyph glyph-name="uni21A4.salt" horiz-adv-x="2394" 
d="M2101 10v623h-1366q-160 0 -303 4q90 -76 215 -203l369 -368l-133 -121l-777 780l777 780l133 -123l-369 -368q-125 -127 -215 -203q143 4 303 4h1366v623h180v-1428h-180z" />
    <glyph glyph-name="uni21A5.salt" horiz-adv-x="2394" 
d="M483 -184h623v1368q0 156 4 303q-45 -55 -203 -217l-368 -367l-123 133l780 776l780 -776l-121 -133l-368 367q-131 131 -203 217q4 -147 4 -303v-1368h623v-178h-1428v178z" />
    <glyph glyph-name="uni21A6.salt" horiz-adv-x="2394" 
d="M293 633v-623h-180v1428h180v-623h1366q160 0 303 -4q-113 98 -215 203l-369 368l133 123l777 -780l-777 -780q-66 63 -133 121l369 368q125 127 215 203q-143 -4 -303 -4h-1366z" />
    <glyph glyph-name="uni21A7.salt" horiz-adv-x="2394" 
d="M1106 1632h-623v180h1428v-180h-623v-1366q0 -160 -4 -303q76 90 203 215l368 369l121 -133l-780 -776l-780 776l123 133l368 -369q125 -127 203 -215q-4 143 -4 303v1366z" />
    <glyph glyph-name="uni21B0.salt" horiz-adv-x="2394" 
d="M2101 10v623h-1366q-160 0 -303 4q90 -76 215 -203l369 -368l-133 -121l-777 780l777 780l133 -123l-369 -368q-125 -127 -215 -203q143 4 303 4h1546v-805h-180z" />
    <glyph glyph-name="uni21B1.salt" horiz-adv-x="2394" 
d="M293 633v-623h-180v805h1546q160 0 303 -4q-51 43 -215 203l-369 368l133 123l777 -780l-777 -780l-133 121l369 368q125 127 215 203q-143 -4 -303 -4h-1366z" />
    <glyph glyph-name="uni21B2.salt" horiz-adv-x="2394" 
d="M2101 815v623h180v-805h-1546q-160 0 -303 4q90 -76 215 -203l369 -368l-133 -121l-777 778l777 782l133 -123l-369 -368q-125 -127 -215 -203q143 4 303 4h1366z" />
    <glyph glyph-name="uni21B3.salt" horiz-adv-x="2394" 
d="M293 1438v-623h1366q160 0 303 -4q-51 43 -215 203l-369 368l133 123l777 -782l-777 -778l-133 121l369 368q125 127 215 203q-143 -4 -303 -4h-1546v805h180z" />
    <glyph glyph-name="uni21B4.salt" horiz-adv-x="2394" 
d="M1106 1632h-623v178h805v-1546q0 -156 -4 -303q72 86 203 217l368 367l121 -133l-778 -777l-782 777l123 133l368 -367q113 -109 203 -217q-4 147 -4 303v1368z" />
    <glyph glyph-name="carriagereturn.salt" horiz-adv-x="2394" 
d="M2101 815v623h180v-805h-1546q-160 0 -303 4q90 -76 215 -203l369 -368l-133 -121l-777 778l777 782l133 -123l-369 -368q-125 -127 -215 -203q143 4 303 4h1366z" />
    <glyph glyph-name="zero.plfslash" horiz-adv-x="1189" 
d="M866 707q0 147 -26 270l-426 -721q68 -94 180 -94q272 0 272 545zM324 707q0 -176 26 -289l428 725q-66 106 -184 106q-270 1 -270 -542zM1094 707q0 -336 -126 -535t-374 -199t-373 199t-125 535q0 335 125 533t373 198t374 -198t126 -533z" />
    <glyph glyph-name="zero.tlfslash" 
d="M860 707q0 147 -26 270l-426 -721q68 -94 180 -94q272 0 272 545zM317 707q0 -176 27 -289l428 725q-66 106 -184 106q-271 1 -271 -542zM1087 707q1 -336 -125 -535t-374 -199t-373 199t-125 535q0 335 125 533t373 198t374 -198t125 -533z" />
    <glyph glyph-name="at.case" horiz-adv-x="1759" 
d="M1028 809q0 160 -115 160q-71 -1 -121 -63q-87 -110 -90 -292q0 -221 134 -221q142 0 184 297q8 64 8 119zM985 1561q291 0 469 -204t178 -498t-114 -457t-308 -162q-154 0 -192 145h-4q-74 -147 -213 -147t-215 100t-76 244q0 304 170 460q90 84 211 84q68 0 121 -36
t71 -101h7q8 20 24 64l16 43h168q-43 -127 -65 -281l-39 -262q-12 -69 -12 -101t21 -52q22 -19 50 -19q104 0 164 122q59 122 60 333q1 260 -135 422t-363 161q-297 0 -479 -213t-183 -585q-1 -171 53 -305q96 -241 346 -325q110 -38 234 -38t256 53q133 53 199 131l86 -98
q-82 -96 -238 -162q-259 -110 -547 -37q-238 62 -393 247q-76 91 -120 228q-45 137 -46 303q1 424 231 684t607 259z" />
    <glyph glyph-name="bar.case" horiz-adv-x="555" 
d="M365 -383h-175v2208h175v-2208z" />
    <glyph glyph-name="plus.case" 
d="M1073 641h-401v-395h-168v395h-402v166h402v395h168v-395h401v-166z" />
    <glyph glyph-name="minus.case" 
d="M1073 641h-971v166h971v-166z" />
    <glyph glyph-name="plusminus.case" 
d="M1073 641h-401v-375h-168v375h-402v166h402v375h168v-375h401v-166zM102 166h971v-166h-971v166z" />
    <glyph glyph-name="multiply.case" 
d="M907 223l-319 320l-322 -320l-116 117l319 322l-319 319l116 119l322 -322l319 322l119 -119l-321 -319l321 -322z" />
    <glyph glyph-name="divide.case" 
d="M711 233h-248v254h248v-254zM711 965h-248v254h248v-254zM1073 641h-971v166h971v-166z" />
    <glyph glyph-name="equal.case" 
d="M1073 391h-971v166h971v-166zM1073 758h-971v166h971v-166z" />
    <glyph glyph-name="notequal.case" 
d="M1073 924v-166h-352l-88 -201h440v-166h-510l-110 -260l-152 70l80 190h-279v166h351l86 201h-437v166h508l113 262l154 -68l-86 -194h282z" />
    <glyph glyph-name="approxequal.case" 
d="M348 481q-117 0 -117 -104h-153q0 133 78 200t198 66q66 0 119 -18q53 -19 149 -73t131 -66q34 -12 81 -13q117 0 116 105h152q0 -133 -77 -200t-198 -67q-66 0 -119 19t-149 73t-130 66t-81 12zM348 848q-117 0 -117 -105h-153q0 133 78 199t198 66q66 0 119 -18
t149 -74q96 -54 131 -66q34 -12 81 -12q117 0 116 104h152q0 -133 -77 -199t-198 -65q-66 0 -119 18t-149 73t-130 67t-81 12z" />
    <glyph glyph-name="less.case" 
d="M1032 133l-956 457v141l956 457l70 -148l-606 -276q-154 -70 -250 -100v-5q123 -43 250 -100l606 -278z" />
    <glyph glyph-name="greater.case" 
d="M1102 590l-955 -457l-71 148l608 278q125 57 250 100v5q-102 33 -250 100l-608 276l71 148l955 -457v-141z" />
    <glyph glyph-name="lessequal.case" 
d="M1014 256l-918 383v143l918 385l67 -157l-503 -203q-162 -68 -269 -94v-4q68 -18 152 -50l117 -43l252 -102t251 -102zM96 166h971v-166h-971v166z" />
    <glyph glyph-name="greaterequal.case" 
d="M1081 639l-917 -383l-68 156l252 102l252 102l115 43q72 27 151 50v4q-147 43 -266 94l-504 203l68 157l917 -385v-143zM111 166h970v-166h-970v166z" />
    <glyph glyph-name="logicalnot.case" 
d="M1100 420h-187v315h-833v180h1020v-495z" />
    <glyph glyph-name="infinity.case" 
d="M881 969q119 0 193 -84t75 -219q0 -134 -73 -220t-189 -86q-152 0 -297 187q-145 -186 -295 -187q-119 0 -194 82t-75 218t73 221q73 86 190 86q147 0 301 -197q74 96 141 148q68 51 150 51zM879 518q47 0 77 38t29 102q0 64 -30 104q-30 39 -78 39q-84 0 -207 -144
q119 -139 209 -139zM297 518q88 0 207 139l-25 27q-109 117 -186 117q-45 0 -75 -40t-30 -105q0 -66 30 -102t79 -36z" />
    <glyph glyph-name="uni2196.salt" horiz-adv-x="2394" 
d="M602 907v-522l-180 8l2 1100l1102 4l8 -180h-522q-190 0 -295 8q80 -74 217 -211l1091 -1091l-127 -129l-1093 1091q-63 63 -211 217q8 -104 8 -295z" />
    <glyph glyph-name="uni2197.salt" horiz-adv-x="2394" 
d="M1436 1317h-523l9 180l1099 -2l4 -1102l-180 -8v522q0 190 8 295q-74 -80 -211 -217l-1091 -1091l-129 126l1091 1094q63 63 218 211q-104 -8 -295 -8z" />
    <glyph glyph-name="uni2198.salt" horiz-adv-x="2394" 
d="M1845 483v523l180 -9l-2 -1099l-1101 -4l-9 180h523q190 0 295 -8q-80 74 -218 210l-1091 1092l127 129l1093 -1091q63 -63 211 -218q-8 104 -8 295z" />
    <glyph glyph-name="uni2199.salt" horiz-adv-x="2394" 
d="M1012 74h522l-8 -180l-1100 2l-4 1101l180 9v-523q0 -190 -8 -295q74 80 211 218l1091 1091l129 -127l-1091 -1094q-63 -63 -217 -210q104 8 295 8z" />
    <glyph glyph-name="l.salt" horiz-adv-x="673" 
d="M184 309v1145h219v-1120q-1 -102 19 -142t84 -40t121 41l84 -127q-104 -92 -256 -93q-195 0 -246 153q-25 75 -25 183z" />
    <glyph glyph-name="fl.salt" horiz-adv-x="1447" 
d="M258 1137q0 350 323 350q95 0 269 -26t332 -27v-1100q0 -102 19 -142t83 -40t121 41l84 -127q-104 -92 -256 -93q-195 0 -246 153q-24 72 -24 183v973q-43 2 -154 15t-191 13t-110 -40q-31 -41 -31 -160v-104h275v-170h-275v-836h-219v836h-201v170h201v131z" />
    <glyph glyph-name="uniFB04.salt" horiz-adv-x="2152" 
d="M258 1137q0 350 291 350q135 0 262 -60l-55 -151q-76 35 -153 35t-101 -43t-25 -158v-104h486v131q0 350 333 350q80 0 257 -26t333 -27v-1100q0 -102 20 -142t84 -40t119 41l84 -127q-104 -92 -256 -93q-194 0 -245 153q-25 75 -25 183v973q-43 2 -154 15t-191 13
t-110 -40q-31 -41 -30 -160v-104h274v-170h-274v-836h-219v836h-486v-836h-219v836h-201v170h201v131z" />
    </font>
</defs>
</svg>
