<?xml version="1.0" standalone="no"?>
<!DOCTYPE svg PUBLIC "-//W3C//DTD SVG 1.1//EN" "http://www.w3.org/Graphics/SVG/1.1/DTD/svg11.dtd" >
<svg xmlns="http://www.w3.org/2000/svg">
<metadata>
Created by FontPrep 20130207 at Mon Jul 28 12:08:04 2014
 By Cem Sever
Copyright (c) 2007 by Optimo, Switzerland. All rights reserved.
</metadata>
<defs>
<font id="76bd029b27c18bcca62f5141419698c1" horiz-adv-x='1024' >
  <font-face 
    font-family="Executive-45Light"
    font-weight="300"
    font-stretch="normal"
    units-per-em="2048"
    panose-1="2 11 4 3 2 2 2 2 2 4"
    ascent="1454"
    descent="-594"
    x-height="1004"
    cap-height="1454"
    bbox="-315 -489 2314 1935"
    underline-thickness="98"
    underline-position="-209"
    unicode-range="U+000D-FB04"
  />
<missing-glyph horiz-adv-x="1208" 
d="M866 786h-526v-542h526v542zM1014 111h-821v809h821v-809z" />
    <glyph glyph-name="IJ" unicode="IJ" horiz-adv-x="1642" 
d="M1438 1454v-1026q0 -457 -404 -457q-172 -1 -275 95t-104 270q0 37 2 61l144 17q-2 -25 -2 -52q0 -138 60 -202t185 -64q248 0 248 318v1040h146zM225 0v1454h144v-1454h-144z" />
    <glyph glyph-name="ij" unicode="ij" horiz-adv-x="1034" 
d="M848 1221h-141v215h141v-215zM844 1004v-1096q0 -96 -9 -150t-44 -98q-68 -88 -190 -88t-208 45l41 102q63 -31 138 -30t108 37t33 190v1088h131zM326 1221h-142v215h142v-215zM319 0h-131v1004h131v-1004z" />
    <glyph glyph-name="uniFB00" unicode="ff" horiz-adv-x="1417" 
d="M1350 1331q-76 35 -156 35t-112 -36t-36 -90q-4 -55 -4 -103v-133h285v-113h-285v-891h-131v891h-501v-891h-131v891h-216v113h216v143q0 96 17 164q18 68 80 120t166 52t193 -45q-26 -70 -39 -101q-70 31 -138 31t-102 -34t-40 -76t-6 -121v-133h501v143q0 243 130 308
q57 28 153 28t197 -56z" />
    <glyph glyph-name="fi" unicode="fi" horiz-adv-x="1230" 
d="M1047 1221h-142v215h142v-215zM1042 0h-131v891h-501v-891h-131v891h-216v113h216v143q1 188 69 262t184 74t213 -53l-40 -95q-72 33 -154 33t-119 -63q-23 -39 -22 -168v-133h632v-1004z" />
    <glyph glyph-name="fl" unicode="fl" horiz-adv-x="1247" 
d="M911 0v1335q-51 3 -153 17t-192 14t-124 -54q-33 -54 -32 -177v-131h297v-113h-297v-891h-131v891h-216v113h216v143q0 158 65 247q66 89 227 89q89 0 221 -22t250 -27v-1434h-131z" />
    <glyph glyph-name="uniFB03" unicode="ffi" horiz-adv-x="1863" 
d="M1679 1221h-141v215h141v-215zM709 1335q-78 31 -153 31t-108 -37t-37 -118q-1 -24 -1 -74v-133h501v143q0 336 269 336q96 0 198 -53l-41 -95q-72 33 -133 33q-116 0 -140 -69q-20 -56 -22 -162v-133h633v-1004h-131v891h-502v-891h-131v891h-501v-891h-131v891h-216
v113h216v143q0 242 132 308q55 28 147 28t190 -47z" />
    <glyph glyph-name="uniFB04" unicode="ffl" horiz-adv-x="1878" 
d="M558 1368q-68 0 -102 -34t-40 -76t-6 -121v-133h499v143q0 336 295 336q86 0 217 -22t252 -27v-1434h-131v1335q-49 3 -151 17q-103 14 -193 14t-124 -55t-34 -176v-131h287v-113h-287v-891h-131v891h-499v-891h-131v891h-216v113h216v143q0 336 268 336q94 0 188 -45
q-26 -70 -39 -101q-70 31 -138 31z" />
    <glyph glyph-name=".notdef" horiz-adv-x="1208" 
d="M866 786h-526v-542h526v542zM1014 111h-821v809h821v-809z" />
    <glyph glyph-name=".null" horiz-adv-x="512" 
 />
    <glyph glyph-name=".null" horiz-adv-x="512" 
 />
    <glyph glyph-name="nonmarkingreturn" horiz-adv-x="681" 
 />
    <glyph glyph-name="CR" unicode="&#xd;" horiz-adv-x="1024" 
 />
    <glyph glyph-name="space" unicode=" " horiz-adv-x="614" 
 />
    <glyph glyph-name="exclam" unicode="!" horiz-adv-x="722" 
d="M455 0h-187v201h187v-201zM440 1454q-7 -559 -22 -1003l-6 -121h-101q-25 401 -32 1124h161z" />
    <glyph glyph-name="quotedbl" unicode="&#x22;" horiz-adv-x="1005" 
d="M573 1454h150v-207l-41 -387h-68l-41 387v207zM281 1454h149v-207l-41 -387h-67l-41 387v207z" />
    <glyph glyph-name="numbersign" unicode="#" horiz-adv-x="1191" 
d="M748 899h-244l-68 -352h246zM1157 1008v-109h-289l-65 -352h270v-107h-291l-82 -440h-120l82 440h-244l-82 -440h-121l82 440h-262v107h280l68 352h-262v109h280l80 430h121l-80 -430h244l82 430h121l-82 -430h270z" />
    <glyph glyph-name="dollar" unicode="$" horiz-adv-x="1171" 
d="M342 1137q0 -182 193 -260l24 -11v488q-101 -10 -159 -68t-58 -149zM692 647l-37 19v-568q115 10 182 78t67 174t-43 170q-42 64 -169 127zM655 -215h-96v188q-412 23 -418 451l142 27q4 -168 67 -254t209 -97v613q-195 82 -277 178q-82 95 -83 243q0 148 99 241t261 104
v184h96v-182q281 -22 349 -261q16 -60 16 -128q-23 -4 -69 -10t-68 -11q-4 258 -228 283v-535l117 -55q150 -70 213 -165t63 -247t-102 -258q-104 -106 -291 -121v-188z" />
    <glyph glyph-name="percent" unicode="%" horiz-adv-x="1906" 
d="M1432 1430l-875 -1483l-88 49l874 1485zM684 1065q0 289 -169 289t-169 -289t169 -289t169 289zM515 1450q122 0 201 -102t79 -286t-78 -284t-201 -100t-202 99q-78 99 -78 287t78 287q79 99 201 99zM1561 375q0 289 -169 289t-169 -289t169 -289t169 289zM1671 372
q0 -184 -78 -284q-79 -100 -201 -100t-201 99t-79 287t79 286q79 100 201 100t200 -102t79 -286z" />
    <glyph glyph-name="ampersand" unicode="&#x26;" horiz-adv-x="1259" 
d="M621 1358q-71 0 -117 -48t-47 -120q0 -72 65 -170l58 -86q112 78 154 135t42 129t-42 116t-113 44zM553 94q104 0 180 51t113 125l-307 484q-119 -92 -172 -184t-53 -210t67 -192q68 -74 172 -74zM172 349q0 161 76 279t223 230l-55 84q-33 49 -50 78q-49 84 -50 188
q-1 105 81 186t221 81q140 0 218 -78t78 -186q0 -109 -59 -193q-58 -84 -208 -189l260 -403q29 123 -2 283h129q42 -229 -37 -420q61 -96 189 -289h-164q-20 31 -57 87t-45 71q-129 -180 -373 -181q-155 -1 -265 105t-110 267z" />
    <glyph glyph-name="quotesingle" unicode="'" horiz-adv-x="712" 
d="M281 1454h149v-207l-41 -387h-67l-41 387v207z" />
    <glyph glyph-name="parenleft" unicode="(" horiz-adv-x="700" 
d="M326 537q0 -248 74 -463t241 -455l-88 -61q-365 475 -365 979t365 979l88 -62q-167 -240 -241 -454t-74 -463z" />
    <glyph glyph-name="parenright" unicode=")" horiz-adv-x="700" 
d="M373 536q0 250 -73 464t-241 454l86 62q367 -473 367 -979t-367 -979l-86 61q168 240 241 454t73 463z" />
    <glyph glyph-name="asterisk" unicode="*" horiz-adv-x="911" 
d="M510 1188v-164h-111v164l13 131q-70 -51 -107 -72l-145 -86l-54 94l146 84l115 54q-72 31 -115 55l-143 82l51 94l145 -84l107 -72q-12 80 -13 127v168h111v-168l-10 -127q59 45 104 70l146 86l53 -94l-146 -84l-106 -53q65 -27 106 -52l146 -86l-53 -92l-144 84l-104 70
q8 -80 8 -129z" />
    <glyph glyph-name="plus" unicode="+" 
d="M1159 471h-432v-426h-106v426h-433v104h433v429h106v-429h432v-104z" />
    <glyph glyph-name="comma" unicode="," horiz-adv-x="710" 
d="M449 207v-144q0 -157 -31 -231t-101 -137l-49 47q53 51 72 106q18 55 18 136v16h-98v207h189z" />
    <glyph glyph-name="hyphen" unicode="-" horiz-adv-x="925" 
d="M754 526h-582v119h582v-119z" />
    <glyph glyph-name="period" unicode="." horiz-adv-x="710" 
d="M449 0h-189v207h189v-207z" />
    <glyph glyph-name="slash" unicode="/" horiz-adv-x="897" 
d="M844 1483l-651 -1512h-130l652 1512h129z" />
    <glyph glyph-name="zero" unicode="0" horiz-adv-x="1171" 
d="M913 707q0 297 -84 451q-83 154 -243 155q-160 0 -245 -155q-85 -156 -85 -452t85 -452t245 -156t244 156t83 453zM1059 707q0 -340 -122 -536t-352 -196t-352 196q-121 196 -121 538t120 533q120 192 352 192t354 -194q121 -194 121 -533z" />
    <glyph glyph-name="one" unicode="1" horiz-adv-x="1171" 
d="M172 0v121h395v1098q-143 -145 -374 -318l-76 98q258 197 467 412h123v-1290h352v-121h-887z" />
    <glyph glyph-name="two" unicode="2" horiz-adv-x="1171" 
d="M987 0h-807v125q199 166 463 461q121 133 164 238t43 223t-64 192t-191 74q-128 0 -199 -81t-70 -226q-92 8 -146 14q2 180 111 297t303 117t297 -112q102 -112 102 -268t-60 -281q-115 -239 -583 -654q109 2 264 2h373v-121z" />
    <glyph glyph-name="three" unicode="3" horiz-adv-x="1171" 
d="M1028 420q0 -209 -121 -328t-332 -119t-323 119t-115 293l146 21q4 -145 76 -228q73 -82 217 -82t226 81q81 81 81 231q0 313 -377 313h-72v117h72q154 0 245 61t91 180t-69 176t-187 57t-188 -58q-71 -60 -79 -171l-143 17q8 147 120 240q112 94 294 94t288 -94
t105 -239q0 -146 -77 -219t-177 -96v-4q97 -12 189 -86q50 -38 80 -110t30 -166z" />
    <glyph glyph-name="four" unicode="4" horiz-adv-x="1171" 
d="M705 449v704l-426 -704h426zM1061 328h-215v-328h-141v328h-562v139l580 944h123v-962h215v-121z" />
    <glyph glyph-name="five" unicode="5" horiz-adv-x="1171" 
d="M623 946q195 0 313 -127t117 -351q0 -224 -125 -358q-126 -136 -322 -136t-314 102t-149 272l144 27q18 -133 99 -206t215 -73t221 98t87 271q0 172 -81 265t-226 93q-209 0 -303 -186h-113l39 774h736v-123h-615l-29 -469q111 127 306 127z" />
    <glyph glyph-name="six" unicode="6" horiz-adv-x="1171" 
d="M915 439q0 163 -77 254q-78 91 -214 91t-226 -93q-91 -93 -91 -245t85 -250t220 -98t219 89t84 252zM637 905q195 1 309 -123t113 -332q0 -208 -120 -341t-331 -134q-262 0 -381 230q-82 162 -82 448q0 375 148 588q135 193 350 193q180 0 270 -100t107 -249l-143 -16
q-13 125 -69 184t-171 60q-147 0 -247 -163t-101 -448q109 203 348 203z" />
    <glyph glyph-name="seven" unicode="7" horiz-adv-x="1171" 
d="M178 1288v123h848l-2 -113q-428 -551 -469 -1298h-145q27 387 140 693q114 306 331 595h-703z" />
    <glyph glyph-name="eight" unicode="8" horiz-adv-x="1171" 
d="M588 819q120 1 188 71t68 180t-70 177q-70 66 -186 66t-188 -66q-70 -67 -70 -177t68 -180t190 -71zM899 398q0 132 -85 216t-226 84q-140 0 -226 -84t-86 -216t88 -216t224 -84q137 0 224 84t87 216zM1042 395q0 -184 -127 -302t-329 -118t-328 118q-127 118 -127 302
q0 150 89 251t194 120v4q-96 29 -161 110t-65 217t114 236q114 101 286 101t286 -100t113 -238q0 -136 -63 -218t-162 -110v-4q104 -18 192 -118t88 -251z" />
    <glyph glyph-name="nine" unicode="9" horiz-adv-x="1171" 
d="M570 1313q-142 -1 -223 -93t-81 -242t80 -243q80 -92 221 -92t224 91q81 90 81 244t-80 245q-80 90 -222 90zM547 520q-193 0 -309 130t-117 331q0 201 123 327q122 126 338 126t334 -155t116 -482q0 -822 -477 -822q-179 -1 -281 97t-106 258l143 22q6 -254 246 -254
q168 0 250 163t82 441q-102 -182 -342 -182z" />
    <glyph glyph-name="colon" unicode=":" horiz-adv-x="710" 
d="M449 0h-189v207h189v-207zM449 797h-189v207h189v-207z" />
    <glyph glyph-name="semicolon" unicode=";" horiz-adv-x="710" 
d="M449 207v-144q0 -157 -31 -231t-101 -137l-47 47q55 51 74 105q18 54 18 137v16h-102v207h189zM449 797h-189v207h189v-207z" />
    <glyph glyph-name="less" unicode="&#x3c;" 
d="M178 553q312 152 938 465l47 -94l-661 -320q-139 -68 -228 -98v-4q31 -10 158 -70l127 -59q89 -43 291 -141t313 -150q-33 -61 -47 -92q-158 78 -938 465v98z" />
    <glyph glyph-name="equal" unicode="=" 
d="M1159 309h-971v105h971v-105zM1159 635h-971v104h971v-104z" />
    <glyph glyph-name="greater" unicode="&#x3e;" 
d="M231 -10q-33 61 -47 92l602 291q231 111 285 129v4q-88 31 -225 98l-662 320q14 33 47 94l936 -465v-98z" />
    <glyph glyph-name="question" unicode="?" horiz-adv-x="1093" 
d="M623 0h-189v207h189v-207zM936 1107q0 -165 -99 -260t-241 -118v-389h-137v477q336 27 336 285q-1 116 -63 188t-178 72t-182 -65t-69 -179l-139 17q4 155 109 251t281 96t280 -104q102 -106 102 -271z" />
    <glyph glyph-name="at" unicode="@" horiz-adv-x="1681" 
d="M995 694q0 174 -123 174q-78 0 -135 -72q-102 -128 -100 -323q0 -240 135 -240q62 1 108 53q73 83 104 280q11 71 11 128zM162 475q0 418 217 668t565 250q278 0 438 -195t160 -473t-112 -444t-285 -166q-72 0 -118 40t-58 109h-4q-76 -150 -220 -149q-121 0 -183 98
q-62 99 -62 235t39 252t126 203q87 86 201 86q60 0 108 -35t62 -94h6l39 103h127q-41 -119 -67 -287l-43 -260q-10 -62 -10 -106t23 -68q24 -24 56 -23q115 0 190 136t75 371q0 234 -130 400t-362 166q-299 0 -482 -224t-184 -593q0 -307 178 -482t443 -175q133 0 264 52
t199 130l57 -70q-76 -92 -221 -151q-146 -59 -324 -59t-340 81q-162 82 -265 257t-103 417z" />
    <glyph glyph-name="A" unicode="A" horiz-adv-x="1148" 
d="M793 463l-144 512q-59 201 -76 293h-4q-23 -111 -75 -295l-148 -510h447zM1083 0h-157l-97 336h-518l-96 -336h-152l445 1454h133z" />
    <glyph glyph-name="B" unicode="B" horiz-adv-x="1251" 
d="M365 827h247q141 0 219 70t78 190q0 242 -278 242h-266v-502zM942 418q0 139 -84 214t-225 75h-268v-584h247q162 0 246 78t84 217zM1090 414q0 -156 -82 -257q-127 -157 -385 -157h-402v1454h418q238 0 350 -141q68 -84 68 -216t-74 -211t-176 -110v-4q117 -30 200 -116
t83 -242z" />
    <glyph glyph-name="C" unicode="C" horiz-adv-x="1198" 
d="M623 -29q-224 0 -354 204t-130 550t132 552t372 206q188 0 298 -116t126 -288l-143 -26q-31 303 -283 303q-168 0 -261 -168t-93 -464t91 -462t261 -166q270 1 297 359l145 -21q-16 -203 -125 -333t-333 -130z" />
    <glyph glyph-name="D" unicode="D" horiz-adv-x="1286" 
d="M997 727q0 172 -33 300q-34 128 -125 215t-235 87h-239v-1204h237q395 0 395 602zM1147 729q0 -582 -365 -700q-90 -29 -196 -29h-365v1454h383q211 0 346 -129t177 -368q20 -107 20 -228z" />
    <glyph glyph-name="E" unicode="E" horiz-adv-x="1107" 
d="M1006 0h-785v1454h785v-127h-641v-516h516v-127h-516v-559h641v-125z" />
    <glyph glyph-name="F" unicode="F" horiz-adv-x="1064" 
d="M1006 1327h-641v-516h516v-127h-516v-684h-144v1454h785v-127z" />
    <glyph glyph-name="G" unicode="G" horiz-adv-x="1286" 
d="M1083 0h-94q-12 88 -18 193h-4q-35 -97 -122 -159t-208 -63q-227 0 -363 199q-135 199 -135 550q-1 351 139 557t379 206q197 0 299 -111t117 -268l-139 -27q-33 279 -283 279q-160 0 -262 -160t-102 -472t100 -470t268 -158q133 0 213 114t80 316v131h-313v125h448v-782
z" />
    <glyph glyph-name="H" unicode="H" horiz-adv-x="1277" 
d="M1057 0h-144v684h-548v-684h-144v1454h144v-641h548v641h144v-1454z" />
    <glyph glyph-name="I" unicode="I" horiz-adv-x="593" 
d="M225 0v1454h144v-1454h-144z" />
    <glyph glyph-name="J" unicode="J" horiz-adv-x="1081" 
d="M879 1454v-1026q0 -457 -404 -457q-172 -1 -275 95t-104 270q0 37 2 61l144 17q-2 -25 -2 -52q0 -138 60 -202t185 -64q248 0 248 318v1040h146z" />
    <glyph glyph-name="K" unicode="K" horiz-adv-x="1183" 
d="M365 0h-144v1454h144v-737l563 737h178l-479 -612l503 -842h-172l-417 733l-176 -221v-512z" />
    <glyph glyph-name="L" unicode="L" horiz-adv-x="1036" 
d="M983 0h-762v1454h144v-1327h618v-127z" />
    <glyph glyph-name="M" unicode="M" horiz-adv-x="1583" 
d="M1362 0h-135v977q0 121 6 332h-4q-49 -201 -74 -287l-303 -1022h-121l-301 1020q-37 121 -76 289h-4q4 -141 4 -332v-977h-133v1454h219l289 -1012q29 -102 62 -262h4q27 137 63 266l287 1008h217v-1454z" />
    <glyph glyph-name="N" unicode="N" horiz-adv-x="1343" 
d="M221 1454h199l467 -1030q61 -137 94 -234h4q-6 154 -6 271v993h143v-1454h-196l-467 1024q-57 127 -97 238h-4q6 -102 7 -267v-995h-144v1454z" />
    <glyph glyph-name="O" unicode="O" horiz-adv-x="1280" 
d="M991 727q0 319 -93 474t-258 155t-259 -156t-94 -474t94 -474t259 -156t258 156t93 475zM1141 726q0 -353 -130 -554t-371 -201t-371 202t-130 554t130 554t371 202t371 -202t130 -555z" />
    <glyph glyph-name="P" unicode="P" horiz-adv-x="1228" 
d="M973 1042q0 131 -79 209t-232 78h-297v-571h282q326 -1 326 284zM1122 1042q0 -188 -118 -299t-338 -110h-301v-633h-144v1454h453q209 0 330 -115q118 -109 118 -297z" />
    <glyph glyph-name="Q" unicode="Q" horiz-adv-x="1280" 
d="M991 727q0 319 -93 474t-258 155t-258 -155t-93 -474t93 -475t258 -156t258 156t93 475zM1139 733q0 -349 -117 -541t-317 -217v-63q0 -54 18 -74t67 -20t111 30l35 -84q-90 -51 -181 -51t-131 43t-44 135l-7 84q-199 23 -317 217t-117 541q0 348 129 549t371 201
t371 -201t129 -549z" />
    <glyph glyph-name="R" unicode="R" horiz-adv-x="1265" 
d="M975 1048q0 134 -75 208t-224 73h-311v-555h307q145 0 224 70t79 204zM1124 1062q0 -192 -106 -294q-61 -57 -160 -90l279 -678h-162l-254 649h-356v-649h-144v1454h465q186 0 297 -86q141 -114 141 -306z" />
    <glyph glyph-name="S" unicode="S" horiz-adv-x="1218" 
d="M283 436q7 -340 323 -340q156 0 241 69t85 179t-53 176t-166 119l-246 117q-151 72 -219 158t-68 216q0 170 125 262t325 91q200 1 306 -105q104 -106 108 -260l-141 -35q-12 274 -291 275q-126 0 -204 -60t-78 -155t48 -151t150 -105l252 -119q160 -74 230 -168t71 -229
q0 -187 -123 -293t-350 -106t-347 116q-120 117 -124 313z" />
    <glyph glyph-name="T" unicode="T" horiz-adv-x="1044" 
d="M975 1327h-381v-1327h-143v1327h-381v127h905v-127z" />
    <glyph glyph-name="U" unicode="U" horiz-adv-x="1286" 
d="M641 -29q-219 0 -332 129q-94 102 -94 318v1036h143v-1014q0 -184 58 -252q76 -92 228 -92t226 92q55 66 56 252v1014h145v-1036q0 -215 -94 -318q-117 -129 -336 -129z" />
    <glyph glyph-name="V" unicode="V" horiz-adv-x="1132" 
d="M1075 1454l-422 -1454h-174l-422 1454h154l274 -989q49 -176 80 -318h4q41 166 82 320l275 987h149z" />
    <glyph glyph-name="W" unicode="W" horiz-adv-x="1683" 
d="M1575 1454l-318 -1454h-149l-207 911q-43 193 -59 340h-4q-23 -174 -58 -340l-202 -911h-158l-314 1454h148l197 -956q35 -168 51 -310h4q14 123 53 310l205 956h151l211 -956q41 -188 54 -310h4q12 137 49 310l199 956h143z" />
    <glyph glyph-name="X" unicode="X" horiz-adv-x="1128" 
d="M231 0h-157l409 752l-379 702h166l295 -553l295 553h158l-375 -692l412 -762h-166l-328 610z" />
    <glyph glyph-name="Y" unicode="Y" horiz-adv-x="1099" 
d="M625 0h-144v643l-444 811h174l344 -653l340 653h166l-436 -811v-643z" />
    <glyph glyph-name="Z" unicode="Z" horiz-adv-x="1132" 
d="M1018 127v-127h-895v137q49 76 343 574t374 618q-41 -2 -248 -2h-440v127h843v-137l-723 -1192l222 2h524z" />
    <glyph glyph-name="bracketleft" unicode="[" horiz-adv-x="706" 
d="M664 -410h-390v1893h390v-109h-261v-1677h261v-107z" />
    <glyph glyph-name="backslash" unicode="\" horiz-adv-x="897" 
d="M705 -29l-652 1512h127l651 -1512h-126z" />
    <glyph glyph-name="bracketright" unicode="]" horiz-adv-x="706" 
d="M432 -410h-389v107h260v1677h-260v109h389v-1893z" />
    <glyph glyph-name="asciicircum" unicode="^" 
d="M719 1454l455 -838l-95 -49l-405 752h-4l-406 -752l-92 49l451 838h96z" />
    <glyph glyph-name="underscore" unicode="_" horiz-adv-x="1024" 
d="M1024 -215h-1024v94h1024v-94z" />
    <glyph glyph-name="grave" unicode="`" horiz-adv-x="452" 
d="M43 1468l369 -249l-39 -66q-133 63 -396 195q56 102 66 120z" />
    <glyph glyph-name="a" unicode="a" horiz-adv-x="1085" 
d="M438 90q191 0 316 244v235q-23 -21 -65 -35t-138 -42t-137 -43q-145 -55 -146 -189q0 -78 44 -124t126 -46zM424 -25q-133 0 -214 77t-81 210q0 219 268 301q27 8 133 36t148 41q42 14 59 30q16 16 17 47v22q0 172 -222 172t-229 -172l-135 15q4 130 101 202t268 72
q348 0 348 -289v-487q0 -90 20 -124t90 -44l-14 -100q-113 2 -164 47t-61 145q-125 -201 -332 -201z" />
    <glyph glyph-name="b" unicode="b" horiz-adv-x="1157" 
d="M617 92q129 0 203 104t73 298q0 194 -74 306t-203 112q-130 0 -202 -116q-72 -114 -72 -293t73 -295t202 -116zM635 1028q176 0 286 -142q109 -142 109 -382t-108 -384t-291 -145q-100 -1 -177 53t-110 134h-4q0 -59 -8 -162h-129q10 252 10 315v1139h131v-465
q0 -94 -4 -143h4q33 76 109 129t182 53z" />
    <glyph glyph-name="c" unicode="c" horiz-adv-x="1046" 
d="M127 498q0 228 118 379q118 152 316 151q162 0 253 -87t112 -212l-131 -22q-35 205 -238 204q-129 -1 -211 -113t-82 -302t82 -296q82 -108 207 -108q209 1 252 230l135 -21q-29 -139 -121 -232q-93 -93 -279 -93t-300 146q-114 148 -113 376z" />
    <glyph glyph-name="d" unicode="d" horiz-adv-x="1150" 
d="M815 1454h131v-1139q0 -63 10 -315h-129q-4 70 -8 162h-4q-27 -78 -103 -131t-186 -54q-176 -1 -288 143t-111 386q0 242 114 382t291 140q102 0 176 -50t107 -132h4l-4 139v469zM264 498q0 -197 77 -301q77 -105 207 -105t200 117t70 294t-72 293q-70 116 -200 116
t-206 -109q-76 -108 -76 -305z" />
    <glyph glyph-name="e" unicode="e" horiz-adv-x="1077" 
d="M550 911q-120 0 -199 -92t-81 -246h547q-2 154 -75 246q-72 92 -192 92zM551 -23q-197 1 -311 143t-113 383q0 241 115 383t304 142t301 -134t111 -337q0 -37 -4 -98h-686q4 -171 77 -269t208 -98q96 0 159 56q62 57 85 151l133 -27q-35 -125 -127 -210t-252 -85z" />
    <glyph glyph-name="f" unicode="f" horiz-adv-x="774" 
d="M567 1366q-100 0 -135 -59q-23 -39 -22 -170v-133h284v-113h-284v-891h-131v891h-216v113h216v143q1 188 69 262t185 74t215 -47l-39 -101q-78 31 -142 31z" />
    <glyph glyph-name="g" unicode="g" horiz-adv-x="1148" 
d="M946 688v-649q0 -353 -196 -445q-80 -37 -197 -36q-184 0 -273 82t-98 202l131 17q14 -193 240 -193q156 0 206 85q43 73 52 214q2 33 4 95t4 100h-4q-31 -72 -107 -124t-188 -52q-178 0 -286 145t-108 383t114 377q113 139 290 139q113 0 183 -53t102 -127h4q0 66 8 156
h127q-8 -205 -8 -316zM264 508q0 -192 73 -301t205 -109t203 113q72 113 72 295t-73 294q-72 112 -200 112t-204 -106t-76 -298z" />
    <glyph glyph-name="h" unicode="h" horiz-adv-x="1132" 
d="M952 0h-131v627q0 139 -50 212t-169 73q-120 0 -194 -92q-74 -91 -74 -245v-575h-131v1454h131v-442q0 -51 -4 -154h4q35 76 111 123q77 47 178 47q173 0 251 -103t78 -276v-649z" />
    <glyph glyph-name="i" unicode="i" horiz-adv-x="509" 
d="M326 1221h-142v215h142v-215zM319 0h-131v1004h131v-1004z" />
    <glyph glyph-name="j" unicode="j" horiz-adv-x="524" 
d="M338 1221h-141v215h141v-215zM334 1004v-1096q0 -96 -9 -150t-44 -98q-68 -88 -190 -88t-208 45l41 102q63 -31 138 -30t108 37t33 190v1088h131z" />
    <glyph glyph-name="k" unicode="k" horiz-adv-x="1046" 
d="M336 0h-131v1454h131v-962l473 512h180l-385 -410l400 -594h-162l-328 500l-178 -187v-313z" />
    <glyph glyph-name="l" unicode="l" horiz-adv-x="540" 
d="M205 0v1454h131v-1454h-131z" />
    <glyph glyph-name="m" unicode="m" horiz-adv-x="1429" 
d="M1247 0h-131v682q0 90 -14 141q-29 88 -127 88q-49 1 -93 -29t-67 -84t-22 -161v-637h-131v678q0 109 -21 158q-33 76 -123 75q-51 1 -94 -33t-67 -91t-23 -173v-614h-131v690q0 135 -10 314h126q4 -49 9 -130h4q23 62 80 108t144 46t143 -47t69 -109h4q70 156 235 156
t216 -133q25 -66 24 -201v-694z" />
    <glyph glyph-name="n" unicode="n" horiz-adv-x="1138" 
d="M641 1028q182 0 268 -143q47 -80 47 -230v-655h-131v633q0 117 -26 172q-49 106 -195 106q-72 0 -134 -38q-136 -83 -136 -300v-573h-131v690q0 178 -10 314h126q4 -57 9 -152h4q86 176 309 176z" />
    <glyph glyph-name="o" unicode="o" horiz-adv-x="1101" 
d="M834 502q0 190 -77 301t-206 111t-207 -112q-78 -110 -78 -300t78 -301t207 -111t206 111t77 301zM973 502q0 -230 -115 -378q-116 -148 -308 -148t-306 146t-115 380q0 234 115 380q116 146 308 146t306 -148t115 -378z" />
    <glyph glyph-name="p" unicode="p" horiz-adv-x="1148" 
d="M334 -410h-131v1096q0 139 -10 318h129q4 -53 8 -158h4q33 78 110 130q78 52 185 52q173 0 283 -144t110 -378t-108 -380q-108 -148 -287 -149q-203 1 -293 181h-4l4 -148v-420zM332 501q0 -183 72 -296t202 -113q129 0 203 112t74 300q0 190 -74 299t-202 109
q-127 0 -201 -114t-74 -297z" />
    <glyph glyph-name="q" unicode="q" horiz-adv-x="1148" 
d="M127 502q0 232 110 378q110 148 287 148q113 0 189 -53t102 -129h4q4 104 8 158h129q-10 -178 -10 -318v-1096h-131v420l4 148h-4q-33 -78 -107 -130t-182 -53q-180 -1 -290 147t-109 380zM264 498q0 -193 78 -299q78 -107 207 -107t199 113t70 299t-72 297t-204 111
t-205 -111q-73 -110 -73 -303z" />
    <glyph glyph-name="r" unicode="r" horiz-adv-x="788" 
d="M623 889q-129 0 -201 -96q-88 -113 -88 -344v-449h-131v690q0 143 -10 314h124q8 -90 9 -207h4q43 107 123 167t186 60q43 0 84 -10v-137q-39 12 -100 12z" />
    <glyph glyph-name="s" unicode="s" horiz-adv-x="1046" 
d="M909 264q0 -131 -99 -210q-98 -79 -286 -79t-287 82t-108 226l135 24q8 -115 74 -165t190 -50t183 47t59 124t-47 117t-156 69l-143 38q-135 37 -203 95t-67 178q0 120 95 194t267 74t265 -74t102 -190l-131 -25q-10 88 -64 131t-167 43q-114 1 -173 -37t-59 -107
t42 -103t144 -62l148 -39q143 -39 215 -104q71 -66 71 -197z" />
    <glyph glyph-name="t" unicode="t" horiz-adv-x="778" 
d="M532 -25q-114 0 -187 74t-73 260v582h-209v113h209v305l131 57v-362h279v-113h-279v-569q0 -92 17 -142q31 -88 137 -88q73 0 143 29l39 -101q-93 -45 -207 -45z" />
    <glyph glyph-name="u" unicode="u" horiz-adv-x="1142" 
d="M188 301v703h131v-590q-1 -176 45 -249t172 -73t200 88t73 252v572h131v-693q0 -143 10 -311h-127q-4 45 -8 152h-4q-82 -174 -299 -175q-150 1 -237 89t-87 235z" />
    <glyph glyph-name="v" unicode="v" horiz-adv-x="940" 
d="M887 1004l-355 -1004h-126l-353 1004h142l215 -629q33 -94 59 -209h6q33 125 60 209l215 629h137z" />
    <glyph glyph-name="w" unicode="w" horiz-adv-x="1316" 
d="M1231 1004l-248 -1004h-133l-148 608q-31 129 -40 234h-5q-12 -96 -45 -234l-141 -608h-139l-246 1004h133l141 -621q31 -127 43 -221h5q10 72 41 221l139 621h145l139 -621q29 -127 41 -223h5q16 102 43 223l141 621h129z" />
    <glyph glyph-name="x" unicode="x" horiz-adv-x="962" 
d="M913 0h-163l-273 410l-268 -410h-160l361 518l-336 486h155l254 -379l248 379h156l-336 -484z" />
    <glyph glyph-name="y" unicode="y" horiz-adv-x="929" 
d="M186 -428q-102 0 -198 57q14 33 47 99q78 -41 139 -41q61 -1 97 31t61 102l61 182l-362 1002h147q23 -66 75 -210t114 -320t88 -296h4q2 10 82 252l194 574h142l-424 -1205q-41 -117 -103 -172t-164 -55z" />
    <glyph glyph-name="z" unicode="z" horiz-adv-x="997" 
d="M903 0h-801v104l607 789q-100 -4 -191 -4h-375v115h740v-103l-607 -788q86 4 170 4h457v-117z" />
    <glyph glyph-name="braceleft" unicode="{" horiz-adv-x="704" 
d="M252 813v334q0 150 37 217q63 119 213 119h84v-113h-58q-98 0 -125 -63q-18 -39 -18 -156v-342q0 -104 -18 -158q-27 -80 -117 -112v-4q88 -33 117 -111q18 -51 18 -160v-342q0 -117 18 -155q27 -63 125 -64h58v-113h-84q-150 0 -213 117q-37 68 -37 217v338
q0 106 -14 148q-23 66 -134 71v113q109 2 134 72q14 39 14 147z" />
    <glyph glyph-name="bar" unicode="|" horiz-adv-x="518" 
d="M317 -483h-118v2203h118v-2203z" />
    <glyph glyph-name="braceright" unicode="}" horiz-adv-x="704" 
d="M453 262v-338q0 -147 -37 -215q-63 -119 -215 -119h-82v113h57q96 0 123 64q20 49 20 155v342q0 115 19 160q31 80 115 111v4q-84 31 -115 112q-18 53 -19 158v342q1 107 -23 163t-120 56h-57v113h82q150 0 215 -119q37 -63 37 -217v-334q0 -115 12 -147q24 -70 135 -72
v-113q-113 -6 -135 -71q-12 -35 -12 -148z" />
    <glyph glyph-name="asciitilde" unicode="~" horiz-adv-x="1345" 
d="M892 477q64 0 106 33t98 123q25 -12 88 -51q-125 -213 -285 -213q-76 -1 -129 23t-192 112q-66 39 -126 39t-104 -33q-43 -33 -98 -125q-63 39 -88 51q125 215 284 215q78 1 134 -23t188 -112q60 -39 124 -39z" />
    <glyph glyph-name="nbspace" unicode="&#xa0;" horiz-adv-x="614" 
 />
    <glyph glyph-name="exclamdown" unicode="&#xa1;" horiz-adv-x="702" 
d="M254 1454h186v-203h-186v203zM268 0q6 507 23 1004l6 120h100q25 -401 33 -1124h-162z" />
    <glyph glyph-name="cent" unicode="&#xa2;" horiz-adv-x="1171" 
d="M338 497q0 -167 66 -272q67 -104 169 -125v803q-107 -23 -171 -131t-64 -275zM670 -156h-97v138q-170 16 -272 160t-102 354t100 356q100 147 274 170v139h97v-137q281 -23 331 -297l-131 -25q-39 184 -200 203v-807q175 19 209 228q90 -16 135 -23q-23 -127 -108 -219
t-236 -102v-138z" />
    <glyph glyph-name="sterling" unicode="&#xa3;" horiz-adv-x="1171" 
d="M295 1032q0 451 407 451q172 -1 262 -97t91 -239q0 -47 -13 -96l-127 -17q8 47 9 88q0 242 -230 242q-158 0 -223 -121q-39 -71 -39 -165t12 -206h349v-104h-336q47 -349 -1 -521q-26 -89 -102 -134q147 6 236 6h450v-119h-872v113q110 20 144 94t34 208t-29 353h-172
v104h160q-10 119 -10 160z" />
    <glyph glyph-name="currency" unicode="&#xa4;" horiz-adv-x="1200" 
d="M281 680q0 -137 92 -230q92 -94 228 -94t227 94t92 230q0 137 -90 229t-228 92q-137 0 -229 -92t-92 -229zM601 1122q155 0 271 -94q20 18 123 121l74 -78l-119 -119q94 -118 94 -272t-96 -270l35 -35q27 -27 55 -56t31 -32l-74 -74l-121 121q-122 -96 -274 -96t-268 96
q-88 -88 -123 -121l-78 74l125 123q-96 114 -96 268t92 274l-121 119l78 78l121 -119q116 92 271 92z" />
    <glyph glyph-name="yen" unicode="&#xa5;" horiz-adv-x="1171" 
d="M975 512v-104h-313v-408h-144v408h-315v104h315v137h-315v105h293l-418 700h172q295 -502 342 -582l338 582h164l-412 -700h293v-105h-313v-137h313z" />
    <glyph glyph-name="brokenbar" unicode="&#xa6;" horiz-adv-x="518" 
d="M317 -381h-118v813h118v-813zM317 907h-118v813h118v-813z" />
    <glyph glyph-name="section" unicode="&#xa7;" horiz-adv-x="1214" 
d="M395 1022q51 0 94 -16q-135 131 -135 237t71 173t187 67q116 -1 190 -63q75 -62 75 -156q0 -35 -7 -58l-125 -14q18 91 -24 133q-43 43 -103 43t-98 -32q-37 -32 -37 -81q1 -49 19 -81t69 -84l287 -285q236 -236 236 -428q0 -135 -80 -213t-199 -78q-51 0 -94 16
q135 -131 135 -237t-71 -173t-187 -67q-116 1 -190 63t-74 156q0 35 6 58l125 14q-4 -20 -4 -62t36 -78t96 -36t97 32t37 81q-1 49 -19 81t-69 84l-287 285q-236 236 -235 428q0 135 80 213t198 78zM250 741q0 -149 197 -346t350 -196q71 0 117 46t47 122q0 147 -197 345
t-350 197q-72 0 -118 -46t-46 -122z" />
    <glyph glyph-name="dieresis" unicode="&#xa8;" horiz-adv-x="413" 
d="M121 1208h-146v203h146v-203zM438 1208h-145v203h145v-203z" />
    <glyph glyph-name="copyright" unicode="&#xa9;" horiz-adv-x="1771" 
d="M129 727q0 317 219 535q218 218 536 219q318 0 538 -219q220 -220 220 -536t-220 -536t-537 -219q-317 0 -537 219q-219 220 -219 537zM225 727q-1 -276 191 -471t468 -195t469 195q191 195 191 471t-191 471t-467 195t-469 -195q-192 -195 -192 -471zM870 256
q-166 0 -274 136t-109 339q0 203 112 341t286 138q143 0 226 -86t95 -196l-106 -15q-29 201 -219 201q-119 0 -201 -105t-82 -277t82 -276q82 -103 199 -104q200 0 229 215l109 -12q-17 -123 -99 -211t-248 -88z" />
    <glyph glyph-name="ordfeminine" unicode="&#xaa;" horiz-adv-x="829" 
d="M209 918q0 -53 33 -84q32 -31 98 -31t134 45t110 127v160q-16 -17 -48 -27t-111 -30t-93 -25q-123 -39 -123 -135zM309 709q-88 0 -148 55t-61 154q0 162 211 221q66 20 211 49q61 14 62 55v19q0 122 -172 122t-179 -133l-106 11q4 100 79 156t208 56q134 0 204 -58
t70 -154v-349q0 -61 16 -85t66 -33l-16 -78q-152 2 -170 133q-39 -59 -113 -100t-162 -41z" />
    <glyph glyph-name="guillemotleft" unicode="&#xab;" horiz-adv-x="944" 
d="M729 109l-299 407l299 408l78 -56l-246 -352l246 -354l-39 -26q-27 -17 -39 -27zM406 109l-300 407l300 408l79 -56l-245 -352l245 -354z" />
    <glyph glyph-name="logicalnot" unicode="&#xac;" 
d="M1171 313h-114v336h-881v113h995v-449z" />
    <glyph glyph-name="uni00AD" unicode="&#xad;" horiz-adv-x="925" 
d="M754 526h-582v119h582v-119z" />
    <glyph glyph-name="registered" unicode="&#xae;" horiz-adv-x="1771" 
d="M1544 727q0 276 -191 471t-467 195t-468 -195t-192 -471t190 -471q192 -195 468 -195t469 195q191 195 191 471zM1642 727q0 -315 -220 -534t-537 -219t-537 217q-219 217 -219 535t219 536q218 218 536 219t538 -219t220 -535zM1114 938q0 78 -47 120t-135 42h-187v-328
h181q188 0 188 166zM1223 944q0 -186 -158 -246l149 -428h-122q-86 270 -127 408h-220v-408h-108v926h301q123 0 204 -68t81 -184z" />
    <glyph glyph-name="macron" unicode="&#xaf;" horiz-adv-x="407" 
d="M457 1249h-506v103h506v-103z" />
    <glyph glyph-name="degree" unicode="&#xb0;" horiz-adv-x="866" 
d="M223 1143q-1 -85 61 -147t148 -62t148 61q61 61 61 147t-61 148q-62 62 -148 62t-148 -62t-61 -147zM743 1143q0 -129 -91 -220t-220 -91t-220 90q-91 92 -91 221t91 220t220 91t220 -91t91 -220z" />
    <glyph glyph-name="plusminus" unicode="&#xb1;" 
d="M1159 0h-971v104h971v-104zM1159 547h-432v-340h-106v340h-433v104h433v342h106v-342h432v-104z" />
    <glyph glyph-name="twosuperior" unicode="&#xb2;" horiz-adv-x="794" 
d="M402 1436q116 0 180 -62t65 -142q1 -81 -23 -135t-104 -132q-117 -109 -233 -197q37 4 112 4h244v-98h-498v100q156 117 293 250q63 59 82 101q18 41 18 95t-34 87q-35 33 -101 32q-150 0 -149 -155l-107 10q0 110 70 176q69 66 185 66z" />
    <glyph glyph-name="threesuperior" unicode="&#xb3;" horiz-adv-x="835" 
d="M674 893q0 -103 -74 -167t-192 -64t-187 56q-70 56 -76 159l107 16q10 -139 160 -139q70 0 112 39t41 102q0 141 -184 141h-68v84h68q162 0 162 117q0 43 -36 74q-35 31 -99 31t-102 -32t-40 -87l-108 12q6 90 74 145q69 56 179 56q109 0 175 -58t65 -137
q0 -115 -112 -156v-6q57 -16 96 -66t39 -120z" />
    <glyph glyph-name="acute" unicode="&#xb4;" horiz-adv-x="413" 
d="M371 1468l65 -120q-262 -131 -395 -195l-39 66z" />
    <glyph glyph-name="mu" unicode="&#xb5;" horiz-adv-x="1142" 
d="M817 152h-4q-82 -178 -278 -179q-72 0 -129 33t-84 82h-5q4 -141 5 -274v-240h-132v1430h132v-551q0 -189 49 -275t172 -86t195 90t73 262v560h131v-693q0 -143 10 -311h-129q-6 94 -6 152z" />
    <glyph glyph-name="paragraph" unicode="&#xb6;" horiz-adv-x="1249" 
d="M559 -293v930q-176 0 -297 116q-121 115 -121 291t121 292t297 116h483v-1745h-118v1643h-246v-1643h-119z" />
    <glyph glyph-name="periodcentered" unicode="&#xb7;" horiz-adv-x="598" 
d="M379 434h-189v207h189v-207z" />
    <glyph glyph-name="cedilla" unicode="&#xb8;" horiz-adv-x="415" 
d="M377 -234q0 -64 -50 -105q-51 -42 -147 -42t-155 55l36 56q43 -37 97 -37q98 1 98 69t-72 68q-39 0 -65 -27q-29 21 -43 33l92 164h72l-72 -115l2 -2q25 17 75 17t91 -35t41 -99z" />
    <glyph glyph-name="onesuperior" unicode="&#xb9;" horiz-adv-x="702" 
d="M487 1423v-749h-108v610q-96 -96 -199 -178l-63 74q133 106 266 243h104z" />
    <glyph glyph-name="ordmasculine" unicode="&#xba;" horiz-adv-x="860" 
d="M651 1092q0 141 -59 217q-58 75 -160 75t-163 -75q-60 -76 -60 -217t59 -215q60 -74 162 -74t162 74q59 74 59 215zM760 1093q0 -179 -90 -281t-238 -101q-148 0 -239 101q-91 100 -91 280t90 281t240 101q148 0 238 -100q90 -102 90 -281z" />
    <glyph glyph-name="guillemotright" unicode="&#xbb;" horiz-adv-x="944" 
d="M514 516l-299 -407l-80 53l246 354l-246 352l80 56zM537 109l-78 53l246 354l-246 352l78 56l299 -408z" />
    <glyph glyph-name="onequarter" unicode="&#xbc;" horiz-adv-x="1654" 
d="M489 1423v-749h-106v610q-121 -117 -201 -178l-63 74q133 106 266 243h104zM1180 1481l88 -51q-121 -203 -875 -1483l-88 49zM1210 264v221l2 99h-4q-23 -45 -61 -103l-146 -217h209zM1432 174h-115v-174h-107v174h-323v74l332 502h98v-486h115v-90z" />
    <glyph glyph-name="onehalf" unicode="&#xbd;" horiz-adv-x="1654" 
d="M1264 1430l-875 -1483l-88 49l877 1485zM487 1423v-749h-106v610q-121 -117 -201 -178l-63 74q133 106 266 243h104zM1228 762q116 0 182 -62t65 -142q0 -81 -24 -135q-51 -115 -339 -329q37 4 115 4h243v-98h-499v100q152 113 255 211q104 99 122 141t18 95t-36 86
t-102 33t-108 -39q-41 -39 -41 -117l-106 10q-1 110 69 176t186 66z" />
    <glyph glyph-name="threequarters" unicode="&#xbe;" horiz-adv-x="1656" 
d="M397 -4l877 1485l86 -51q-754 -1280 -875 -1483zM1305 264v221l2 99h-4q-23 -45 -62 -103l-145 -217h209zM1526 174h-115v-174h-106v174h-324v74l332 502h98v-486h115v-90zM694 893q0 -104 -73 -168q-74 -63 -193 -63q-120 0 -188 56t-76 159q31 4 108 16
q6 -139 160 -139q70 0 111 39t41 102q0 141 -185 141h-65v84h65q162 0 162 117q0 43 -37 74t-98 31t-100 -32t-39 -87l-109 12q4 90 73 145q69 56 179 56t176 -58t66 -124q0 -126 -115 -169v-6q57 -16 97 -66t40 -120z" />
    <glyph glyph-name="questiondown" unicode="&#xbf;" horiz-adv-x="1093" 
d="M475 1454h189v-207h-189v207zM162 345q0 165 98 261t240 119v389h137v-477q-336 -27 -336 -285q-1 -118 63 -190t179 -72t181 65t71 181l137 -19q-4 -153 -110 -249t-281 -96t-277 104t-102 269z" />
    <glyph glyph-name="Agrave" unicode="&#xc0;" horiz-adv-x="1148" 
d="M406 1884l368 -250l-39 -65q-133 63 -395 194q58 103 66 121zM793 463l-144 512q-59 201 -76 293h-4q-23 -111 -75 -295l-148 -510h447zM1083 0h-157l-97 336h-518l-96 -336h-152l445 1454h133z" />
    <glyph glyph-name="Aacute" unicode="&#xc1;" horiz-adv-x="1148" 
d="M725 1890l66 -121q-262 -131 -396 -194l-39 65zM793 463l-144 512q-59 201 -76 293h-4q-23 -111 -75 -295l-148 -510h447zM1083 0h-157l-97 336h-518l-96 -336h-152l445 1454h133z" />
    <glyph glyph-name="Acircumflex" unicode="&#xc2;" horiz-adv-x="1148" 
d="M805 1575l-236 170l-233 -170q-2 2 -60 65q279 238 293 250q98 -82 295 -250q-57 -63 -59 -65zM793 463l-144 512q-59 201 -76 293h-4q-23 -111 -75 -295l-148 -510h447zM1083 0h-157l-97 336h-518l-96 -336h-152l445 1454h133z" />
    <glyph glyph-name="Atilde" unicode="&#xc3;" horiz-adv-x="1148" 
d="M270 1628q0 84 50 139t118 55t134 -48q66 -49 100 -50q78 0 82 88h86q0 -84 -52 -139t-118 -55q-67 0 -133 49t-99 49q-80 0 -84 -88h-84zM793 463l-144 512q-59 201 -76 293h-4q-23 -111 -75 -295l-148 -510h447zM1083 0h-157l-97 336h-518l-96 -336h-152l445 1454h133z
" />
    <glyph glyph-name="Adieresis" unicode="&#xc4;" horiz-adv-x="1148" 
d="M487 1624h-145v203h145v-203zM805 1624h-146v203h146v-203zM793 463l-144 512q-59 201 -76 293h-4q-23 -111 -75 -295l-148 -510h447zM1083 0h-157l-97 336h-518l-96 -336h-152l445 1454h133z" />
    <glyph glyph-name="Aring" unicode="&#xc5;" horiz-adv-x="1148" 
d="M570 1829q-50 0 -84 -36t-35 -86q1 -50 35 -85t85 -35t86 35t35 85t-36 86t-86 36zM770 1708q0 -82 -58 -140t-140 -58t-139 58q-58 58 -58 140t57 139t139 57q83 0 141 -56q58 -58 58 -140zM793 463l-144 512q-59 201 -76 293h-4q-23 -111 -75 -295l-148 -510h447z
M1083 0h-157l-97 336h-518l-96 -336h-152l445 1454h133z" />
    <glyph glyph-name="AE" unicode="&#xc6;" horiz-adv-x="1605" 
d="M754 471v705l-326 -705h326zM1503 0h-749v344h-385l-160 -344h-156l688 1454h762v-125h-608v-518h483v-125h-483v-563h608v-123z" />
    <glyph glyph-name="Ccedilla" unicode="&#xc7;" horiz-adv-x="1198" 
d="M457 -336l39 55q43 -37 96 -37q100 1 98 68q0 70 -72 70q-41 0 -65 -27q-8 4 -45 33l84 149q-217 17 -335 219t-118 540t132 543q132 206 372 206q188 0 298 -116t126 -288l-143 -26q-31 303 -283 303q-168 0 -261 -168t-93 -464t91 -462t261 -166q270 0 297 359l145 -21
q-16 -198 -118 -322t-301 -139l-60 -98v-2q27 16 76 16q49 1 90 -33t41 -99t-50 -107q-51 -42 -147 -41q-96 0 -155 55z" />
    <glyph glyph-name="Egrave" unicode="&#xc8;" horiz-adv-x="1107" 
d="M463 1890l368 -250l-38 -65q-133 63 -396 194q58 103 66 121zM1006 0h-785v1454h785v-127h-641v-516h516v-127h-516v-559h641v-125z" />
    <glyph glyph-name="Eacute" unicode="&#xc9;" horiz-adv-x="1107" 
d="M756 1890l65 -121q-262 -131 -395 -194l-39 65zM1006 0h-785v1454h785v-127h-641v-516h516v-127h-516v-559h641v-125z" />
    <glyph glyph-name="Ecircumflex" unicode="&#xca;" horiz-adv-x="1107" 
d="M842 1577l-236 170l-233 -170q-2 2 -60 65q279 238 293 250q98 -82 295 -250q-57 -63 -59 -65zM1006 0h-785v1454h785v-127h-641v-516h516v-127h-516v-559h641v-125z" />
    <glyph glyph-name="Edieresis" unicode="&#xcb;" horiz-adv-x="1107" 
d="M518 1624h-145v203h145v-203zM836 1624h-146v203h146v-203zM1006 0h-785v1454h785v-127h-641v-516h516v-127h-516v-559h641v-125z" />
    <glyph glyph-name="Igrave" unicode="&#xcc;" horiz-adv-x="593" 
d="M141 1890l369 -250l-39 -65q-133 63 -395 194q57 103 65 121zM225 0v1454h144v-1454h-144z" />
    <glyph glyph-name="Iacute" unicode="&#xcd;" horiz-adv-x="593" 
d="M453 1890l65 -121q-262 -131 -395 -194l-39 65zM225 0v1454h144v-1454h-144z" />
    <glyph glyph-name="Icircumflex" unicode="&#xce;" horiz-adv-x="593" 
d="M530 1577l-235 170l-234 -170q-2 2 -59 65q279 238 293 250q98 -82 295 -250q-58 -63 -60 -65zM225 0v1454h144v-1454h-144z" />
    <glyph glyph-name="Idieresis" unicode="&#xcf;" horiz-adv-x="593" 
d="M211 1624h-145v203h145v-203zM528 1624h-145v203h145v-203zM225 0v1454h144v-1454h-144z" />
    <glyph glyph-name="Eth" unicode="&#xd0;" horiz-adv-x="1282" 
d="M600 1329h-240v-547h267v-108h-267v-551h238q209 0 303 165t94 430t-85 429q-44 86 -124 134t-186 48zM1025 1229q118 -205 118 -510t-121 -503q-63 -104 -175 -160t-263 -56h-369v674h-164v108h164v672h387q145 0 254 -60t169 -165z" />
    <glyph glyph-name="Ntilde" unicode="&#xd1;" horiz-adv-x="1343" 
d="M399 1628q1 84 51 139t118 55t132 -48q66 -49 101 -50q78 0 82 88h86q0 -84 -51 -139q-50 -55 -118 -55t-134 49t-99 49q-80 0 -84 -88h-84zM221 1454h199l467 -1030q61 -137 94 -234h4q-6 154 -6 271v993h143v-1454h-196l-467 1024q-57 127 -97 238h-4q6 -102 7 -267
v-995h-144v1454z" />
    <glyph glyph-name="Ograve" unicode="&#xd2;" horiz-adv-x="1280" 
d="M489 1890l369 -250l-39 -65q-133 63 -395 194q55 103 65 121zM991 727q0 319 -93 474t-258 155t-259 -156t-94 -474t94 -474t259 -156t258 156t93 475zM1141 726q0 -353 -130 -554t-371 -201t-371 202t-130 554t130 554t371 202t371 -202t130 -555z" />
    <glyph glyph-name="Oacute" unicode="&#xd3;" horiz-adv-x="1280" 
d="M780 1890l66 -121q-262 -131 -395 -194l-39 65zM991 727q0 319 -93 474t-258 155t-259 -156t-94 -474t94 -474t259 -156t258 156t93 475zM1141 726q0 -353 -130 -554t-371 -201t-371 202t-130 554t130 554t371 202t371 -202t130 -555z" />
    <glyph glyph-name="Ocircumflex" unicode="&#xd4;" horiz-adv-x="1280" 
d="M874 1577l-235 170l-233 -170q-2 2 -60 65q279 238 293 250q98 -82 295 -250q-58 -63 -60 -65zM991 727q0 319 -93 474t-258 155t-259 -156t-94 -474t94 -474t259 -156t258 156t93 475zM1141 726q0 -353 -130 -554t-371 -201t-371 202t-130 554t130 554t371 202t371 -202
t130 -555z" />
    <glyph glyph-name="Otilde" unicode="&#xd5;" horiz-adv-x="1280" 
d="M344 1628q0 84 50 139t118 55t133 -48q66 -49 100 -50q78 0 82 88h86q0 -84 -51 -139q-50 -55 -118 -55t-134 49t-98 49q-80 0 -84 -88h-84zM991 727q0 319 -93 474t-258 155t-259 -156t-94 -474t94 -474t259 -156t258 156t93 475zM1141 726q0 -353 -130 -554t-371 -201
t-371 202t-130 554t130 554t371 202t371 -202t130 -555z" />
    <glyph glyph-name="Odieresis" unicode="&#xd6;" horiz-adv-x="1280" 
d="M553 1624h-145v203h145v-203zM870 1624h-145v203h145v-203zM991 727q0 319 -93 474t-258 155t-259 -156t-94 -474t94 -474t259 -156t258 156t93 475zM1141 726q0 -353 -130 -554t-371 -201t-371 202t-130 554t130 554t371 202t371 -202t130 -555z" />
    <glyph glyph-name="multiply" unicode="&#xd7;" horiz-adv-x="1357" 
d="M1090 186l-74 -73l-338 338l-338 -338l-74 73l338 338l-338 338l74 74l338 -338l338 338l74 -74l-338 -338z" />
    <glyph glyph-name="Oslash" unicode="&#xd8;" horiz-adv-x="1280" 
d="M287 727q0 -207 41 -348l585 792q-88 187 -263 187t-269 -156t-94 -475zM991 727q0 201 -43 350l-586 -792q94 -191 268 -191t267 157q94 157 94 476zM1141 727q0 -354 -130 -555q-129 -201 -367 -201t-372 195l-65 -90l-68 47l88 123q-88 184 -88 508t130 527
q129 202 365 202t367 -191l70 94l70 -49l-92 -125q92 -195 92 -485z" />
    <glyph glyph-name="Ugrave" unicode="&#xd9;" horiz-adv-x="1286" 
d="M492 1909l368 -250l-39 -66q-133 63 -395 195q56 103 66 121zM641 -29q-219 0 -332 129q-94 102 -94 318v1036h143v-1014q0 -184 58 -252q76 -92 228 -92t226 92q55 66 56 252v1014h145v-1036q0 -215 -94 -318q-117 -129 -336 -129z" />
    <glyph glyph-name="Uacute" unicode="&#xda;" horiz-adv-x="1286" 
d="M788 1890l66 -121q-262 -131 -395 -194l-39 65zM641 -29q-219 0 -332 129q-94 102 -94 318v1036h143v-1014q0 -184 58 -252q76 -92 228 -92t226 92q55 66 56 252v1014h145v-1036q0 -215 -94 -318q-117 -129 -336 -129z" />
    <glyph glyph-name="Ucircumflex" unicode="&#xdb;" horiz-adv-x="1286" 
d="M874 1575l-235 170l-233 -170q-2 2 -60 65q279 238 293 250q98 -82 295 -250q-58 -63 -60 -65zM641 -29q-219 0 -332 129q-94 102 -94 318v1036h143v-1014q0 -184 58 -252q76 -92 228 -92t226 92q55 66 56 252v1014h145v-1036q0 -215 -94 -318q-117 -129 -336 -129z" />
    <glyph glyph-name="Udieresis" unicode="&#xdc;" horiz-adv-x="1286" 
d="M557 1624h-145v203h145v-203zM874 1624h-145v203h145v-203zM641 -29q-219 0 -332 129q-94 102 -94 318v1036h143v-1014q0 -184 58 -252q76 -92 228 -92t226 92q55 66 56 252v1014h145v-1036q0 -215 -94 -318q-117 -129 -336 -129z" />
    <glyph glyph-name="Yacute" unicode="&#xdd;" horiz-adv-x="1099" 
d="M694 1890l66 -121q-262 -131 -395 -194l-39 65zM625 0h-144v643l-444 811h174l344 -653l340 653h166l-436 -811v-643z" />
    <glyph glyph-name="Thorn" unicode="&#xde;" horiz-adv-x="1214" 
d="M973 821q0 131 -79 209t-232 78h-297v-571h282q326 -1 326 284zM674 1233q208 0 328 -112q120 -113 120 -301t-118 -298t-338 -110h-301v-412h-144v1454h144v-221h309z" />
    <glyph glyph-name="germandbls" unicode="&#xdf;" horiz-adv-x="1204" 
d="M203 0v1102q0 168 105 274t294 106q188 0 296 -100t108 -233t-74 -220t-170 -102v-4q117 -17 202 -119t85 -260q0 -227 -112 -349t-306 -122q-86 0 -168 35l33 111q66 -27 129 -27q283 0 282 336q0 162 -91 251t-261 89h-59v109h59q157 1 233 67t76 175t-68 176
q-69 67 -192 67q-122 0 -194 -74t-72 -198v-1090h-135z" />
    <glyph glyph-name="agrave" unicode="&#xe0;" horiz-adv-x="1085" 
d="M391 1468l369 -249l-39 -66q-133 63 -395 195q57 102 65 120zM438 90q191 0 316 244v235q-23 -21 -65 -35t-138 -42t-137 -43q-145 -55 -146 -189q0 -78 44 -124t126 -46zM424 -25q-133 0 -214 77t-81 210q0 219 268 301q27 8 133 36t148 41q42 14 59 30q16 16 17 47v22
q0 172 -222 172t-229 -172l-135 15q4 130 101 202t268 72q348 0 348 -289v-487q0 -90 20 -124t90 -44l-14 -100q-113 2 -164 47t-61 145q-125 -201 -332 -201z" />
    <glyph glyph-name="aacute" unicode="&#xe1;" horiz-adv-x="1085" 
d="M682 1468l66 -120q-262 -131 -396 -195l-39 66zM438 90q191 0 316 244v235q-23 -21 -65 -35t-138 -42t-137 -43q-145 -55 -146 -189q0 -78 44 -124t126 -46zM424 -25q-133 0 -214 77t-81 210q0 219 268 301q27 8 133 36t148 41q42 14 59 30q16 16 17 47v22
q0 172 -222 172t-229 -172l-135 15q4 130 101 202t268 72q348 0 348 -289v-487q0 -90 20 -124t90 -44l-14 -100q-113 2 -164 47t-61 145q-125 -201 -332 -201z" />
    <glyph glyph-name="acircumflex" unicode="&#xe2;" horiz-adv-x="1085" 
d="M774 1145l-235 170l-234 -170q-2 2 -59 65q279 238 293 250q98 -82 295 -250q-58 -63 -60 -65zM438 90q191 0 316 244v235q-23 -21 -65 -35t-138 -42t-137 -43q-145 -55 -146 -189q0 -78 44 -124t126 -46zM424 -25q-133 0 -214 77t-81 210q0 219 268 301q27 8 133 36
t148 41q42 14 59 30q16 16 17 47v22q0 172 -222 172t-229 -172l-135 15q4 130 101 202t268 72q348 0 348 -289v-487q0 -90 20 -124t90 -44l-14 -100q-113 2 -164 47t-61 145q-125 -201 -332 -201z" />
    <glyph glyph-name="atilde" unicode="&#xe3;" horiz-adv-x="1085" 
d="M242 1210q0 84 50 140t118 55q68 0 133 -49q66 -49 100 -49q78 0 82 88h86q0 -83 -51 -139q-50 -56 -118 -56t-134 49t-98 49q-80 0 -84 -88h-84zM438 90q191 0 316 244v235q-23 -21 -65 -35t-138 -42t-137 -43q-145 -55 -146 -189q0 -78 44 -124t126 -46zM424 -25
q-133 0 -214 77t-81 210q0 219 268 301q27 8 133 36t148 41q42 14 59 30q16 16 17 47v22q0 172 -222 172t-229 -172l-135 15q4 130 101 202t268 72q348 0 348 -289v-487q0 -90 20 -124t90 -44l-14 -100q-113 2 -164 47t-61 145q-125 -201 -332 -201z" />
    <glyph glyph-name="adieresis" unicode="&#xe4;" horiz-adv-x="1085" 
d="M440 1208h-145v203h145v-203zM758 1208h-146v203h146v-203zM438 90q191 0 316 244v235q-23 -21 -65 -35t-138 -42t-137 -43q-145 -55 -146 -189q0 -78 44 -124t126 -46zM424 -25q-133 0 -214 77t-81 210q0 219 268 301q27 8 133 36t148 41q42 14 59 30q16 16 17 47v22
q0 172 -222 172t-229 -172l-135 15q4 130 101 202t268 72q348 0 348 -289v-487q0 -90 20 -124t90 -44l-14 -100q-113 2 -164 47t-61 145q-125 -201 -332 -201z" />
    <glyph glyph-name="aring" unicode="&#xe5;" horiz-adv-x="1085" 
d="M525 1442q-51 0 -85 -36t-34 -86t34 -85t86 -35q51 0 86 35t35 85t-36 86t-86 36zM725 1321q0 -82 -58 -140q-57 -59 -139 -59t-140 58t-58 141q0 82 57 139q57 58 139 58t140 -58t59 -139zM438 90q191 0 316 244v235q-23 -21 -65 -35t-138 -42t-137 -43
q-145 -55 -146 -189q0 -78 44 -124t126 -46zM424 -25q-133 0 -214 77t-81 210q0 219 268 301q27 8 133 36t148 41q42 14 59 30q16 16 17 47v22q0 172 -222 172t-229 -172l-135 15q4 130 101 202t268 72q348 0 348 -289v-487q0 -90 20 -124t90 -44l-14 -100q-113 2 -164 47
t-61 145q-125 -201 -332 -201z" />
    <glyph glyph-name="ae" unicode="&#xe6;" horiz-adv-x="1695" 
d="M895 453q0 -165 79 -263q80 -98 188 -98t171 58t86 149l131 -25q-33 -125 -126 -211q-94 -86 -236 -86t-236 66t-141 176q-57 -109 -153 -175t-224 -67q-129 0 -217 82q-88 83 -88 227q1 144 107 220t278 76h248v155q0 174 -220 174t-225 -170l-135 11q4 128 96 202
t263 74q250 0 321 -160q115 160 305 160t300 -128t110 -337q0 -31 -4 -96h-678v-14zM1178 911q-120 0 -198 -90t-85 -239h541q-4 158 -71 244t-187 85zM551 467q-285 -1 -285 -179q0 -96 53 -147t138 -51q186 0 305 229v148h-211z" />
    <glyph glyph-name="ccedilla" unicode="&#xe7;" horiz-adv-x="1046" 
d="M127 506q0 220 118 371q118 152 316 151q162 0 253 -87t112 -212l-131 -22q-35 205 -238 204q-129 -1 -211 -113t-82 -302t82 -296q82 -108 207 -108q209 0 252 230q90 -12 135 -21q-68 -313 -371 -324l-55 -92l2 -2q25 17 75 17t91 -35t41 -99t-50 -105
q-51 -42 -147 -42t-155 55l37 56q43 -37 96 -37q100 0 98 67q0 70 -72 70q-39 0 -65 -27q-29 21 -43 33l80 144q-174 18 -275 162q-100 144 -100 364z" />
    <glyph glyph-name="egrave" unicode="&#xe8;" horiz-adv-x="1077" 
d="M395 1468l369 -249l-39 -66q-133 63 -395 195q57 102 65 120zM550 911q-120 0 -199 -92t-81 -246h547q-2 154 -75 246q-72 92 -192 92zM551 -23q-197 1 -311 143t-113 383q0 241 115 383t304 142t301 -134t111 -337q0 -37 -4 -98h-686q4 -171 77 -269t208 -98
q96 0 159 56q62 57 85 151l133 -27q-35 -125 -127 -210t-252 -85z" />
    <glyph glyph-name="eacute" unicode="&#xe9;" horiz-adv-x="1077" 
d="M700 1468l66 -120q-262 -131 -395 -195l-39 66zM550 911q-120 0 -199 -92t-81 -246h547q-2 154 -75 246q-72 92 -192 92zM551 -23q-197 1 -311 143t-113 383q0 241 115 383t304 142t301 -134t111 -337q0 -37 -4 -98h-686q4 -171 77 -269t208 -98q96 0 159 56
q62 57 85 151l133 -27q-35 -125 -127 -210t-252 -85z" />
    <glyph glyph-name="ecircumflex" unicode="&#xea;" horiz-adv-x="1077" 
d="M778 1145l-235 170l-234 -170q-2 2 -59 65q279 238 293 250q98 -82 295 -250q-58 -63 -60 -65zM550 911q-120 0 -199 -92t-81 -246h547q-2 154 -75 246q-72 92 -192 92zM551 -23q-197 1 -311 143t-113 383q0 241 115 383t304 142t301 -134t111 -337q0 -37 -4 -98h-686
q4 -171 77 -269t208 -98q96 0 159 56q62 57 85 151l133 -27q-35 -125 -127 -210t-252 -85z" />
    <glyph glyph-name="edieresis" unicode="&#xeb;" horiz-adv-x="1077" 
d="M461 1208h-146v203h146v-203zM778 1208h-145v203h145v-203zM550 911q-120 0 -199 -92t-81 -246h547q-2 154 -75 246q-72 92 -192 92zM551 -23q-197 1 -311 143t-113 383q0 241 115 383t304 142t301 -134t111 -337q0 -37 -4 -98h-686q4 -171 77 -269t208 -98q96 0 159 56
q62 57 85 151l133 -27q-35 -125 -127 -210t-252 -85z" />
    <glyph glyph-name="igrave" unicode="&#xec;" horiz-adv-x="509" 
d="M98 1468l369 -249l-39 -66q-133 63 -395 195q55 102 65 120zM319 0h-131v1004h131v-1004z" />
    <glyph glyph-name="iacute" unicode="&#xed;" horiz-adv-x="509" 
d="M403 1468l66 -120q-262 -131 -395 -195l-39 66zM319 0h-131v1004h131v-1004z" />
    <glyph glyph-name="icircumflex" unicode="&#xee;" horiz-adv-x="509" 
d="M479 1145l-235 170l-234 -170q-2 2 -59 65q279 238 293 250q98 -82 295 -250q-58 -63 -60 -65zM319 0h-131v1004h131v-1004z" />
    <glyph glyph-name="idieresis" unicode="&#xef;" horiz-adv-x="509" 
d="M319 0h-131v1004h131v-1004zM166 1208h-146v203h146v-203zM483 1208h-145v203h145v-203z" />
    <glyph glyph-name="eth" unicode="&#xf0;" horiz-adv-x="1167" 
d="M555 92q139 0 207 104t67 256q0 154 -73 244q-74 90 -196 90t-196 -82t-75 -257q0 -175 79 -265t187 -90zM985 584q0 -256 -91 -425q-48 -89 -134 -139t-203 -49q-203 -1 -307 145t-104 344t112 324q113 126 297 125q104 0 179 -52t110 -124h4q-31 303 -217 479
l-297 -151l-41 82l262 135q-86 66 -209 113l35 88q172 -63 278 -146l207 105l41 -82l-174 -90q252 -242 252 -682z" />
    <glyph glyph-name="ntilde" unicode="&#xf1;" horiz-adv-x="1138" 
d="M281 1210q0 84 50 140q49 56 117 55q68 0 134 -49t100 -49q78 0 82 88h86q0 -83 -51 -139t-119 -56t-133 49q-66 49 -98 49q-80 0 -84 -88h-84zM641 1028q182 0 268 -143q47 -80 47 -230v-655h-131v633q0 117 -26 172q-49 106 -195 106q-72 0 -134 -38
q-136 -83 -136 -300v-573h-131v690q0 178 -10 314h126q4 -57 9 -152h4q86 176 309 176z" />
    <glyph glyph-name="ograve" unicode="&#xf2;" horiz-adv-x="1101" 
d="M408 1468l368 -249l-39 -66q-133 63 -395 195q56 102 66 120zM834 502q0 190 -77 301t-206 111t-207 -112q-78 -110 -78 -300t78 -301t207 -111t206 111t77 301zM973 502q0 -230 -115 -378q-116 -148 -308 -148t-306 146t-115 380q0 234 115 380q116 146 308 146
t306 -148t115 -378z" />
    <glyph glyph-name="oacute" unicode="&#xf3;" horiz-adv-x="1101" 
d="M688 1468l66 -120q-262 -131 -396 -195l-39 66zM834 502q0 190 -77 301t-206 111t-207 -112q-78 -110 -78 -300t78 -301t207 -111t206 111t77 301zM973 502q0 -230 -115 -378q-116 -148 -308 -148t-306 146t-115 380q0 234 115 380q116 146 308 146t306 -148t115 -378z
" />
    <glyph glyph-name="ocircumflex" unicode="&#xf4;" horiz-adv-x="1101" 
d="M782 1145l-235 170l-234 -170q-2 2 -59 65q279 238 293 250q98 -82 295 -250q-58 -63 -60 -65zM834 502q0 190 -77 301t-206 111t-207 -112q-78 -110 -78 -300t78 -301t207 -111t206 111t77 301zM973 502q0 -230 -115 -378q-116 -148 -308 -148t-306 146t-115 380
q0 234 115 380q116 146 308 146t306 -148t115 -378z" />
    <glyph glyph-name="otilde" unicode="&#xf5;" horiz-adv-x="1101" 
d="M262 1210q0 84 50 140t118 55q68 0 133 -49q66 -49 101 -49q78 0 81 88h86q0 -83 -51 -139q-50 -56 -118 -56t-134 49t-98 49q-80 0 -84 -88h-84zM834 502q0 190 -77 301t-206 111t-207 -112q-78 -110 -78 -300t78 -301t207 -111t206 111t77 301zM973 502
q0 -230 -115 -378q-116 -148 -308 -148t-306 146t-115 380q0 234 115 380q116 146 308 146t306 -148t115 -378z" />
    <glyph glyph-name="odieresis" unicode="&#xf6;" horiz-adv-x="1101" 
d="M461 1208h-146v203h146v-203zM778 1208h-145v203h145v-203zM834 502q0 190 -77 301t-206 111t-207 -112q-78 -110 -78 -300t78 -301t207 -111t206 111t77 301zM973 502q0 -230 -115 -378q-116 -148 -308 -148t-306 146t-115 380q0 234 115 380q116 146 308 146t306 -148
t115 -378z" />
    <glyph glyph-name="divide" unicode="&#xf7;" 
d="M768 61h-188v207h188v-207zM768 780h-188v207h188v-207zM1159 471h-971v104h971v-104z" />
    <glyph glyph-name="oslash" unicode="&#xf8;" horiz-adv-x="1097" 
d="M831 478q0 166 -45 265l-424 -569q72 -84 194 -84t199 111q76 111 76 277zM542 913q-122 -1 -200 -111t-78 -285t53 -277l426 577q-79 96 -201 96zM127 504q0 232 115 378t292 146t285 -108l88 118l64 -45l-101 -133q100 -145 100 -367q0 -221 -114 -369
q-115 -148 -307 -149q-154 0 -260 97l-101 -135l-61 45l109 147q-109 143 -109 375z" />
    <glyph glyph-name="ugrave" unicode="&#xf9;" horiz-adv-x="1142" 
d="M420 1468l368 -249l-38 -66q-133 63 -396 195q56 102 66 120zM188 301v703h131v-590q-1 -176 45 -249t172 -73t200 88t73 252v572h131v-693q0 -143 10 -311h-127q-4 45 -8 152h-4q-82 -174 -299 -175q-150 1 -237 89t-87 235z" />
    <glyph glyph-name="uacute" unicode="&#xfa;" horiz-adv-x="1142" 
d="M702 1468l66 -120q-262 -131 -395 -195l-39 66zM188 301v703h131v-590q-1 -176 45 -249t172 -73t200 88t73 252v572h131v-693q0 -143 10 -311h-127q-4 45 -8 152h-4q-82 -174 -299 -175q-150 1 -237 89t-87 235z" />
    <glyph glyph-name="ucircumflex" unicode="&#xfb;" horiz-adv-x="1142" 
d="M793 1145l-236 170l-233 -170q-2 2 -60 65q279 238 293 250q98 -82 295 -250q-57 -63 -59 -65zM188 301v703h131v-590q-1 -176 45 -249t172 -73t200 88t73 252v572h131v-693q0 -143 10 -311h-127q-4 45 -8 152h-4q-82 -174 -299 -175q-150 1 -237 89t-87 235z" />
    <glyph glyph-name="udieresis" unicode="&#xfc;" horiz-adv-x="1142" 
d="M475 1208h-145v203h145v-203zM793 1208h-146v203h146v-203zM188 301v703h131v-590q-1 -176 45 -249t172 -73t200 88t73 252v572h131v-693q0 -143 10 -311h-127q-4 45 -8 152h-4q-82 -174 -299 -175q-150 1 -237 89t-87 235z" />
    <glyph glyph-name="yacute" unicode="&#xfd;" horiz-adv-x="929" 
d="M625 1468l65 -120q-262 -131 -395 -195l-39 66zM186 -428q-102 0 -198 57q14 33 47 99q78 -41 139 -41q61 -1 97 31t61 102l61 182l-362 1002h147q23 -66 75 -210t114 -320t88 -296h4q2 10 82 252l194 574h142l-424 -1205q-41 -117 -103 -172t-164 -55z" />
    <glyph glyph-name="thorn" unicode="&#xfe;" horiz-adv-x="1148" 
d="M629 1028q173 0 283 -144t110 -378t-108 -380q-108 -148 -285 -149q-104 1 -181 53t-114 132h-4q4 -37 4 -137v-435h-131v1864h131v-467l-2 -145h4q31 78 109 132q79 54 184 54zM332 501q0 -183 72 -296t202 -113q129 0 204 112t75 300q0 190 -75 299t-203 109
q-127 0 -201 -114t-74 -297z" />
    <glyph glyph-name="ydieresis" unicode="&#xff;" horiz-adv-x="929" 
d="M377 1208h-146v203h146v-203zM694 1208h-145v203h145v-203zM186 -428q-102 0 -198 57q14 33 47 99q78 -41 139 -41q61 -1 97 31t61 102l61 182l-362 1002h147q23 -66 75 -210t114 -320t88 -296h4q2 10 82 252l194 574h142l-424 -1205q-41 -117 -103 -172t-164 -55z" />
    <glyph glyph-name="Amacron" unicode="&#x100;" horiz-adv-x="1148" 
d="M823 1688h-506v102h506v-102zM793 463l-144 512q-59 201 -76 293h-4q-23 -111 -75 -295l-148 -510h447zM1083 0h-157l-97 336h-518l-96 -336h-152l445 1454h133z" />
    <glyph glyph-name="amacron" unicode="&#x101;" horiz-adv-x="1085" 
d="M788 1249h-505v103h505v-103zM438 90q191 0 316 244v235q-23 -21 -65 -35t-138 -42t-137 -43q-145 -55 -146 -189q0 -78 44 -124t126 -46zM424 -25q-133 0 -214 77t-81 210q0 219 268 301q27 8 133 36t148 41q42 14 59 30q16 16 17 47v22q0 172 -222 172t-229 -172
l-135 15q4 130 101 202t268 72q348 0 348 -289v-487q0 -90 20 -124t90 -44l-14 -100q-113 2 -164 47t-61 145q-125 -201 -332 -201z" />
    <glyph glyph-name="Abreve" unicode="&#x102;" horiz-adv-x="1148" 
d="M571 1602q-111 0 -185 50t-77 158h68q23 -112 193 -112t198 112h66q-4 -108 -78 -158t-185 -50zM793 463l-144 512q-59 201 -76 293h-4q-23 -111 -75 -295l-148 -510h447zM1083 0h-157l-97 336h-518l-96 -336h-152l445 1454h133z" />
    <glyph glyph-name="abreve" unicode="&#x103;" horiz-adv-x="1085" 
d="M537 1174q-111 0 -185 50t-78 158h68q23 -112 195 -112t196 112h66q-3 -108 -77 -158t-185 -50zM438 90q191 0 316 244v235q-23 -21 -65 -35t-138 -42t-137 -43q-145 -55 -146 -189q0 -78 44 -124t126 -46zM424 -25q-133 0 -214 77t-81 210q0 219 268 301q27 8 133 36
t148 41q42 14 59 30q16 16 17 47v22q0 172 -222 172t-229 -172l-135 15q4 130 101 202t268 72q348 0 348 -289v-487q0 -90 20 -124t90 -44l-14 -100q-113 2 -164 47t-61 145q-125 -201 -332 -201z" />
    <glyph glyph-name="Aogonek" unicode="&#x104;" horiz-adv-x="1148" 
d="M793 463l-144 512q-68 250 -76 293h-4q-23 -111 -75 -295l-148 -510h447zM952 -369q-82 0 -134 37t-52 113q0 106 160 219l-97 336h-518l-96 -336h-152l445 1454h133l442 -1454h-63q-133 -94 -133 -195q-1 -43 25 -67t73 -25q47 0 90 45l53 -49q-59 -78 -176 -78z" />
    <glyph glyph-name="aogonek" unicode="&#x105;" horiz-adv-x="1085" 
d="M438 90q191 0 316 244v235q-35 -31 -164 -67q-203 -57 -261 -108q-59 -51 -60 -131q-1 -81 43 -127t126 -46zM836 -195q0 -90 99 -90q48 0 89 43l53 -47q-59 -80 -176 -80q-80 0 -133 37t-53 113q0 104 157 219q-104 35 -116 176q-123 -199 -332 -199q-133 0 -214 76
t-81 209q0 219 268 301q35 11 95 25q204 49 241 85q20 19 21 44v22q0 172 -222 172t-229 -172q-45 6 -135 15q4 130 101 202t268 72q348 0 348 -289v-487q0 -90 20 -124t90 -44q-6 -39 -14 -98l-31 2q-115 -90 -114 -183z" />
    <glyph glyph-name="Cacute" unicode="&#x106;" horiz-adv-x="1198" 
d="M784 1909l66 -121q-262 -131 -395 -195l-39 66zM623 -29q-224 0 -354 204t-130 550t132 552t372 206q188 0 298 -116t126 -288l-143 -26q-31 303 -283 303q-168 0 -261 -168t-93 -464t91 -462t261 -166q270 1 297 359l145 -21q-16 -203 -125 -333t-333 -130z" />
    <glyph glyph-name="cacute" unicode="&#x107;" horiz-adv-x="1046" 
d="M707 1468l65 -120q-262 -131 -395 -195l-39 66zM127 498q0 228 118 379q118 152 316 151q162 0 253 -87t112 -212l-131 -22q-35 205 -238 204q-129 -1 -211 -113t-82 -302t82 -296q82 -108 207 -108q209 1 252 230l135 -21q-29 -139 -121 -232q-93 -93 -279 -93t-300 146
q-114 148 -113 376z" />
    <glyph glyph-name="Ccircumflex" unicode="&#x108;" horiz-adv-x="1198" 
d="M874 1593l-235 170l-233 -170q-2 2 -60 66q279 238 293 250q98 -82 295 -250q-58 -64 -60 -66zM623 -29q-224 0 -354 204t-130 550t132 552t372 206q188 0 298 -116t126 -288l-143 -26q-31 303 -283 303q-168 0 -261 -168t-93 -464t91 -462t261 -166q270 1 297 359
l145 -21q-16 -203 -125 -333t-333 -130z" />
    <glyph glyph-name="ccircumflex" unicode="&#x109;" horiz-adv-x="1046" 
d="M797 1145l-236 170l-233 -170q-2 2 -60 65q279 238 293 250q98 -82 295 -250q-57 -63 -59 -65zM127 498q0 228 118 379q118 152 316 151q162 0 253 -87t112 -212l-131 -22q-35 205 -238 204q-129 -1 -211 -113t-82 -302t82 -296q82 -108 207 -108q209 1 252 230l135 -21
q-29 -139 -121 -232q-93 -93 -279 -93t-300 146q-114 148 -113 376z" />
    <glyph glyph-name="Cdotaccent" unicode="&#x10a;" horiz-adv-x="1198" 
d="M709 1659h-142v215h142v-215zM623 -29q-224 0 -354 204t-130 550t132 552t372 206q188 0 298 -116t126 -288l-143 -26q-31 303 -283 303q-168 0 -261 -168t-93 -464t91 -462t261 -166q270 1 297 359l145 -21q-16 -203 -125 -333t-333 -130z" />
    <glyph glyph-name="cdotaccent" unicode="&#x10b;" horiz-adv-x="1046" 
d="M633 1221h-141v215h141v-215zM127 498q0 228 118 379q118 152 316 151q162 0 253 -87t112 -212l-131 -22q-35 205 -238 204q-129 -1 -211 -113t-82 -302t82 -296q82 -108 207 -108q209 1 252 230l135 -21q-29 -139 -121 -232q-93 -93 -279 -93t-300 146
q-114 148 -113 376z" />
    <glyph glyph-name="Ccaron" unicode="&#x10c;" horiz-adv-x="1198" 
d="M639 1739l235 170q2 -2 60 -66q-197 -168 -295 -250q-14 12 -293 250q57 63 60 66zM623 -29q-224 0 -354 204t-130 550t132 552t372 206q188 0 298 -116t126 -288l-143 -26q-31 303 -283 303q-168 0 -261 -168t-93 -464t91 -462t261 -166q270 1 297 359l145 -21
q-16 -203 -125 -333t-333 -130z" />
    <glyph glyph-name="ccaron" unicode="&#x10d;" horiz-adv-x="1046" 
d="M561 1290l236 170q2 -2 59 -65q-197 -168 -295 -250q-14 12 -293 250q57 63 60 65zM127 498q0 228 118 379q118 152 316 151q162 0 253 -87t112 -212l-131 -22q-35 205 -238 204q-129 -1 -211 -113t-82 -302t82 -296q82 -108 207 -108q209 1 252 230l135 -21
q-29 -139 -121 -232q-93 -93 -279 -93t-300 146q-114 148 -113 376z" />
    <glyph glyph-name="Dcaron" unicode="&#x10e;" horiz-adv-x="1286" 
d="M627 1739l235 170q2 -2 60 -66q-197 -168 -295 -250q-14 12 -293 250q57 63 59 66zM997 727q0 172 -33 300q-34 128 -125 215t-235 87h-239v-1204h237q395 0 395 602zM1147 729q0 -582 -365 -700q-90 -29 -196 -29h-365v1454h383q211 0 346 -129t177 -368
q20 -107 20 -228z" />
    <glyph glyph-name="dcaron" unicode="&#x10f;" horiz-adv-x="1312" 
d="M1315 1411q-67 -152 -156 -334l-74 27q16 59 51 179q34 120 50 179q43 -18 129 -51zM815 1454h131v-1139q0 -63 10 -315h-129q-4 70 -8 162h-4q-27 -78 -103 -131t-186 -54q-176 -1 -288 143t-111 386q0 242 114 382t291 140q102 0 176 -50t107 -132h4l-4 139v469z
M264 498q0 -197 77 -301q77 -105 207 -105t200 117t70 294t-72 293q-70 116 -200 116t-206 -109q-76 -108 -76 -305z" />
    <glyph glyph-name="Dcroat" unicode="&#x110;" horiz-adv-x="1282" 
d="M600 1329h-240v-547h267v-108h-267v-551h238q209 0 303 165t94 430t-85 429q-44 86 -124 134t-186 48zM1025 1229q118 -205 118 -510t-121 -503q-63 -104 -175 -160t-263 -56h-369v674h-164v108h164v672h387q145 0 254 -60t169 -165z" />
    <glyph glyph-name="dcroat" unicode="&#x111;" horiz-adv-x="1150" 
d="M264 498q0 -197 77 -301q77 -105 207 -105t200 117t70 294t-72 293q-70 116 -200 116t-206 -109q-76 -108 -76 -305zM815 1161h-248v105h248v188h131v-188h184v-105h-184v-846q0 -63 10 -315h-129q-4 70 -8 162h-4q-27 -78 -103 -131t-186 -54q-176 -1 -288 143t-111 386
q0 242 114 382t291 140q102 0 176 -50t107 -132h4l-4 139v176z" />
    <glyph glyph-name="Emacron" unicode="&#x112;" horiz-adv-x="1107" 
d="M870 1688h-505v102h505v-102zM1006 0h-785v1454h785v-127h-641v-516h516v-127h-516v-559h641v-125z" />
    <glyph glyph-name="emacron" unicode="&#x113;" horiz-adv-x="1077" 
d="M801 1249h-506v103h506v-103zM550 911q-120 0 -199 -92t-81 -246h547q-2 154 -75 246q-72 92 -192 92zM551 -23q-197 1 -311 143t-113 383q0 241 115 383t304 142t301 -134t111 -337q0 -37 -4 -98h-686q4 -171 77 -269t208 -98q96 0 159 56q62 57 85 151l133 -27
q-35 -125 -127 -210t-252 -85z" />
    <glyph glyph-name="Ebreve" unicode="&#x114;" horiz-adv-x="1107" 
d="M606 1602q-110 0 -184 50t-78 158h68q22 -112 194 -112t197 112h65q-4 -108 -78 -158t-184 -50zM1006 0h-785v1454h785v-127h-641v-516h516v-127h-516v-559h641v-125z" />
    <glyph glyph-name="ebreve" unicode="&#x115;" horiz-adv-x="1077" 
d="M539 1174q-111 0 -185 50t-78 158h68q23 -112 194 -112t197 112h66q-3 -108 -77 -158t-185 -50zM550 911q-120 0 -199 -92t-81 -246h547q-2 154 -75 246q-72 92 -192 92zM551 -23q-197 1 -311 143t-113 383q0 241 115 383t304 142t301 -134t111 -337q0 -37 -4 -98h-686
q4 -171 77 -269t208 -98q96 0 159 56q62 57 85 151l133 -27q-35 -125 -127 -210t-252 -85z" />
    <glyph glyph-name="Edotaccent" unicode="&#x116;" horiz-adv-x="1107" 
d="M686 1649h-141v215h141v-215zM1006 0h-785v1454h785v-127h-641v-516h516v-127h-516v-559h641v-125z" />
    <glyph glyph-name="edotaccent" unicode="&#x117;" horiz-adv-x="1077" 
d="M610 1221h-141v215h141v-215zM550 911q-120 0 -199 -92t-81 -246h547q-2 154 -75 246q-72 92 -192 92zM551 -23q-197 1 -311 143t-113 383q0 241 115 383t304 142t301 -134t111 -337q0 -37 -4 -98h-686q4 -171 77 -269t208 -98q96 0 159 56q62 57 85 151l133 -27
q-35 -125 -127 -210t-252 -85z" />
    <glyph glyph-name="Eogonek" unicode="&#x118;" horiz-adv-x="1107" 
d="M936 -369q-80 0 -132 37t-52 113q0 104 157 219h-688v1454h785v-127h-641v-516h516v-127h-516v-559h641v-125q-133 -94 -134 -195q0 -43 26 -67t74 -25q48 0 87 45l53 -49q-55 -78 -176 -78z" />
    <glyph glyph-name="eogonek" unicode="&#x119;" horiz-adv-x="1077" 
d="M550 911q-120 0 -199 -92t-81 -246h547q-2 154 -75 246q-72 92 -192 92zM623 -369q-80 0 -134 37q-53 37 -53 113q0 98 127 196h-12q-197 1 -311 143t-113 383q0 241 115 383t304 142t301 -134t111 -337q0 -37 -4 -98h-686q4 -166 77 -266t208 -101q96 0 159 56
q62 57 85 151l133 -27q-59 -215 -244 -274q-129 -88 -129 -193q0 -43 26 -67q25 -24 73 -23q48 0 89 43l54 -47q-59 -80 -176 -80z" />
    <glyph glyph-name="Ecaron" unicode="&#x11a;" horiz-adv-x="1107" 
d="M606 1739l236 170q2 -2 59 -66q-197 -168 -295 -250q-14 12 -293 250q57 63 60 66zM1006 0h-785v1454h785v-127h-641v-516h516v-127h-516v-559h641v-125z" />
    <glyph glyph-name="ecaron" unicode="&#x11b;" horiz-adv-x="1077" 
d="M539 1290l235 170q2 -2 60 -65q-197 -168 -295 -250q-14 12 -293 250q57 63 59 65zM550 911q-120 0 -199 -92t-81 -246h547q-2 154 -75 246q-72 92 -192 92zM551 -23q-197 1 -311 143t-113 383q0 241 115 383t304 142t301 -134t111 -337q0 -37 -4 -98h-686
q4 -171 77 -269t208 -98q96 0 159 56q62 57 85 151l133 -27q-35 -125 -127 -210t-252 -85z" />
    <glyph glyph-name="Gcircumflex" unicode="&#x11c;" horiz-adv-x="1286" 
d="M881 1593l-236 170l-233 -170q-2 2 -60 66q279 238 293 250q98 -82 295 -250q-57 -64 -59 -66zM1083 0h-94q-12 88 -18 193h-4q-35 -97 -122 -159t-208 -63q-227 0 -363 199q-135 199 -135 550q-1 351 139 557t379 206q197 0 299 -111t117 -268l-139 -27
q-33 279 -283 279q-160 0 -262 -160t-102 -472t100 -470t268 -158q133 0 213 114t80 316v131h-313v125h448v-782z" />
    <glyph glyph-name="gcircumflex" unicode="&#x11d;" horiz-adv-x="1148" 
d="M801 1145l-236 170l-233 -170q-2 2 -60 65q279 238 293 250q98 -82 295 -250q-57 -63 -59 -65zM946 688v-649q0 -353 -196 -445q-80 -37 -197 -36q-184 0 -273 82t-98 202l131 17q14 -193 240 -193q156 0 206 85q43 73 52 214q2 33 4 95t4 100h-4q-31 -72 -107 -124
t-188 -52q-178 0 -286 145t-108 383t114 377q113 139 290 139q113 0 183 -53t102 -127h4q0 66 8 156h127q-8 -205 -8 -316zM264 508q0 -192 73 -301t205 -109t203 113q72 113 72 295t-73 294q-72 112 -200 112t-204 -106t-76 -298z" />
    <glyph glyph-name="Gbreve" unicode="&#x11e;" horiz-adv-x="1286" 
d="M643 1602q-111 0 -185 50t-77 158h68q23 -112 195 -112t196 112h65q-3 -108 -77 -158t-185 -50zM1083 0h-94q-12 88 -18 193h-4q-35 -97 -122 -159t-208 -63q-227 0 -363 199q-135 199 -135 550q-1 351 139 557t379 206q197 0 299 -111t117 -268l-139 -27
q-33 279 -283 279q-160 0 -262 -160t-102 -472t100 -470t268 -158q133 0 213 114t80 316v131h-313v125h448v-782z" />
    <glyph glyph-name="gbreve" unicode="&#x11f;" horiz-adv-x="1148" 
d="M561 1174q-111 0 -185 50t-77 158h68q23 -112 195 -112t196 112h65q-3 -108 -77 -158t-185 -50zM946 688v-649q0 -353 -196 -445q-80 -37 -197 -36q-184 0 -273 82t-98 202l131 17q14 -193 240 -193q156 0 206 85q43 73 52 214q2 33 4 95t4 100h-4q-31 -72 -107 -124
t-188 -52q-178 0 -286 145t-108 383t114 377q113 139 290 139q113 0 183 -53t102 -127h4q0 66 8 156h127q-8 -205 -8 -316zM264 508q0 -192 73 -301t205 -109t203 113q72 113 72 295t-73 294q-72 112 -200 112t-204 -106t-76 -298z" />
    <glyph glyph-name="Gdotaccent" unicode="&#x120;" horiz-adv-x="1286" 
d="M715 1659h-142v215h142v-215zM1083 0h-94q-12 88 -18 193h-4q-35 -97 -122 -159t-208 -63q-227 0 -363 199q-135 199 -135 550q-1 351 139 557t379 206q197 0 299 -111t117 -268l-139 -27q-33 279 -283 279q-160 0 -262 -160t-102 -472t100 -470t268 -158q133 0 213 114
t80 316v131h-313v125h448v-782z" />
    <glyph glyph-name="gdotaccent" unicode="&#x121;" horiz-adv-x="1148" 
d="M641 1221h-141v215h141v-215zM946 688v-649q0 -353 -196 -445q-80 -37 -197 -36q-184 0 -273 82t-98 202l131 17q14 -193 240 -193q156 0 206 85q43 73 52 214q2 33 4 95t4 100h-4q-31 -72 -107 -124t-188 -52q-178 0 -286 145t-108 383t114 377q113 139 290 139
q113 0 183 -53t102 -127h4q0 66 8 156h127q-8 -205 -8 -316zM264 508q0 -192 73 -301t205 -109t203 113q72 113 72 295t-73 294q-72 112 -200 112t-204 -106t-76 -298z" />
    <glyph glyph-name="Gcommaaccent" unicode="&#x122;" horiz-adv-x="1286" 
d="M737 -152v-122q0 -104 -38 -148t-124 -67l-16 67q90 23 90 103h-100v167h188zM1083 0h-94q-12 88 -18 193h-4q-35 -97 -122 -159t-208 -63q-227 0 -363 199q-135 199 -135 550q-1 351 139 557t379 206q197 0 299 -111t117 -268l-139 -27q-33 279 -283 279
q-160 0 -262 -160t-102 -472t100 -470t268 -158q133 0 213 114t80 316v131h-313v125h448v-782z" />
    <glyph glyph-name="gcommaaccent" unicode="&#x123;" horiz-adv-x="1148" 
d="M461 1286v123q0 105 38 149t124 66l16 -68q-90 -20 -90 -102h100v-168h-188zM946 688v-649q0 -353 -196 -445q-80 -37 -197 -36q-184 0 -273 82t-98 202l131 17q14 -193 240 -193q156 0 206 85q43 73 52 214q2 33 4 95t4 100h-4q-31 -72 -107 -124t-188 -52
q-178 0 -286 145t-108 383t114 377q113 139 290 139q113 0 183 -53t102 -127h4q0 66 8 156h127q-8 -205 -8 -316zM264 508q0 -192 73 -301t205 -109t203 113q72 113 72 295t-73 294q-72 112 -200 112t-204 -106t-76 -298z" />
    <glyph glyph-name="Hcircumflex" unicode="&#x124;" horiz-adv-x="1277" 
d="M872 1593l-235 170l-234 -170q-2 2 -59 66q279 238 293 250q98 -82 295 -250q-58 -64 -60 -66zM1057 0h-144v684h-548v-684h-144v1454h144v-641h548v641h144v-1454z" />
    <glyph glyph-name="hcircumflex" unicode="&#x125;" horiz-adv-x="1132" 
d="M504 1567l-236 170l-233 -170q-2 2 -60 65q279 238 293 250q98 -82 295 -250q-57 -63 -59 -65zM952 0h-131v627q0 139 -50 212t-169 73q-120 0 -194 -92q-74 -91 -74 -245v-575h-131v1454h131v-442q0 -51 -4 -154h4q35 76 111 123q77 47 178 47q173 0 251 -103t78 -276
v-649z" />
    <glyph glyph-name="Hbar" unicode="&#x126;" horiz-adv-x="1277" 
d="M365 813h548v170h-548v-170zM1057 0h-144v684h-548v-684h-144v1454h144v-369h548v369h144v-1454z" />
    <glyph glyph-name="hbar" unicode="&#x127;" horiz-adv-x="1132" 
d="M600 1167h-272v-155q0 -51 -4 -154h4q33 76 109 123q77 47 177 47q174 0 253 -102t79 -277v-649h-131v627q0 137 -50 211t-170 74t-195 -90q-75 -89 -74 -247v-575h-129v1167h-150v103h150v184h131v-184h272v-103z" />
    <glyph glyph-name="Itilde" unicode="&#x128;" horiz-adv-x="593" 
d="M12 1659q0 84 50 139t118 55t133 -49q66 -49 101 -49q78 0 82 88h86q0 -84 -52 -139t-118 -55q-68 0 -134 49t-98 49q-80 0 -84 -88h-84zM225 0v1454h144v-1454h-144z" />
    <glyph glyph-name="itilde" unicode="&#x129;" horiz-adv-x="509" 
d="M-35 1210q0 84 50 140q49 56 117 55q68 0 134 -49t101 -49q78 0 82 88h86q1 -83 -51 -139t-120 -56t-133 49q-66 49 -98 49q-80 0 -84 -88h-84zM319 0h-131v1004h131v-1004z" />
    <glyph glyph-name="Imacron" unicode="&#x12a;" horiz-adv-x="593" 
d="M549 1688h-506v102h506v-102zM225 0v1454h144v-1454h-144z" />
    <glyph glyph-name="imacron" unicode="&#x12b;" horiz-adv-x="509" 
d="M504 1249h-506v103h506v-103zM319 0h-131v1004h131v-1004z" />
    <glyph glyph-name="Ibreve" unicode="&#x12c;" horiz-adv-x="593" 
d="M295 1602q-111 0 -185 50t-77 158h67q23 -112 194 -112t198 112h65q-3 -108 -77 -158t-185 -50zM225 0v1454h144v-1454h-144z" />
    <glyph glyph-name="ibreve" unicode="&#x12d;" horiz-adv-x="509" 
d="M250 1174q-110 0 -184 50t-78 158h67q23 -112 195 -112t196 112h66q-4 -108 -78 -158t-184 -50zM319 0h-131v1004h131v-1004z" />
    <glyph glyph-name="Iogonek" unicode="&#x12e;" horiz-adv-x="593" 
d="M236 -195q0 -90 99 -90q48 0 89 43l53 -47q-59 -80 -176 -80q-176 0 -176 140q0 125 149 229h-49v1454h144v-1454q-133 -90 -133 -195z" />
    <glyph glyph-name="iogonek" unicode="&#x12f;" horiz-adv-x="509" 
d="M324 1221h-142v215h142v-215zM186 -195q0 -90 100 -90q48 0 87 43l53 -47q-57 -80 -176 -80q-80 0 -132 37t-52 113q0 104 157 219h-35v1004h131v-1004q-133 -90 -133 -195z" />
    <glyph glyph-name="Idotaccent" unicode="&#x130;" horiz-adv-x="593" 
d="M367 1659h-142v215h142v-215zM225 0v1454h144v-1454h-144z" />
    <glyph glyph-name="dotlessi" unicode="&#x131;" horiz-adv-x="509" 
d="M319 0h-131v1004h131v-1004z" />
    <glyph glyph-name="Jcircumflex" unicode="&#x134;" horiz-adv-x="1081" 
d="M1040 1593l-235 170l-234 -170q-2 2 -59 66q279 238 293 250q98 -82 295 -250q-58 -64 -60 -66zM879 1454v-1026q0 -457 -404 -457q-172 -1 -275 95t-104 270q0 37 2 61l144 17q-2 -25 -2 -52q0 -138 60 -202t185 -64q248 0 248 318v1040h146z" />
    <glyph glyph-name="jcircumflex" unicode="&#x135;" horiz-adv-x="524" 
d="M504 1145l-236 170l-233 -170q-2 2 -60 65q279 238 293 250q98 -82 295 -250q-57 -63 -59 -65zM334 1004v-1096q0 -100 -9 -154t-42 -96q-66 -86 -190 -86t-210 45l41 102q63 -31 138 -30t108 37t33 190v1088h131z" />
    <glyph glyph-name="Kcommaaccent" unicode="&#x136;" horiz-adv-x="1183" 
d="M694 -152v-122q0 -104 -38 -148t-124 -67l-16 67q90 23 90 103h-100v167h188zM365 0h-144v1454h144v-737l563 737h178l-479 -612l503 -842h-172l-417 733l-176 -221v-512z" />
    <glyph glyph-name="kcommaaccent" unicode="&#x137;" horiz-adv-x="1044" 
d="M627 -152v-122q0 -104 -38 -148t-124 -67l-16 67q90 23 90 103h-101v167h189zM334 0h-131v1454h131v-962l473 512h180l-385 -410l399 -594h-161l-328 500l-178 -187v-313z" />
    <glyph glyph-name="kgreenlandic" unicode="&#x138;" horiz-adv-x="1044" 
d="M334 0h-131v1004h131v-512l383 413q55 59 101 79t143 20v-125q-55 -1 -84 -13t-68 -51l-207 -221l399 -594h-161l-328 500l-178 -187v-313z" />
    <glyph glyph-name="Lacute" unicode="&#x139;" horiz-adv-x="1036" 
d="M459 1909l65 -121q-262 -131 -395 -195l-39 66zM983 0h-762v1454h144v-1327h618v-127z" />
    <glyph glyph-name="lacute" unicode="&#x13a;" horiz-adv-x="538" 
d="M420 1896l65 -120q-262 -131 -395 -195l-39 66zM203 0v1454h131v-1454h-131z" />
    <glyph glyph-name="Lcommaaccent" unicode="&#x13b;" horiz-adv-x="1036" 
d="M690 -152v-122q0 -104 -38 -148t-124 -67l-16 67q90 23 90 103h-100v167h188zM983 0h-762v1454h144v-1327h618v-127z" />
    <glyph glyph-name="lcommaaccent" unicode="&#x13c;" horiz-adv-x="538" 
d="M365 -152v-122q0 -104 -38 -148t-124 -67l-17 67q90 23 90 103h-100v167h189zM203 0v1454h131v-1454h-131z" />
    <glyph glyph-name="Lcaron" unicode="&#x13d;" horiz-adv-x="1036" 
d="M788 1411l-155 -334l-74 27q26 86 100 358q43 -18 129 -51zM983 0h-762v1454h144v-1327h618v-127z" />
    <glyph glyph-name="lcaron" unicode="&#x13e;" horiz-adv-x="731" 
d="M731 1411q-67 -152 -156 -334l-73 27q16 59 50 179t50 179q43 -18 129 -51zM203 0v1454h131v-1454h-131z" />
    <glyph glyph-name="Ldot" unicode="&#x13f;" horiz-adv-x="1036" 
d="M983 0h-762v1454h144v-1327h618v-127zM795 784h-174v215h174v-215z" />
    <glyph glyph-name="ldot" unicode="&#x140;" horiz-adv-x="763" 
d="M203 0v1454h131v-1454h-131zM666 784h-174v215h174v-215z" />
    <glyph glyph-name="Lslash" unicode="&#x141;" horiz-adv-x="1036" 
d="M983 0h-760v594l-164 -102v122l164 105v735h146v-649l379 239v-124l-379 -236v-557h614v-127z" />
    <glyph glyph-name="lslash" unicode="&#x142;" horiz-adv-x="546" 
d="M338 0h-131v588l-160 -99v121l160 101v743h131v-661l160 98v-121q-90 -53 -160 -100v-670z" />
    <glyph glyph-name="Nacute" unicode="&#x143;" horiz-adv-x="1343" 
d="M850 1909l65 -121q-262 -131 -395 -195l-39 66zM221 1454h199l467 -1030q61 -137 94 -234h4q-6 154 -6 271v993h143v-1454h-196l-467 1024q-57 127 -97 238h-4q6 -102 7 -267v-995h-144v1454z" />
    <glyph glyph-name="nacute" unicode="&#x144;" horiz-adv-x="1138" 
d="M717 1468l65 -120q-262 -131 -395 -195l-39 66zM641 1028q182 0 268 -143q47 -80 47 -230v-655h-131v633q0 117 -26 172q-49 106 -195 106q-72 0 -134 -38q-136 -83 -136 -300v-573h-131v690q0 178 -10 314h126q4 -57 9 -152h4q86 176 309 176z" />
    <glyph glyph-name="Ncommaaccent" unicode="&#x145;" horiz-adv-x="1343" 
d="M776 -152v-122q0 -104 -38 -148t-124 -67l-16 67q90 23 90 103h-100v167h188zM221 1454h199l467 -1030q61 -137 94 -234h4q-6 154 -6 271v993h143v-1454h-196l-467 1024q-57 127 -97 238h-4q6 -102 7 -267v-995h-144v1454z" />
    <glyph glyph-name="ncommaaccent" unicode="&#x146;" horiz-adv-x="1138" 
d="M666 -152v-122q0 -104 -38 -148t-124 -67l-17 67q90 23 91 103h-101v167h189zM641 1028q182 0 268 -143q47 -80 47 -230v-655h-131v633q0 117 -26 172q-49 106 -195 106q-72 0 -134 -38q-136 -83 -136 -300v-573h-131v690q0 178 -10 314h126q4 -57 9 -152h4
q86 176 309 176z" />
    <glyph glyph-name="Ncaron" unicode="&#x147;" horiz-adv-x="1343" 
d="M670 1739l235 170q2 -2 60 -66q-197 -168 -295 -250q-14 12 -293 250q57 63 59 66zM221 1454h199l467 -1030q61 -137 94 -234h4q-6 154 -6 271v993h143v-1454h-196l-467 1024q-57 127 -97 238h-4q6 -102 7 -267v-995h-144v1454z" />
    <glyph glyph-name="ncaron" unicode="&#x148;" horiz-adv-x="1138" 
d="M571 1290l236 170q2 -2 59 -65q-197 -168 -295 -250q-14 12 -292 250q57 63 59 65zM641 1028q182 0 268 -143q47 -80 47 -230v-655h-131v633q0 117 -26 172q-49 106 -195 106q-72 0 -134 -38q-136 -83 -136 -300v-573h-131v690q0 178 -10 314h126q4 -57 9 -152h4
q86 176 309 176z" />
    <glyph glyph-name="napostrophe" unicode="&#x149;" horiz-adv-x="1138" 
d="M385 1544v-123q0 -104 -38 -148t-124 -67l-16 68q90 23 90 102h-100v168h188zM641 1028q182 0 268 -143q47 -80 47 -230v-655h-131v633q0 117 -26 172q-49 106 -195 106q-72 0 -134 -38q-136 -83 -136 -300v-573h-131v690q0 178 -10 314h126q4 -57 9 -152h4
q86 176 309 176z" />
    <glyph glyph-name="Eng" unicode="&#x14a;" horiz-adv-x="1343" 
d="M778 -299q106 0 154 62q47 62 47 196v41l-473 893q-100 193 -144 301h-4q6 -125 7 -215v-979h-144v1454h146l471 -893q94 -178 141 -293h4q-4 102 -4 256v930h143v-1474q0 -200 -80 -302t-256 -102t-288 123l90 98q84 -96 190 -96z" />
    <glyph glyph-name="eng" unicode="&#x14b;" horiz-adv-x="1138" 
d="M956 655v-747q0 -100 -9 -154t-42 -98q-63 -84 -189 -84t-212 45l43 102q61 -31 137 -30t114 42q13 13 20 53t7 58v791q0 141 -51 210t-171 69q-121 0 -195 -91q-74 -90 -74 -248v-573h-131v690q0 178 -10 314h126q4 -57 9 -152h4q86 176 309 176q158 0 237 -99
q78 -100 78 -274z" />
    <glyph glyph-name="Omacron" unicode="&#x14c;" horiz-adv-x="1280" 
d="M891 1688h-506v102h506v-102zM991 727q0 319 -93 474t-258 155t-259 -156t-94 -474t94 -474t259 -156t258 156t93 475zM1141 726q0 -353 -130 -554t-371 -201t-371 202t-130 554t130 554t371 202t371 -202t130 -555z" />
    <glyph glyph-name="omacron" unicode="&#x14d;" horiz-adv-x="1101" 
d="M803 1249h-506v103h506v-103zM834 502q0 190 -77 301t-206 111t-207 -112q-78 -110 -78 -300t78 -301t207 -111t206 111t77 301zM973 502q0 -230 -115 -378q-116 -148 -308 -148t-306 146t-115 380q0 234 115 380q116 146 308 146t306 -148t115 -378z" />
    <glyph glyph-name="Obreve" unicode="&#x14e;" horiz-adv-x="1280" 
d="M639 1602q-111 0 -185 50t-77 158h67q23 -112 195 -112t197 112h65q-3 -108 -77 -158t-185 -50zM991 727q0 319 -93 474t-258 155t-259 -156t-94 -474t94 -474t259 -156t258 156t93 475zM1141 726q0 -353 -130 -554t-371 -201t-371 202t-130 554t130 554t371 202
t371 -202t130 -555z" />
    <glyph glyph-name="obreve" unicode="&#x14f;" horiz-adv-x="1101" 
d="M549 1174q-111 0 -185 50t-77 158h67q23 -112 195 -112t196 112h66q-3 -108 -77 -158t-185 -50zM834 502q0 190 -77 301t-206 111t-207 -112q-78 -110 -78 -300t78 -301t207 -111t206 111t77 301zM973 502q0 -230 -115 -378q-116 -148 -308 -148t-306 146t-115 380
q0 234 115 380q116 146 308 146t306 -148t115 -378z" />
    <glyph glyph-name="Ohungarumlaut" unicode="&#x150;" horiz-adv-x="1280" 
d="M307 1653l318 254l73 -119l-348 -199zM721 1589l-45 64l319 254l74 -119zM991 727q0 319 -93 474t-258 155t-259 -156t-94 -474t94 -474t259 -156t258 156t93 475zM1141 726q0 -353 -130 -554t-371 -201t-371 202t-130 554t130 554t371 202t371 -202t130 -555z" />
    <glyph glyph-name="ohungarumlaut" unicode="&#x151;" horiz-adv-x="1101" 
d="M227 1204l318 254l73 -119l-348 -198zM641 1141l-45 63l319 254l74 -119zM834 502q0 190 -77 301t-206 111t-207 -112q-78 -110 -78 -300t78 -301t207 -111t206 111t77 301zM973 502q0 -230 -115 -378q-116 -148 -308 -148t-306 146t-115 380q0 234 115 380
q116 146 308 146t306 -148t115 -378z" />
    <glyph glyph-name="OE" unicode="&#x152;" horiz-adv-x="1669" 
d="M647 1358q-160 0 -260 -157t-100 -474t100 -475t260 -158q96 0 168 29v1206q-74 29 -168 29zM1567 0h-742q-80 -29 -178 -29q-240 0 -374 204t-134 551t134 552t374 205q88 0 178 -29h742v-129h-609v-514h433v-129h-433v-553h609v-129z" />
    <glyph glyph-name="oe" unicode="&#x153;" horiz-adv-x="1775" 
d="M1253 911q-123 0 -201 -93t-83 -245h547q-2 158 -71 248t-192 90zM827 501q0 187 -76 299q-77 112 -204 112t-204 -112q-77 -110 -77 -298t78 -300t204 -112t203 112q76 112 76 299zM1255 92q93 0 157 58t87 149l131 -25q-33 -125 -126 -211t-255 -86q-240 0 -354 220
q-117 -219 -346 -220q-190 1 -305 147t-115 378t114 378q114 148 304 148q233 0 348 -225q53 105 145 165t209 60q190 0 299 -133t109 -336q0 -27 -4 -100h-684q3 -167 79 -267t207 -100z" />
    <glyph glyph-name="Racute" unicode="&#x154;" horiz-adv-x="1265" 
d="M776 1917l66 -121q-262 -131 -396 -194l-38 65zM975 1048q0 134 -75 208t-224 73h-311v-555h307q145 0 224 70t79 204zM1124 1062q0 -192 -106 -294q-61 -57 -160 -90l279 -678h-162l-254 649h-356v-649h-144v1454h465q186 0 297 -86q141 -114 141 -306z" />
    <glyph glyph-name="racute" unicode="&#x155;" horiz-adv-x="788" 
d="M551 1468l65 -120q-262 -131 -395 -195l-39 66zM623 889q-129 0 -201 -96q-88 -113 -88 -344v-449h-131v690q0 143 -10 314h124q8 -90 9 -207h4q43 107 123 167t186 60q43 0 84 -10v-137q-39 12 -100 12z" />
    <glyph glyph-name="Rcommaaccent" unicode="&#x156;" horiz-adv-x="1265" 
d="M739 -152v-122q0 -104 -38 -148t-123 -67l-17 67q90 23 90 103h-100v167h188zM975 1048q0 134 -75 208t-224 73h-311v-555h307q145 0 224 70t79 204zM1124 1062q0 -192 -106 -294q-61 -57 -160 -90l279 -678h-162l-254 649h-356v-649h-144v1454h465q186 0 297 -86
q141 -114 141 -306z" />
    <glyph glyph-name="rcommaaccent" unicode="&#x157;" horiz-adv-x="788" 
d="M365 -152v-122q0 -104 -38 -148t-124 -67l-17 67q90 23 90 103h-100v167h189zM623 889q-129 0 -201 -96q-88 -113 -88 -344v-449h-131v690q0 143 -10 314h124q8 -90 9 -207h4q43 107 123 167t186 60q43 0 84 -10v-137q-39 12 -100 12z" />
    <glyph glyph-name="Rcaron" unicode="&#x158;" horiz-adv-x="1265" 
d="M612 1739l236 170q2 -2 59 -66q-197 -168 -295 -250q-14 12 -293 250q57 63 60 66zM975 1048q0 134 -75 208t-224 73h-311v-555h307q145 0 224 70t79 204zM1124 1062q0 -192 -106 -294q-61 -57 -160 -90l279 -678h-162l-254 649h-356v-649h-144v1454h465q186 0 297 -86
q141 -114 141 -306z" />
    <glyph glyph-name="rcaron" unicode="&#x159;" horiz-adv-x="788" 
d="M406 1290l235 170q2 -2 59 -65q-197 -168 -294 -250q-14 12 -293 250q57 63 59 65zM623 889q-129 0 -201 -96q-88 -113 -88 -344v-449h-131v690q0 143 -10 314h124q8 -90 9 -207h4q43 107 123 167t186 60q43 0 84 -10v-137q-39 12 -100 12z" />
    <glyph glyph-name="Sacute" unicode="&#x15a;" horiz-adv-x="1218" 
d="M754 1909l65 -121q-262 -131 -395 -195l-39 66zM283 436q7 -340 323 -340q156 0 241 69t85 179t-53 176t-166 119l-246 117q-151 72 -219 158t-68 216q0 170 125 262t325 91q200 1 306 -105q104 -106 108 -260l-141 -35q-12 274 -291 275q-126 0 -204 -60t-78 -155
t48 -151t150 -105l252 -119q160 -74 230 -168t71 -229q0 -187 -123 -293t-350 -106t-347 116q-120 117 -124 313z" />
    <glyph glyph-name="sacute" unicode="&#x15b;" horiz-adv-x="1046" 
d="M664 1468l65 -120q-262 -131 -395 -195l-39 66zM909 264q0 -131 -99 -210q-98 -79 -286 -79t-287 82t-108 226l135 24q8 -115 74 -165t190 -50t183 47t59 124t-47 117t-156 69l-143 38q-135 37 -203 95t-67 178q0 120 95 194t267 74t265 -74t102 -190l-131 -25
q-10 88 -64 131t-167 43q-114 1 -173 -37t-59 -107t42 -103t144 -62l148 -39q143 -39 215 -104q71 -66 71 -197z" />
    <glyph glyph-name="Scircumflex" unicode="&#x15c;" horiz-adv-x="1218" 
d="M844 1593l-236 170l-233 -170q-2 2 -60 66q279 238 293 250q98 -82 295 -250q-57 -64 -59 -66zM283 436q7 -340 323 -340q156 0 241 69t85 179t-53 176t-166 119l-246 117q-151 72 -219 158t-68 216q0 170 125 262t325 91q200 1 306 -105q104 -106 108 -260l-141 -35
q-12 274 -291 275q-126 0 -204 -60t-78 -155t48 -151t150 -105l252 -119q160 -74 230 -168t71 -229q0 -187 -123 -293t-350 -106t-347 116q-120 117 -124 313z" />
    <glyph glyph-name="scircumflex" unicode="&#x15d;" horiz-adv-x="1046" 
d="M754 1145l-236 170l-233 -170q-2 2 -60 65q279 238 293 250q98 -82 295 -250q-57 -63 -59 -65zM909 264q0 -131 -99 -210q-98 -79 -286 -79t-287 82t-108 226l135 24q8 -115 74 -165t190 -50t183 47t59 124t-47 117t-156 69l-143 38q-135 37 -203 95t-67 178
q0 120 95 194t267 74t265 -74t102 -190l-131 -25q-10 88 -64 131t-167 43q-114 1 -173 -37t-59 -107t42 -103t144 -62l148 -39q143 -39 215 -104q71 -66 71 -197z" />
    <glyph glyph-name="Scedilla" unicode="&#x15e;" horiz-adv-x="1218" 
d="M283 436q7 -340 323 -340q156 0 241 69t85 179t-53 176t-166 119l-246 117q-151 72 -219 158t-68 216q0 170 125 262t325 91q200 1 306 -105q104 -106 108 -260l-141 -35q-12 274 -291 275q-126 0 -204 -60t-78 -155t48 -151t150 -105l252 -119q160 -76 231 -169t70 -228
q0 -182 -118 -289q-119 -106 -334 -111l-51 -86v-2q28 17 76 17t89 -34t41 -98t-50 -107q-50 -42 -146 -42t-156 55q19 19 39 56q43 -37 97 -37q98 1 98 69t-72 68q-41 0 -66 -27q-8 4 -45 33l78 137q-207 14 -313 128t-111 300z" />
    <glyph glyph-name="scedilla" unicode="&#x15f;" horiz-adv-x="1046" 
d="M482 -307q98 1 98 69t-72 68q-41 0 -66 -27q-8 4 -45 33l80 144q-164 8 -253 89t-95 214l135 24q8 -115 74 -165t190 -50t183 47t59 124t-48 116t-155 70l-143 38q-135 37 -203 95t-67 178q0 120 95 194t267 74t265 -74t102 -190l-131 -25q-10 88 -64 131t-167 43
q-114 1 -173 -37t-59 -106t43 -104t143 -62l148 -39q141 -39 214 -104q72 -66 72 -195t-92 -206t-270 -83l-55 -92v-2q28 17 76 17t89 -34t41 -98t-50 -107q-50 -42 -146 -42t-156 55q31 41 39 56q43 -37 97 -37z" />
    <glyph glyph-name="Scaron" unicode="&#x160;" horiz-adv-x="1218" 
d="M616 1714l236 170q2 -2 59 -65q-197 -168 -295 -250q-14 12 -292 250q57 63 59 65zM283 436q7 -340 323 -340q156 0 241 69t85 179t-53 176t-166 119l-246 117q-151 72 -219 158t-68 216q0 170 125 262t325 91q200 1 306 -105q104 -106 108 -260l-141 -35
q-12 274 -291 275q-126 0 -204 -60t-78 -155t48 -151t150 -105l252 -119q160 -74 230 -168t71 -229q0 -187 -123 -293t-350 -106t-347 116q-120 117 -124 313z" />
    <glyph glyph-name="scaron" unicode="&#x161;" horiz-adv-x="1046" 
d="M508 1290l235 170q2 -2 60 -65q-197 -168 -295 -250q-14 12 -293 250q57 63 59 65zM909 264q0 -131 -99 -210q-98 -79 -286 -79t-287 82t-108 226l135 24q8 -115 74 -165t190 -50t183 47t59 124t-47 117t-156 69l-143 38q-135 37 -203 95t-67 178q0 120 95 194t267 74
t265 -74t102 -190l-131 -25q-10 88 -64 131t-167 43q-114 1 -173 -37t-59 -107t42 -103t144 -62l148 -39q143 -39 215 -104q71 -66 71 -197z" />
    <glyph glyph-name="Tcommaaccent" unicode="&#x162;" horiz-adv-x="1044" 
d="M616 -152v-122q0 -104 -37 -149q-38 -44 -124 -66l-17 67q90 23 90 103h-100v167h188zM975 1327h-381v-1327h-143v1327h-381v127h905v-127z" />
    <glyph glyph-name="tcommaaccent" unicode="&#x163;" horiz-adv-x="778" 
d="M575 -152v-122q0 -104 -37 -149q-38 -44 -124 -66l-17 67q90 23 90 103h-100v167h188zM532 -25q-114 0 -187 74t-73 260v582h-209v113h209v305l131 57v-362h279v-113h-279v-569q0 -92 17 -142q31 -88 137 -88q73 0 143 29l39 -101q-93 -45 -207 -45z" />
    <glyph glyph-name="Tcaron" unicode="&#x164;" horiz-adv-x="1044" 
d="M520 1729l236 169q2 -2 59 -65q-197 -168 -295 -250q-14 12 -293 250q57 63 60 65zM975 1327h-381v-1327h-143v1327h-381v127h905v-127z" />
    <glyph glyph-name="tcaron" unicode="&#x165;" horiz-adv-x="778" 
d="M764 1411l-156 -334l-73 27q26 86 100 358q43 -18 129 -51zM532 -25q-114 0 -187 74t-73 260v582h-209v113h209v305l131 57v-362h279v-113h-279v-569q0 -92 17 -142q31 -88 137 -88q73 0 143 29l39 -101q-93 -45 -207 -45z" />
    <glyph glyph-name="Tbar" unicode="&#x166;" horiz-adv-x="1044" 
d="M879 842h-285v-842h-143v842h-285v102h285v383h-381v127h905v-127h-381v-383h285v-102z" />
    <glyph glyph-name="tbar" unicode="&#x167;" horiz-adv-x="778" 
d="M700 539h-297v-217q0 -130 31 -180t114 -50t152 29q8 -20 39 -101q-90 -43 -185 -43q-176 0 -233 106q-47 84 -49 226v230h-239v98h239v254h-209v113h209v305q76 31 131 57v-362h279v-113h-279v-254h297v-98z" />
    <glyph glyph-name="Utilde" unicode="&#x168;" horiz-adv-x="1286" 
d="M358 1642q0 84 50 140t118 55q68 0 134 -49t100 -49q78 0 82 88h86q0 -84 -51 -139q-51 -56 -119 -56t-133 49q-66 49 -99 50q-80 -1 -84 -89h-84zM641 -29q-219 0 -332 129q-94 102 -94 318v1036h143v-1014q0 -184 58 -252q76 -92 228 -92t226 92q55 66 56 252v1014h145
v-1036q0 -215 -94 -318q-117 -129 -336 -129z" />
    <glyph glyph-name="utilde" unicode="&#x169;" horiz-adv-x="1142" 
d="M283 1210q0 84 50 140q49 56 117 55q68 0 134 -49t100 -49q78 0 82 88h86q0 -83 -51 -139t-119 -56t-133 49q-66 49 -98 49q-80 0 -84 -88h-84zM188 301v703h131v-590q-1 -176 45 -249t172 -73t200 88t73 252v572h131v-693q0 -143 10 -311h-127q-4 45 -8 152h-4
q-82 -174 -299 -175q-150 1 -237 89t-87 235z" />
    <glyph glyph-name="Umacron" unicode="&#x16a;" horiz-adv-x="1286" 
d="M895 1688h-506v102h506v-102zM641 -29q-219 0 -332 129q-94 102 -94 318v1036h143v-1014q0 -184 58 -252q76 -92 228 -92t226 92q55 66 56 252v1014h145v-1036q0 -215 -94 -318q-117 -129 -336 -129z" />
    <glyph glyph-name="umacron" unicode="&#x16b;" horiz-adv-x="1142" 
d="M823 1249h-506v103h506v-103zM188 301v703h131v-590q-1 -176 45 -249t172 -73t200 88t73 252v572h131v-693q0 -143 10 -311h-127q-4 45 -8 152h-4q-82 -174 -299 -175q-150 1 -237 89t-87 235z" />
    <glyph glyph-name="Ubreve" unicode="&#x16c;" horiz-adv-x="1286" 
d="M641 1602q-111 0 -185 50t-77 158h67q23 -112 194 -112t198 112h65q-3 -108 -77 -158t-185 -50zM641 -29q-219 0 -332 129q-94 102 -94 318v1036h143v-1014q0 -184 58 -252q76 -92 228 -92t226 92q55 66 56 252v1014h145v-1036q0 -215 -94 -318q-117 -129 -336 -129z" />
    <glyph glyph-name="ubreve" unicode="&#x16d;" horiz-adv-x="1142" 
d="M569 1174q-111 0 -185 50t-77 158h68q23 -112 195 -112t196 112h65q-3 -108 -77 -158t-185 -50zM188 301v703h131v-590q-1 -176 45 -249t172 -73t200 88t73 252v572h131v-693q0 -143 10 -311h-127q-4 45 -8 152h-4q-82 -174 -299 -175q-150 1 -237 89t-87 235z" />
    <glyph glyph-name="Uring" unicode="&#x16e;" horiz-adv-x="1286" 
d="M522 1738q0 -50 35 -85t86 -35t86 35t35 85t-36 86t-86 36t-85 -36t-35 -86zM842 1739q0 -83 -58 -141t-140 -58q-81 0 -139 58q-59 58 -59 140t58 140q58 57 139 57q83 0 141 -57t58 -139zM641 -29q-219 0 -332 129q-94 102 -94 318v1036h143v-1014q0 -184 58 -252
q76 -92 228 -92t226 92q55 66 56 252v1014h145v-1036q0 -215 -94 -318q-117 -129 -336 -129z" />
    <glyph glyph-name="uring" unicode="&#x16f;" horiz-adv-x="1142" 
d="M446 1320q0 -50 35 -85t86 -35t86 35t35 85t-36 86t-86 36t-85 -36t-35 -86zM766 1321q0 -82 -58 -140q-58 -59 -140 -59t-139 58q-58 58 -58 141q0 82 57 139q57 58 139 58q83 0 141 -58t58 -139zM188 301v703h131v-590q-1 -176 45 -249t172 -73t200 88t73 252v572h131
v-693q0 -143 10 -311h-127q-4 45 -8 152h-4q-82 -174 -299 -175q-150 1 -237 89t-87 235z" />
    <glyph glyph-name="Uhungarumlaut" unicode="&#x170;" horiz-adv-x="1286" 
d="M352 1653l318 254l73 -119l-348 -199zM766 1589l-45 64l319 254l74 -119zM641 -29q-219 0 -332 129q-94 102 -94 318v1036h143v-1014q0 -184 58 -252q76 -92 228 -92t226 92q55 66 56 252v1014h145v-1036q0 -215 -94 -318q-117 -129 -336 -129z" />
    <glyph glyph-name="uhungarumlaut" unicode="&#x171;" horiz-adv-x="1142" 
d="M270 1204l318 254l74 -119l-349 -198zM684 1141l-45 63l319 254l74 -119zM188 301v703h131v-590q-1 -176 45 -249t172 -73t200 88t73 252v572h131v-693q0 -143 10 -311h-127q-4 45 -8 152h-4q-82 -174 -299 -175q-150 1 -237 89t-87 235z" />
    <glyph glyph-name="Uogonek" unicode="&#x172;" horiz-adv-x="1286" 
d="M686 -369q-80 0 -132 37t-52 113q0 98 119 190q-201 6 -312 129q-94 109 -94 318v1036h143v-1014q0 -184 58 -252q76 -92 228 -92t226 92q55 66 56 252v1014h145v-1036q0 -214 -94 -318t-254 -125q-100 -80 -100 -170q-1 -43 25 -67t74 -25q48 0 87 45l53 -49
q-55 -78 -176 -78z" />
    <glyph glyph-name="uogonek" unicode="&#x173;" horiz-adv-x="1142" 
d="M817 -195q1 -90 101 -90q48 0 86 43l53 -47q-57 -80 -176 -80q-80 0 -132 37q-53 36 -53 106t42 120t114 106h-29q-8 106 -8 152h-4q-82 -174 -299 -175q-160 -1 -242 97t-82 268v662h131v-672q-1 -125 53 -182q54 -58 172 -58t192 88t73 252v572h131v-693
q0 -143 10 -311q-133 -90 -133 -195z" />
    <glyph glyph-name="Wcircumflex" unicode="&#x174;" horiz-adv-x="1683" 
d="M1075 1593l-235 170l-234 -170q-2 2 -59 66q279 238 293 250q98 -82 295 -250q-58 -64 -60 -66zM1575 1454l-318 -1454h-149l-207 911q-43 193 -59 340h-4q-23 -174 -58 -340l-202 -911h-158l-314 1454h148l197 -956q35 -168 51 -310h4q14 123 53 310l205 956h151
l211 -956q41 -188 54 -310h4q12 137 49 310l199 956h143z" />
    <glyph glyph-name="wcircumflex" unicode="&#x175;" horiz-adv-x="1316" 
d="M893 1145l-236 170l-233 -170q-2 2 -59 65q279 238 292 250q98 -82 295 -250q-57 -63 -59 -65zM1231 1004l-248 -1004h-133l-148 608q-31 129 -40 234h-5q-12 -96 -45 -234l-141 -608h-139l-246 1004h133l141 -621q31 -127 43 -221h5q10 72 41 221l139 621h145l139 -621
q29 -127 41 -223h5q16 102 43 223l141 621h129z" />
    <glyph glyph-name="Ycircumflex" unicode="&#x176;" horiz-adv-x="1099" 
d="M784 1593l-235 170l-234 -170q-2 2 -59 66q279 238 293 250q98 -82 295 -250q-58 -64 -60 -66zM625 0h-144v643l-444 811h174l344 -653l340 653h166l-436 -811v-643z" />
    <glyph glyph-name="ycircumflex" unicode="&#x177;" horiz-adv-x="929" 
d="M698 1145l-235 170l-234 -170q-2 2 -59 65q279 238 293 250q98 -82 295 -250q-58 -63 -60 -65zM186 -428q-102 0 -198 57q14 33 47 99q78 -41 139 -41q61 -1 97 31t61 102l61 182l-362 1002h147q23 -66 75 -210t114 -320t88 -296h4q2 10 82 252l194 574h142l-424 -1205
q-41 -117 -103 -172t-164 -55z" />
    <glyph glyph-name="Ydieresis" unicode="&#x178;" horiz-adv-x="1099" 
d="M457 1649h-146v202h146v-202zM774 1649h-145v202h145v-202zM625 0h-144v643l-444 811h174l344 -653l340 653h166l-436 -811v-643z" />
    <glyph glyph-name="Zacute" unicode="&#x179;" horiz-adv-x="1132" 
d="M719 1909l65 -121q-262 -131 -395 -195l-39 66zM1018 127v-127h-895v137q49 76 343 574t374 618q-41 -2 -248 -2h-440v127h843v-137l-723 -1192l222 2h524z" />
    <glyph glyph-name="zacute" unicode="&#x17a;" horiz-adv-x="997" 
d="M653 1468l66 -120q-262 -131 -395 -195l-39 66zM903 0h-801v104l607 789q-100 -4 -191 -4h-375v115h740v-103l-607 -788q86 4 170 4h457v-117z" />
    <glyph glyph-name="Zdotaccent" unicode="&#x17b;" horiz-adv-x="1132" 
d="M645 1659h-141v215h141v-215zM1018 127v-127h-895v137q49 76 343 574t374 618q-41 -2 -248 -2h-440v127h843v-137l-723 -1192l222 2h524z" />
    <glyph glyph-name="zdotaccent" unicode="&#x17c;" horiz-adv-x="997" 
d="M578 1221h-142v215h142v-215zM903 0h-801v104l607 789q-100 -4 -191 -4h-375v115h740v-103l-607 -788q86 4 170 4h457v-117z" />
    <glyph glyph-name="Zcaron" unicode="&#x17d;" horiz-adv-x="1132" 
d="M561 1712l236 170q2 -2 59 -65q-197 -168 -295 -250q-14 12 -293 250q57 63 60 65zM1018 127v-127h-895v137q49 76 343 574t374 618q-41 -2 -248 -2h-440v127h843v-137l-723 -1192l222 2h524z" />
    <glyph glyph-name="zcaron" unicode="&#x17e;" horiz-adv-x="997" 
d="M494 1290l235 170q2 -2 59 -65q-197 -168 -294 -250q-14 12 -293 250q57 63 59 65zM903 0h-801v104l607 789q-100 -4 -191 -4h-375v115h740v-103l-607 -788q86 4 170 4h457v-117z" />
    <glyph glyph-name="longs" unicode="&#x17f;" horiz-adv-x="774" 
d="M567 1366q-100 0 -135 -59q-23 -39 -22 -170v-1137h-131v891h-216v113h216v143q1 188 69 262t185 74t215 -47l-39 -101q-78 31 -142 31z" />
    <glyph glyph-name="florin" unicode="&#x192;" horiz-adv-x="1171" 
d="M914 1483q120 0 206 -74l-51 -88q-72 47 -140 47q-67 0 -101 -44t-50 -130l-53 -274h244l-21 -113h-246l-182 -905q-28 -135 -92 -205t-184 -70t-205 74l51 88q72 -47 140 -47t101 43q32 43 50 131l182 891h-211l21 113h211l55 286q25 135 90 206t185 71z" />
    <glyph glyph-name="Aringacute" unicode="&#x1fa;" horiz-adv-x="1148" 
d="M352 1716l355 213l53 -110l-375 -164zM574 1454q120 0 120 75t-121 75t-120 -76q1 -74 121 -74zM793 463q-203 711 -220 805h-4q-23 -111 -75 -295l-148 -510h447zM573 1677q91 0 145 -44t54 -98q0 -108 -113 -142l424 -1393h-157l-97 336h-518l-96 -336h-152l424 1391
q-111 35 -110 137q0 68 52 108t144 41z" />
    <glyph glyph-name="aringacute" unicode="&#x1fb;" horiz-adv-x="1085" 
d="M676 1855l65 -120q-262 -131 -395 -195l-39 66zM403 1320q0 -50 35 -85t86 -35t86 35t35 85t-36 86t-86 36t-85 -36t-35 -86zM723 1321q0 -82 -58 -140q-57 -59 -139 -59t-140 58t-58 141q0 82 57 139q57 58 139 58t140 -58t59 -139zM438 90q191 0 316 244v235
q-23 -21 -65 -35t-138 -42t-137 -43q-145 -55 -146 -189q0 -78 44 -124t126 -46zM424 -25q-133 0 -214 77t-81 210q0 219 268 301q27 8 133 36t148 41q42 14 59 30q16 16 17 47v22q0 172 -222 172t-229 -172l-135 15q4 130 101 202t268 72q348 0 348 -289v-487
q0 -90 20 -124t90 -44l-14 -100q-113 2 -164 47t-61 145q-125 -201 -332 -201z" />
    <glyph glyph-name="AEacute" unicode="&#x1fc;" horiz-adv-x="1605" 
d="M1190 1909l65 -121q-262 -131 -395 -195l-39 66zM754 471v705l-326 -705h326zM1503 0h-749v344h-385l-160 -344h-156l688 1454h762v-125h-608v-518h483v-125h-483v-563h608v-123z" />
    <glyph glyph-name="aeacute" unicode="&#x1fd;" horiz-adv-x="1695" 
d="M1036 1468l66 -120q-262 -131 -395 -195l-39 66zM895 453q0 -165 79 -263q80 -98 188 -98t171 58t86 149l131 -25q-33 -125 -126 -211q-94 -86 -236 -86t-236 66t-141 176q-57 -109 -153 -175t-224 -67q-129 0 -217 82q-88 83 -88 227q1 144 107 220t278 76h248v155
q0 174 -220 174t-225 -170l-135 11q4 128 96 202t263 74q250 0 321 -160q115 160 305 160t300 -128t110 -337q0 -31 -4 -96h-678v-14zM1178 911q-120 0 -198 -90t-85 -239h541q-4 158 -71 244t-187 85zM551 467q-285 -1 -285 -179q0 -96 53 -147t138 -51q186 0 305 229v148
h-211z" />
    <glyph glyph-name="Oslashacute" unicode="&#x1fe;" horiz-adv-x="1280" 
d="M287 727q0 -207 41 -348l585 792q-88 187 -263 187t-269 -156t-94 -475zM991 727q0 201 -43 350l-586 -792q94 -191 268 -191t267 157q94 157 94 476zM1141 727q0 -354 -130 -555q-129 -201 -367 -201t-372 195l-65 -90l-68 47l88 123q-88 184 -88 508t130 527
q129 202 365 202t367 -191l70 94l70 -49l-92 -125q92 -195 92 -485zM780 1909l66 -121q-262 -131 -395 -195l-39 66z" />
    <glyph glyph-name="oslashacute" unicode="&#x1ff;" horiz-adv-x="1097" 
d="M831 478q0 166 -45 265l-424 -569q72 -84 194 -84t199 111q76 111 76 277zM542 913q-122 -1 -200 -111t-78 -285t53 -277l426 577q-79 96 -201 96zM127 504q0 232 115 378t292 146t285 -108l88 118l64 -45l-101 -133q100 -145 100 -367q0 -221 -114 -369
q-115 -148 -307 -149q-154 0 -260 97l-101 -135l-61 45l109 147q-109 143 -109 375zM694 1468l66 -120q-262 -131 -395 -195l-39 66z" />
    <glyph glyph-name="Scommaaccent" unicode="&#x218;" horiz-adv-x="1218" 
d="M713 -152v-122q0 -104 -38 -148t-124 -67l-16 67q90 23 90 103h-101v167h189zM283 436q7 -340 323 -340q156 0 241 69t85 179t-53 176t-166 119l-246 117q-151 72 -219 158t-68 216q0 170 125 262t325 91q200 1 306 -105q104 -106 108 -260l-141 -35q-12 274 -291 275
q-126 0 -204 -60t-78 -155t48 -151t150 -105l252 -119q160 -74 230 -168t71 -229q0 -187 -123 -293t-350 -106t-347 116q-120 117 -124 313z" />
    <glyph glyph-name="scommaaccent" unicode="&#x219;" horiz-adv-x="1046" 
d="M616 -152v-122q0 -104 -37 -149q-38 -44 -124 -66l-17 67q90 23 90 103h-100v167h188zM909 264q0 -131 -99 -210q-98 -79 -286 -79t-287 82t-108 226l135 24q8 -115 74 -165t190 -50t183 47t59 124t-47 117t-156 69l-143 38q-135 37 -203 95t-67 178q0 120 95 194t267 74
t265 -74t102 -190l-131 -25q-10 88 -64 131t-167 43q-114 1 -173 -37t-59 -107t42 -103t144 -62l148 -39q143 -39 215 -104q71 -66 71 -197z" />
    <glyph glyph-name="uni021A" unicode="&#x21a;" horiz-adv-x="1044" 
d="M616 -152v-122q0 -104 -37 -149q-38 -44 -124 -66l-17 67q90 23 90 103h-100v167h188zM975 1327h-381v-1327h-143v1327h-381v127h905v-127z" />
    <glyph glyph-name="uni021B" unicode="&#x21b;" horiz-adv-x="778" 
d="M532 -152v-122q0 -104 -37 -149q-38 -44 -124 -66l-17 67q90 23 90 103h-100v167h188zM532 -25q-114 0 -187 74t-73 260v582h-209v113h209v305l131 57v-362h279v-113h-279v-569q0 -92 17 -142q31 -88 137 -88q73 0 143 29l39 -101q-93 -45 -207 -45z" />
    <glyph glyph-name="circumflex" unicode="&#x2c6;" horiz-adv-x="405" 
d="M438 1145l-235 170l-234 -170q-2 2 -59 65q279 238 293 250q98 -82 295 -250q-58 -63 -60 -65z" />
    <glyph glyph-name="caron" unicode="&#x2c7;" horiz-adv-x="405" 
d="M203 1290l235 170q2 -2 60 -65q-197 -168 -295 -250q-14 12 -293 250q57 63 59 65z" />
    <glyph glyph-name="breve" unicode="&#x2d8;" horiz-adv-x="409" 
d="M203 1174q-111 0 -185 50t-77 158h67q23 -112 194 -112t197 112h66q-3 -108 -77 -158t-185 -50z" />
    <glyph glyph-name="dotaccent" unicode="&#x2d9;" horiz-adv-x="425" 
d="M283 1221h-142v215h142v-215z" />
    <glyph glyph-name="ring" unicode="&#x2da;" horiz-adv-x="413" 
d="M86 1320q0 -50 35 -85t86 -35t86 35t35 85t-36 86t-86 36t-85 -36t-35 -86zM406 1321q0 -82 -58 -140q-58 -59 -140 -59q-81 0 -139 58t-59 141q0 82 58 139q58 58 139 58q83 0 141 -58t58 -139z" />
    <glyph glyph-name="ogonek" unicode="&#x2db;" horiz-adv-x="415" 
d="M211 -369q-80 0 -132 37t-52 113q0 104 157 219h97q-133 -94 -134 -195q0 -43 26 -67t74 -25q48 0 87 45l53 -49q-55 -78 -176 -78z" />
    <glyph glyph-name="tilde" unicode="&#x2dc;" horiz-adv-x="407" 
d="M-82 1210q0 84 50 140t118 55q68 0 133 -49q66 -49 100 -49q78 0 82 88h86q0 -83 -51 -139q-50 -56 -118 -56t-134 49t-98 49q-80 0 -84 -88h-84z" />
    <glyph glyph-name="hungarumlaut" unicode="&#x2dd;" horiz-adv-x="399" 
d="M-92 1204l317 254l74 -119l-348 -198zM322 1141l-46 63l320 254l74 -119z" />
    <glyph glyph-name="uni03A9" unicode="&#x3a9;" horiz-adv-x="1241" 
d="M621 1364q-162 0 -255 -120t-94 -365q0 -391 273 -488v-391h-393v113h272v217q-289 145 -289 555q0 281 128 439q127 158 357 159q230 0 358 -159t128 -439q0 -410 -287 -555v-217h271v-113h-394v391q272 96 273 488q0 245 -93 365t-255 120z" />
    <glyph glyph-name="pi" unicode="&#x3c0;" horiz-adv-x="1218" 
d="M420 0h-125v891h-197v113h1008v-113h-207v-676q0 -73 22 -101q21 -28 71 -28t102 27l43 -90q-78 -41 -165 -41t-142 57q-54 57 -54 162v690h-356v-891z" />
    <glyph glyph-name="Wgrave" unicode="&#x1e80;" horiz-adv-x="1683" 
d="M688 1909l369 -250l-39 -66q-133 63 -395 195q55 103 65 121zM1575 1454l-318 -1454h-149l-207 911q-43 193 -59 340h-4q-23 -174 -58 -340l-202 -911h-158l-314 1454h148l197 -956q35 -168 51 -310h4q14 123 53 310l205 956h151l211 -956q41 -188 54 -310h4
q12 137 49 310l199 956h143z" />
    <glyph glyph-name="wgrave" unicode="&#x1e81;" horiz-adv-x="1316" 
d="M508 1468l369 -249l-39 -66q-133 63 -396 195q58 102 66 120zM1231 1004l-248 -1004h-133l-148 608q-31 129 -40 234h-5q-12 -96 -45 -234l-141 -608h-139l-246 1004h133l141 -621q31 -127 43 -221h5q10 72 41 221l139 621h145l139 -621q29 -127 41 -223h5q16 102 43 223
l141 621h129z" />
    <glyph glyph-name="Wacute" unicode="&#x1e82;" horiz-adv-x="1683" 
d="M991 1909l66 -121q-262 -131 -395 -195l-39 66zM1575 1454l-318 -1454h-149l-207 911q-43 193 -59 340h-4q-23 -174 -58 -340l-202 -911h-158l-314 1454h148l197 -956q35 -168 51 -310h4q14 123 53 310l205 956h151l211 -956q41 -188 54 -310h4q12 137 49 310l199 956
h143z" />
    <glyph glyph-name="wacute" unicode="&#x1e83;" horiz-adv-x="1316" 
d="M809 1468l65 -120q-262 -131 -395 -195l-39 66zM1231 1004l-248 -1004h-133l-148 608q-31 129 -40 234h-5q-12 -96 -45 -234l-141 -608h-139l-246 1004h133l141 -621q31 -127 43 -221h5q10 72 41 221l139 621h145l139 -621q29 -127 41 -223h5q16 102 43 223l141 621h129z
" />
    <glyph glyph-name="Wdieresis" unicode="&#x1e84;" horiz-adv-x="1683" 
d="M754 1657h-146v203h146v-203zM1071 1657h-145v203h145v-203zM1575 1454l-318 -1454h-149l-207 911q-43 193 -59 340h-4q-23 -174 -58 -340l-202 -911h-158l-314 1454h148l197 -956q35 -168 51 -310h4q14 123 53 310l205 956h151l211 -956q41 -188 54 -310h4
q12 137 49 310l199 956h143z" />
    <glyph glyph-name="wdieresis" unicode="&#x1e85;" horiz-adv-x="1316" 
d="M571 1208h-145v203h145v-203zM889 1208h-146v203h146v-203zM1231 1004l-248 -1004h-133l-148 608q-31 129 -40 234h-5q-12 -96 -45 -234l-141 -608h-139l-246 1004h133l141 -621q31 -127 43 -221h5q10 72 41 221l139 621h145l139 -621q29 -127 41 -223h5q16 102 43 223
l141 621h129z" />
    <glyph glyph-name="Ygrave" unicode="&#x1ef2;" horiz-adv-x="1099" 
d="M397 1917l369 -250l-39 -65q-133 63 -395 194q57 103 65 121zM625 0h-144v643l-444 811h174l344 -653l340 653h166l-436 -811v-643z" />
    <glyph glyph-name="ygrave" unicode="&#x1ef3;" horiz-adv-x="929" 
d="M315 1468l369 -249l-39 -66q-133 63 -395 195q55 102 65 120zM186 -428q-102 0 -198 57q14 33 47 99q78 -41 139 -41q61 -1 97 31t61 102l61 182l-362 1002h147q23 -66 75 -210t114 -320t88 -296h4q2 10 82 252l194 574h142l-424 -1205q-41 -117 -103 -172t-164 -55z" />
    <glyph glyph-name="endash" unicode="&#x2013;" horiz-adv-x="1392" 
d="M1208 526h-1024v119h1024v-119z" />
    <glyph glyph-name="emdash" unicode="&#x2014;" horiz-adv-x="2074" 
d="M1794 526h-1515v119h1515v-119z" />
    <glyph glyph-name="quoteleft" unicode="&#x2018;" horiz-adv-x="710" 
d="M262 1004v190q0 134 37 198t143 76v-69q-53 -8 -73 -40t-21 -97v-52h103v-206h-189z" />
    <glyph glyph-name="quoteright" unicode="&#x2019;" horiz-adv-x="710" 
d="M449 1454v-190q0 -133 -39 -198t-142 -77v70q61 10 78 49q16 39 16 139h-102v207h189z" />
    <glyph glyph-name="quotesinglbase" unicode="&#x201a;" horiz-adv-x="710" 
d="M449 207v-191q0 -130 -40 -196t-141 -78v72q51 6 73 38t21 111v37h-102v207h189z" />
    <glyph glyph-name="quotedblleft" unicode="&#x201c;" horiz-adv-x="1003" 
d="M248 1004v190q0 133 39 198t141 76v-69q-62 -12 -78 -50t-16 -139h102v-206h-188zM565 1004v190q0 133 39 198t141 76v-69q-61 -12 -77 -50t-17 -139h103v-206h-189z" />
    <glyph glyph-name="quotedblright" unicode="&#x201d;" horiz-adv-x="1003" 
d="M754 1454v-217q0 -119 -41 -177t-140 -71v70q53 8 74 39q20 31 21 98v51h-103v207h189zM436 1454v-190q0 -134 -38 -198t-142 -77v70q53 8 74 39q20 31 20 98v51h-102v207h188z" />
    <glyph glyph-name="quotedblbase" unicode="&#x201e;" horiz-adv-x="1003" 
d="M754 207v-191q0 -134 -39 -198t-142 -76v72q53 6 74 39q20 33 21 110v37h-103v207h189zM436 207v-191q0 -134 -39 -198t-141 -76v72q53 6 74 39q20 33 20 110v37h-102v207h188z" />
    <glyph glyph-name="dagger" unicode="&#x2020;" horiz-adv-x="1032" 
d="M573 -139h-116v1038q-217 -4 -369 -4v109l369 -5v449h116v-449q236 4 371 5v-109l-371 4v-1038z" />
    <glyph glyph-name="daggerdbl" unicode="&#x2021;" horiz-adv-x="1032" 
d="M88 895v109l369 -5v449h116v-449q236 4 371 5v-109l-371 4v-795q217 4 371 5v-109l-371 4v-446h-116v446q-217 -4 -369 -4v109l369 -5v795q-217 -4 -369 -4z" />
    <glyph glyph-name="bullet" unicode="&#x2022;" horiz-adv-x="1036" 
d="M854 664q0 -144 -101 -246t-245 -102t-246 102t-102 246t101 244q101 102 245 102t246 -102t102 -244z" />
    <glyph glyph-name="ellipsis" unicode="&#x2026;" horiz-adv-x="2072" 
d="M1812 0h-186v201h186v-201zM1130 0h-186v201h186v-201zM446 0h-186v201h186v-201z" />
    <glyph glyph-name="perthousand" unicode="&#x2030;" horiz-adv-x="2508" 
d="M2204 375q0 289 -169 289t-169 -289t169 -289t169 289zM2314 372q0 -184 -78 -284t-200 -100t-202 99q-79 99 -79 287t79 286q79 100 201 100q123 0 201 -102t78 -286zM1505 375q0 289 -169 289t-169 -289t169 -289t169 289zM1616 372q0 -184 -78 -284t-201 -100t-201 99
t-79 287q0 188 79 286q78 100 200 100t201 -102t79 -286zM1376 1430l-874 -1483l-88 49l874 1485zM629 1065q0 289 -169 289t-169 -289t169 -289t169 289zM180 1064q0 188 79 286q79 100 201 100t200 -102t79 -286q0 -185 -77 -285q-78 -99 -201 -99t-202 99t-79 287z" />
    <glyph glyph-name="guilsinglleft" unicode="&#x2039;" horiz-adv-x="620" 
d="M406 109l-300 407l300 408l79 -56l-245 -352l245 -354z" />
    <glyph glyph-name="guilsinglright" unicode="&#x203a;" horiz-adv-x="620" 
d="M514 516l-299 -407l-80 53l246 354l-246 352l80 56z" />
    <glyph glyph-name="fraction" unicode="&#x2044;" horiz-adv-x="339" 
d="M647 1430l-874 -1483l-88 49l876 1485z" />
    <glyph glyph-name="Euro" unicode="&#x20ac;" horiz-adv-x="1171" 
d="M713 1358q-137 0 -221 -121t-107 -340h518l-24 -96h-500v-129h477l-25 -97h-448q35 -479 330 -479q219 0 262 252l141 -29q-27 -153 -126 -249q-100 -96 -296 -96t-315 158q-119 159 -143 443h-160q14 57 22 97h131v47q0 55 2 82h-153q14 57 22 96h138q31 276 151 431
q121 155 328 155q174 -1 268 -97t121 -237l-141 -27q-47 236 -252 236z" />
    <glyph glyph-name="afii61289" unicode="&#x2113;" horiz-adv-x="825" 
d="M631 1196q0 76 -36 123q-35 47 -101 47t-106 -56t-40 -186v-473q283 297 283 545zM348 305q0 -223 154 -223q80 0 160 55l47 -78q-100 -80 -209 -79q-143 0 -211 90q-57 72 -58 241v103q-100 -80 -118 -92l-54 69q74 55 172 144v587q0 166 60 248q72 102 201 102t189 -75
q60 -76 60 -193q0 -328 -393 -688v-211z" />
    <glyph glyph-name="afii61352" unicode="&#x2116;" horiz-adv-x="2015" 
d="M1296 637v102h541v-102h-541zM1720 1158q0 100 -42 154t-112 54t-113 -54q-42 -54 -42 -154t42 -153q42 -55 113 -55q70 0 112 54t42 154zM1565 1466q121 0 195 -82t75 -226q0 -144 -75 -226q-76 -82 -196 -82t-194 82t-74 226t74 226t195 82zM221 1454h199l467 -1030
q61 -137 94 -234h4q-6 154 -6 271v993h143v-1454h-196l-467 1024q-57 127 -97 238h-4q6 -102 7 -267v-995h-144v1454z" />
    <glyph glyph-name="uni2117" unicode="&#x2117;" horiz-adv-x="1771" 
d="M1544 727q0 276 -191 471t-467 195t-468 -195t-192 -471t190 -471q192 -195 468 -195t469 195q191 195 191 471zM1642 727q0 -315 -220 -534t-537 -219t-537 217q-219 217 -219 535t219 536q218 218 536 219t538 -219t220 -535zM1137 938q0 78 -47 120t-136 42h-186v-328
h182q187 0 187 166zM965 678h-197v-408h-109v926h302q123 0 203 -69t81 -187t-73 -190t-207 -72z" />
    <glyph glyph-name="trademark" unicode="&#x2122;" horiz-adv-x="1626" 
d="M1456 651h-90v469q0 102 6 195h-4q-23 -98 -49 -174l-162 -490h-65l-164 490q-31 88 -54 176h-4q8 -84 9 -191v-475h-88v803h122l172 -536l39 -144h4q23 98 37 144l168 536h123v-803zM700 1368h-233v-717h-96v717h-232v86h561v-86z" />
    <glyph glyph-name="Omega" unicode="&#x2126;" horiz-adv-x="1241" 
d="M621 1364q-162 0 -255 -120t-94 -365q0 -391 273 -488v-391h-393v113h272v217q-289 145 -289 555q0 281 128 439q127 158 357 159q230 0 358 -159t128 -439q0 -410 -287 -555v-217h271v-113h-394v391q272 96 273 488q0 245 -93 365t-255 120z" />
    <glyph glyph-name="estimated" unicode="&#x212e;" horiz-adv-x="1345" 
d="M399 573h568v285q-119 117 -287 117t-281 -117v-285zM399 504v-354q111 -115 283 -115q240 0 377 233l67 -39q-90 -141 -191 -201t-253 -61q-225 0 -364 154q-138 154 -138 383t138 383q138 153 362 153t364 -149t142 -387h-787z" />
    <glyph glyph-name="arrowleft" unicode="&#x2190;" horiz-adv-x="1712" 
d="M616 782h967v-114h-967q-147 0 -262 4q109 -80 394 -320l-72 -86l-547 461l547 459l72 -84l-230 -195q-63 -53 -164 -127q57 2 262 2z" />
    <glyph glyph-name="arrowup" unicode="&#x2191;" horiz-adv-x="1712" 
d="M911 965v-965h-114v965q0 147 4 262q-94 -123 -320 -391l-86 69l461 549l459 -549l-84 -69q-215 252 -322 391q2 -57 2 -262z" />
    <glyph glyph-name="arrowright" unicode="&#x2192;" horiz-adv-x="1712" 
d="M1094 670h-965v114h965q147 0 262 -4q-145 111 -391 322l69 84l549 -459l-549 -461l-69 86q274 231 391 320q-57 -2 -262 -2z" />
    <glyph glyph-name="arrowdown" unicode="&#x2193;" horiz-adv-x="1712" 
d="M799 487v967h114v-967q0 -147 -4 -262q94 129 322 393l84 -71l-459 -547l-461 547l86 71q29 -35 150 -180t170 -213q-2 57 -2 262z" />
    <glyph glyph-name="uni2196" unicode="&#x2196;" horiz-adv-x="1712" 
d="M1055 1178q-9 -71 -11 -109l-299 25q-96 8 -206 24q8 -8 188 -182l682 -684l-80 -82l-684 684q-125 125 -182 188q18 -115 51 -503l-111 -11l-61 713z" />
    <glyph glyph-name="uni2197" unicode="&#x2197;" horiz-adv-x="1712" 
d="M1348 526q-71 9 -109 11l25 299q8 96 24 206q-8 -8 -182 -188l-684 -682l-82 80l684 684q125 123 188 182q-115 -18 -503 -51l-11 111l713 61z" />
    <glyph glyph-name="uni2198" unicode="&#x2198;" horiz-adv-x="1712" 
d="M696 233q0 50 11 109l299 -25q96 -8 206 -24q-8 8 -188 182l-682 684l80 82l684 -684q125 -125 182 -188q-18 115 -51 503l111 11l61 -713z" />
    <glyph glyph-name="uni2199" unicode="&#x2199;" horiz-adv-x="1712" 
d="M403 885q50 0 109 -11l-25 -299q-8 -96 -24 -206q8 8 182 188l684 682l82 -80l-684 -684q-125 -125 -188 -182q115 18 503 51l11 -111l-713 -61z" />
    <glyph glyph-name="uni21A4" unicode="&#x21a4;" horiz-adv-x="1712" 
d="M1468 287v381h-852q-147 0 -262 4q109 -80 394 -320l-72 -86l-547 461l547 459l72 -84q-293 -248 -394 -322q57 2 262 2h852v383h115v-878h-115z" />
    <glyph glyph-name="uni21A5" unicode="&#x21a5;" horiz-adv-x="1712" 
d="M416 115h381v850q0 147 4 262q-94 -123 -320 -391l-86 69l461 549l459 -549l-84 -69q-215 252 -322 391q2 -57 2 -262v-850h383v-115h-878v115z" />
    <glyph glyph-name="uni21A6" unicode="&#x21a6;" horiz-adv-x="1712" 
d="M244 1165v-381h850q147 0 262 -4q-145 111 -391 322l69 84l549 -459l-549 -461l-69 86q274 231 391 320q-57 -2 -262 -2h-850v-383h-115v878h115z" />
    <glyph glyph-name="uni21A7" unicode="&#x21a7;" horiz-adv-x="1712" 
d="M799 487v852h-383v115h878v-115h-381v-852q0 -147 -4 -262q94 129 322 393l84 -71l-459 -547l-461 547l86 71q29 -35 150 -180t170 -213q-2 57 -2 262z" />
    <glyph glyph-name="uni21B0" unicode="&#x21b0;" horiz-adv-x="1712" 
d="M1468 287v381h-852q-147 0 -262 4q109 -80 394 -320l-72 -86l-547 461l547 459l72 -84q-293 -248 -394 -322q57 2 262 2h967v-495h-115z" />
    <glyph glyph-name="uni21B1" unicode="&#x21b1;" horiz-adv-x="1712" 
d="M244 668v-381h-115v495h965q205 0 262 -2q-139 106 -391 322l69 84l549 -459l-549 -461l-69 86q268 225 391 320q-70 -4 -328 -4h-784z" />
    <glyph glyph-name="uni21B2" unicode="&#x21b2;" horiz-adv-x="1712" 
d="M616 784h852v383h115v-497h-967q-147 0 -262 4l394 -322l-72 -86l-547 461l547 459l72 -84q-264 -227 -394 -322q115 4 262 4z" />
    <glyph glyph-name="uni21B3" unicode="&#x21b3;" horiz-adv-x="1712" 
d="M244 1167v-383h850q147 0 262 -4q-145 111 -391 322l69 84l549 -459l-549 -461l-69 86q223 188 391 322q-115 -4 -262 -4h-965v497h115z" />
    <glyph glyph-name="uni21B4" unicode="&#x21b4;" horiz-adv-x="1712" 
d="M797 487v852h-381v115h495v-967q0 -205 -2 -262q74 100 322 393l84 -71l-459 -547l-461 547l86 71q240 -285 320 -393q-4 115 -4 262z" />
    <glyph glyph-name="carriagereturn" unicode="&#x21b5;" horiz-adv-x="1712" 
d="M616 784h852v383h115v-497h-967q-147 0 -262 4l394 -322l-72 -86l-547 461l547 459l72 -84q-264 -227 -394 -322q115 4 262 4z" />
    <glyph glyph-name="partialdiff" unicode="&#x2202;" horiz-adv-x="1105" 
d="M518 1481q180 0 285 -119q168 -190 168 -686q0 -338 -115 -520t-330 -185q-180 0 -288 120t-109 325q0 205 113 342t286 137t310 -141q-4 186 -39 338q-68 281 -281 280q-102 0 -215 -86l-67 86q141 109 282 109zM260 423q0 -163 72 -252t188 -89q145 0 230 135
q84 135 84 375q-39 86 -120 140t-155 54q-137 0 -218 -100t-81 -263z" />
    <glyph glyph-name="Delta" unicode="&#x2206;" horiz-adv-x="1261" 
d="M1028 117l-403 1138l-398 -1138h801zM1202 -2h-1149l520 1456h101z" />
    <glyph glyph-name="product" unicode="&#x220f;" horiz-adv-x="1294" 
d="M193 1720h909v-2162h-133v2046h-645v-2046h-131v2162z" />
    <glyph glyph-name="summation" unicode="&#x2211;" horiz-adv-x="987" 
d="M899 -442h-811v108l563 973l-563 975v106h811v-116h-659l559 -965l-559 -967h659v-114z" />
    <glyph glyph-name="minus" unicode="&#x2212;" 
d="M188 575h971v-104h-971v104z" />
    <glyph glyph-name="uni2219" unicode="&#x2219;" horiz-adv-x="583" 
d="M379 434h-189v207h189v-207z" />
    <glyph glyph-name="radical" unicode="&#x221a;" horiz-adv-x="1056" 
d="M162 256q-15 -5 -107 -51l-45 92l213 106l312 -645q23 104 198 938q176 834 215 1024h129l-465 -2160h-104z" />
    <glyph glyph-name="infinity" unicode="&#x221e;" horiz-adv-x="1345" 
d="M969 811q103 0 169 -78t66 -200q0 -123 -64 -201t-158 -78q-93 0 -161 52t-147 151q-57 -68 -92 -103q-36 -36 -92 -68t-115 -32q-102 0 -169 76t-67 198t66 201q66 80 156 80q91 0 161 -58t152 -161q53 70 87 108t92 75q58 38 116 38zM1100 528q0 82 -32 131t-85 49
t-103 -33q-50 -34 -78 -64t-75 -85q147 -170 248 -170q125 0 125 172zM375 356q43 0 90 29t77 59t74 82l-30 35q-127 146 -219 146q-57 -1 -91 -51t-32 -128q0 -172 131 -172z" />
    <glyph glyph-name="uni2224" unicode="&#x2224;" horiz-adv-x="583" 
d="M379 434h-189v207h189v-207z" />
    <glyph glyph-name="logicaland" unicode="&#x2227;" horiz-adv-x="583" 
d="M379 434h-189v207h189v-207z" />
    <glyph glyph-name="integral" unicode="&#x222b;" horiz-adv-x="1054" 
d="M438 -211v1710q0 109 54 165t153 56q100 0 180 -73l-53 -82q-49 43 -105 43t-78 -26t-22 -95v-1710q0 -109 -53 -165q-54 -56 -154 -56t-180 73l53 82q49 -43 105 -43t78 26t22 95z" />
    <glyph glyph-name="approxequal" unicode="&#x2248;" 
d="M1159 438q-1 -98 -71 -153t-158 -55t-135 16q-48 16 -145 67t-134 63t-95 13q-58 0 -94 -29t-36 -77h-103q0 100 71 155q71 56 158 56t136 -16t145 -69t134 -65q36 -12 94 -12t95 28q36 28 36 78h102zM291 608h-103q0 100 71 156t158 55q87 0 136 -16q49 -17 145 -69
t134 -64q36 -12 94 -12t95 28q36 29 36 78h102q0 -98 -70 -154q-71 -55 -159 -55q-88 1 -135 17q-48 16 -145 67t-134 63t-95 12t-94 -28q-36 -29 -36 -78z" />
    <glyph glyph-name="notequal" unicode="&#x2260;" 
d="M1159 309h-524l-115 -270l-96 43q66 152 96 227h-332v105h377l94 221h-471v104h517q76 172 118 279l99 -43l-103 -236h340v-104h-383q-66 -147 -96 -221h479v-105z" />
    <glyph glyph-name="lessequal" unicode="&#x2264;" 
d="M1128 166l-940 391v84l940 393l43 -96l-667 -270q-109 -43 -189 -66v-4q90 -29 189 -68l667 -268zM188 -47v104h971v-104h-971z" />
    <glyph glyph-name="greaterequal" unicode="&#x2265;" 
d="M176 938l41 96l942 -393v-84l-942 -391l-41 96q702 286 856 336v4q-80 23 -188 66zM1159 57v-104h-971v104h971z" />
    <glyph glyph-name="dotmath" unicode="&#x22c5;" horiz-adv-x="583" 
d="M379 434h-189v207h189v-207z" />
    <glyph glyph-name="lozenge" unicode="&#x25ca;" horiz-adv-x="1241" 
d="M895 731l-277 643l-274 -645l274 -647zM1028 729l-342 -774h-137l-338 776l338 774h137z" />
    <glyph glyph-name="apple" unicode="&#xf8ff;" horiz-adv-x="1171" 
d="M860 795h-549v-562h549v562zM983 123h-795v782h795v-782z" />
    <glyph glyph-name="one.plf" horiz-adv-x="933" 
d="M676 1411v-1411h-139v1219q-144 -146 -375 -318l-76 98q258 197 467 412h123z" />
    <glyph glyph-name="two.plf" horiz-adv-x="1087" 
d="M936 0h-807v125q199 166 463 461q121 133 164 238t43 223q1 118 -63 192t-192 74t-199 -81t-71 -226q-92 8 -145 14q2 180 111 297q110 117 304 117t296 -112t102 -268t-60 -281q-115 -239 -583 -654q109 2 264 2h373v-121z" />
    <glyph glyph-name="three.plf" horiz-adv-x="1179" 
d="M1034 420q0 -209 -121 -328t-331 -119t-322 119q-111 119 -115 293l144 21q4 -146 78 -228t217 -82t225 81t82 231q0 313 -379 313h-70v117h70q154 0 245 61t91 180t-69 176t-187 57t-188 -60q-71 -60 -78 -169l-144 17q10 147 121 240q111 94 293 94t288 -94t107 -239
q0 -146 -77 -219t-179 -96v-4q97 -12 189 -86q50 -38 80 -110t30 -166z" />
    <glyph glyph-name="four.plf" horiz-adv-x="1130" 
d="M678 449v704l-426 -704h426zM1034 328h-215v-328h-141v328h-561v139l579 944h123v-962h215v-121z" />
    <glyph glyph-name="five.plf" horiz-adv-x="1200" 
d="M630 946q196 0 314 -127t117 -351q0 -224 -125 -358q-124 -136 -322 -136t-316 102t-148 272l143 27q20 -133 101 -206t215 -73t220 98t86 270q0 173 -80 266q-81 93 -227 93q-209 0 -303 -186h-112l38 774h736v-123h-615l-28 -469q110 127 306 127z" />
    <glyph glyph-name="six.plf" horiz-adv-x="1187" 
d="M920 439q0 163 -77 254t-212 91t-227 -93t-91 -245q0 -152 85 -250q84 -98 220 -98t219 89t83 252zM641 905q195 1 309 -123t115 -332q0 -208 -120 -341t-331 -134q-262 0 -381 230q-84 160 -83 448q0 373 141 577t358 204q181 0 271 -100t104 -249l-143 -16
q-13 125 -69 184t-171 60q-147 0 -247 -163t-101 -448q113 203 348 203z" />
    <glyph glyph-name="seven.plf" horiz-adv-x="987" 
d="M911 1411v-113q-432 -551 -469 -1298h-145q27 387 139 693q113 306 332 595h-705v123h848z" />
    <glyph glyph-name="eight.plf" horiz-adv-x="1212" 
d="M606 1313q-118 0 -188 -66q-70 -67 -70 -177t69 -180t189 -71q120 1 188 71t68 180t-69 177q-70 66 -187 66zM606 98q136 0 224 84t88 216t-85 216t-227 84t-226 -84q-85 -84 -85 -216t87 -216t224 -84zM1061 395q0 -184 -127 -302t-329 -118t-329 118t-126 302
q0 150 89 251t193 120v4q-96 29 -161 110t-64 203q0 150 114 250q113 101 285 101t286 -100t114 -238q0 -136 -64 -218t-162 -110v-4q104 -18 192 -118t89 -251z" />
    <glyph glyph-name="nine.plf" horiz-adv-x="1185" 
d="M572 1313q-142 -1 -223 -93t-81 -242t80 -243q80 -92 221 -92t224 91q81 92 81 244t-80 244q-80 91 -222 91zM551 520q-195 0 -311 130t-117 331q0 201 123 327q122 126 338 126t334 -155t116 -482q0 -401 -114 -613q-117 -209 -363 -209q-179 -1 -281 97t-106 258
l143 22q6 -254 246 -254q170 0 251 159t81 445q-102 -182 -340 -182z" />
    <glyph glyph-name="zero.plf" horiz-adv-x="1236" 
d="M946 707q0 297 -84 451t-244 155q-160 0 -244 -155q-84 -156 -85 -452q0 -296 85 -452q84 -156 244 -156t244 156t84 453zM1092 707q0 -340 -122 -536t-352 -196t-352 196q-121 196 -121 538t120 533q120 192 352 192q231 0 353 -194t122 -533z" />
    <glyph glyph-name="parenleft.case" horiz-adv-x="700" 
d="M326 711q0 -248 74 -463t241 -455l-88 -61q-365 475 -365 979t365 979l88 -62q-167 -240 -241 -454t-74 -463z" />
    <glyph glyph-name="parenright.case" horiz-adv-x="700" 
d="M373 710q0 249 -73 464t-241 454l86 62q367 -473 367 -979t-367 -979l-86 61q168 240 241 454t73 463z" />
    <glyph glyph-name="hyphen.case" horiz-adv-x="925" 
d="M754 676h-582v119h582v-119z" />
    <glyph glyph-name="bracketleft.case" horiz-adv-x="706" 
d="M664 -236h-390v1893h390v-109h-261v-1677h261v-107z" />
    <glyph glyph-name="bracketright.case" horiz-adv-x="706" 
d="M432 -236h-389v107h260v1677h-260v109h389v-1893z" />
    <glyph glyph-name="braceleft.case" horiz-adv-x="704" 
d="M502 -236q-250 0 -250 334v338q0 106 -14 148q-23 66 -134 71v113q109 2 134 72q14 39 14 147v334q0 336 250 336h84v-113h-58q-98 0 -125 -63q-18 -39 -18 -156v-342q0 -106 -18 -158q-27 -80 -117 -112v-4q88 -33 117 -111q18 -53 18 -160v-342q0 -117 18 -155
q27 -63 125 -64h58v-113h-84z" />
    <glyph glyph-name="braceright.case" horiz-adv-x="704" 
d="M453 436v-338q0 -145 -37 -213q-66 -121 -215 -121h-82v113h57q96 0 123 64q20 49 20 155v342q0 115 19 160q31 80 115 111v4q-84 31 -115 112q-18 51 -19 158v342q1 107 -23 163t-120 56h-57v113h82q147 0 215 -121q37 -63 37 -215v-334q0 -115 12 -147q24 -70 135 -72
v-113q-113 -6 -135 -71q-12 -35 -12 -148z" />
    <glyph glyph-name="guillemotleft.case" horiz-adv-x="944" 
d="M729 1071q74 -49 78 -53l-246 -354l246 -353l-78 -55l-299 408zM406 256l-300 408l300 407l79 -53l-245 -354l245 -353z" />
    <glyph glyph-name="uni00AD.case" horiz-adv-x="925" 
d="M754 676h-582v119h582v-119z" />
    <glyph glyph-name="guillemotright.case" horiz-adv-x="944" 
d="M514 664l-299 -408l-80 55l246 353l-246 354l80 53zM459 1018q6 5 78 53l299 -407l-299 -408l-78 55l246 353z" />
    <glyph glyph-name="endash.case" horiz-adv-x="1228" 
d="M1126 676h-1024v119h1024v-119z" />
    <glyph glyph-name="emdash.case" horiz-adv-x="2074" 
d="M1794 676h-1515v119h1515v-119z" />
    <glyph glyph-name="guilsinglleft.case" horiz-adv-x="620" 
d="M406 256l-300 408l300 407l79 -53l-245 -354l245 -353z" />
    <glyph glyph-name="guilsinglright.case" horiz-adv-x="620" 
d="M514 664l-299 -408l-80 55l246 353l-246 354l80 53z" />
    <glyph glyph-name="commaaccent" horiz-adv-x="710" 
d="M449 -152v-122q0 -104 -38 -148t-124 -67l-17 67q90 23 90 103h-100v167h189z" />
    <glyph glyph-name="commaturn" horiz-adv-x="710" 
d="M262 1286v123q0 105 38 149t124 66l16 -68q-90 -20 -90 -102h101v-168h-189z" />
    <glyph glyph-name="f_b" horiz-adv-x="1855" 
d="M1315 92q129 0 203 104t73 298q0 194 -73 306q-74 112 -203 112t-202 -116q-73 -114 -73 -293t73 -295t202 -116zM1333 1028q176 0 286 -142t110 -382t-109 -383t-291 -144q-102 1 -178 53t-109 132h-4q0 -59 -8 -162h-129q10 252 10 315v1020q-51 3 -153 17t-192 14
t-124 -54q-33 -54 -32 -177v-131h297v-113h-297v-891h-131v891h-216v113h216v143q0 152 62 244t230 92q82 0 214 -22t257 -27v-445q0 -94 -4 -143h4q33 76 109 129t182 53z" />
    <glyph glyph-name="f_f_j" horiz-adv-x="1865" 
d="M1679 1221h-141v215h141v-215zM709 1335q-78 31 -153 31t-108 -37t-37 -118q-1 -24 -1 -74v-133h501v143q0 336 269 336q96 0 198 -53l-41 -95q-72 33 -133 33q-116 0 -140 -69q-20 -56 -22 -162v-133h633v-1096q0 -96 -9 -150t-44 -98q-68 -88 -191 -88t-208 45l43 102
q61 -31 137 -30t113 42q22 24 25 77q3 54 3 108v975h-502v-891h-131v891h-501v-891h-131v891h-216v113h216v143q0 243 130 308q57 28 149 28t190 -47z" />
    <glyph glyph-name="f_f_t" horiz-adv-x="2050" 
d="M709 1335q-78 31 -153 31t-108 -37t-37 -118q-1 -24 -1 -74v-133h501v143q0 96 18 164q17 68 79 120t168 52t202 -53l-41 -95q-72 33 -133 33q-116 0 -140 -69q-20 -56 -22 -162v-133h502v305l131 57v-362h279v-113h-279v-569q0 -126 29 -178t114 -52t154 29
q31 -80 39 -101q-91 -43 -187 -43q-180 0 -234 108q-46 92 -46 224v582h-502v-891h-131v891h-501v-891h-131v891h-216v113h216v143q0 243 130 308q57 28 151 28t188 -47z" />
    <glyph glyph-name="f_h" horiz-adv-x="1841" 
d="M1661 0h-131v627q0 137 -50 211t-169 74t-194 -91q-75 -90 -75 -246v-575h-131v1335q-51 3 -153 17t-192 14t-124 -54q-33 -54 -32 -177v-131h297v-113h-297v-891h-131v891h-216v113h216v143q0 152 62 244t230 92q82 0 214 -22t257 -27v-422q0 -51 -4 -154h4
q33 76 110 123t177 47q174 0 253 -102t79 -277v-649z" />
    <glyph glyph-name="f_j" horiz-adv-x="1232" 
d="M1047 1221h-142v215h142v-215zM911 -84v975h-501v-891h-131v891h-216v113h216v143q0 336 268 336q96 0 198 -53l-40 -95q-71 33 -133 33q-116 0 -141 -69q-21 -58 -21 -162v-133h632v-1096q8 -336 -244 -336q-123 0 -208 45l43 102q61 -31 137 -30t113 42q22 24 25 77
q3 54 3 108z" />
    <glyph glyph-name="f_k" horiz-adv-x="1753" 
d="M1042 0h-131v1335q-51 3 -153 17t-192 14t-124 -54q-33 -54 -32 -177v-131h297v-113h-297v-891h-131v891h-216v113h216v143q0 158 65 247q66 89 227 89q82 0 214 -22t257 -27v-942l474 512h178l-383 -410l399 -594h-162q-27 43 -145 222q-119 179 -182 278l-179 -187
v-313z" />
    <glyph glyph-name="f_t" horiz-adv-x="1417" 
d="M1042 322q0 -104 15 -142q35 -88 139 -88q74 0 143 29l39 -101q-96 -45 -210 -45t-186 74q-71 74 -71 260v582h-501v-891h-131v891h-216v113h216v143q1 188 69 262t184 74t213 -53l-40 -95q-72 33 -154 33t-119 -63q-23 -39 -22 -168v-133h501v305l131 57v-362h279v-113
h-279v-569z" />
    <glyph glyph-name="f_u" horiz-adv-x="1855" 
d="M717 1331q-76 35 -155 35t-113 -37q-35 -37 -38 -118q-1 -26 -1 -74v-133h622v-637q0 -145 50 -210t171 -65t195 88t74 252v572h131v-693q0 -143 10 -311h-127q-4 45 -8 152h-4q-82 -174 -299 -175q-160 -1 -242 97t-82 268v549h-491v-891h-131v891h-216v113h216v143
q0 243 129 306q58 27 154 27t196 -53z" />
    <glyph glyph-name="f_v" horiz-adv-x="1658" 
d="M410 891v-891h-131v891h-216v113h216v143q1 188 69 262t184 74t216 -47l-39 -101q-78 31 -142 31q-100 0 -135 -59q-23 -39 -22 -170v-133h505l213 -629q29 -82 62 -209h4q33 127 61 209l213 629h138l-353 -1004h-127l-313 891h-403z" />
    <glyph glyph-name="f_w" horiz-adv-x="2025" 
d="M410 891v-891h-131v891h-216v113h216v143q1 188 69 262t184 74t216 -47l-39 -101q-78 31 -142 31q-100 0 -135 -59q-23 -39 -22 -170v-133h518l141 -621q23 -94 43 -221h4q14 109 41 221l139 621h144l141 -621q20 -92 41 -223h4q20 133 43 223l139 621h131l-249 -1004
h-131l-148 608q-31 129 -41 234h-4q-12 -96 -45 -234l-143 -608h-138l-219 891h-411z" />
    <glyph glyph-name="f_y" horiz-adv-x="1662" 
d="M709 1335q-78 31 -153 31t-108 -37t-37 -118q-1 -24 -1 -74v-133h501q41 -121 150 -433t127 -393h4q14 63 61 197l215 629h142l-426 -1205q-40 -115 -102 -171t-164 -56t-199 57q33 66 47 99q82 -41 141 -41q59 1 95 33t61 100l63 182l-323 889h-393v-891h-131v891h-216
v113h216v143q0 242 132 308q56 28 147 28t190 -47z" />
    <glyph glyph-name="t_f" horiz-adv-x="1460" 
d="M1253 1366q-100 0 -135 -59q-23 -39 -22 -170v-133h284v-113h-284v-891h-131v891h-562v-569q0 -92 17 -142q31 -88 137 -88q74 0 143 29l39 -101q-93 -45 -207 -45t-187 74t-73 260v582h-209v113h209v305l131 57v-362h562v143q1 188 69 262t185 74t215 -47l-39 -101
q-78 31 -142 31z" />
    <glyph glyph-name="t_i" horiz-adv-x="1282" 
d="M1098 1221h-142v215h142v-215zM1092 0h-131v891h-558v-569q0 -92 17 -142q31 -88 137 -88q74 0 143 29l39 -101q-93 -45 -207 -45t-187 74t-73 260v582h-209v113h209v305l131 57v-362h689v-1004z" />
    <glyph glyph-name="t_j" horiz-adv-x="1302" 
d="M1116 1221h-141v215h141v-215zM1110 1004v-1096q0 -98 -9 -152t-42 -96q-70 -88 -192 -88t-208 45l41 102q63 -31 140 -30t106 35q29 35 31 83q2 49 2 77v1007h-576v-569q0 -130 31 -180t114 -50t152 29q8 -20 39 -101q-90 -43 -185 -43q-176 0 -233 106q-47 84 -49 226
v582h-209v113h209v305q76 31 131 57v-362h707z" />
    <glyph glyph-name="t_t" horiz-adv-x="1454" 
d="M1208 -25q-114 0 -187 74t-73 260v582h-545v-569q0 -92 17 -142q31 -88 137 -88q74 0 143 29l39 -101q-93 -45 -207 -45t-187 74t-73 260v582h-209v113h209v305l131 57v-362h545v305l131 57v-362h279v-113h-279v-569q0 -92 17 -142q31 -88 137 -88q73 0 143 29l39 -101
q-93 -45 -207 -45z" />
    <glyph glyph-name="t_t_f" horiz-adv-x="2125" 
d="M1208 -25q-114 0 -187 74t-73 260v582h-545v-569q0 -92 17 -142q31 -88 137 -88q74 0 143 29l39 -101q-93 -45 -207 -45t-187 74t-73 260v582h-209v113h209v305l131 57v-362h545v305l131 57v-362h551v143q0 188 69 262t185 74t215 -47l-39 -101q-78 31 -141 31
q-100 0 -135 -59q-23 -39 -23 -170v-133h285v-113h-285v-891h-131v891h-551v-569q0 -92 17 -142q31 -88 137 -88q73 0 143 29l39 -101q-93 -45 -207 -45z" />
    <glyph glyph-name="t_t_j" horiz-adv-x="1978" 
d="M1792 1221h-141v215h141v-215zM1218 -25q-114 0 -187 74t-73 260v582h-555v-569q0 -92 17 -142q31 -88 137 -88q74 0 143 29l39 -101q-93 -45 -207 -45t-187 74t-73 260v582h-209v113h209v305l131 57v-362h555v305l132 57v-362h698v-1098q0 -96 -9 -150t-44 -98
q-72 -86 -196 -86t-204 45l43 100q68 -31 138 -30q104 0 129 84q12 37 12 145v975h-567v-569q0 -92 16 -142q31 -88 137 -88q73 0 143 29l39 -101q-93 -45 -207 -45z" />
    <glyph glyph-name="t_u" horiz-adv-x="1890" 
d="M1565 152h-4q-86 -174 -301 -175q-172 1 -248 103t-76 305v506h-533v-569q0 -130 31 -180t114 -50t152 29q8 -20 39 -101q-90 -43 -185 -43q-176 0 -233 106q-47 84 -49 226v582h-209v113h209v305q76 31 131 57v-362h664v-590q0 -176 46 -249t171 -73t200 88t75 252v572
h131v-693q0 -178 8 -311h-127q-6 123 -6 152z" />
    <glyph glyph-name="t_v" horiz-adv-x="1652" 
d="M403 891v-569q0 -92 17 -142q31 -88 137 -88q74 0 143 29l39 -101q-93 -45 -207 -45t-187 74t-73 260v582h-209v113h209v305l131 57v-362h506l213 -629q29 -82 62 -209h4q33 127 61 209l213 629h137l-352 -1004h-127l-313 891h-404z" />
    <glyph glyph-name="t_w" horiz-adv-x="2056" 
d="M403 891v-569q0 -92 17 -142q31 -88 137 -88q74 0 143 29l39 -101q-93 -45 -207 -45t-187 74t-73 260v582h-209v113h209v305l131 57v-362h555l142 -621q23 -94 43 -221h4q14 109 41 221l139 621h143l142 -621q20 -92 41 -223h4q20 133 43 223l139 621h131l-250 -1004
h-131l-147 608q-31 129 -41 234h-4q-12 -96 -45 -234l-144 -608h-137l-219 891h-449z" />
    <glyph glyph-name="t_y" horiz-adv-x="1677" 
d="M934 -428q-102 0 -201 57q33 66 47 99q82 -41 142 -41q60 1 95 33q36 32 60 100l64 182l-324 889h-414v-569q0 -122 31 -176t114 -54t152 29q8 -20 39 -101q-90 -43 -185 -43q-176 0 -233 106q-47 84 -49 226v582h-209v113h209v305q76 31 131 57v-362h523
q136 -403 198 -578q62 -176 78 -248h4q18 76 43 144l35 102q154 453 199 580h141l-426 -1205q-39 -115 -101 -171q-61 -56 -163 -56z" />
    <glyph glyph-name="caron.alt" horiz-adv-x="460" 
d="M360 1411l-155 -334l-74 27q16 59 50 179t50 179q43 -18 129 -51z" />
    <glyph glyph-name="arrowleft.salt" horiz-adv-x="2263" 
d="M616 782h1518v-112h-1518q-170 0 -284 4q61 -51 207 -197l374 -383l-75 -80l-709 713l709 711l75 -78l-376 -385q-143 -143 -205 -195q57 2 284 2z" />
    <glyph glyph-name="arrowup.salt" horiz-adv-x="2263" 
d="M1188 1239v-1515h-115v1515q0 172 4 287q-71 -86 -155 -167t-161 -158t-141 -140t-122 -119l-78 76l710 711l713 -709l-80 -76l-383 377q-119 115 -196 205q4 -115 4 -287z" />
    <glyph glyph-name="arrowright.salt" horiz-adv-x="2260" 
d="M1642 670h-1515v112h1515q172 0 287 -4q-86 72 -235 226t-228 232q-80 79 -120 122l75 80l225 -225q144 -144 262 -263t224 -223l-709 -713q-54 54 -75 78l376 385q119 123 205 195q-57 -2 -287 -2z" />
    <glyph glyph-name="arrowdown.salt" horiz-adv-x="2263" 
d="M1073 211v1518h115v-1518q0 -170 -4 -285q53 61 196 205l383 377l80 -76l-713 -708l-710 708l78 76l383 -375q145 -145 196 -207q-4 115 -4 285z" />
    <glyph glyph-name="uni21A4.salt" horiz-adv-x="2263" 
d="M2023 25v645h-1407q-170 0 -284 4q61 -51 207 -197l374 -383l-75 -80l-709 713l709 711l75 -78l-376 -385q-143 -143 -205 -195q57 2 284 2h1407v648h111v-1405h-111z" />
    <glyph glyph-name="uni21A5.salt" horiz-adv-x="2263" 
d="M428 -166h645v1405q0 172 4 287q-72 -86 -196 -207l-383 -377l-80 76l712 711l711 -709l-78 -76l-385 377q-123 119 -194 205q2 -57 2 -287v-1405h647v-110h-1405v110z" />
    <glyph glyph-name="uni21A6.salt" horiz-adv-x="2263" 
d="M1645 670h-1405v-647h-111v1404h111v-645h1405q172 0 286 -4q-86 72 -235 226t-228 232q-80 79 -120 122l75 80l225 -225q144 -144 262 -263t224 -223l-709 -713q-54 54 -75 78l376 385q119 123 205 195q-57 -2 -286 -2z" />
    <glyph glyph-name="uni21A7.salt" horiz-adv-x="2263" 
d="M1075 211v1405h-647v110h1405v-110h-645v-1405q0 -170 -4 -285q63 76 158 168t160 156t142 140q77 77 119 118l80 -76l-710 -708l-713 706l78 76l385 -377q131 -127 194 -203q-2 57 -2 285z" />
    <glyph glyph-name="uni21B0.salt" horiz-adv-x="2263" 
d="M2023 25v645h-1407q-170 0 -284 4q61 -51 207 -197l374 -383l-75 -80l-709 713l709 711l75 -78l-376 -385q-143 -143 -205 -195q57 2 284 2h1518v-757h-111z" />
    <glyph glyph-name="uni21B1.salt" horiz-adv-x="2263" 
d="M240 670v-645h-111v757h1516q229 0 286 -2q-86 72 -205 195l-376 385l75 78l709 -711l-711 -713l-75 80l376 383q121 125 207 197q-115 -4 -286 -4h-1405z" />
    <glyph glyph-name="uni21B2.salt" horiz-adv-x="2263" 
d="M2023 780v645h111v-757h-1518q-227 0 -284 2q61 -51 205 -195l376 -385l-75 -78l-709 711l709 713l75 -80l-374 -383q-145 -145 -207 -197q115 4 284 4h1407z" />
    <glyph glyph-name="uni21B3.salt" horiz-adv-x="2263" 
d="M240 1425v-645h1405q172 0 286 -4q-86 72 -207 197l-376 383l75 80l711 -713l-709 -711l-75 78l376 385q119 123 205 195q-57 -2 -286 -2h-1516v757h111z" />
    <glyph glyph-name="uni21B4.salt" horiz-adv-x="2263" 
d="M1075 1616h-645v110h758v-1515q0 -229 -2 -287q72 86 194 205l385 377l78 -76l-710 -709l-713 711l80 76l383 -377q125 -121 196 -207q-4 115 -4 287v1405z" />
    <glyph glyph-name="carriagereturn.salt" horiz-adv-x="2263" 
d="M2023 780v645h111v-757h-1518q-227 0 -284 2q61 -51 205 -195l376 -385l-75 -78l-709 711l709 713l75 -80l-374 -383q-145 -145 -207 -197q115 4 284 4h1407z" />
    <glyph glyph-name="zero.plfslash" horiz-adv-x="1236" 
d="M946 707q0 215 -49 366l-504 -852q81 -123 233 -123t236 156t84 453zM611 1313q-153 -1 -237 -155t-85 -420q0 -266 51 -408l504 856q-80 127 -233 127zM1092 707q0 -340 -122 -536t-352 -196t-352 196q-121 196 -121 538t120 533q120 192 352 192q231 0 353 -194
t122 -533z" />
    <glyph glyph-name="zero.tlfslash" horiz-adv-x="1171" 
d="M915 707q0 219 -51 366l-504 -852q82 -123 234 -123t236 156t85 453zM578 1313q-152 -1 -236 -155t-84 -419t49 -409l506 856q-83 127 -235 127zM1059 707q0 -340 -121 -536t-351 -196t-353 196q-122 196 -122 538t121 533q121 192 353 192t352 -194q121 -194 121 -533z
" />
    <glyph glyph-name="at.case" horiz-adv-x="1681" 
d="M995 834q0 174 -123 174q-78 0 -135 -72q-102 -129 -100 -324q0 -240 135 -239q160 0 212 333q11 71 11 128zM870 -141q-178 0 -340 82t-265 257t-103 416q0 418 217 668t565 250q278 0 438 -195t160 -473t-112 -444t-285 -166q-72 0 -118 40t-58 109h-4
q-76 -150 -220 -149q-121 0 -183 98t-62 234q0 294 165 456q87 86 201 86q61 0 109 -34q47 -35 61 -95h6l39 103h127q-41 -119 -67 -287l-43 -260q-10 -61 -10 -105t23 -68q24 -24 56 -24q115 0 190 136t75 372q0 234 -130 400t-362 166q-299 0 -482 -224t-184 -594
q0 -307 178 -482t443 -175q133 0 264 52t199 130l57 -69q-76 -92 -221 -152q-146 -60 -324 -59z" />
    <glyph glyph-name="bar.case" horiz-adv-x="514" 
d="M315 -381h-118v2204h118v-2204z" />
    <glyph glyph-name="plus.case" 
d="M1159 674h-432v-428h-106v428h-433v104h433v426h106v-426h432v-104z" />
    <glyph glyph-name="minus.case" 
d="M188 776h971v-104h-971v104z" />
    <glyph glyph-name="plusminus.case" 
d="M1159 674h-432v-428h-106v428h-433v104h433v426h106v-426h432v-104zM1159 0h-971v104h971v-104z" />
    <glyph glyph-name="multiply.case" 
d="M1090 324l-74 -74l-338 338l-338 -338l-74 74l338 338l-338 337l74 74l338 -338l338 338l74 -74l-338 -337z" />
    <glyph glyph-name="divide.case" 
d="M768 264h-188v207h188v-207zM768 983h-188v207h188v-207zM1159 674h-971v104h971v-104z" />
    <glyph glyph-name="equal.case" 
d="M1159 444h-971v105h971v-105zM1159 770h-971v104h971v-104z" />
    <glyph glyph-name="notequal.case" 
d="M1159 874v-104h-383q-66 -147 -96 -221h479v-105h-524l-115 -272l-96 45q66 152 96 227h-332v105h377l94 221h-471v104h517q41 92 118 277l99 -41l-103 -236h340z" />
    <glyph glyph-name="approxequal.case" 
d="M421 526q-58 0 -94 -28t-36 -78h-103q0 98 71 153t158 55t136 -16t145 -67t134 -63q36 -12 94 -13q58 0 95 29q36 29 36 77h102q-1 -100 -71 -155t-158 -55q-88 1 -136 17q-49 16 -145 68t-133 64t-95 12zM930 690q-88 0 -136 16q-49 16 -145 69t-133 65t-95 12t-94 -29
t-36 -78h-103q0 97 71 153t158 56t136 -16t145 -68t134 -63q36 -12 94 -12q58 1 95 29q36 28 36 77h102q0 -100 -70 -156q-71 -55 -159 -55z" />
    <glyph glyph-name="less.case" 
d="M481 567l682 -327q-33 -61 -47 -95l-938 467v99q211 101 938 465l47 -95l-661 -319q-139 -68 -228 -98v-5q55 -20 207 -92z" />
    <glyph glyph-name="greater.case" 
d="M231 145l-47 95l602 290q215 104 285 129v5q-88 31 -225 98l-662 319q14 33 47 95l936 -465v-99z" />
    <glyph glyph-name="lessequal.case" 
d="M1128 225q-87 35 -940 391v84l940 394l43 -97l-667 -270q-109 -43 -189 -65v-5q90 -29 189 -67l667 -268zM188 0v104h971v-104h-971z" />
    <glyph glyph-name="greaterequal.case" 
d="M176 997l41 97l942 -394v-84l-942 -391l-41 97q709 289 856 335v5q-80 23 -188 65zM1159 104v-104h-971v104h971z" />
    <glyph glyph-name="logicalnot.case" 
d="M1171 434h-114v334h-881v115h995v-449z" />
    <glyph glyph-name="infinity.case" horiz-adv-x="1345" 
d="M969 944q103 0 169 -76t66 -200q0 -123 -64 -202t-165 -79q-59 0 -117 33q-58 34 -95 70q-36 36 -89 102q-55 -68 -91 -104q-37 -36 -93 -68t-115 -33q-102 0 -169 76t-67 198q0 121 66 201t156 80q91 0 161 -57t152 -160q53 70 88 108q35 39 92 75t115 36zM1100 666
q0 176 -127 176q-43 0 -93 -34t-78 -64t-75 -85q147 -170 248 -170q125 1 125 177zM375 489q43 0 90 29t77 59t74 82l-30 37q-121 141 -219 144q-57 0 -91 -50t-32 -128q0 -173 131 -173z" />
    <glyph glyph-name="uni2196.salt" horiz-adv-x="2263" 
d="M424 1436l1003 2l-2 -109l-538 -6q-203 0 -283 6q43 -39 203 -199l1073 -1073l-80 -80l-1073 1074q-141 141 -199 204q8 -80 9 -286l-7 -535l-110 -4z" />
    <glyph glyph-name="uni2197.salt" horiz-adv-x="2263" 
d="M1878 1434l2 -1004l-108 2l-7 539q0 203 7 282q-39 -43 -199 -202l-1073 -1074l-80 80l1073 1073q141 139 205 199q-80 -8 -287 -8l-534 6l-5 111z" />
    <glyph glyph-name="uni2198.salt" horiz-adv-x="2263" 
d="M1876 -20l-1004 -3l2 109l539 6q203 0 283 -6q-43 39 -203 199l-1073 1073l80 80l1073 -1073q141 -139 199 -205q-8 80 -9 286l6 535l111 4z" />
    <glyph glyph-name="uni2199.salt" horiz-adv-x="2263" 
d="M422 -18l-2 1003l108 -2l7 -539q0 -203 -7 -282q39 43 199 203l1073 1073l80 -80l-1073 -1073q-139 -141 -205 -199q80 8 287 8l534 -6l4 -111z" />
    <glyph glyph-name="l.salt" horiz-adv-x="614" 
d="M203 311v1143h131v-1141q0 -104 15 -147q15 -44 42 -60t83 -16t106 37l59 -92q-88 -61 -202 -61t-183 89q-33 43 -42 97t-9 151z" />
    <glyph glyph-name="fl.salt" horiz-adv-x="1323" 
d="M911 311v1024q-51 3 -153 17t-192 14t-124 -54q-33 -54 -32 -177v-131h297v-113h-297v-891h-131v891h-216v113h216v143q0 158 65 247q66 89 227 89q89 0 221 -22t250 -27v-1121q0 -170 58 -207q27 -16 83 -16t105 37l60 -92q-88 -61 -202 -61t-183 89q-33 43 -43 97
t-9 151z" />
    <glyph glyph-name="uniFB04.salt" horiz-adv-x="1957" 
d="M558 1368q-68 0 -102 -34t-40 -76t-6 -121v-133h499v143q0 336 295 336q86 0 217 -22t252 -27v-1121q-1 -105 15 -148q28 -75 105 -75t126 37l59 -92q-88 -61 -202 -61t-183 89q-33 43 -42 97t-9 151v1024q-49 3 -151 17q-103 14 -193 14t-124 -55t-34 -176v-131h287
v-113h-287v-891h-131v891h-499v-891h-131v891h-216v113h216v143q0 336 268 336q94 0 188 -45q-26 -70 -39 -101q-70 31 -138 31z" />
    </font>
</defs>
</svg>
